M48
; DRILL file {KiCad (5.1.5)-3} date 2021/4/9 星期五 15:24:38
; FORMAT={-:-/ absolute / inch / decimal}
; #@! TF.CreationDate,2021-04-09T15:24:38+08:00
; #@! TF.GenerationSoftware,Kicad,Pcbnew,(5.1.5)-3
; #@! TF.FileFunction,Plated,1,2,PTH
FMAT,2
INCH
T1C0.0157
T2C0.0295
T3C0.0394
%
G90
G05
T1
X4.1339Y-2.62
X4.1339Y-3.3858
X4.1732Y-3.5827
X4.2087Y-2.1969
X4.2372Y-2.2966
X4.2385Y-2.0585
X4.2913Y-3.2283
X4.3189Y-3.4843
X4.3362Y-2.8412
X4.4291Y-3.2283
X4.4488Y-1.9685
X4.4488Y-2.2047
X4.4567Y-3.7795
X4.4961Y-3.4488
X4.5669Y-3.5906
X4.5866Y-2.0591
X4.5898Y-2.0085
X4.6088Y-3.6811
X4.6457Y-3.2835
X4.7869Y-3.4168
X4.8031Y-3.2677
X4.815Y-3.4961
X4.8425Y-2.126
X4.8937Y-3.4488
X4.9409Y-3.8189
X4.9686Y-3.1546
X4.9803Y-2.4585
X5.0512Y-2.6575
X5.0787Y-2.3622
X5.0787Y-2.9528
T2
X4.9016Y-3.7205
X4.9803Y-3.7205
T3
X4.124Y-2.2146
X4.124Y-2.36
X5.1378Y-2.13
X5.1378Y-1.9882
T0
M30
