G04 #@! TF.GenerationSoftware,KiCad,Pcbnew,(5.1.5)-3*
G04 #@! TF.CreationDate,2021-04-12T22:21:49+08:00*
G04 #@! TF.ProjectId,parasite,70617261-7369-4746-952e-6b696361645f,1.1.0*
G04 #@! TF.SameCoordinates,Original*
G04 #@! TF.FileFunction,Copper,L1,Top*
G04 #@! TF.FilePolarity,Positive*
%FSLAX46Y46*%
G04 Gerber Fmt 4.6, Leading zero omitted, Abs format (unit mm)*
G04 Created by KiCad (PCBNEW (5.1.5)-3) date 2021-04-12 22:21:49*
%MOMM*%
%LPD*%
G04 APERTURE LIST*
%ADD10O,1.700000X1.700000*%
%ADD11R,1.700000X1.700000*%
%ADD12R,1.600000X2.000000*%
%ADD13R,5.000000X5.000000*%
%ADD14R,2.000000X0.900000*%
%ADD15R,0.900000X2.000000*%
%ADD16C,0.100000*%
%ADD17R,0.800000X0.900000*%
%ADD18R,1.700000X1.300000*%
%ADD19O,1.200000X1.750000*%
%ADD20R,1.000000X2.500000*%
%ADD21R,2.000000X4.000000*%
%ADD22C,1.000000*%
%ADD23C,0.800000*%
%ADD24C,0.250000*%
%ADD25C,0.500000*%
%ADD26C,10.000000*%
%ADD27C,0.254000*%
G04 APERTURE END LIST*
D10*
X130302000Y-81788000D03*
D11*
X130302000Y-84328000D03*
D10*
X130810000Y-53975000D03*
D11*
X130810000Y-51435000D03*
D12*
X131000000Y-68700000D03*
X131000000Y-63300000D03*
X105000000Y-68700000D03*
X105000000Y-63300000D03*
D13*
X117000000Y-57245000D03*
D14*
X109500000Y-49745000D03*
X109500000Y-51015000D03*
X109500000Y-52285000D03*
X109500000Y-53555000D03*
X109500000Y-54825000D03*
X109500000Y-56095000D03*
X109500000Y-57365000D03*
X109500000Y-58635000D03*
X109500000Y-59905000D03*
X109500000Y-61175000D03*
X109500000Y-62445000D03*
X109500000Y-63715000D03*
X109500000Y-64985000D03*
X109500000Y-66255000D03*
D15*
X112285000Y-67255000D03*
X113555000Y-67255000D03*
X114825000Y-67255000D03*
X116095000Y-67255000D03*
X117365000Y-67255000D03*
X118635000Y-67255000D03*
X119905000Y-67255000D03*
X121175000Y-67255000D03*
X122445000Y-67255000D03*
X123715000Y-67255000D03*
D14*
X126500000Y-66255000D03*
X126500000Y-64985000D03*
X126500000Y-63715000D03*
X126500000Y-62445000D03*
X126500000Y-61175000D03*
X126500000Y-59905000D03*
X126500000Y-58635000D03*
X126500000Y-57365000D03*
X126500000Y-56095000D03*
X126500000Y-54825000D03*
X126500000Y-53555000D03*
X126500000Y-52285000D03*
X126500000Y-51015000D03*
X126500000Y-49745000D03*
G04 #@! TA.AperFunction,SMDPad,CuDef*
D16*
G36*
X118080142Y-74988674D02*
G01*
X118103803Y-74992184D01*
X118127007Y-74997996D01*
X118149529Y-75006054D01*
X118171153Y-75016282D01*
X118191670Y-75028579D01*
X118210883Y-75042829D01*
X118228607Y-75058893D01*
X118244671Y-75076617D01*
X118258921Y-75095830D01*
X118271218Y-75116347D01*
X118281446Y-75137971D01*
X118289504Y-75160493D01*
X118295316Y-75183697D01*
X118298826Y-75207358D01*
X118300000Y-75231250D01*
X118300000Y-75718750D01*
X118298826Y-75742642D01*
X118295316Y-75766303D01*
X118289504Y-75789507D01*
X118281446Y-75812029D01*
X118271218Y-75833653D01*
X118258921Y-75854170D01*
X118244671Y-75873383D01*
X118228607Y-75891107D01*
X118210883Y-75907171D01*
X118191670Y-75921421D01*
X118171153Y-75933718D01*
X118149529Y-75943946D01*
X118127007Y-75952004D01*
X118103803Y-75957816D01*
X118080142Y-75961326D01*
X118056250Y-75962500D01*
X117143750Y-75962500D01*
X117119858Y-75961326D01*
X117096197Y-75957816D01*
X117072993Y-75952004D01*
X117050471Y-75943946D01*
X117028847Y-75933718D01*
X117008330Y-75921421D01*
X116989117Y-75907171D01*
X116971393Y-75891107D01*
X116955329Y-75873383D01*
X116941079Y-75854170D01*
X116928782Y-75833653D01*
X116918554Y-75812029D01*
X116910496Y-75789507D01*
X116904684Y-75766303D01*
X116901174Y-75742642D01*
X116900000Y-75718750D01*
X116900000Y-75231250D01*
X116901174Y-75207358D01*
X116904684Y-75183697D01*
X116910496Y-75160493D01*
X116918554Y-75137971D01*
X116928782Y-75116347D01*
X116941079Y-75095830D01*
X116955329Y-75076617D01*
X116971393Y-75058893D01*
X116989117Y-75042829D01*
X117008330Y-75028579D01*
X117028847Y-75016282D01*
X117050471Y-75006054D01*
X117072993Y-74997996D01*
X117096197Y-74992184D01*
X117119858Y-74988674D01*
X117143750Y-74987500D01*
X118056250Y-74987500D01*
X118080142Y-74988674D01*
G37*
G04 #@! TD.AperFunction*
G04 #@! TA.AperFunction,SMDPad,CuDef*
G36*
X118080142Y-73113674D02*
G01*
X118103803Y-73117184D01*
X118127007Y-73122996D01*
X118149529Y-73131054D01*
X118171153Y-73141282D01*
X118191670Y-73153579D01*
X118210883Y-73167829D01*
X118228607Y-73183893D01*
X118244671Y-73201617D01*
X118258921Y-73220830D01*
X118271218Y-73241347D01*
X118281446Y-73262971D01*
X118289504Y-73285493D01*
X118295316Y-73308697D01*
X118298826Y-73332358D01*
X118300000Y-73356250D01*
X118300000Y-73843750D01*
X118298826Y-73867642D01*
X118295316Y-73891303D01*
X118289504Y-73914507D01*
X118281446Y-73937029D01*
X118271218Y-73958653D01*
X118258921Y-73979170D01*
X118244671Y-73998383D01*
X118228607Y-74016107D01*
X118210883Y-74032171D01*
X118191670Y-74046421D01*
X118171153Y-74058718D01*
X118149529Y-74068946D01*
X118127007Y-74077004D01*
X118103803Y-74082816D01*
X118080142Y-74086326D01*
X118056250Y-74087500D01*
X117143750Y-74087500D01*
X117119858Y-74086326D01*
X117096197Y-74082816D01*
X117072993Y-74077004D01*
X117050471Y-74068946D01*
X117028847Y-74058718D01*
X117008330Y-74046421D01*
X116989117Y-74032171D01*
X116971393Y-74016107D01*
X116955329Y-73998383D01*
X116941079Y-73979170D01*
X116928782Y-73958653D01*
X116918554Y-73937029D01*
X116910496Y-73914507D01*
X116904684Y-73891303D01*
X116901174Y-73867642D01*
X116900000Y-73843750D01*
X116900000Y-73356250D01*
X116901174Y-73332358D01*
X116904684Y-73308697D01*
X116910496Y-73285493D01*
X116918554Y-73262971D01*
X116928782Y-73241347D01*
X116941079Y-73220830D01*
X116955329Y-73201617D01*
X116971393Y-73183893D01*
X116989117Y-73167829D01*
X117008330Y-73153579D01*
X117028847Y-73141282D01*
X117050471Y-73131054D01*
X117072993Y-73122996D01*
X117096197Y-73117184D01*
X117119858Y-73113674D01*
X117143750Y-73112500D01*
X118056250Y-73112500D01*
X118080142Y-73113674D01*
G37*
G04 #@! TD.AperFunction*
G04 #@! TA.AperFunction,SMDPad,CuDef*
G36*
X115280142Y-73238674D02*
G01*
X115303803Y-73242184D01*
X115327007Y-73247996D01*
X115349529Y-73256054D01*
X115371153Y-73266282D01*
X115391670Y-73278579D01*
X115410883Y-73292829D01*
X115428607Y-73308893D01*
X115444671Y-73326617D01*
X115458921Y-73345830D01*
X115471218Y-73366347D01*
X115481446Y-73387971D01*
X115489504Y-73410493D01*
X115495316Y-73433697D01*
X115498826Y-73457358D01*
X115500000Y-73481250D01*
X115500000Y-73968750D01*
X115498826Y-73992642D01*
X115495316Y-74016303D01*
X115489504Y-74039507D01*
X115481446Y-74062029D01*
X115471218Y-74083653D01*
X115458921Y-74104170D01*
X115444671Y-74123383D01*
X115428607Y-74141107D01*
X115410883Y-74157171D01*
X115391670Y-74171421D01*
X115371153Y-74183718D01*
X115349529Y-74193946D01*
X115327007Y-74202004D01*
X115303803Y-74207816D01*
X115280142Y-74211326D01*
X115256250Y-74212500D01*
X114343750Y-74212500D01*
X114319858Y-74211326D01*
X114296197Y-74207816D01*
X114272993Y-74202004D01*
X114250471Y-74193946D01*
X114228847Y-74183718D01*
X114208330Y-74171421D01*
X114189117Y-74157171D01*
X114171393Y-74141107D01*
X114155329Y-74123383D01*
X114141079Y-74104170D01*
X114128782Y-74083653D01*
X114118554Y-74062029D01*
X114110496Y-74039507D01*
X114104684Y-74016303D01*
X114101174Y-73992642D01*
X114100000Y-73968750D01*
X114100000Y-73481250D01*
X114101174Y-73457358D01*
X114104684Y-73433697D01*
X114110496Y-73410493D01*
X114118554Y-73387971D01*
X114128782Y-73366347D01*
X114141079Y-73345830D01*
X114155329Y-73326617D01*
X114171393Y-73308893D01*
X114189117Y-73292829D01*
X114208330Y-73278579D01*
X114228847Y-73266282D01*
X114250471Y-73256054D01*
X114272993Y-73247996D01*
X114296197Y-73242184D01*
X114319858Y-73238674D01*
X114343750Y-73237500D01*
X115256250Y-73237500D01*
X115280142Y-73238674D01*
G37*
G04 #@! TD.AperFunction*
G04 #@! TA.AperFunction,SMDPad,CuDef*
G36*
X115280142Y-75113674D02*
G01*
X115303803Y-75117184D01*
X115327007Y-75122996D01*
X115349529Y-75131054D01*
X115371153Y-75141282D01*
X115391670Y-75153579D01*
X115410883Y-75167829D01*
X115428607Y-75183893D01*
X115444671Y-75201617D01*
X115458921Y-75220830D01*
X115471218Y-75241347D01*
X115481446Y-75262971D01*
X115489504Y-75285493D01*
X115495316Y-75308697D01*
X115498826Y-75332358D01*
X115500000Y-75356250D01*
X115500000Y-75843750D01*
X115498826Y-75867642D01*
X115495316Y-75891303D01*
X115489504Y-75914507D01*
X115481446Y-75937029D01*
X115471218Y-75958653D01*
X115458921Y-75979170D01*
X115444671Y-75998383D01*
X115428607Y-76016107D01*
X115410883Y-76032171D01*
X115391670Y-76046421D01*
X115371153Y-76058718D01*
X115349529Y-76068946D01*
X115327007Y-76077004D01*
X115303803Y-76082816D01*
X115280142Y-76086326D01*
X115256250Y-76087500D01*
X114343750Y-76087500D01*
X114319858Y-76086326D01*
X114296197Y-76082816D01*
X114272993Y-76077004D01*
X114250471Y-76068946D01*
X114228847Y-76058718D01*
X114208330Y-76046421D01*
X114189117Y-76032171D01*
X114171393Y-76016107D01*
X114155329Y-75998383D01*
X114141079Y-75979170D01*
X114128782Y-75958653D01*
X114118554Y-75937029D01*
X114110496Y-75914507D01*
X114104684Y-75891303D01*
X114101174Y-75867642D01*
X114100000Y-75843750D01*
X114100000Y-75356250D01*
X114101174Y-75332358D01*
X114104684Y-75308697D01*
X114110496Y-75285493D01*
X114118554Y-75262971D01*
X114128782Y-75241347D01*
X114141079Y-75220830D01*
X114155329Y-75201617D01*
X114171393Y-75183893D01*
X114189117Y-75167829D01*
X114208330Y-75153579D01*
X114228847Y-75141282D01*
X114250471Y-75131054D01*
X114272993Y-75122996D01*
X114296197Y-75117184D01*
X114319858Y-75113674D01*
X114343750Y-75112500D01*
X115256250Y-75112500D01*
X115280142Y-75113674D01*
G37*
G04 #@! TD.AperFunction*
D17*
X110000000Y-92500000D03*
X110950000Y-94500000D03*
X109050000Y-94500000D03*
X106950000Y-89000000D03*
X107900000Y-91000000D03*
X106000000Y-91000000D03*
G04 #@! TA.AperFunction,SMDPad,CuDef*
D16*
G36*
X119205142Y-92801174D02*
G01*
X119228803Y-92804684D01*
X119252007Y-92810496D01*
X119274529Y-92818554D01*
X119296153Y-92828782D01*
X119316670Y-92841079D01*
X119335883Y-92855329D01*
X119353607Y-92871393D01*
X119369671Y-92889117D01*
X119383921Y-92908330D01*
X119396218Y-92928847D01*
X119406446Y-92950471D01*
X119414504Y-92972993D01*
X119420316Y-92996197D01*
X119423826Y-93019858D01*
X119425000Y-93043750D01*
X119425000Y-93956250D01*
X119423826Y-93980142D01*
X119420316Y-94003803D01*
X119414504Y-94027007D01*
X119406446Y-94049529D01*
X119396218Y-94071153D01*
X119383921Y-94091670D01*
X119369671Y-94110883D01*
X119353607Y-94128607D01*
X119335883Y-94144671D01*
X119316670Y-94158921D01*
X119296153Y-94171218D01*
X119274529Y-94181446D01*
X119252007Y-94189504D01*
X119228803Y-94195316D01*
X119205142Y-94198826D01*
X119181250Y-94200000D01*
X118693750Y-94200000D01*
X118669858Y-94198826D01*
X118646197Y-94195316D01*
X118622993Y-94189504D01*
X118600471Y-94181446D01*
X118578847Y-94171218D01*
X118558330Y-94158921D01*
X118539117Y-94144671D01*
X118521393Y-94128607D01*
X118505329Y-94110883D01*
X118491079Y-94091670D01*
X118478782Y-94071153D01*
X118468554Y-94049529D01*
X118460496Y-94027007D01*
X118454684Y-94003803D01*
X118451174Y-93980142D01*
X118450000Y-93956250D01*
X118450000Y-93043750D01*
X118451174Y-93019858D01*
X118454684Y-92996197D01*
X118460496Y-92972993D01*
X118468554Y-92950471D01*
X118478782Y-92928847D01*
X118491079Y-92908330D01*
X118505329Y-92889117D01*
X118521393Y-92871393D01*
X118539117Y-92855329D01*
X118558330Y-92841079D01*
X118578847Y-92828782D01*
X118600471Y-92818554D01*
X118622993Y-92810496D01*
X118646197Y-92804684D01*
X118669858Y-92801174D01*
X118693750Y-92800000D01*
X119181250Y-92800000D01*
X119205142Y-92801174D01*
G37*
G04 #@! TD.AperFunction*
G04 #@! TA.AperFunction,SMDPad,CuDef*
G36*
X117330142Y-92801174D02*
G01*
X117353803Y-92804684D01*
X117377007Y-92810496D01*
X117399529Y-92818554D01*
X117421153Y-92828782D01*
X117441670Y-92841079D01*
X117460883Y-92855329D01*
X117478607Y-92871393D01*
X117494671Y-92889117D01*
X117508921Y-92908330D01*
X117521218Y-92928847D01*
X117531446Y-92950471D01*
X117539504Y-92972993D01*
X117545316Y-92996197D01*
X117548826Y-93019858D01*
X117550000Y-93043750D01*
X117550000Y-93956250D01*
X117548826Y-93980142D01*
X117545316Y-94003803D01*
X117539504Y-94027007D01*
X117531446Y-94049529D01*
X117521218Y-94071153D01*
X117508921Y-94091670D01*
X117494671Y-94110883D01*
X117478607Y-94128607D01*
X117460883Y-94144671D01*
X117441670Y-94158921D01*
X117421153Y-94171218D01*
X117399529Y-94181446D01*
X117377007Y-94189504D01*
X117353803Y-94195316D01*
X117330142Y-94198826D01*
X117306250Y-94200000D01*
X116818750Y-94200000D01*
X116794858Y-94198826D01*
X116771197Y-94195316D01*
X116747993Y-94189504D01*
X116725471Y-94181446D01*
X116703847Y-94171218D01*
X116683330Y-94158921D01*
X116664117Y-94144671D01*
X116646393Y-94128607D01*
X116630329Y-94110883D01*
X116616079Y-94091670D01*
X116603782Y-94071153D01*
X116593554Y-94049529D01*
X116585496Y-94027007D01*
X116579684Y-94003803D01*
X116576174Y-93980142D01*
X116575000Y-93956250D01*
X116575000Y-93043750D01*
X116576174Y-93019858D01*
X116579684Y-92996197D01*
X116585496Y-92972993D01*
X116593554Y-92950471D01*
X116603782Y-92928847D01*
X116616079Y-92908330D01*
X116630329Y-92889117D01*
X116646393Y-92871393D01*
X116664117Y-92855329D01*
X116683330Y-92841079D01*
X116703847Y-92828782D01*
X116725471Y-92818554D01*
X116747993Y-92810496D01*
X116771197Y-92804684D01*
X116794858Y-92801174D01*
X116818750Y-92800000D01*
X117306250Y-92800000D01*
X117330142Y-92801174D01*
G37*
G04 #@! TD.AperFunction*
G04 #@! TA.AperFunction,SMDPad,CuDef*
G36*
X120480142Y-84513674D02*
G01*
X120503803Y-84517184D01*
X120527007Y-84522996D01*
X120549529Y-84531054D01*
X120571153Y-84541282D01*
X120591670Y-84553579D01*
X120610883Y-84567829D01*
X120628607Y-84583893D01*
X120644671Y-84601617D01*
X120658921Y-84620830D01*
X120671218Y-84641347D01*
X120681446Y-84662971D01*
X120689504Y-84685493D01*
X120695316Y-84708697D01*
X120698826Y-84732358D01*
X120700000Y-84756250D01*
X120700000Y-85243750D01*
X120698826Y-85267642D01*
X120695316Y-85291303D01*
X120689504Y-85314507D01*
X120681446Y-85337029D01*
X120671218Y-85358653D01*
X120658921Y-85379170D01*
X120644671Y-85398383D01*
X120628607Y-85416107D01*
X120610883Y-85432171D01*
X120591670Y-85446421D01*
X120571153Y-85458718D01*
X120549529Y-85468946D01*
X120527007Y-85477004D01*
X120503803Y-85482816D01*
X120480142Y-85486326D01*
X120456250Y-85487500D01*
X119543750Y-85487500D01*
X119519858Y-85486326D01*
X119496197Y-85482816D01*
X119472993Y-85477004D01*
X119450471Y-85468946D01*
X119428847Y-85458718D01*
X119408330Y-85446421D01*
X119389117Y-85432171D01*
X119371393Y-85416107D01*
X119355329Y-85398383D01*
X119341079Y-85379170D01*
X119328782Y-85358653D01*
X119318554Y-85337029D01*
X119310496Y-85314507D01*
X119304684Y-85291303D01*
X119301174Y-85267642D01*
X119300000Y-85243750D01*
X119300000Y-84756250D01*
X119301174Y-84732358D01*
X119304684Y-84708697D01*
X119310496Y-84685493D01*
X119318554Y-84662971D01*
X119328782Y-84641347D01*
X119341079Y-84620830D01*
X119355329Y-84601617D01*
X119371393Y-84583893D01*
X119389117Y-84567829D01*
X119408330Y-84553579D01*
X119428847Y-84541282D01*
X119450471Y-84531054D01*
X119472993Y-84522996D01*
X119496197Y-84517184D01*
X119519858Y-84513674D01*
X119543750Y-84512500D01*
X120456250Y-84512500D01*
X120480142Y-84513674D01*
G37*
G04 #@! TD.AperFunction*
G04 #@! TA.AperFunction,SMDPad,CuDef*
G36*
X120480142Y-86388674D02*
G01*
X120503803Y-86392184D01*
X120527007Y-86397996D01*
X120549529Y-86406054D01*
X120571153Y-86416282D01*
X120591670Y-86428579D01*
X120610883Y-86442829D01*
X120628607Y-86458893D01*
X120644671Y-86476617D01*
X120658921Y-86495830D01*
X120671218Y-86516347D01*
X120681446Y-86537971D01*
X120689504Y-86560493D01*
X120695316Y-86583697D01*
X120698826Y-86607358D01*
X120700000Y-86631250D01*
X120700000Y-87118750D01*
X120698826Y-87142642D01*
X120695316Y-87166303D01*
X120689504Y-87189507D01*
X120681446Y-87212029D01*
X120671218Y-87233653D01*
X120658921Y-87254170D01*
X120644671Y-87273383D01*
X120628607Y-87291107D01*
X120610883Y-87307171D01*
X120591670Y-87321421D01*
X120571153Y-87333718D01*
X120549529Y-87343946D01*
X120527007Y-87352004D01*
X120503803Y-87357816D01*
X120480142Y-87361326D01*
X120456250Y-87362500D01*
X119543750Y-87362500D01*
X119519858Y-87361326D01*
X119496197Y-87357816D01*
X119472993Y-87352004D01*
X119450471Y-87343946D01*
X119428847Y-87333718D01*
X119408330Y-87321421D01*
X119389117Y-87307171D01*
X119371393Y-87291107D01*
X119355329Y-87273383D01*
X119341079Y-87254170D01*
X119328782Y-87233653D01*
X119318554Y-87212029D01*
X119310496Y-87189507D01*
X119304684Y-87166303D01*
X119301174Y-87142642D01*
X119300000Y-87118750D01*
X119300000Y-86631250D01*
X119301174Y-86607358D01*
X119304684Y-86583697D01*
X119310496Y-86560493D01*
X119318554Y-86537971D01*
X119328782Y-86516347D01*
X119341079Y-86495830D01*
X119355329Y-86476617D01*
X119371393Y-86458893D01*
X119389117Y-86442829D01*
X119408330Y-86428579D01*
X119428847Y-86416282D01*
X119450471Y-86406054D01*
X119472993Y-86397996D01*
X119496197Y-86392184D01*
X119519858Y-86388674D01*
X119543750Y-86387500D01*
X120456250Y-86387500D01*
X120480142Y-86388674D01*
G37*
G04 #@! TD.AperFunction*
G04 #@! TA.AperFunction,SMDPad,CuDef*
G36*
X113017642Y-83838674D02*
G01*
X113041303Y-83842184D01*
X113064507Y-83847996D01*
X113087029Y-83856054D01*
X113108653Y-83866282D01*
X113129170Y-83878579D01*
X113148383Y-83892829D01*
X113166107Y-83908893D01*
X113182171Y-83926617D01*
X113196421Y-83945830D01*
X113208718Y-83966347D01*
X113218946Y-83987971D01*
X113227004Y-84010493D01*
X113232816Y-84033697D01*
X113236326Y-84057358D01*
X113237500Y-84081250D01*
X113237500Y-84568750D01*
X113236326Y-84592642D01*
X113232816Y-84616303D01*
X113227004Y-84639507D01*
X113218946Y-84662029D01*
X113208718Y-84683653D01*
X113196421Y-84704170D01*
X113182171Y-84723383D01*
X113166107Y-84741107D01*
X113148383Y-84757171D01*
X113129170Y-84771421D01*
X113108653Y-84783718D01*
X113087029Y-84793946D01*
X113064507Y-84802004D01*
X113041303Y-84807816D01*
X113017642Y-84811326D01*
X112993750Y-84812500D01*
X112081250Y-84812500D01*
X112057358Y-84811326D01*
X112033697Y-84807816D01*
X112010493Y-84802004D01*
X111987971Y-84793946D01*
X111966347Y-84783718D01*
X111945830Y-84771421D01*
X111926617Y-84757171D01*
X111908893Y-84741107D01*
X111892829Y-84723383D01*
X111878579Y-84704170D01*
X111866282Y-84683653D01*
X111856054Y-84662029D01*
X111847996Y-84639507D01*
X111842184Y-84616303D01*
X111838674Y-84592642D01*
X111837500Y-84568750D01*
X111837500Y-84081250D01*
X111838674Y-84057358D01*
X111842184Y-84033697D01*
X111847996Y-84010493D01*
X111856054Y-83987971D01*
X111866282Y-83966347D01*
X111878579Y-83945830D01*
X111892829Y-83926617D01*
X111908893Y-83908893D01*
X111926617Y-83892829D01*
X111945830Y-83878579D01*
X111966347Y-83866282D01*
X111987971Y-83856054D01*
X112010493Y-83847996D01*
X112033697Y-83842184D01*
X112057358Y-83838674D01*
X112081250Y-83837500D01*
X112993750Y-83837500D01*
X113017642Y-83838674D01*
G37*
G04 #@! TD.AperFunction*
G04 #@! TA.AperFunction,SMDPad,CuDef*
G36*
X113017642Y-85713674D02*
G01*
X113041303Y-85717184D01*
X113064507Y-85722996D01*
X113087029Y-85731054D01*
X113108653Y-85741282D01*
X113129170Y-85753579D01*
X113148383Y-85767829D01*
X113166107Y-85783893D01*
X113182171Y-85801617D01*
X113196421Y-85820830D01*
X113208718Y-85841347D01*
X113218946Y-85862971D01*
X113227004Y-85885493D01*
X113232816Y-85908697D01*
X113236326Y-85932358D01*
X113237500Y-85956250D01*
X113237500Y-86443750D01*
X113236326Y-86467642D01*
X113232816Y-86491303D01*
X113227004Y-86514507D01*
X113218946Y-86537029D01*
X113208718Y-86558653D01*
X113196421Y-86579170D01*
X113182171Y-86598383D01*
X113166107Y-86616107D01*
X113148383Y-86632171D01*
X113129170Y-86646421D01*
X113108653Y-86658718D01*
X113087029Y-86668946D01*
X113064507Y-86677004D01*
X113041303Y-86682816D01*
X113017642Y-86686326D01*
X112993750Y-86687500D01*
X112081250Y-86687500D01*
X112057358Y-86686326D01*
X112033697Y-86682816D01*
X112010493Y-86677004D01*
X111987971Y-86668946D01*
X111966347Y-86658718D01*
X111945830Y-86646421D01*
X111926617Y-86632171D01*
X111908893Y-86616107D01*
X111892829Y-86598383D01*
X111878579Y-86579170D01*
X111866282Y-86558653D01*
X111856054Y-86537029D01*
X111847996Y-86514507D01*
X111842184Y-86491303D01*
X111838674Y-86467642D01*
X111837500Y-86443750D01*
X111837500Y-85956250D01*
X111838674Y-85932358D01*
X111842184Y-85908697D01*
X111847996Y-85885493D01*
X111856054Y-85862971D01*
X111866282Y-85841347D01*
X111878579Y-85820830D01*
X111892829Y-85801617D01*
X111908893Y-85783893D01*
X111926617Y-85767829D01*
X111945830Y-85753579D01*
X111966347Y-85741282D01*
X111987971Y-85731054D01*
X112010493Y-85722996D01*
X112033697Y-85717184D01*
X112057358Y-85713674D01*
X112081250Y-85712500D01*
X112993750Y-85712500D01*
X113017642Y-85713674D01*
G37*
G04 #@! TD.AperFunction*
G04 #@! TA.AperFunction,SMDPad,CuDef*
G36*
X113992642Y-78501174D02*
G01*
X114016303Y-78504684D01*
X114039507Y-78510496D01*
X114062029Y-78518554D01*
X114083653Y-78528782D01*
X114104170Y-78541079D01*
X114123383Y-78555329D01*
X114141107Y-78571393D01*
X114157171Y-78589117D01*
X114171421Y-78608330D01*
X114183718Y-78628847D01*
X114193946Y-78650471D01*
X114202004Y-78672993D01*
X114207816Y-78696197D01*
X114211326Y-78719858D01*
X114212500Y-78743750D01*
X114212500Y-79656250D01*
X114211326Y-79680142D01*
X114207816Y-79703803D01*
X114202004Y-79727007D01*
X114193946Y-79749529D01*
X114183718Y-79771153D01*
X114171421Y-79791670D01*
X114157171Y-79810883D01*
X114141107Y-79828607D01*
X114123383Y-79844671D01*
X114104170Y-79858921D01*
X114083653Y-79871218D01*
X114062029Y-79881446D01*
X114039507Y-79889504D01*
X114016303Y-79895316D01*
X113992642Y-79898826D01*
X113968750Y-79900000D01*
X113481250Y-79900000D01*
X113457358Y-79898826D01*
X113433697Y-79895316D01*
X113410493Y-79889504D01*
X113387971Y-79881446D01*
X113366347Y-79871218D01*
X113345830Y-79858921D01*
X113326617Y-79844671D01*
X113308893Y-79828607D01*
X113292829Y-79810883D01*
X113278579Y-79791670D01*
X113266282Y-79771153D01*
X113256054Y-79749529D01*
X113247996Y-79727007D01*
X113242184Y-79703803D01*
X113238674Y-79680142D01*
X113237500Y-79656250D01*
X113237500Y-78743750D01*
X113238674Y-78719858D01*
X113242184Y-78696197D01*
X113247996Y-78672993D01*
X113256054Y-78650471D01*
X113266282Y-78628847D01*
X113278579Y-78608330D01*
X113292829Y-78589117D01*
X113308893Y-78571393D01*
X113326617Y-78555329D01*
X113345830Y-78541079D01*
X113366347Y-78528782D01*
X113387971Y-78518554D01*
X113410493Y-78510496D01*
X113433697Y-78504684D01*
X113457358Y-78501174D01*
X113481250Y-78500000D01*
X113968750Y-78500000D01*
X113992642Y-78501174D01*
G37*
G04 #@! TD.AperFunction*
G04 #@! TA.AperFunction,SMDPad,CuDef*
G36*
X115867642Y-78501174D02*
G01*
X115891303Y-78504684D01*
X115914507Y-78510496D01*
X115937029Y-78518554D01*
X115958653Y-78528782D01*
X115979170Y-78541079D01*
X115998383Y-78555329D01*
X116016107Y-78571393D01*
X116032171Y-78589117D01*
X116046421Y-78608330D01*
X116058718Y-78628847D01*
X116068946Y-78650471D01*
X116077004Y-78672993D01*
X116082816Y-78696197D01*
X116086326Y-78719858D01*
X116087500Y-78743750D01*
X116087500Y-79656250D01*
X116086326Y-79680142D01*
X116082816Y-79703803D01*
X116077004Y-79727007D01*
X116068946Y-79749529D01*
X116058718Y-79771153D01*
X116046421Y-79791670D01*
X116032171Y-79810883D01*
X116016107Y-79828607D01*
X115998383Y-79844671D01*
X115979170Y-79858921D01*
X115958653Y-79871218D01*
X115937029Y-79881446D01*
X115914507Y-79889504D01*
X115891303Y-79895316D01*
X115867642Y-79898826D01*
X115843750Y-79900000D01*
X115356250Y-79900000D01*
X115332358Y-79898826D01*
X115308697Y-79895316D01*
X115285493Y-79889504D01*
X115262971Y-79881446D01*
X115241347Y-79871218D01*
X115220830Y-79858921D01*
X115201617Y-79844671D01*
X115183893Y-79828607D01*
X115167829Y-79810883D01*
X115153579Y-79791670D01*
X115141282Y-79771153D01*
X115131054Y-79749529D01*
X115122996Y-79727007D01*
X115117184Y-79703803D01*
X115113674Y-79680142D01*
X115112500Y-79656250D01*
X115112500Y-78743750D01*
X115113674Y-78719858D01*
X115117184Y-78696197D01*
X115122996Y-78672993D01*
X115131054Y-78650471D01*
X115141282Y-78628847D01*
X115153579Y-78608330D01*
X115167829Y-78589117D01*
X115183893Y-78571393D01*
X115201617Y-78555329D01*
X115220830Y-78541079D01*
X115241347Y-78528782D01*
X115262971Y-78518554D01*
X115285493Y-78510496D01*
X115308697Y-78504684D01*
X115332358Y-78501174D01*
X115356250Y-78500000D01*
X115843750Y-78500000D01*
X115867642Y-78501174D01*
G37*
G04 #@! TD.AperFunction*
G04 #@! TA.AperFunction,SMDPad,CuDef*
G36*
X117892642Y-78501174D02*
G01*
X117916303Y-78504684D01*
X117939507Y-78510496D01*
X117962029Y-78518554D01*
X117983653Y-78528782D01*
X118004170Y-78541079D01*
X118023383Y-78555329D01*
X118041107Y-78571393D01*
X118057171Y-78589117D01*
X118071421Y-78608330D01*
X118083718Y-78628847D01*
X118093946Y-78650471D01*
X118102004Y-78672993D01*
X118107816Y-78696197D01*
X118111326Y-78719858D01*
X118112500Y-78743750D01*
X118112500Y-79656250D01*
X118111326Y-79680142D01*
X118107816Y-79703803D01*
X118102004Y-79727007D01*
X118093946Y-79749529D01*
X118083718Y-79771153D01*
X118071421Y-79791670D01*
X118057171Y-79810883D01*
X118041107Y-79828607D01*
X118023383Y-79844671D01*
X118004170Y-79858921D01*
X117983653Y-79871218D01*
X117962029Y-79881446D01*
X117939507Y-79889504D01*
X117916303Y-79895316D01*
X117892642Y-79898826D01*
X117868750Y-79900000D01*
X117381250Y-79900000D01*
X117357358Y-79898826D01*
X117333697Y-79895316D01*
X117310493Y-79889504D01*
X117287971Y-79881446D01*
X117266347Y-79871218D01*
X117245830Y-79858921D01*
X117226617Y-79844671D01*
X117208893Y-79828607D01*
X117192829Y-79810883D01*
X117178579Y-79791670D01*
X117166282Y-79771153D01*
X117156054Y-79749529D01*
X117147996Y-79727007D01*
X117142184Y-79703803D01*
X117138674Y-79680142D01*
X117137500Y-79656250D01*
X117137500Y-78743750D01*
X117138674Y-78719858D01*
X117142184Y-78696197D01*
X117147996Y-78672993D01*
X117156054Y-78650471D01*
X117166282Y-78628847D01*
X117178579Y-78608330D01*
X117192829Y-78589117D01*
X117208893Y-78571393D01*
X117226617Y-78555329D01*
X117245830Y-78541079D01*
X117266347Y-78528782D01*
X117287971Y-78518554D01*
X117310493Y-78510496D01*
X117333697Y-78504684D01*
X117357358Y-78501174D01*
X117381250Y-78500000D01*
X117868750Y-78500000D01*
X117892642Y-78501174D01*
G37*
G04 #@! TD.AperFunction*
G04 #@! TA.AperFunction,SMDPad,CuDef*
G36*
X119767642Y-78501174D02*
G01*
X119791303Y-78504684D01*
X119814507Y-78510496D01*
X119837029Y-78518554D01*
X119858653Y-78528782D01*
X119879170Y-78541079D01*
X119898383Y-78555329D01*
X119916107Y-78571393D01*
X119932171Y-78589117D01*
X119946421Y-78608330D01*
X119958718Y-78628847D01*
X119968946Y-78650471D01*
X119977004Y-78672993D01*
X119982816Y-78696197D01*
X119986326Y-78719858D01*
X119987500Y-78743750D01*
X119987500Y-79656250D01*
X119986326Y-79680142D01*
X119982816Y-79703803D01*
X119977004Y-79727007D01*
X119968946Y-79749529D01*
X119958718Y-79771153D01*
X119946421Y-79791670D01*
X119932171Y-79810883D01*
X119916107Y-79828607D01*
X119898383Y-79844671D01*
X119879170Y-79858921D01*
X119858653Y-79871218D01*
X119837029Y-79881446D01*
X119814507Y-79889504D01*
X119791303Y-79895316D01*
X119767642Y-79898826D01*
X119743750Y-79900000D01*
X119256250Y-79900000D01*
X119232358Y-79898826D01*
X119208697Y-79895316D01*
X119185493Y-79889504D01*
X119162971Y-79881446D01*
X119141347Y-79871218D01*
X119120830Y-79858921D01*
X119101617Y-79844671D01*
X119083893Y-79828607D01*
X119067829Y-79810883D01*
X119053579Y-79791670D01*
X119041282Y-79771153D01*
X119031054Y-79749529D01*
X119022996Y-79727007D01*
X119017184Y-79703803D01*
X119013674Y-79680142D01*
X119012500Y-79656250D01*
X119012500Y-78743750D01*
X119013674Y-78719858D01*
X119017184Y-78696197D01*
X119022996Y-78672993D01*
X119031054Y-78650471D01*
X119041282Y-78628847D01*
X119053579Y-78608330D01*
X119067829Y-78589117D01*
X119083893Y-78571393D01*
X119101617Y-78555329D01*
X119120830Y-78541079D01*
X119141347Y-78528782D01*
X119162971Y-78518554D01*
X119185493Y-78510496D01*
X119208697Y-78504684D01*
X119232358Y-78501174D01*
X119256250Y-78500000D01*
X119743750Y-78500000D01*
X119767642Y-78501174D01*
G37*
G04 #@! TD.AperFunction*
D18*
X124300000Y-91100000D03*
X124300000Y-87600000D03*
D19*
X126500000Y-94500000D03*
G04 #@! TA.AperFunction,ComponentPad*
D16*
G36*
X124874505Y-93626204D02*
G01*
X124898773Y-93629804D01*
X124922572Y-93635765D01*
X124945671Y-93644030D01*
X124967850Y-93654520D01*
X124988893Y-93667132D01*
X125008599Y-93681747D01*
X125026777Y-93698223D01*
X125043253Y-93716401D01*
X125057868Y-93736107D01*
X125070480Y-93757150D01*
X125080970Y-93779329D01*
X125089235Y-93802428D01*
X125095196Y-93826227D01*
X125098796Y-93850495D01*
X125100000Y-93874999D01*
X125100000Y-95125001D01*
X125098796Y-95149505D01*
X125095196Y-95173773D01*
X125089235Y-95197572D01*
X125080970Y-95220671D01*
X125070480Y-95242850D01*
X125057868Y-95263893D01*
X125043253Y-95283599D01*
X125026777Y-95301777D01*
X125008599Y-95318253D01*
X124988893Y-95332868D01*
X124967850Y-95345480D01*
X124945671Y-95355970D01*
X124922572Y-95364235D01*
X124898773Y-95370196D01*
X124874505Y-95373796D01*
X124850001Y-95375000D01*
X124149999Y-95375000D01*
X124125495Y-95373796D01*
X124101227Y-95370196D01*
X124077428Y-95364235D01*
X124054329Y-95355970D01*
X124032150Y-95345480D01*
X124011107Y-95332868D01*
X123991401Y-95318253D01*
X123973223Y-95301777D01*
X123956747Y-95283599D01*
X123942132Y-95263893D01*
X123929520Y-95242850D01*
X123919030Y-95220671D01*
X123910765Y-95197572D01*
X123904804Y-95173773D01*
X123901204Y-95149505D01*
X123900000Y-95125001D01*
X123900000Y-93874999D01*
X123901204Y-93850495D01*
X123904804Y-93826227D01*
X123910765Y-93802428D01*
X123919030Y-93779329D01*
X123929520Y-93757150D01*
X123942132Y-93736107D01*
X123956747Y-93716401D01*
X123973223Y-93698223D01*
X123991401Y-93681747D01*
X124011107Y-93667132D01*
X124032150Y-93654520D01*
X124054329Y-93644030D01*
X124077428Y-93635765D01*
X124101227Y-93629804D01*
X124125495Y-93626204D01*
X124149999Y-93625000D01*
X124850001Y-93625000D01*
X124874505Y-93626204D01*
G37*
G04 #@! TD.AperFunction*
D20*
X124800000Y-73440000D03*
X123300000Y-73440000D03*
X121800000Y-73440000D03*
D21*
X123300000Y-77400000D03*
G04 #@! TA.AperFunction,SMDPad,CuDef*
D16*
G36*
X122300000Y-75425000D02*
G01*
X122800000Y-74675000D01*
X123800000Y-74675000D01*
X124300000Y-75425000D01*
X122300000Y-75425000D01*
G37*
G04 #@! TD.AperFunction*
G04 #@! TA.AperFunction,SMDPad,CuDef*
G36*
X124780142Y-82738674D02*
G01*
X124803803Y-82742184D01*
X124827007Y-82747996D01*
X124849529Y-82756054D01*
X124871153Y-82766282D01*
X124891670Y-82778579D01*
X124910883Y-82792829D01*
X124928607Y-82808893D01*
X124944671Y-82826617D01*
X124958921Y-82845830D01*
X124971218Y-82866347D01*
X124981446Y-82887971D01*
X124989504Y-82910493D01*
X124995316Y-82933697D01*
X124998826Y-82957358D01*
X125000000Y-82981250D01*
X125000000Y-83468750D01*
X124998826Y-83492642D01*
X124995316Y-83516303D01*
X124989504Y-83539507D01*
X124981446Y-83562029D01*
X124971218Y-83583653D01*
X124958921Y-83604170D01*
X124944671Y-83623383D01*
X124928607Y-83641107D01*
X124910883Y-83657171D01*
X124891670Y-83671421D01*
X124871153Y-83683718D01*
X124849529Y-83693946D01*
X124827007Y-83702004D01*
X124803803Y-83707816D01*
X124780142Y-83711326D01*
X124756250Y-83712500D01*
X123843750Y-83712500D01*
X123819858Y-83711326D01*
X123796197Y-83707816D01*
X123772993Y-83702004D01*
X123750471Y-83693946D01*
X123728847Y-83683718D01*
X123708330Y-83671421D01*
X123689117Y-83657171D01*
X123671393Y-83641107D01*
X123655329Y-83623383D01*
X123641079Y-83604170D01*
X123628782Y-83583653D01*
X123618554Y-83562029D01*
X123610496Y-83539507D01*
X123604684Y-83516303D01*
X123601174Y-83492642D01*
X123600000Y-83468750D01*
X123600000Y-82981250D01*
X123601174Y-82957358D01*
X123604684Y-82933697D01*
X123610496Y-82910493D01*
X123618554Y-82887971D01*
X123628782Y-82866347D01*
X123641079Y-82845830D01*
X123655329Y-82826617D01*
X123671393Y-82808893D01*
X123689117Y-82792829D01*
X123708330Y-82778579D01*
X123728847Y-82766282D01*
X123750471Y-82756054D01*
X123772993Y-82747996D01*
X123796197Y-82742184D01*
X123819858Y-82738674D01*
X123843750Y-82737500D01*
X124756250Y-82737500D01*
X124780142Y-82738674D01*
G37*
G04 #@! TD.AperFunction*
G04 #@! TA.AperFunction,SMDPad,CuDef*
G36*
X124780142Y-84613674D02*
G01*
X124803803Y-84617184D01*
X124827007Y-84622996D01*
X124849529Y-84631054D01*
X124871153Y-84641282D01*
X124891670Y-84653579D01*
X124910883Y-84667829D01*
X124928607Y-84683893D01*
X124944671Y-84701617D01*
X124958921Y-84720830D01*
X124971218Y-84741347D01*
X124981446Y-84762971D01*
X124989504Y-84785493D01*
X124995316Y-84808697D01*
X124998826Y-84832358D01*
X125000000Y-84856250D01*
X125000000Y-85343750D01*
X124998826Y-85367642D01*
X124995316Y-85391303D01*
X124989504Y-85414507D01*
X124981446Y-85437029D01*
X124971218Y-85458653D01*
X124958921Y-85479170D01*
X124944671Y-85498383D01*
X124928607Y-85516107D01*
X124910883Y-85532171D01*
X124891670Y-85546421D01*
X124871153Y-85558718D01*
X124849529Y-85568946D01*
X124827007Y-85577004D01*
X124803803Y-85582816D01*
X124780142Y-85586326D01*
X124756250Y-85587500D01*
X123843750Y-85587500D01*
X123819858Y-85586326D01*
X123796197Y-85582816D01*
X123772993Y-85577004D01*
X123750471Y-85568946D01*
X123728847Y-85558718D01*
X123708330Y-85546421D01*
X123689117Y-85532171D01*
X123671393Y-85516107D01*
X123655329Y-85498383D01*
X123641079Y-85479170D01*
X123628782Y-85458653D01*
X123618554Y-85437029D01*
X123610496Y-85414507D01*
X123604684Y-85391303D01*
X123601174Y-85367642D01*
X123600000Y-85343750D01*
X123600000Y-84856250D01*
X123601174Y-84832358D01*
X123604684Y-84808697D01*
X123610496Y-84785493D01*
X123618554Y-84762971D01*
X123628782Y-84741347D01*
X123641079Y-84720830D01*
X123655329Y-84701617D01*
X123671393Y-84683893D01*
X123689117Y-84667829D01*
X123708330Y-84653579D01*
X123728847Y-84641282D01*
X123750471Y-84631054D01*
X123772993Y-84622996D01*
X123796197Y-84617184D01*
X123819858Y-84613674D01*
X123843750Y-84612500D01*
X124756250Y-84612500D01*
X124780142Y-84613674D01*
G37*
G04 #@! TD.AperFunction*
G04 #@! TA.AperFunction,SMDPad,CuDef*
G36*
X106480142Y-49122174D02*
G01*
X106503803Y-49125684D01*
X106527007Y-49131496D01*
X106549529Y-49139554D01*
X106571153Y-49149782D01*
X106591670Y-49162079D01*
X106610883Y-49176329D01*
X106628607Y-49192393D01*
X106644671Y-49210117D01*
X106658921Y-49229330D01*
X106671218Y-49249847D01*
X106681446Y-49271471D01*
X106689504Y-49293993D01*
X106695316Y-49317197D01*
X106698826Y-49340858D01*
X106700000Y-49364750D01*
X106700000Y-49852250D01*
X106698826Y-49876142D01*
X106695316Y-49899803D01*
X106689504Y-49923007D01*
X106681446Y-49945529D01*
X106671218Y-49967153D01*
X106658921Y-49987670D01*
X106644671Y-50006883D01*
X106628607Y-50024607D01*
X106610883Y-50040671D01*
X106591670Y-50054921D01*
X106571153Y-50067218D01*
X106549529Y-50077446D01*
X106527007Y-50085504D01*
X106503803Y-50091316D01*
X106480142Y-50094826D01*
X106456250Y-50096000D01*
X105543750Y-50096000D01*
X105519858Y-50094826D01*
X105496197Y-50091316D01*
X105472993Y-50085504D01*
X105450471Y-50077446D01*
X105428847Y-50067218D01*
X105408330Y-50054921D01*
X105389117Y-50040671D01*
X105371393Y-50024607D01*
X105355329Y-50006883D01*
X105341079Y-49987670D01*
X105328782Y-49967153D01*
X105318554Y-49945529D01*
X105310496Y-49923007D01*
X105304684Y-49899803D01*
X105301174Y-49876142D01*
X105300000Y-49852250D01*
X105300000Y-49364750D01*
X105301174Y-49340858D01*
X105304684Y-49317197D01*
X105310496Y-49293993D01*
X105318554Y-49271471D01*
X105328782Y-49249847D01*
X105341079Y-49229330D01*
X105355329Y-49210117D01*
X105371393Y-49192393D01*
X105389117Y-49176329D01*
X105408330Y-49162079D01*
X105428847Y-49149782D01*
X105450471Y-49139554D01*
X105472993Y-49131496D01*
X105496197Y-49125684D01*
X105519858Y-49122174D01*
X105543750Y-49121000D01*
X106456250Y-49121000D01*
X106480142Y-49122174D01*
G37*
G04 #@! TD.AperFunction*
G04 #@! TA.AperFunction,SMDPad,CuDef*
G36*
X106480142Y-50997174D02*
G01*
X106503803Y-51000684D01*
X106527007Y-51006496D01*
X106549529Y-51014554D01*
X106571153Y-51024782D01*
X106591670Y-51037079D01*
X106610883Y-51051329D01*
X106628607Y-51067393D01*
X106644671Y-51085117D01*
X106658921Y-51104330D01*
X106671218Y-51124847D01*
X106681446Y-51146471D01*
X106689504Y-51168993D01*
X106695316Y-51192197D01*
X106698826Y-51215858D01*
X106700000Y-51239750D01*
X106700000Y-51727250D01*
X106698826Y-51751142D01*
X106695316Y-51774803D01*
X106689504Y-51798007D01*
X106681446Y-51820529D01*
X106671218Y-51842153D01*
X106658921Y-51862670D01*
X106644671Y-51881883D01*
X106628607Y-51899607D01*
X106610883Y-51915671D01*
X106591670Y-51929921D01*
X106571153Y-51942218D01*
X106549529Y-51952446D01*
X106527007Y-51960504D01*
X106503803Y-51966316D01*
X106480142Y-51969826D01*
X106456250Y-51971000D01*
X105543750Y-51971000D01*
X105519858Y-51969826D01*
X105496197Y-51966316D01*
X105472993Y-51960504D01*
X105450471Y-51952446D01*
X105428847Y-51942218D01*
X105408330Y-51929921D01*
X105389117Y-51915671D01*
X105371393Y-51899607D01*
X105355329Y-51881883D01*
X105341079Y-51862670D01*
X105328782Y-51842153D01*
X105318554Y-51820529D01*
X105310496Y-51798007D01*
X105304684Y-51774803D01*
X105301174Y-51751142D01*
X105300000Y-51727250D01*
X105300000Y-51239750D01*
X105301174Y-51215858D01*
X105304684Y-51192197D01*
X105310496Y-51168993D01*
X105318554Y-51146471D01*
X105328782Y-51124847D01*
X105341079Y-51104330D01*
X105355329Y-51085117D01*
X105371393Y-51067393D01*
X105389117Y-51051329D01*
X105408330Y-51037079D01*
X105428847Y-51024782D01*
X105450471Y-51014554D01*
X105472993Y-51006496D01*
X105496197Y-51000684D01*
X105519858Y-50997174D01*
X105543750Y-50996000D01*
X106456250Y-50996000D01*
X106480142Y-50997174D01*
G37*
G04 #@! TD.AperFunction*
G04 #@! TA.AperFunction,SMDPad,CuDef*
G36*
X110680142Y-83838674D02*
G01*
X110703803Y-83842184D01*
X110727007Y-83847996D01*
X110749529Y-83856054D01*
X110771153Y-83866282D01*
X110791670Y-83878579D01*
X110810883Y-83892829D01*
X110828607Y-83908893D01*
X110844671Y-83926617D01*
X110858921Y-83945830D01*
X110871218Y-83966347D01*
X110881446Y-83987971D01*
X110889504Y-84010493D01*
X110895316Y-84033697D01*
X110898826Y-84057358D01*
X110900000Y-84081250D01*
X110900000Y-84568750D01*
X110898826Y-84592642D01*
X110895316Y-84616303D01*
X110889504Y-84639507D01*
X110881446Y-84662029D01*
X110871218Y-84683653D01*
X110858921Y-84704170D01*
X110844671Y-84723383D01*
X110828607Y-84741107D01*
X110810883Y-84757171D01*
X110791670Y-84771421D01*
X110771153Y-84783718D01*
X110749529Y-84793946D01*
X110727007Y-84802004D01*
X110703803Y-84807816D01*
X110680142Y-84811326D01*
X110656250Y-84812500D01*
X109743750Y-84812500D01*
X109719858Y-84811326D01*
X109696197Y-84807816D01*
X109672993Y-84802004D01*
X109650471Y-84793946D01*
X109628847Y-84783718D01*
X109608330Y-84771421D01*
X109589117Y-84757171D01*
X109571393Y-84741107D01*
X109555329Y-84723383D01*
X109541079Y-84704170D01*
X109528782Y-84683653D01*
X109518554Y-84662029D01*
X109510496Y-84639507D01*
X109504684Y-84616303D01*
X109501174Y-84592642D01*
X109500000Y-84568750D01*
X109500000Y-84081250D01*
X109501174Y-84057358D01*
X109504684Y-84033697D01*
X109510496Y-84010493D01*
X109518554Y-83987971D01*
X109528782Y-83966347D01*
X109541079Y-83945830D01*
X109555329Y-83926617D01*
X109571393Y-83908893D01*
X109589117Y-83892829D01*
X109608330Y-83878579D01*
X109628847Y-83866282D01*
X109650471Y-83856054D01*
X109672993Y-83847996D01*
X109696197Y-83842184D01*
X109719858Y-83838674D01*
X109743750Y-83837500D01*
X110656250Y-83837500D01*
X110680142Y-83838674D01*
G37*
G04 #@! TD.AperFunction*
G04 #@! TA.AperFunction,SMDPad,CuDef*
G36*
X110680142Y-85713674D02*
G01*
X110703803Y-85717184D01*
X110727007Y-85722996D01*
X110749529Y-85731054D01*
X110771153Y-85741282D01*
X110791670Y-85753579D01*
X110810883Y-85767829D01*
X110828607Y-85783893D01*
X110844671Y-85801617D01*
X110858921Y-85820830D01*
X110871218Y-85841347D01*
X110881446Y-85862971D01*
X110889504Y-85885493D01*
X110895316Y-85908697D01*
X110898826Y-85932358D01*
X110900000Y-85956250D01*
X110900000Y-86443750D01*
X110898826Y-86467642D01*
X110895316Y-86491303D01*
X110889504Y-86514507D01*
X110881446Y-86537029D01*
X110871218Y-86558653D01*
X110858921Y-86579170D01*
X110844671Y-86598383D01*
X110828607Y-86616107D01*
X110810883Y-86632171D01*
X110791670Y-86646421D01*
X110771153Y-86658718D01*
X110749529Y-86668946D01*
X110727007Y-86677004D01*
X110703803Y-86682816D01*
X110680142Y-86686326D01*
X110656250Y-86687500D01*
X109743750Y-86687500D01*
X109719858Y-86686326D01*
X109696197Y-86682816D01*
X109672993Y-86677004D01*
X109650471Y-86668946D01*
X109628847Y-86658718D01*
X109608330Y-86646421D01*
X109589117Y-86632171D01*
X109571393Y-86616107D01*
X109555329Y-86598383D01*
X109541079Y-86579170D01*
X109528782Y-86558653D01*
X109518554Y-86537029D01*
X109510496Y-86514507D01*
X109504684Y-86491303D01*
X109501174Y-86467642D01*
X109500000Y-86443750D01*
X109500000Y-85956250D01*
X109501174Y-85932358D01*
X109504684Y-85908697D01*
X109510496Y-85885493D01*
X109518554Y-85862971D01*
X109528782Y-85841347D01*
X109541079Y-85820830D01*
X109555329Y-85801617D01*
X109571393Y-85783893D01*
X109589117Y-85767829D01*
X109608330Y-85753579D01*
X109628847Y-85741282D01*
X109650471Y-85731054D01*
X109672993Y-85722996D01*
X109696197Y-85717184D01*
X109719858Y-85713674D01*
X109743750Y-85712500D01*
X110656250Y-85712500D01*
X110680142Y-85713674D01*
G37*
G04 #@! TD.AperFunction*
G04 #@! TA.AperFunction,SMDPad,CuDef*
G36*
X120480142Y-88576174D02*
G01*
X120503803Y-88579684D01*
X120527007Y-88585496D01*
X120549529Y-88593554D01*
X120571153Y-88603782D01*
X120591670Y-88616079D01*
X120610883Y-88630329D01*
X120628607Y-88646393D01*
X120644671Y-88664117D01*
X120658921Y-88683330D01*
X120671218Y-88703847D01*
X120681446Y-88725471D01*
X120689504Y-88747993D01*
X120695316Y-88771197D01*
X120698826Y-88794858D01*
X120700000Y-88818750D01*
X120700000Y-89306250D01*
X120698826Y-89330142D01*
X120695316Y-89353803D01*
X120689504Y-89377007D01*
X120681446Y-89399529D01*
X120671218Y-89421153D01*
X120658921Y-89441670D01*
X120644671Y-89460883D01*
X120628607Y-89478607D01*
X120610883Y-89494671D01*
X120591670Y-89508921D01*
X120571153Y-89521218D01*
X120549529Y-89531446D01*
X120527007Y-89539504D01*
X120503803Y-89545316D01*
X120480142Y-89548826D01*
X120456250Y-89550000D01*
X119543750Y-89550000D01*
X119519858Y-89548826D01*
X119496197Y-89545316D01*
X119472993Y-89539504D01*
X119450471Y-89531446D01*
X119428847Y-89521218D01*
X119408330Y-89508921D01*
X119389117Y-89494671D01*
X119371393Y-89478607D01*
X119355329Y-89460883D01*
X119341079Y-89441670D01*
X119328782Y-89421153D01*
X119318554Y-89399529D01*
X119310496Y-89377007D01*
X119304684Y-89353803D01*
X119301174Y-89330142D01*
X119300000Y-89306250D01*
X119300000Y-88818750D01*
X119301174Y-88794858D01*
X119304684Y-88771197D01*
X119310496Y-88747993D01*
X119318554Y-88725471D01*
X119328782Y-88703847D01*
X119341079Y-88683330D01*
X119355329Y-88664117D01*
X119371393Y-88646393D01*
X119389117Y-88630329D01*
X119408330Y-88616079D01*
X119428847Y-88603782D01*
X119450471Y-88593554D01*
X119472993Y-88585496D01*
X119496197Y-88579684D01*
X119519858Y-88576174D01*
X119543750Y-88575000D01*
X120456250Y-88575000D01*
X120480142Y-88576174D01*
G37*
G04 #@! TD.AperFunction*
G04 #@! TA.AperFunction,SMDPad,CuDef*
G36*
X120480142Y-90451174D02*
G01*
X120503803Y-90454684D01*
X120527007Y-90460496D01*
X120549529Y-90468554D01*
X120571153Y-90478782D01*
X120591670Y-90491079D01*
X120610883Y-90505329D01*
X120628607Y-90521393D01*
X120644671Y-90539117D01*
X120658921Y-90558330D01*
X120671218Y-90578847D01*
X120681446Y-90600471D01*
X120689504Y-90622993D01*
X120695316Y-90646197D01*
X120698826Y-90669858D01*
X120700000Y-90693750D01*
X120700000Y-91181250D01*
X120698826Y-91205142D01*
X120695316Y-91228803D01*
X120689504Y-91252007D01*
X120681446Y-91274529D01*
X120671218Y-91296153D01*
X120658921Y-91316670D01*
X120644671Y-91335883D01*
X120628607Y-91353607D01*
X120610883Y-91369671D01*
X120591670Y-91383921D01*
X120571153Y-91396218D01*
X120549529Y-91406446D01*
X120527007Y-91414504D01*
X120503803Y-91420316D01*
X120480142Y-91423826D01*
X120456250Y-91425000D01*
X119543750Y-91425000D01*
X119519858Y-91423826D01*
X119496197Y-91420316D01*
X119472993Y-91414504D01*
X119450471Y-91406446D01*
X119428847Y-91396218D01*
X119408330Y-91383921D01*
X119389117Y-91369671D01*
X119371393Y-91353607D01*
X119355329Y-91335883D01*
X119341079Y-91316670D01*
X119328782Y-91296153D01*
X119318554Y-91274529D01*
X119310496Y-91252007D01*
X119304684Y-91228803D01*
X119301174Y-91205142D01*
X119300000Y-91181250D01*
X119300000Y-90693750D01*
X119301174Y-90669858D01*
X119304684Y-90646197D01*
X119310496Y-90622993D01*
X119318554Y-90600471D01*
X119328782Y-90578847D01*
X119341079Y-90558330D01*
X119355329Y-90539117D01*
X119371393Y-90521393D01*
X119389117Y-90505329D01*
X119408330Y-90491079D01*
X119428847Y-90478782D01*
X119450471Y-90468554D01*
X119472993Y-90460496D01*
X119496197Y-90454684D01*
X119519858Y-90451174D01*
X119543750Y-90450000D01*
X120456250Y-90450000D01*
X120480142Y-90451174D01*
G37*
G04 #@! TD.AperFunction*
G04 #@! TA.AperFunction,SMDPad,CuDef*
G36*
X112480142Y-88513674D02*
G01*
X112503803Y-88517184D01*
X112527007Y-88522996D01*
X112549529Y-88531054D01*
X112571153Y-88541282D01*
X112591670Y-88553579D01*
X112610883Y-88567829D01*
X112628607Y-88583893D01*
X112644671Y-88601617D01*
X112658921Y-88620830D01*
X112671218Y-88641347D01*
X112681446Y-88662971D01*
X112689504Y-88685493D01*
X112695316Y-88708697D01*
X112698826Y-88732358D01*
X112700000Y-88756250D01*
X112700000Y-89243750D01*
X112698826Y-89267642D01*
X112695316Y-89291303D01*
X112689504Y-89314507D01*
X112681446Y-89337029D01*
X112671218Y-89358653D01*
X112658921Y-89379170D01*
X112644671Y-89398383D01*
X112628607Y-89416107D01*
X112610883Y-89432171D01*
X112591670Y-89446421D01*
X112571153Y-89458718D01*
X112549529Y-89468946D01*
X112527007Y-89477004D01*
X112503803Y-89482816D01*
X112480142Y-89486326D01*
X112456250Y-89487500D01*
X111543750Y-89487500D01*
X111519858Y-89486326D01*
X111496197Y-89482816D01*
X111472993Y-89477004D01*
X111450471Y-89468946D01*
X111428847Y-89458718D01*
X111408330Y-89446421D01*
X111389117Y-89432171D01*
X111371393Y-89416107D01*
X111355329Y-89398383D01*
X111341079Y-89379170D01*
X111328782Y-89358653D01*
X111318554Y-89337029D01*
X111310496Y-89314507D01*
X111304684Y-89291303D01*
X111301174Y-89267642D01*
X111300000Y-89243750D01*
X111300000Y-88756250D01*
X111301174Y-88732358D01*
X111304684Y-88708697D01*
X111310496Y-88685493D01*
X111318554Y-88662971D01*
X111328782Y-88641347D01*
X111341079Y-88620830D01*
X111355329Y-88601617D01*
X111371393Y-88583893D01*
X111389117Y-88567829D01*
X111408330Y-88553579D01*
X111428847Y-88541282D01*
X111450471Y-88531054D01*
X111472993Y-88522996D01*
X111496197Y-88517184D01*
X111519858Y-88513674D01*
X111543750Y-88512500D01*
X112456250Y-88512500D01*
X112480142Y-88513674D01*
G37*
G04 #@! TD.AperFunction*
G04 #@! TA.AperFunction,SMDPad,CuDef*
G36*
X112480142Y-90388674D02*
G01*
X112503803Y-90392184D01*
X112527007Y-90397996D01*
X112549529Y-90406054D01*
X112571153Y-90416282D01*
X112591670Y-90428579D01*
X112610883Y-90442829D01*
X112628607Y-90458893D01*
X112644671Y-90476617D01*
X112658921Y-90495830D01*
X112671218Y-90516347D01*
X112681446Y-90537971D01*
X112689504Y-90560493D01*
X112695316Y-90583697D01*
X112698826Y-90607358D01*
X112700000Y-90631250D01*
X112700000Y-91118750D01*
X112698826Y-91142642D01*
X112695316Y-91166303D01*
X112689504Y-91189507D01*
X112681446Y-91212029D01*
X112671218Y-91233653D01*
X112658921Y-91254170D01*
X112644671Y-91273383D01*
X112628607Y-91291107D01*
X112610883Y-91307171D01*
X112591670Y-91321421D01*
X112571153Y-91333718D01*
X112549529Y-91343946D01*
X112527007Y-91352004D01*
X112503803Y-91357816D01*
X112480142Y-91361326D01*
X112456250Y-91362500D01*
X111543750Y-91362500D01*
X111519858Y-91361326D01*
X111496197Y-91357816D01*
X111472993Y-91352004D01*
X111450471Y-91343946D01*
X111428847Y-91333718D01*
X111408330Y-91321421D01*
X111389117Y-91307171D01*
X111371393Y-91291107D01*
X111355329Y-91273383D01*
X111341079Y-91254170D01*
X111328782Y-91233653D01*
X111318554Y-91212029D01*
X111310496Y-91189507D01*
X111304684Y-91166303D01*
X111301174Y-91142642D01*
X111300000Y-91118750D01*
X111300000Y-90631250D01*
X111301174Y-90607358D01*
X111304684Y-90583697D01*
X111310496Y-90560493D01*
X111318554Y-90537971D01*
X111328782Y-90516347D01*
X111341079Y-90495830D01*
X111355329Y-90476617D01*
X111371393Y-90458893D01*
X111389117Y-90442829D01*
X111408330Y-90428579D01*
X111428847Y-90416282D01*
X111450471Y-90406054D01*
X111472993Y-90397996D01*
X111496197Y-90392184D01*
X111519858Y-90388674D01*
X111543750Y-90387500D01*
X112456250Y-90387500D01*
X112480142Y-90388674D01*
G37*
G04 #@! TD.AperFunction*
G04 #@! TA.AperFunction,SMDPad,CuDef*
G36*
X116480142Y-86388674D02*
G01*
X116503803Y-86392184D01*
X116527007Y-86397996D01*
X116549529Y-86406054D01*
X116571153Y-86416282D01*
X116591670Y-86428579D01*
X116610883Y-86442829D01*
X116628607Y-86458893D01*
X116644671Y-86476617D01*
X116658921Y-86495830D01*
X116671218Y-86516347D01*
X116681446Y-86537971D01*
X116689504Y-86560493D01*
X116695316Y-86583697D01*
X116698826Y-86607358D01*
X116700000Y-86631250D01*
X116700000Y-87118750D01*
X116698826Y-87142642D01*
X116695316Y-87166303D01*
X116689504Y-87189507D01*
X116681446Y-87212029D01*
X116671218Y-87233653D01*
X116658921Y-87254170D01*
X116644671Y-87273383D01*
X116628607Y-87291107D01*
X116610883Y-87307171D01*
X116591670Y-87321421D01*
X116571153Y-87333718D01*
X116549529Y-87343946D01*
X116527007Y-87352004D01*
X116503803Y-87357816D01*
X116480142Y-87361326D01*
X116456250Y-87362500D01*
X115543750Y-87362500D01*
X115519858Y-87361326D01*
X115496197Y-87357816D01*
X115472993Y-87352004D01*
X115450471Y-87343946D01*
X115428847Y-87333718D01*
X115408330Y-87321421D01*
X115389117Y-87307171D01*
X115371393Y-87291107D01*
X115355329Y-87273383D01*
X115341079Y-87254170D01*
X115328782Y-87233653D01*
X115318554Y-87212029D01*
X115310496Y-87189507D01*
X115304684Y-87166303D01*
X115301174Y-87142642D01*
X115300000Y-87118750D01*
X115300000Y-86631250D01*
X115301174Y-86607358D01*
X115304684Y-86583697D01*
X115310496Y-86560493D01*
X115318554Y-86537971D01*
X115328782Y-86516347D01*
X115341079Y-86495830D01*
X115355329Y-86476617D01*
X115371393Y-86458893D01*
X115389117Y-86442829D01*
X115408330Y-86428579D01*
X115428847Y-86416282D01*
X115450471Y-86406054D01*
X115472993Y-86397996D01*
X115496197Y-86392184D01*
X115519858Y-86388674D01*
X115543750Y-86387500D01*
X116456250Y-86387500D01*
X116480142Y-86388674D01*
G37*
G04 #@! TD.AperFunction*
G04 #@! TA.AperFunction,SMDPad,CuDef*
G36*
X116480142Y-84513674D02*
G01*
X116503803Y-84517184D01*
X116527007Y-84522996D01*
X116549529Y-84531054D01*
X116571153Y-84541282D01*
X116591670Y-84553579D01*
X116610883Y-84567829D01*
X116628607Y-84583893D01*
X116644671Y-84601617D01*
X116658921Y-84620830D01*
X116671218Y-84641347D01*
X116681446Y-84662971D01*
X116689504Y-84685493D01*
X116695316Y-84708697D01*
X116698826Y-84732358D01*
X116700000Y-84756250D01*
X116700000Y-85243750D01*
X116698826Y-85267642D01*
X116695316Y-85291303D01*
X116689504Y-85314507D01*
X116681446Y-85337029D01*
X116671218Y-85358653D01*
X116658921Y-85379170D01*
X116644671Y-85398383D01*
X116628607Y-85416107D01*
X116610883Y-85432171D01*
X116591670Y-85446421D01*
X116571153Y-85458718D01*
X116549529Y-85468946D01*
X116527007Y-85477004D01*
X116503803Y-85482816D01*
X116480142Y-85486326D01*
X116456250Y-85487500D01*
X115543750Y-85487500D01*
X115519858Y-85486326D01*
X115496197Y-85482816D01*
X115472993Y-85477004D01*
X115450471Y-85468946D01*
X115428847Y-85458718D01*
X115408330Y-85446421D01*
X115389117Y-85432171D01*
X115371393Y-85416107D01*
X115355329Y-85398383D01*
X115341079Y-85379170D01*
X115328782Y-85358653D01*
X115318554Y-85337029D01*
X115310496Y-85314507D01*
X115304684Y-85291303D01*
X115301174Y-85267642D01*
X115300000Y-85243750D01*
X115300000Y-84756250D01*
X115301174Y-84732358D01*
X115304684Y-84708697D01*
X115310496Y-84685493D01*
X115318554Y-84662971D01*
X115328782Y-84641347D01*
X115341079Y-84620830D01*
X115355329Y-84601617D01*
X115371393Y-84583893D01*
X115389117Y-84567829D01*
X115408330Y-84553579D01*
X115428847Y-84541282D01*
X115450471Y-84531054D01*
X115472993Y-84522996D01*
X115496197Y-84517184D01*
X115519858Y-84513674D01*
X115543750Y-84512500D01*
X116456250Y-84512500D01*
X116480142Y-84513674D01*
G37*
G04 #@! TD.AperFunction*
D22*
X120600000Y-96500000D03*
X106000000Y-53340000D03*
G04 #@! TA.AperFunction,SMDPad,CuDef*
D16*
G36*
X116480142Y-90513674D02*
G01*
X116503803Y-90517184D01*
X116527007Y-90522996D01*
X116549529Y-90531054D01*
X116571153Y-90541282D01*
X116591670Y-90553579D01*
X116610883Y-90567829D01*
X116628607Y-90583893D01*
X116644671Y-90601617D01*
X116658921Y-90620830D01*
X116671218Y-90641347D01*
X116681446Y-90662971D01*
X116689504Y-90685493D01*
X116695316Y-90708697D01*
X116698826Y-90732358D01*
X116700000Y-90756250D01*
X116700000Y-91243750D01*
X116698826Y-91267642D01*
X116695316Y-91291303D01*
X116689504Y-91314507D01*
X116681446Y-91337029D01*
X116671218Y-91358653D01*
X116658921Y-91379170D01*
X116644671Y-91398383D01*
X116628607Y-91416107D01*
X116610883Y-91432171D01*
X116591670Y-91446421D01*
X116571153Y-91458718D01*
X116549529Y-91468946D01*
X116527007Y-91477004D01*
X116503803Y-91482816D01*
X116480142Y-91486326D01*
X116456250Y-91487500D01*
X115543750Y-91487500D01*
X115519858Y-91486326D01*
X115496197Y-91482816D01*
X115472993Y-91477004D01*
X115450471Y-91468946D01*
X115428847Y-91458718D01*
X115408330Y-91446421D01*
X115389117Y-91432171D01*
X115371393Y-91416107D01*
X115355329Y-91398383D01*
X115341079Y-91379170D01*
X115328782Y-91358653D01*
X115318554Y-91337029D01*
X115310496Y-91314507D01*
X115304684Y-91291303D01*
X115301174Y-91267642D01*
X115300000Y-91243750D01*
X115300000Y-90756250D01*
X115301174Y-90732358D01*
X115304684Y-90708697D01*
X115310496Y-90685493D01*
X115318554Y-90662971D01*
X115328782Y-90641347D01*
X115341079Y-90620830D01*
X115355329Y-90601617D01*
X115371393Y-90583893D01*
X115389117Y-90567829D01*
X115408330Y-90553579D01*
X115428847Y-90541282D01*
X115450471Y-90531054D01*
X115472993Y-90522996D01*
X115496197Y-90517184D01*
X115519858Y-90513674D01*
X115543750Y-90512500D01*
X116456250Y-90512500D01*
X116480142Y-90513674D01*
G37*
G04 #@! TD.AperFunction*
G04 #@! TA.AperFunction,SMDPad,CuDef*
G36*
X116480142Y-88638674D02*
G01*
X116503803Y-88642184D01*
X116527007Y-88647996D01*
X116549529Y-88656054D01*
X116571153Y-88666282D01*
X116591670Y-88678579D01*
X116610883Y-88692829D01*
X116628607Y-88708893D01*
X116644671Y-88726617D01*
X116658921Y-88745830D01*
X116671218Y-88766347D01*
X116681446Y-88787971D01*
X116689504Y-88810493D01*
X116695316Y-88833697D01*
X116698826Y-88857358D01*
X116700000Y-88881250D01*
X116700000Y-89368750D01*
X116698826Y-89392642D01*
X116695316Y-89416303D01*
X116689504Y-89439507D01*
X116681446Y-89462029D01*
X116671218Y-89483653D01*
X116658921Y-89504170D01*
X116644671Y-89523383D01*
X116628607Y-89541107D01*
X116610883Y-89557171D01*
X116591670Y-89571421D01*
X116571153Y-89583718D01*
X116549529Y-89593946D01*
X116527007Y-89602004D01*
X116503803Y-89607816D01*
X116480142Y-89611326D01*
X116456250Y-89612500D01*
X115543750Y-89612500D01*
X115519858Y-89611326D01*
X115496197Y-89607816D01*
X115472993Y-89602004D01*
X115450471Y-89593946D01*
X115428847Y-89583718D01*
X115408330Y-89571421D01*
X115389117Y-89557171D01*
X115371393Y-89541107D01*
X115355329Y-89523383D01*
X115341079Y-89504170D01*
X115328782Y-89483653D01*
X115318554Y-89462029D01*
X115310496Y-89439507D01*
X115304684Y-89416303D01*
X115301174Y-89392642D01*
X115300000Y-89368750D01*
X115300000Y-88881250D01*
X115301174Y-88857358D01*
X115304684Y-88833697D01*
X115310496Y-88810493D01*
X115318554Y-88787971D01*
X115328782Y-88766347D01*
X115341079Y-88745830D01*
X115355329Y-88726617D01*
X115371393Y-88708893D01*
X115389117Y-88692829D01*
X115408330Y-88678579D01*
X115428847Y-88666282D01*
X115450471Y-88656054D01*
X115472993Y-88647996D01*
X115496197Y-88642184D01*
X115519858Y-88638674D01*
X115543750Y-88637500D01*
X116456250Y-88637500D01*
X116480142Y-88638674D01*
G37*
G04 #@! TD.AperFunction*
G04 #@! TA.AperFunction,SMDPad,CuDef*
G36*
X106480142Y-75451174D02*
G01*
X106503803Y-75454684D01*
X106527007Y-75460496D01*
X106549529Y-75468554D01*
X106571153Y-75478782D01*
X106591670Y-75491079D01*
X106610883Y-75505329D01*
X106628607Y-75521393D01*
X106644671Y-75539117D01*
X106658921Y-75558330D01*
X106671218Y-75578847D01*
X106681446Y-75600471D01*
X106689504Y-75622993D01*
X106695316Y-75646197D01*
X106698826Y-75669858D01*
X106700000Y-75693750D01*
X106700000Y-76181250D01*
X106698826Y-76205142D01*
X106695316Y-76228803D01*
X106689504Y-76252007D01*
X106681446Y-76274529D01*
X106671218Y-76296153D01*
X106658921Y-76316670D01*
X106644671Y-76335883D01*
X106628607Y-76353607D01*
X106610883Y-76369671D01*
X106591670Y-76383921D01*
X106571153Y-76396218D01*
X106549529Y-76406446D01*
X106527007Y-76414504D01*
X106503803Y-76420316D01*
X106480142Y-76423826D01*
X106456250Y-76425000D01*
X105543750Y-76425000D01*
X105519858Y-76423826D01*
X105496197Y-76420316D01*
X105472993Y-76414504D01*
X105450471Y-76406446D01*
X105428847Y-76396218D01*
X105408330Y-76383921D01*
X105389117Y-76369671D01*
X105371393Y-76353607D01*
X105355329Y-76335883D01*
X105341079Y-76316670D01*
X105328782Y-76296153D01*
X105318554Y-76274529D01*
X105310496Y-76252007D01*
X105304684Y-76228803D01*
X105301174Y-76205142D01*
X105300000Y-76181250D01*
X105300000Y-75693750D01*
X105301174Y-75669858D01*
X105304684Y-75646197D01*
X105310496Y-75622993D01*
X105318554Y-75600471D01*
X105328782Y-75578847D01*
X105341079Y-75558330D01*
X105355329Y-75539117D01*
X105371393Y-75521393D01*
X105389117Y-75505329D01*
X105408330Y-75491079D01*
X105428847Y-75478782D01*
X105450471Y-75468554D01*
X105472993Y-75460496D01*
X105496197Y-75454684D01*
X105519858Y-75451174D01*
X105543750Y-75450000D01*
X106456250Y-75450000D01*
X106480142Y-75451174D01*
G37*
G04 #@! TD.AperFunction*
G04 #@! TA.AperFunction,SMDPad,CuDef*
G36*
X106480142Y-73576174D02*
G01*
X106503803Y-73579684D01*
X106527007Y-73585496D01*
X106549529Y-73593554D01*
X106571153Y-73603782D01*
X106591670Y-73616079D01*
X106610883Y-73630329D01*
X106628607Y-73646393D01*
X106644671Y-73664117D01*
X106658921Y-73683330D01*
X106671218Y-73703847D01*
X106681446Y-73725471D01*
X106689504Y-73747993D01*
X106695316Y-73771197D01*
X106698826Y-73794858D01*
X106700000Y-73818750D01*
X106700000Y-74306250D01*
X106698826Y-74330142D01*
X106695316Y-74353803D01*
X106689504Y-74377007D01*
X106681446Y-74399529D01*
X106671218Y-74421153D01*
X106658921Y-74441670D01*
X106644671Y-74460883D01*
X106628607Y-74478607D01*
X106610883Y-74494671D01*
X106591670Y-74508921D01*
X106571153Y-74521218D01*
X106549529Y-74531446D01*
X106527007Y-74539504D01*
X106503803Y-74545316D01*
X106480142Y-74548826D01*
X106456250Y-74550000D01*
X105543750Y-74550000D01*
X105519858Y-74548826D01*
X105496197Y-74545316D01*
X105472993Y-74539504D01*
X105450471Y-74531446D01*
X105428847Y-74521218D01*
X105408330Y-74508921D01*
X105389117Y-74494671D01*
X105371393Y-74478607D01*
X105355329Y-74460883D01*
X105341079Y-74441670D01*
X105328782Y-74421153D01*
X105318554Y-74399529D01*
X105310496Y-74377007D01*
X105304684Y-74353803D01*
X105301174Y-74330142D01*
X105300000Y-74306250D01*
X105300000Y-73818750D01*
X105301174Y-73794858D01*
X105304684Y-73771197D01*
X105310496Y-73747993D01*
X105318554Y-73725471D01*
X105328782Y-73703847D01*
X105341079Y-73683330D01*
X105355329Y-73664117D01*
X105371393Y-73646393D01*
X105389117Y-73630329D01*
X105408330Y-73616079D01*
X105428847Y-73603782D01*
X105450471Y-73593554D01*
X105472993Y-73585496D01*
X105496197Y-73579684D01*
X105519858Y-73576174D01*
X105543750Y-73575000D01*
X106456250Y-73575000D01*
X106480142Y-73576174D01*
G37*
G04 #@! TD.AperFunction*
G04 #@! TA.AperFunction,SMDPad,CuDef*
G36*
X110680142Y-79151174D02*
G01*
X110703803Y-79154684D01*
X110727007Y-79160496D01*
X110749529Y-79168554D01*
X110771153Y-79178782D01*
X110791670Y-79191079D01*
X110810883Y-79205329D01*
X110828607Y-79221393D01*
X110844671Y-79239117D01*
X110858921Y-79258330D01*
X110871218Y-79278847D01*
X110881446Y-79300471D01*
X110889504Y-79322993D01*
X110895316Y-79346197D01*
X110898826Y-79369858D01*
X110900000Y-79393750D01*
X110900000Y-79881250D01*
X110898826Y-79905142D01*
X110895316Y-79928803D01*
X110889504Y-79952007D01*
X110881446Y-79974529D01*
X110871218Y-79996153D01*
X110858921Y-80016670D01*
X110844671Y-80035883D01*
X110828607Y-80053607D01*
X110810883Y-80069671D01*
X110791670Y-80083921D01*
X110771153Y-80096218D01*
X110749529Y-80106446D01*
X110727007Y-80114504D01*
X110703803Y-80120316D01*
X110680142Y-80123826D01*
X110656250Y-80125000D01*
X109743750Y-80125000D01*
X109719858Y-80123826D01*
X109696197Y-80120316D01*
X109672993Y-80114504D01*
X109650471Y-80106446D01*
X109628847Y-80096218D01*
X109608330Y-80083921D01*
X109589117Y-80069671D01*
X109571393Y-80053607D01*
X109555329Y-80035883D01*
X109541079Y-80016670D01*
X109528782Y-79996153D01*
X109518554Y-79974529D01*
X109510496Y-79952007D01*
X109504684Y-79928803D01*
X109501174Y-79905142D01*
X109500000Y-79881250D01*
X109500000Y-79393750D01*
X109501174Y-79369858D01*
X109504684Y-79346197D01*
X109510496Y-79322993D01*
X109518554Y-79300471D01*
X109528782Y-79278847D01*
X109541079Y-79258330D01*
X109555329Y-79239117D01*
X109571393Y-79221393D01*
X109589117Y-79205329D01*
X109608330Y-79191079D01*
X109628847Y-79178782D01*
X109650471Y-79168554D01*
X109672993Y-79160496D01*
X109696197Y-79154684D01*
X109719858Y-79151174D01*
X109743750Y-79150000D01*
X110656250Y-79150000D01*
X110680142Y-79151174D01*
G37*
G04 #@! TD.AperFunction*
G04 #@! TA.AperFunction,SMDPad,CuDef*
G36*
X110680142Y-77276174D02*
G01*
X110703803Y-77279684D01*
X110727007Y-77285496D01*
X110749529Y-77293554D01*
X110771153Y-77303782D01*
X110791670Y-77316079D01*
X110810883Y-77330329D01*
X110828607Y-77346393D01*
X110844671Y-77364117D01*
X110858921Y-77383330D01*
X110871218Y-77403847D01*
X110881446Y-77425471D01*
X110889504Y-77447993D01*
X110895316Y-77471197D01*
X110898826Y-77494858D01*
X110900000Y-77518750D01*
X110900000Y-78006250D01*
X110898826Y-78030142D01*
X110895316Y-78053803D01*
X110889504Y-78077007D01*
X110881446Y-78099529D01*
X110871218Y-78121153D01*
X110858921Y-78141670D01*
X110844671Y-78160883D01*
X110828607Y-78178607D01*
X110810883Y-78194671D01*
X110791670Y-78208921D01*
X110771153Y-78221218D01*
X110749529Y-78231446D01*
X110727007Y-78239504D01*
X110703803Y-78245316D01*
X110680142Y-78248826D01*
X110656250Y-78250000D01*
X109743750Y-78250000D01*
X109719858Y-78248826D01*
X109696197Y-78245316D01*
X109672993Y-78239504D01*
X109650471Y-78231446D01*
X109628847Y-78221218D01*
X109608330Y-78208921D01*
X109589117Y-78194671D01*
X109571393Y-78178607D01*
X109555329Y-78160883D01*
X109541079Y-78141670D01*
X109528782Y-78121153D01*
X109518554Y-78099529D01*
X109510496Y-78077007D01*
X109504684Y-78053803D01*
X109501174Y-78030142D01*
X109500000Y-78006250D01*
X109500000Y-77518750D01*
X109501174Y-77494858D01*
X109504684Y-77471197D01*
X109510496Y-77447993D01*
X109518554Y-77425471D01*
X109528782Y-77403847D01*
X109541079Y-77383330D01*
X109555329Y-77364117D01*
X109571393Y-77346393D01*
X109589117Y-77330329D01*
X109608330Y-77316079D01*
X109628847Y-77303782D01*
X109650471Y-77293554D01*
X109672993Y-77285496D01*
X109696197Y-77279684D01*
X109719858Y-77276174D01*
X109743750Y-77275000D01*
X110656250Y-77275000D01*
X110680142Y-77276174D01*
G37*
G04 #@! TD.AperFunction*
D17*
X109050000Y-75400000D03*
X110950000Y-75400000D03*
X110000000Y-73400000D03*
D23*
X117062500Y-93500000D03*
X109700000Y-88500000D03*
X129000000Y-60000000D03*
X105000000Y-86000000D03*
X113200000Y-96000000D03*
X107625000Y-58334058D03*
X129000000Y-75000000D03*
X126202194Y-80125795D03*
X122000000Y-83000000D03*
X123000000Y-54000000D03*
X129800000Y-79850000D03*
X130550000Y-72400000D03*
X112200000Y-60100000D03*
X107650000Y-60000000D03*
X113005000Y-49745000D03*
X112950000Y-57350000D03*
X122300000Y-88800000D03*
X121587347Y-86787347D03*
X114200000Y-87600000D03*
X106900000Y-55800000D03*
X116580002Y-51015000D03*
X112500000Y-82000000D03*
X128300000Y-67500000D03*
X118000000Y-83400000D03*
X125500000Y-97000000D03*
X124300000Y-87600000D03*
X116000000Y-91200003D03*
X106000000Y-91000000D03*
X126500000Y-62445000D03*
X108999958Y-82000000D03*
X110139283Y-72167638D03*
X107657000Y-52285000D03*
X105000000Y-66547984D03*
D24*
X117600000Y-79175000D02*
X117625000Y-79200000D01*
X117600000Y-75475000D02*
X117600000Y-79175000D01*
X117625000Y-79200000D02*
X115600000Y-79200000D01*
X112537500Y-86200000D02*
X113800000Y-86200000D01*
X115000000Y-85000000D02*
X116000000Y-85000000D01*
X113800000Y-86200000D02*
X115000000Y-85000000D01*
X112537500Y-86687500D02*
X111618855Y-87606145D01*
X112537500Y-86200000D02*
X112537500Y-86687500D01*
X110593855Y-87606145D02*
X109700000Y-88500000D01*
X111618855Y-87606145D02*
X110593855Y-87606145D01*
X116000000Y-85000000D02*
X120000000Y-85000000D01*
X130810000Y-61810000D02*
X129000000Y-60000000D01*
X130810000Y-63340000D02*
X130810000Y-61810000D01*
X109000000Y-96000000D02*
X112000000Y-96000000D01*
X107900000Y-94900000D02*
X109000000Y-96000000D01*
X107900000Y-91000000D02*
X107900000Y-94900000D01*
X107900000Y-90950000D02*
X107250000Y-90300000D01*
X107250000Y-90300000D02*
X106814998Y-90300000D01*
X107900000Y-91000000D02*
X107900000Y-90950000D01*
X106814998Y-90300000D02*
X105000000Y-88485002D01*
X105000000Y-88485002D02*
X105000000Y-86000000D01*
X113200000Y-96000000D02*
X112000000Y-96000000D01*
X112000000Y-96000000D02*
X111000000Y-96000000D01*
X110950000Y-95200000D02*
X110950000Y-94500000D01*
X111000000Y-96000000D02*
X110950000Y-95200000D01*
X104000000Y-85000000D02*
X105000000Y-86000000D01*
X106934000Y-70066000D02*
X104000000Y-73000000D01*
X111066000Y-70066000D02*
X106934000Y-70066000D01*
X112000000Y-71000000D02*
X111066000Y-70066000D01*
X109050000Y-74700000D02*
X109348842Y-74401158D01*
X109050000Y-75400000D02*
X109050000Y-74700000D01*
X112000000Y-73000000D02*
X112000000Y-71000000D01*
X109348842Y-74401158D02*
X110598842Y-74401158D01*
X110598842Y-74401158D02*
X112000000Y-73000000D01*
X128600001Y-74600001D02*
X129000000Y-75000000D01*
X127440000Y-73440000D02*
X128600001Y-74600001D01*
X124800000Y-73440000D02*
X127440000Y-73440000D01*
D25*
X129000000Y-75000000D02*
X129000000Y-77327989D01*
X129000000Y-77327989D02*
X126202194Y-80125795D01*
X122000000Y-83000000D02*
X120000000Y-85000000D01*
D24*
X117625000Y-79900000D02*
X114525000Y-83000000D01*
X117625000Y-79200000D02*
X117625000Y-79900000D01*
X114525000Y-83000000D02*
X112000000Y-83000000D01*
X112000000Y-83000000D02*
X110000000Y-81000000D01*
X110000000Y-81000000D02*
X104000000Y-81000000D01*
X104000000Y-73000000D02*
X104000000Y-81000000D01*
X104000000Y-81000000D02*
X104000000Y-85000000D01*
X118745000Y-49745000D02*
X109500000Y-49745000D01*
X123000000Y-54000000D02*
X118745000Y-49745000D01*
X126500000Y-49745000D02*
X118745000Y-49745000D01*
X112285000Y-67255000D02*
X112285000Y-68635000D01*
X112285000Y-68635000D02*
X114750000Y-71100000D01*
X114750000Y-71100000D02*
X117900000Y-71100000D01*
X117900000Y-71100000D02*
X119350000Y-72550000D01*
X119350000Y-73725000D02*
X117600000Y-75475000D01*
X119350000Y-72550000D02*
X119350000Y-73725000D01*
X126477989Y-79850000D02*
X126202194Y-80125795D01*
X129800000Y-79850000D02*
X126477989Y-79850000D01*
X129000000Y-73950000D02*
X130550000Y-72400000D01*
X129000000Y-75000000D02*
X129000000Y-73950000D01*
X112285000Y-67255000D02*
X112200000Y-60100000D01*
X109500000Y-49745000D02*
X113005000Y-49745000D01*
X112200000Y-60100000D02*
X112200000Y-58100000D01*
X117000000Y-57245000D02*
X113055000Y-57245000D01*
X112200000Y-58100000D02*
X112950000Y-57350000D01*
X113055000Y-57245000D02*
X112950000Y-57350000D01*
X104648000Y-61311058D02*
X107625000Y-58334058D01*
X106934000Y-66622000D02*
X104902000Y-64590000D01*
X104902000Y-64590000D02*
X104902000Y-63340000D01*
X104902000Y-63340000D02*
X104648000Y-63086000D01*
X106934000Y-70066000D02*
X106934000Y-66622000D01*
X104648000Y-63086000D02*
X104648000Y-61311058D01*
X107515529Y-59865529D02*
X107650000Y-60000000D01*
X106093529Y-59865529D02*
X107515529Y-59865529D01*
X122300000Y-89300000D02*
X122300000Y-88800000D01*
X124100000Y-91100000D02*
X122300000Y-89300000D01*
X124300000Y-91100000D02*
X124100000Y-91100000D01*
X120087653Y-86787347D02*
X120000000Y-86875000D01*
X121587347Y-86787347D02*
X120087653Y-86787347D01*
X116000000Y-86875000D02*
X120000000Y-86875000D01*
X114925000Y-86875000D02*
X114200000Y-87600000D01*
X116000000Y-86875000D02*
X114925000Y-86875000D01*
X106900000Y-54240000D02*
X106000000Y-53340000D01*
X106900000Y-55800000D02*
X106900000Y-54240000D01*
X109285000Y-53340000D02*
X109500000Y-53555000D01*
X106000000Y-53340000D02*
X109285000Y-53340000D01*
D25*
X112537500Y-84287500D02*
X112537500Y-84325000D01*
X109500000Y-51015000D02*
X116580002Y-51015000D01*
X121800000Y-74190000D02*
X121800000Y-73440000D01*
X119500000Y-79200000D02*
X119500000Y-76490000D01*
X119500000Y-76490000D02*
X121800000Y-74190000D01*
X113093737Y-83768763D02*
X112537500Y-84325000D01*
X116231237Y-83768763D02*
X113093737Y-83768763D01*
X119500000Y-79200000D02*
X119500000Y-80500000D01*
X119500000Y-80500000D02*
X116231237Y-83768763D01*
X121800000Y-71690000D02*
X121800000Y-73440000D01*
X124615001Y-68874999D02*
X121800000Y-71690000D01*
X124615001Y-57665001D02*
X124615001Y-68874999D01*
X116580002Y-51015000D02*
X117965000Y-51015000D01*
X117965000Y-51015000D02*
X124615001Y-57665001D01*
X106175500Y-49784000D02*
X106000000Y-49608500D01*
X106680000Y-49784000D02*
X106175500Y-49784000D01*
X109500000Y-51015000D02*
X107911000Y-51015000D01*
X107911000Y-51015000D02*
X106680000Y-49784000D01*
D24*
X110637500Y-79200000D02*
X110200000Y-79637500D01*
X123300000Y-73440000D02*
X123300000Y-76904350D01*
D25*
X127490000Y-67500000D02*
X128300000Y-67500000D01*
X123300000Y-71690000D02*
X127490000Y-67500000D01*
X123300000Y-73440000D02*
X123300000Y-71690000D01*
X113287500Y-79637500D02*
X113725000Y-79200000D01*
X110200000Y-79637500D02*
X113287500Y-79637500D01*
X113725000Y-76675000D02*
X114800000Y-75600000D01*
X113725000Y-79200000D02*
X113725000Y-76675000D01*
X113725000Y-80275000D02*
X113725000Y-79200000D01*
X112500000Y-82000000D02*
X112500000Y-81500000D01*
X112500000Y-81500000D02*
X113725000Y-80275000D01*
X124602790Y-94602790D02*
X124703001Y-94703001D01*
X123300000Y-79900000D02*
X127000000Y-83600000D01*
X123300000Y-77400000D02*
X123300000Y-79900000D01*
X127000000Y-91502490D02*
X124602790Y-93899700D01*
X124602790Y-93899700D02*
X124602790Y-94602790D01*
X123300000Y-79458213D02*
X123300000Y-77400000D01*
X118000000Y-83400000D02*
X119358213Y-83400000D01*
X119358213Y-83400000D02*
X123300000Y-79458213D01*
X127000000Y-83600000D02*
X127000000Y-91502490D01*
X127728000Y-84328000D02*
X127000000Y-83600000D01*
X130302000Y-84328000D02*
X127728000Y-84328000D01*
D26*
X117800000Y-102400000D02*
X117800000Y-150900000D01*
D24*
X124856237Y-83781237D02*
X124300000Y-83225000D01*
X124500000Y-87600000D02*
X125325010Y-86774990D01*
X125325010Y-84250010D02*
X124856237Y-83781237D01*
X125325010Y-86774990D02*
X125325010Y-84250010D01*
X124300000Y-87600000D02*
X124500000Y-87600000D01*
X118937500Y-101262500D02*
X117800000Y-102400000D01*
X118937500Y-93500000D02*
X118937500Y-101262500D01*
X115650010Y-94525010D02*
X112556237Y-91431237D01*
X117541840Y-94525010D02*
X115650010Y-94525010D01*
X117875010Y-94191840D02*
X117541840Y-94525010D01*
X117875010Y-93974990D02*
X117875010Y-94191840D01*
X118350000Y-93500000D02*
X117875010Y-93974990D01*
X112556237Y-91431237D02*
X112000000Y-90875000D01*
X118937500Y-93500000D02*
X118350000Y-93500000D01*
X120600000Y-95162500D02*
X118937500Y-93500000D01*
X120600000Y-96500000D02*
X120600000Y-95162500D01*
X125499644Y-97000356D02*
X125500000Y-97000000D01*
X120600000Y-96500000D02*
X121100356Y-97000356D01*
X121100356Y-97000356D02*
X125499644Y-97000356D01*
X120337500Y-89062500D02*
X120000000Y-89062500D01*
X124300000Y-85100000D02*
X120337500Y-89062500D01*
X119937500Y-89125000D02*
X120000000Y-89062500D01*
X116000000Y-89125000D02*
X119937500Y-89125000D01*
X128715000Y-63715000D02*
X127750000Y-63715000D01*
X132392776Y-67392776D02*
X128715000Y-63715000D01*
X121574999Y-87825001D02*
X121574999Y-93363189D01*
X132392776Y-85607224D02*
X132392776Y-67392776D01*
X124300000Y-85100000D02*
X121574999Y-87825001D01*
X128700000Y-93883162D02*
X128700000Y-89300000D01*
X121574999Y-93363189D02*
X123911820Y-95700010D01*
X127750000Y-63715000D02*
X126500000Y-63715000D01*
X123911820Y-95700010D02*
X126883151Y-95700010D01*
X128700000Y-89300000D02*
X132392776Y-85607224D01*
X126883151Y-95700010D02*
X128700000Y-93883162D01*
D25*
X129960000Y-54825000D02*
X130810000Y-53975000D01*
X126500000Y-54825000D02*
X129960000Y-54825000D01*
X130810000Y-51435000D02*
X130565000Y-51435000D01*
X128445000Y-53555000D02*
X126500000Y-53555000D01*
X130565000Y-51435000D02*
X128445000Y-53555000D01*
D24*
X119937500Y-91000000D02*
X120000000Y-90937500D01*
X116000000Y-91000000D02*
X119937500Y-91000000D01*
X116000000Y-91000000D02*
X116000000Y-91200003D01*
X111181485Y-89000000D02*
X112000000Y-89000000D01*
X110000000Y-92500000D02*
X110000000Y-90181485D01*
X110000000Y-90181485D02*
X111181485Y-89000000D01*
X109700000Y-86200000D02*
X110200000Y-86200000D01*
X106950000Y-88950000D02*
X109700000Y-86200000D01*
X106950000Y-89000000D02*
X106950000Y-88950000D01*
X109050000Y-93800000D02*
X109050000Y-94500000D01*
X109050000Y-90450000D02*
X109050000Y-93800000D01*
X107600000Y-89000000D02*
X109050000Y-90450000D01*
X106950000Y-89000000D02*
X107600000Y-89000000D01*
X117475000Y-73725000D02*
X117600000Y-73600000D01*
X114800000Y-73725000D02*
X117475000Y-73725000D01*
X114243763Y-73168763D02*
X114800000Y-73725000D01*
X111250000Y-55400000D02*
X111250000Y-69000000D01*
X111250000Y-69000000D02*
X114243763Y-71993763D01*
X109500000Y-54825000D02*
X110675000Y-54825000D01*
X110675000Y-54825000D02*
X111250000Y-55400000D01*
X114243763Y-71993763D02*
X114243763Y-73168763D01*
X110200000Y-83200042D02*
X110200000Y-84325000D01*
X108999958Y-82000000D02*
X110200000Y-83200042D01*
X110950000Y-77012500D02*
X110200000Y-77762500D01*
X110950000Y-75400000D02*
X110950000Y-77012500D01*
X106000000Y-75937500D02*
X106000000Y-77000000D01*
X106000000Y-77000000D02*
X106762500Y-77762500D01*
X106762500Y-77762500D02*
X110200000Y-77762500D01*
X110000000Y-73400000D02*
X106662500Y-73400000D01*
X106662500Y-73400000D02*
X106000000Y-74062500D01*
X110000000Y-72306921D02*
X110139283Y-72167638D01*
X110000000Y-73400000D02*
X110000000Y-72306921D01*
X106801500Y-52285000D02*
X106000000Y-51483500D01*
X107657000Y-52285000D02*
X106801500Y-52285000D01*
X109500000Y-52285000D02*
X107657000Y-52285000D01*
X104902000Y-68740000D02*
X104902000Y-66645984D01*
X104902000Y-66645984D02*
X105000000Y-66547984D01*
X130810000Y-67490000D02*
X130810000Y-68740000D01*
X129575000Y-66255000D02*
X130810000Y-67490000D01*
X126500000Y-66255000D02*
X129575000Y-66255000D01*
D27*
G36*
X132340001Y-42950801D02*
G01*
X132209523Y-42992191D01*
X132154588Y-43015737D01*
X132099235Y-43038551D01*
X132091129Y-43042935D01*
X131834592Y-43183968D01*
X131785247Y-43217755D01*
X131735409Y-43250867D01*
X131728309Y-43256741D01*
X131504051Y-43444916D01*
X131462207Y-43487646D01*
X131419751Y-43529806D01*
X131413927Y-43536947D01*
X131230491Y-43765097D01*
X131197744Y-43815139D01*
X131164286Y-43864742D01*
X131159960Y-43872879D01*
X131024330Y-44132313D01*
X131001918Y-44187785D01*
X130978740Y-44242923D01*
X130976077Y-44251745D01*
X130893422Y-44532583D01*
X130882224Y-44591284D01*
X130870184Y-44649940D01*
X130869285Y-44659112D01*
X130842753Y-44950656D01*
X130843171Y-45010472D01*
X130842753Y-45070288D01*
X130843652Y-45079460D01*
X130874252Y-45370605D01*
X130886283Y-45429217D01*
X130897489Y-45487963D01*
X130900153Y-45496784D01*
X130986721Y-45776440D01*
X131009899Y-45831578D01*
X131032311Y-45887050D01*
X131036638Y-45895186D01*
X131175877Y-46152702D01*
X131209304Y-46202259D01*
X131242080Y-46252347D01*
X131247905Y-46259488D01*
X131434510Y-46485056D01*
X131476965Y-46527215D01*
X131518809Y-46569945D01*
X131525909Y-46575819D01*
X131752773Y-46760845D01*
X131802566Y-46793927D01*
X131851955Y-46827745D01*
X131860061Y-46832127D01*
X132118542Y-46969564D01*
X132173836Y-46992355D01*
X132228829Y-47015925D01*
X132237632Y-47018650D01*
X132340000Y-47049557D01*
X132340000Y-61963210D01*
X132330537Y-61945506D01*
X132251185Y-61848815D01*
X132154494Y-61769463D01*
X132044180Y-61710498D01*
X131924482Y-61674188D01*
X131800000Y-61661928D01*
X131285750Y-61665000D01*
X131127000Y-61823750D01*
X131127000Y-63173000D01*
X131147000Y-63173000D01*
X131147000Y-63427000D01*
X131127000Y-63427000D01*
X131127000Y-63447000D01*
X130873000Y-63447000D01*
X130873000Y-63427000D01*
X129723750Y-63427000D01*
X129612776Y-63537974D01*
X129278804Y-63204003D01*
X129255001Y-63174999D01*
X129139276Y-63080026D01*
X129007247Y-63009454D01*
X128863986Y-62965997D01*
X128752333Y-62955000D01*
X128752322Y-62955000D01*
X128715000Y-62951324D01*
X128677678Y-62955000D01*
X128132163Y-62955000D01*
X128138072Y-62895000D01*
X128138072Y-62300000D01*
X129561928Y-62300000D01*
X129565000Y-63014250D01*
X129723750Y-63173000D01*
X130873000Y-63173000D01*
X130873000Y-61823750D01*
X130714250Y-61665000D01*
X130200000Y-61661928D01*
X130075518Y-61674188D01*
X129955820Y-61710498D01*
X129845506Y-61769463D01*
X129748815Y-61848815D01*
X129669463Y-61945506D01*
X129610498Y-62055820D01*
X129574188Y-62175518D01*
X129561928Y-62300000D01*
X128138072Y-62300000D01*
X128138072Y-61995000D01*
X128125812Y-61870518D01*
X128107454Y-61810000D01*
X128125812Y-61749482D01*
X128138072Y-61625000D01*
X128138072Y-60725000D01*
X128125812Y-60600518D01*
X128107454Y-60540000D01*
X128125812Y-60479482D01*
X128138072Y-60355000D01*
X128138072Y-59455000D01*
X128125812Y-59330518D01*
X128107454Y-59270000D01*
X128125812Y-59209482D01*
X128138072Y-59085000D01*
X128138072Y-58185000D01*
X128125812Y-58060518D01*
X128107454Y-58000000D01*
X128125812Y-57939482D01*
X128138072Y-57815000D01*
X128138072Y-56915000D01*
X128125812Y-56790518D01*
X128107454Y-56730000D01*
X128125812Y-56669482D01*
X128138072Y-56545000D01*
X128138072Y-55710000D01*
X129916531Y-55710000D01*
X129960000Y-55714281D01*
X130003469Y-55710000D01*
X130003477Y-55710000D01*
X130133490Y-55697195D01*
X130300313Y-55646589D01*
X130454059Y-55564411D01*
X130588817Y-55453817D01*
X130594969Y-55446321D01*
X130663740Y-55460000D01*
X130956260Y-55460000D01*
X131243158Y-55402932D01*
X131513411Y-55290990D01*
X131756632Y-55128475D01*
X131963475Y-54921632D01*
X132125990Y-54678411D01*
X132237932Y-54408158D01*
X132295000Y-54121260D01*
X132295000Y-53828740D01*
X132237932Y-53541842D01*
X132125990Y-53271589D01*
X131963475Y-53028368D01*
X131831620Y-52896513D01*
X131904180Y-52874502D01*
X132014494Y-52815537D01*
X132111185Y-52736185D01*
X132190537Y-52639494D01*
X132249502Y-52529180D01*
X132285812Y-52409482D01*
X132298072Y-52285000D01*
X132298072Y-50585000D01*
X132285812Y-50460518D01*
X132249502Y-50340820D01*
X132190537Y-50230506D01*
X132111185Y-50133815D01*
X132014494Y-50054463D01*
X131904180Y-49995498D01*
X131784482Y-49959188D01*
X131660000Y-49946928D01*
X129960000Y-49946928D01*
X129835518Y-49959188D01*
X129715820Y-49995498D01*
X129605506Y-50054463D01*
X129508815Y-50133815D01*
X129429463Y-50230506D01*
X129370498Y-50340820D01*
X129334188Y-50460518D01*
X129321928Y-50585000D01*
X129321928Y-51426493D01*
X128138072Y-52610350D01*
X128138072Y-51835000D01*
X128125812Y-51710518D01*
X128107454Y-51650000D01*
X128125812Y-51589482D01*
X128138072Y-51465000D01*
X128138072Y-50565000D01*
X128125812Y-50440518D01*
X128107454Y-50380000D01*
X128125812Y-50319482D01*
X128138072Y-50195000D01*
X128135000Y-50030750D01*
X127976250Y-49872000D01*
X126627000Y-49872000D01*
X126627000Y-49892000D01*
X126373000Y-49892000D01*
X126373000Y-49872000D01*
X125023750Y-49872000D01*
X124865000Y-50030750D01*
X124861928Y-50195000D01*
X124874188Y-50319482D01*
X124892546Y-50380000D01*
X124874188Y-50440518D01*
X124861928Y-50565000D01*
X124861928Y-51465000D01*
X124874188Y-51589482D01*
X124892546Y-51650000D01*
X124874188Y-51710518D01*
X124861928Y-51835000D01*
X124861928Y-52735000D01*
X124874188Y-52859482D01*
X124892546Y-52920000D01*
X124874188Y-52980518D01*
X124861928Y-53105000D01*
X124861928Y-54005000D01*
X124874188Y-54129482D01*
X124892546Y-54190000D01*
X124874188Y-54250518D01*
X124861928Y-54375000D01*
X124861928Y-55275000D01*
X124874188Y-55399482D01*
X124892546Y-55460000D01*
X124874188Y-55520518D01*
X124861928Y-55645000D01*
X124861928Y-56545000D01*
X124874188Y-56669482D01*
X124875550Y-56673971D01*
X118621534Y-50419956D01*
X118593817Y-50386183D01*
X118459059Y-50275589D01*
X118305313Y-50193411D01*
X118138490Y-50142805D01*
X118008477Y-50130000D01*
X118008469Y-50130000D01*
X117965000Y-50125719D01*
X117921531Y-50130000D01*
X117118456Y-50130000D01*
X117070258Y-50097795D01*
X116881900Y-50019774D01*
X116681941Y-49980000D01*
X116478063Y-49980000D01*
X116278104Y-50019774D01*
X116089746Y-50097795D01*
X116041548Y-50130000D01*
X111136856Y-50130000D01*
X111135000Y-50030750D01*
X110976250Y-49872000D01*
X109627000Y-49872000D01*
X109627000Y-49892000D01*
X109373000Y-49892000D01*
X109373000Y-49872000D01*
X109353000Y-49872000D01*
X109353000Y-49618000D01*
X109373000Y-49618000D01*
X109373000Y-48818750D01*
X109627000Y-48818750D01*
X109627000Y-49618000D01*
X110976250Y-49618000D01*
X111135000Y-49459250D01*
X111138072Y-49295000D01*
X124861928Y-49295000D01*
X124865000Y-49459250D01*
X125023750Y-49618000D01*
X126373000Y-49618000D01*
X126373000Y-48818750D01*
X126627000Y-48818750D01*
X126627000Y-49618000D01*
X127976250Y-49618000D01*
X128135000Y-49459250D01*
X128138072Y-49295000D01*
X128125812Y-49170518D01*
X128089502Y-49050820D01*
X128030537Y-48940506D01*
X127951185Y-48843815D01*
X127854494Y-48764463D01*
X127744180Y-48705498D01*
X127624482Y-48669188D01*
X127500000Y-48656928D01*
X126785750Y-48660000D01*
X126627000Y-48818750D01*
X126373000Y-48818750D01*
X126214250Y-48660000D01*
X125500000Y-48656928D01*
X125375518Y-48669188D01*
X125255820Y-48705498D01*
X125145506Y-48764463D01*
X125048815Y-48843815D01*
X124969463Y-48940506D01*
X124910498Y-49050820D01*
X124874188Y-49170518D01*
X124861928Y-49295000D01*
X111138072Y-49295000D01*
X111125812Y-49170518D01*
X111089502Y-49050820D01*
X111030537Y-48940506D01*
X110951185Y-48843815D01*
X110854494Y-48764463D01*
X110744180Y-48705498D01*
X110624482Y-48669188D01*
X110500000Y-48656928D01*
X109785750Y-48660000D01*
X109627000Y-48818750D01*
X109373000Y-48818750D01*
X109214250Y-48660000D01*
X108500000Y-48656928D01*
X108375518Y-48669188D01*
X108255820Y-48705498D01*
X108145506Y-48764463D01*
X108048815Y-48843815D01*
X107969463Y-48940506D01*
X107910498Y-49050820D01*
X107874188Y-49170518D01*
X107861928Y-49295000D01*
X107865000Y-49459250D01*
X108023748Y-49617998D01*
X107865000Y-49617998D01*
X107865000Y-49717422D01*
X107336532Y-49188954D01*
X107310286Y-49156972D01*
X107270947Y-49027291D01*
X107189458Y-48874836D01*
X107079792Y-48741208D01*
X106946164Y-48631542D01*
X106793709Y-48550053D01*
X106628285Y-48499872D01*
X106456250Y-48482928D01*
X105543750Y-48482928D01*
X105371715Y-48499872D01*
X105206291Y-48550053D01*
X105053836Y-48631542D01*
X104920208Y-48741208D01*
X104810542Y-48874836D01*
X104729053Y-49027291D01*
X104678872Y-49192715D01*
X104661928Y-49364750D01*
X104661928Y-49852250D01*
X104678872Y-50024285D01*
X104729053Y-50189709D01*
X104810542Y-50342164D01*
X104920208Y-50475792D01*
X105005756Y-50546000D01*
X104920208Y-50616208D01*
X104810542Y-50749836D01*
X104729053Y-50902291D01*
X104678872Y-51067715D01*
X104661928Y-51239750D01*
X104661928Y-51727250D01*
X104678872Y-51899285D01*
X104729053Y-52064709D01*
X104810542Y-52217164D01*
X104920208Y-52350792D01*
X105053836Y-52460458D01*
X105197578Y-52537290D01*
X105118388Y-52616480D01*
X104994176Y-52802376D01*
X104908617Y-53008933D01*
X104865000Y-53228212D01*
X104865000Y-53451788D01*
X104908617Y-53671067D01*
X104994176Y-53877624D01*
X105118388Y-54063520D01*
X105276480Y-54221612D01*
X105462376Y-54345824D01*
X105668933Y-54431383D01*
X105888212Y-54475000D01*
X106060198Y-54475000D01*
X106140001Y-54554803D01*
X106140000Y-55096289D01*
X106096063Y-55140226D01*
X105982795Y-55309744D01*
X105904774Y-55498102D01*
X105865000Y-55698061D01*
X105865000Y-55901939D01*
X105904774Y-56101898D01*
X105982795Y-56290256D01*
X106096063Y-56459774D01*
X106240226Y-56603937D01*
X106409744Y-56717205D01*
X106598102Y-56795226D01*
X106798061Y-56835000D01*
X107001939Y-56835000D01*
X107201898Y-56795226D01*
X107390256Y-56717205D01*
X107559774Y-56603937D01*
X107703937Y-56459774D01*
X107817205Y-56290256D01*
X107861928Y-56182286D01*
X107861928Y-56545000D01*
X107874188Y-56669482D01*
X107892546Y-56730000D01*
X107874188Y-56790518D01*
X107861928Y-56915000D01*
X107861928Y-57815000D01*
X107874188Y-57939482D01*
X107892546Y-58000000D01*
X107874188Y-58060518D01*
X107861928Y-58185000D01*
X107861928Y-59085000D01*
X107874188Y-59209482D01*
X107892546Y-59270000D01*
X107874188Y-59330518D01*
X107861928Y-59455000D01*
X107861928Y-60355000D01*
X107874188Y-60479482D01*
X107892546Y-60540000D01*
X107874188Y-60600518D01*
X107861928Y-60725000D01*
X107861928Y-61625000D01*
X107874188Y-61749482D01*
X107892546Y-61810000D01*
X107874188Y-61870518D01*
X107861928Y-61995000D01*
X107861928Y-62895000D01*
X107874188Y-63019482D01*
X107892546Y-63080000D01*
X107874188Y-63140518D01*
X107861928Y-63265000D01*
X107861928Y-64165000D01*
X107874188Y-64289482D01*
X107892546Y-64350000D01*
X107874188Y-64410518D01*
X107861928Y-64535000D01*
X107861928Y-65435000D01*
X107874188Y-65559482D01*
X107892546Y-65620000D01*
X107874188Y-65680518D01*
X107861928Y-65805000D01*
X107861928Y-66705000D01*
X107874188Y-66829482D01*
X107910498Y-66949180D01*
X107969463Y-67059494D01*
X108048815Y-67156185D01*
X108145506Y-67235537D01*
X108255820Y-67294502D01*
X108375518Y-67330812D01*
X108500000Y-67343072D01*
X110490001Y-67343072D01*
X110490001Y-68962668D01*
X110486324Y-69000000D01*
X110500998Y-69148985D01*
X110544454Y-69292246D01*
X110615026Y-69424276D01*
X110680304Y-69503816D01*
X110710000Y-69540001D01*
X110738998Y-69563799D01*
X113483763Y-72308565D01*
X113483764Y-73131431D01*
X113480087Y-73168763D01*
X113483764Y-73206096D01*
X113490232Y-73271766D01*
X113478872Y-73309215D01*
X113461928Y-73481250D01*
X113461928Y-73968750D01*
X113478872Y-74140785D01*
X113529053Y-74306209D01*
X113610542Y-74458664D01*
X113720208Y-74592292D01*
X113805756Y-74662500D01*
X113720208Y-74732708D01*
X113610542Y-74866336D01*
X113529053Y-75018791D01*
X113478872Y-75184215D01*
X113461928Y-75356250D01*
X113461928Y-75686494D01*
X113129951Y-76018471D01*
X113096184Y-76046183D01*
X113068471Y-76079951D01*
X113068468Y-76079954D01*
X112985590Y-76180941D01*
X112903412Y-76334687D01*
X112852805Y-76501510D01*
X112835719Y-76675000D01*
X112840001Y-76718479D01*
X112840000Y-78141785D01*
X112748042Y-78253836D01*
X112666553Y-78406291D01*
X112616372Y-78571715D01*
X112599428Y-78743750D01*
X112599428Y-78752500D01*
X111258215Y-78752500D01*
X111243506Y-78740429D01*
X111203854Y-78692113D01*
X111279792Y-78629792D01*
X111389458Y-78496164D01*
X111470947Y-78343709D01*
X111521128Y-78178285D01*
X111538072Y-78006250D01*
X111538072Y-77518750D01*
X111535889Y-77496586D01*
X111584974Y-77436776D01*
X111655546Y-77304747D01*
X111699003Y-77161486D01*
X111710000Y-77049833D01*
X111710000Y-77049824D01*
X111713676Y-77012501D01*
X111710000Y-76975178D01*
X111710000Y-76376018D01*
X111801185Y-76301185D01*
X111880537Y-76204494D01*
X111939502Y-76094180D01*
X111975812Y-75974482D01*
X111988072Y-75850000D01*
X111988072Y-74950000D01*
X111975812Y-74825518D01*
X111939502Y-74705820D01*
X111880537Y-74595506D01*
X111801185Y-74498815D01*
X111704494Y-74419463D01*
X111594180Y-74360498D01*
X111474482Y-74324188D01*
X111350000Y-74311928D01*
X110838095Y-74311928D01*
X110851185Y-74301185D01*
X110930537Y-74204494D01*
X110989502Y-74094180D01*
X111025812Y-73974482D01*
X111038072Y-73850000D01*
X111038072Y-72950000D01*
X111025812Y-72825518D01*
X111000419Y-72741808D01*
X111056488Y-72657894D01*
X111134509Y-72469536D01*
X111174283Y-72269577D01*
X111174283Y-72065699D01*
X111134509Y-71865740D01*
X111056488Y-71677382D01*
X110943220Y-71507864D01*
X110799057Y-71363701D01*
X110629539Y-71250433D01*
X110441181Y-71172412D01*
X110241222Y-71132638D01*
X110037344Y-71132638D01*
X109837385Y-71172412D01*
X109649027Y-71250433D01*
X109479509Y-71363701D01*
X109335346Y-71507864D01*
X109222078Y-71677382D01*
X109144057Y-71865740D01*
X109104283Y-72065699D01*
X109104283Y-72269577D01*
X109144057Y-72469536D01*
X109154315Y-72494301D01*
X109148815Y-72498815D01*
X109069463Y-72595506D01*
X109045680Y-72640000D01*
X106699822Y-72640000D01*
X106662499Y-72636324D01*
X106625176Y-72640000D01*
X106625167Y-72640000D01*
X106513514Y-72650997D01*
X106370253Y-72694454D01*
X106238224Y-72765026D01*
X106238222Y-72765027D01*
X106238223Y-72765027D01*
X106151496Y-72836201D01*
X106151492Y-72836205D01*
X106122499Y-72859999D01*
X106098705Y-72888992D01*
X106050769Y-72936928D01*
X105543750Y-72936928D01*
X105371715Y-72953872D01*
X105206291Y-73004053D01*
X105053836Y-73085542D01*
X104920208Y-73195208D01*
X104810542Y-73328836D01*
X104729053Y-73481291D01*
X104678872Y-73646715D01*
X104661928Y-73818750D01*
X104661928Y-74306250D01*
X104678872Y-74478285D01*
X104729053Y-74643709D01*
X104810542Y-74796164D01*
X104920208Y-74929792D01*
X105005756Y-75000000D01*
X104920208Y-75070208D01*
X104810542Y-75203836D01*
X104729053Y-75356291D01*
X104678872Y-75521715D01*
X104661928Y-75693750D01*
X104661928Y-76181250D01*
X104678872Y-76353285D01*
X104729053Y-76518709D01*
X104810542Y-76671164D01*
X104920208Y-76804792D01*
X105053836Y-76914458D01*
X105206291Y-76995947D01*
X105236837Y-77005213D01*
X105240001Y-77037333D01*
X105250998Y-77148986D01*
X105264180Y-77192442D01*
X105294454Y-77292246D01*
X105365026Y-77424276D01*
X105402759Y-77470253D01*
X105460000Y-77540001D01*
X105488998Y-77563799D01*
X106198701Y-78273502D01*
X106222499Y-78302501D01*
X106338224Y-78397474D01*
X106470253Y-78468046D01*
X106613514Y-78511503D01*
X106725167Y-78522500D01*
X106725177Y-78522500D01*
X106762500Y-78526176D01*
X106799823Y-78522500D01*
X109032155Y-78522500D01*
X109120208Y-78629792D01*
X109205756Y-78700000D01*
X109120208Y-78770208D01*
X109010542Y-78903836D01*
X108929053Y-79056291D01*
X108878872Y-79221715D01*
X108861928Y-79393750D01*
X108861928Y-79881250D01*
X108878872Y-80053285D01*
X108929053Y-80218709D01*
X109010542Y-80371164D01*
X109120208Y-80504792D01*
X109253836Y-80614458D01*
X109406291Y-80695947D01*
X109571715Y-80746128D01*
X109743750Y-80763072D01*
X110656250Y-80763072D01*
X110828285Y-80746128D01*
X110993709Y-80695947D01*
X111146164Y-80614458D01*
X111258215Y-80522500D01*
X112225922Y-80522500D01*
X111904951Y-80843471D01*
X111871184Y-80871183D01*
X111843471Y-80904951D01*
X111843468Y-80904954D01*
X111761548Y-81004774D01*
X111760590Y-81005941D01*
X111678411Y-81159687D01*
X111627805Y-81326510D01*
X111615000Y-81456523D01*
X111615000Y-81456531D01*
X111614421Y-81462413D01*
X111582795Y-81509744D01*
X111504774Y-81698102D01*
X111465000Y-81898061D01*
X111465000Y-82101939D01*
X111504774Y-82301898D01*
X111582795Y-82490256D01*
X111696063Y-82659774D01*
X111840226Y-82803937D01*
X112009744Y-82917205D01*
X112198102Y-82995226D01*
X112398061Y-83035000D01*
X112592796Y-83035000D01*
X112464920Y-83139946D01*
X112437205Y-83173717D01*
X112411494Y-83199428D01*
X112081250Y-83199428D01*
X111909215Y-83216372D01*
X111743791Y-83266553D01*
X111591336Y-83348042D01*
X111457708Y-83457708D01*
X111368750Y-83566103D01*
X111279792Y-83457708D01*
X111146164Y-83348042D01*
X110993709Y-83266553D01*
X110960000Y-83256327D01*
X110960000Y-83237367D01*
X110963676Y-83200042D01*
X110960000Y-83162717D01*
X110960000Y-83162709D01*
X110949003Y-83051056D01*
X110905546Y-82907795D01*
X110834974Y-82775766D01*
X110740001Y-82660041D01*
X110711004Y-82636244D01*
X110034958Y-81960199D01*
X110034958Y-81898061D01*
X109995184Y-81698102D01*
X109917163Y-81509744D01*
X109803895Y-81340226D01*
X109659732Y-81196063D01*
X109490214Y-81082795D01*
X109301856Y-81004774D01*
X109101897Y-80965000D01*
X108898019Y-80965000D01*
X108698060Y-81004774D01*
X108509702Y-81082795D01*
X108340184Y-81196063D01*
X108196021Y-81340226D01*
X108082753Y-81509744D01*
X108004732Y-81698102D01*
X107964958Y-81898061D01*
X107964958Y-82101939D01*
X108004732Y-82301898D01*
X108082753Y-82490256D01*
X108196021Y-82659774D01*
X108340184Y-82803937D01*
X108509702Y-82917205D01*
X108698060Y-82995226D01*
X108898019Y-83035000D01*
X108960157Y-83035000D01*
X109266454Y-83341298D01*
X109253836Y-83348042D01*
X109120208Y-83457708D01*
X109010542Y-83591336D01*
X108929053Y-83743791D01*
X108878872Y-83909215D01*
X108861928Y-84081250D01*
X108861928Y-84568750D01*
X108878872Y-84740785D01*
X108929053Y-84906209D01*
X109010542Y-85058664D01*
X109120208Y-85192292D01*
X109205756Y-85262500D01*
X109120208Y-85332708D01*
X109010542Y-85466336D01*
X108929053Y-85618791D01*
X108878872Y-85784215D01*
X108861928Y-85956250D01*
X108861928Y-85963270D01*
X106913271Y-87911928D01*
X106550000Y-87911928D01*
X106425518Y-87924188D01*
X106305820Y-87960498D01*
X106195506Y-88019463D01*
X106098815Y-88098815D01*
X106019463Y-88195506D01*
X105960498Y-88305820D01*
X105924188Y-88425518D01*
X105911928Y-88550000D01*
X105911928Y-89450000D01*
X105924188Y-89574482D01*
X105960498Y-89694180D01*
X106019463Y-89804494D01*
X106098815Y-89901185D01*
X106111905Y-89911928D01*
X105600000Y-89911928D01*
X105475518Y-89924188D01*
X105355820Y-89960498D01*
X105245506Y-90019463D01*
X105148815Y-90098815D01*
X105069463Y-90195506D01*
X105010498Y-90305820D01*
X104974188Y-90425518D01*
X104961928Y-90550000D01*
X104961928Y-91450000D01*
X104974188Y-91574482D01*
X105010498Y-91694180D01*
X105069463Y-91804494D01*
X105148815Y-91901185D01*
X105245506Y-91980537D01*
X105355820Y-92039502D01*
X105475518Y-92075812D01*
X105600000Y-92088072D01*
X106400000Y-92088072D01*
X106524482Y-92075812D01*
X106644180Y-92039502D01*
X106754494Y-91980537D01*
X106851185Y-91901185D01*
X106930537Y-91804494D01*
X106950000Y-91768082D01*
X106969463Y-91804494D01*
X107048815Y-91901185D01*
X107145506Y-91980537D01*
X107255820Y-92039502D01*
X107375518Y-92075812D01*
X107500000Y-92088072D01*
X107614250Y-92085000D01*
X107773000Y-91926250D01*
X107773000Y-91127000D01*
X107753000Y-91127000D01*
X107753000Y-90873000D01*
X107773000Y-90873000D01*
X107773000Y-90853000D01*
X108027000Y-90853000D01*
X108027000Y-90873000D01*
X108047000Y-90873000D01*
X108047000Y-91127000D01*
X108027000Y-91127000D01*
X108027000Y-91926250D01*
X108185750Y-92085000D01*
X108290000Y-92087803D01*
X108290001Y-93523981D01*
X108198815Y-93598815D01*
X108119463Y-93695506D01*
X108060498Y-93805820D01*
X108024188Y-93925518D01*
X108011928Y-94050000D01*
X108011928Y-94950000D01*
X108024188Y-95074482D01*
X108060498Y-95194180D01*
X108119463Y-95304494D01*
X108198815Y-95401185D01*
X108295506Y-95480537D01*
X108405820Y-95539502D01*
X108525518Y-95575812D01*
X108650000Y-95588072D01*
X109450000Y-95588072D01*
X109574482Y-95575812D01*
X109694180Y-95539502D01*
X109804494Y-95480537D01*
X109901185Y-95401185D01*
X109980537Y-95304494D01*
X110000000Y-95268082D01*
X110019463Y-95304494D01*
X110098815Y-95401185D01*
X110195506Y-95480537D01*
X110305820Y-95539502D01*
X110425518Y-95575812D01*
X110550000Y-95588072D01*
X110664250Y-95585000D01*
X110823000Y-95426250D01*
X110823000Y-94627000D01*
X111077000Y-94627000D01*
X111077000Y-95426250D01*
X111235750Y-95585000D01*
X111350000Y-95588072D01*
X111474482Y-95575812D01*
X111594180Y-95539502D01*
X111704494Y-95480537D01*
X111801185Y-95401185D01*
X111880537Y-95304494D01*
X111939502Y-95194180D01*
X111975812Y-95074482D01*
X111988072Y-94950000D01*
X111985000Y-94785750D01*
X111826250Y-94627000D01*
X111077000Y-94627000D01*
X110823000Y-94627000D01*
X110803000Y-94627000D01*
X110803000Y-94373000D01*
X110823000Y-94373000D01*
X110823000Y-93573750D01*
X111077000Y-93573750D01*
X111077000Y-94373000D01*
X111826250Y-94373000D01*
X111985000Y-94214250D01*
X111988072Y-94050000D01*
X111975812Y-93925518D01*
X111939502Y-93805820D01*
X111880537Y-93695506D01*
X111801185Y-93598815D01*
X111704494Y-93519463D01*
X111594180Y-93460498D01*
X111474482Y-93424188D01*
X111350000Y-93411928D01*
X111235750Y-93415000D01*
X111077000Y-93573750D01*
X110823000Y-93573750D01*
X110738393Y-93489143D01*
X110754494Y-93480537D01*
X110851185Y-93401185D01*
X110930537Y-93304494D01*
X110989502Y-93194180D01*
X111025812Y-93074482D01*
X111038072Y-92950000D01*
X111038072Y-92050000D01*
X111025812Y-91925518D01*
X110989502Y-91805820D01*
X110983160Y-91793956D01*
X111053836Y-91851958D01*
X111206291Y-91933447D01*
X111371715Y-91983628D01*
X111543750Y-92000572D01*
X112050771Y-92000572D01*
X115086211Y-95036013D01*
X115110009Y-95065011D01*
X115225734Y-95159984D01*
X115357763Y-95230556D01*
X115501024Y-95274013D01*
X115612677Y-95285010D01*
X115612685Y-95285010D01*
X115650010Y-95288686D01*
X115687335Y-95285010D01*
X117504518Y-95285010D01*
X117541840Y-95288686D01*
X117579162Y-95285010D01*
X117579173Y-95285010D01*
X117690826Y-95274013D01*
X117834087Y-95230556D01*
X117966116Y-95159984D01*
X118081841Y-95065011D01*
X118105644Y-95036007D01*
X118177500Y-94964151D01*
X118177500Y-96774916D01*
X117800000Y-96737735D01*
X116695347Y-96846534D01*
X115633145Y-97168749D01*
X114654214Y-97691999D01*
X113796174Y-98396175D01*
X113091999Y-99254215D01*
X112568749Y-100233146D01*
X112246534Y-101295348D01*
X112165000Y-102123175D01*
X112165001Y-151176826D01*
X112246535Y-152004653D01*
X112568750Y-153066855D01*
X113092000Y-154045786D01*
X113796175Y-154903826D01*
X114654215Y-155608001D01*
X115633146Y-156131251D01*
X116695348Y-156453466D01*
X117800000Y-156562265D01*
X118904653Y-156453466D01*
X119966855Y-156131251D01*
X120945786Y-155608001D01*
X121803826Y-154903826D01*
X122508001Y-154045786D01*
X123031251Y-153066855D01*
X123353466Y-152004653D01*
X123435000Y-151176826D01*
X123435000Y-102123174D01*
X123353466Y-101295347D01*
X123031251Y-100233145D01*
X122508001Y-99254214D01*
X121803825Y-98396174D01*
X121024449Y-97756557D01*
X121063023Y-97760356D01*
X121063032Y-97760356D01*
X121100355Y-97764032D01*
X121137678Y-97760356D01*
X124796645Y-97760356D01*
X124840226Y-97803937D01*
X125009744Y-97917205D01*
X125198102Y-97995226D01*
X125398061Y-98035000D01*
X125601939Y-98035000D01*
X125801898Y-97995226D01*
X125990256Y-97917205D01*
X126159774Y-97803937D01*
X126303937Y-97659774D01*
X126417205Y-97490256D01*
X126495226Y-97301898D01*
X126535000Y-97101939D01*
X126535000Y-96898061D01*
X126495226Y-96698102D01*
X126417205Y-96509744D01*
X126383974Y-96460010D01*
X126845828Y-96460010D01*
X126883151Y-96463686D01*
X126920473Y-96460010D01*
X126920484Y-96460010D01*
X127032137Y-96449013D01*
X127175398Y-96405556D01*
X127307427Y-96334984D01*
X127423152Y-96240011D01*
X127446954Y-96211008D01*
X129211004Y-94446960D01*
X129240001Y-94423163D01*
X129289632Y-94362688D01*
X129334974Y-94307439D01*
X129405546Y-94175409D01*
X129408905Y-94164335D01*
X129449003Y-94032148D01*
X129460000Y-93920495D01*
X129460000Y-93920486D01*
X129463676Y-93883163D01*
X129460000Y-93845838D01*
X129460000Y-89614801D01*
X130864639Y-88210162D01*
X130842753Y-88450656D01*
X130843171Y-88510472D01*
X130842753Y-88570288D01*
X130843652Y-88579460D01*
X130874252Y-88870605D01*
X130886283Y-88929217D01*
X130897489Y-88987963D01*
X130900153Y-88996784D01*
X130986721Y-89276440D01*
X131009899Y-89331578D01*
X131032311Y-89387050D01*
X131036638Y-89395186D01*
X131175877Y-89652702D01*
X131209304Y-89702259D01*
X131242080Y-89752347D01*
X131247905Y-89759488D01*
X131434510Y-89985056D01*
X131476965Y-90027215D01*
X131518809Y-90069945D01*
X131525909Y-90075819D01*
X131752773Y-90260845D01*
X131802566Y-90293927D01*
X131851955Y-90327745D01*
X131860061Y-90332127D01*
X132118542Y-90469564D01*
X132173836Y-90492355D01*
X132228829Y-90515925D01*
X132237632Y-90518650D01*
X132340000Y-90549557D01*
X132340001Y-93646778D01*
X129660588Y-95433054D01*
X129631550Y-95448575D01*
X129581287Y-95489825D01*
X129531543Y-95530562D01*
X129531323Y-95530830D01*
X129531052Y-95531052D01*
X129489702Y-95581438D01*
X129448962Y-95630974D01*
X129448799Y-95631278D01*
X129448575Y-95631551D01*
X129417976Y-95688798D01*
X129387556Y-95745566D01*
X129387454Y-95745901D01*
X129387290Y-95746208D01*
X129368356Y-95808623D01*
X129349687Y-95869938D01*
X129349653Y-95870278D01*
X129349550Y-95870618D01*
X129343124Y-95935859D01*
X129336808Y-95999307D01*
X129340000Y-96032066D01*
X129340001Y-151663912D01*
X118721338Y-159386575D01*
X118314733Y-159479214D01*
X117827192Y-159493131D01*
X117323567Y-159408264D01*
X117297780Y-159400478D01*
X106660000Y-151663913D01*
X106660000Y-96032065D01*
X106663192Y-95999306D01*
X106656876Y-95935858D01*
X106650450Y-95870617D01*
X106650347Y-95870277D01*
X106650313Y-95869937D01*
X106631644Y-95808622D01*
X106612710Y-95746207D01*
X106612546Y-95745900D01*
X106612444Y-95745565D01*
X106582024Y-95688797D01*
X106551425Y-95631550D01*
X106551201Y-95631277D01*
X106551038Y-95630973D01*
X106510105Y-95581201D01*
X106468948Y-95531052D01*
X106468680Y-95530832D01*
X106468457Y-95530561D01*
X106417903Y-95489161D01*
X106368449Y-95448575D01*
X106339423Y-95433061D01*
X103660000Y-93646779D01*
X103660000Y-90549198D01*
X103790476Y-90507809D01*
X103845412Y-90484263D01*
X103900764Y-90461449D01*
X103908870Y-90457065D01*
X104165408Y-90316032D01*
X104214753Y-90282245D01*
X104264591Y-90249133D01*
X104271691Y-90243259D01*
X104495949Y-90055084D01*
X104537793Y-90012354D01*
X104580248Y-89970195D01*
X104586072Y-89963053D01*
X104769509Y-89734903D01*
X104802251Y-89684869D01*
X104835714Y-89635258D01*
X104840040Y-89627122D01*
X104975670Y-89367687D01*
X104998082Y-89312215D01*
X105021260Y-89257077D01*
X105023923Y-89248255D01*
X105106578Y-88967417D01*
X105117785Y-88908669D01*
X105129816Y-88850059D01*
X105130715Y-88840888D01*
X105157247Y-88549344D01*
X105156829Y-88489528D01*
X105157247Y-88429712D01*
X105156348Y-88420541D01*
X105125748Y-88129395D01*
X105113710Y-88070753D01*
X105102510Y-88012037D01*
X105099847Y-88003216D01*
X105013279Y-87723560D01*
X104990101Y-87668422D01*
X104967689Y-87612950D01*
X104963362Y-87604814D01*
X104824123Y-87347298D01*
X104790701Y-87297749D01*
X104757920Y-87247653D01*
X104752095Y-87240512D01*
X104565490Y-87014945D01*
X104523054Y-86972804D01*
X104481191Y-86930055D01*
X104474091Y-86924181D01*
X104247227Y-86739155D01*
X104197408Y-86706055D01*
X104148045Y-86672256D01*
X104139939Y-86667873D01*
X103881458Y-86530436D01*
X103826164Y-86507645D01*
X103771171Y-86484075D01*
X103762368Y-86481350D01*
X103660000Y-86450443D01*
X103660000Y-70036790D01*
X103669463Y-70054494D01*
X103748815Y-70151185D01*
X103845506Y-70230537D01*
X103955820Y-70289502D01*
X104075518Y-70325812D01*
X104200000Y-70338072D01*
X105800000Y-70338072D01*
X105924482Y-70325812D01*
X106044180Y-70289502D01*
X106154494Y-70230537D01*
X106251185Y-70151185D01*
X106330537Y-70054494D01*
X106389502Y-69944180D01*
X106425812Y-69824482D01*
X106438072Y-69700000D01*
X106438072Y-67700000D01*
X106425812Y-67575518D01*
X106389502Y-67455820D01*
X106330537Y-67345506D01*
X106251185Y-67248815D01*
X106154494Y-67169463D01*
X106044180Y-67110498D01*
X105924482Y-67074188D01*
X105895118Y-67071296D01*
X105917205Y-67038240D01*
X105995226Y-66849882D01*
X106035000Y-66649923D01*
X106035000Y-66446045D01*
X105995226Y-66246086D01*
X105917205Y-66057728D01*
X105803937Y-65888210D01*
X105659774Y-65744047D01*
X105490256Y-65630779D01*
X105301898Y-65552758D01*
X105101939Y-65512984D01*
X104898061Y-65512984D01*
X104698102Y-65552758D01*
X104509744Y-65630779D01*
X104340226Y-65744047D01*
X104196063Y-65888210D01*
X104082795Y-66057728D01*
X104004774Y-66246086D01*
X103965000Y-66446045D01*
X103965000Y-66649923D01*
X104004774Y-66849882D01*
X104082795Y-67038240D01*
X104104882Y-67071296D01*
X104075518Y-67074188D01*
X103955820Y-67110498D01*
X103845506Y-67169463D01*
X103748815Y-67248815D01*
X103669463Y-67345506D01*
X103660000Y-67363210D01*
X103660000Y-64636790D01*
X103669463Y-64654494D01*
X103748815Y-64751185D01*
X103845506Y-64830537D01*
X103955820Y-64889502D01*
X104075518Y-64925812D01*
X104200000Y-64938072D01*
X104714250Y-64935000D01*
X104873000Y-64776250D01*
X104873000Y-63427000D01*
X105127000Y-63427000D01*
X105127000Y-64776250D01*
X105285750Y-64935000D01*
X105800000Y-64938072D01*
X105924482Y-64925812D01*
X106044180Y-64889502D01*
X106154494Y-64830537D01*
X106251185Y-64751185D01*
X106330537Y-64654494D01*
X106389502Y-64544180D01*
X106425812Y-64424482D01*
X106438072Y-64300000D01*
X106435000Y-63585750D01*
X106276250Y-63427000D01*
X105127000Y-63427000D01*
X104873000Y-63427000D01*
X104853000Y-63427000D01*
X104853000Y-63173000D01*
X104873000Y-63173000D01*
X104873000Y-61823750D01*
X105127000Y-61823750D01*
X105127000Y-63173000D01*
X106276250Y-63173000D01*
X106435000Y-63014250D01*
X106438072Y-62300000D01*
X106425812Y-62175518D01*
X106389502Y-62055820D01*
X106330537Y-61945506D01*
X106251185Y-61848815D01*
X106154494Y-61769463D01*
X106044180Y-61710498D01*
X105924482Y-61674188D01*
X105800000Y-61661928D01*
X105285750Y-61665000D01*
X105127000Y-61823750D01*
X104873000Y-61823750D01*
X104714250Y-61665000D01*
X104200000Y-61661928D01*
X104075518Y-61674188D01*
X103955820Y-61710498D01*
X103845506Y-61769463D01*
X103748815Y-61848815D01*
X103669463Y-61945506D01*
X103660000Y-61963210D01*
X103660000Y-47049198D01*
X103790476Y-47007809D01*
X103845412Y-46984263D01*
X103900764Y-46961449D01*
X103908870Y-46957065D01*
X104165408Y-46816032D01*
X104214753Y-46782245D01*
X104264591Y-46749133D01*
X104271691Y-46743259D01*
X104495949Y-46555084D01*
X104537793Y-46512354D01*
X104580248Y-46470195D01*
X104586072Y-46463053D01*
X104769509Y-46234903D01*
X104802251Y-46184869D01*
X104835714Y-46135258D01*
X104840040Y-46127122D01*
X104975670Y-45867687D01*
X104998082Y-45812215D01*
X105021260Y-45757077D01*
X105023923Y-45748255D01*
X105106578Y-45467417D01*
X105117785Y-45408669D01*
X105129816Y-45350059D01*
X105130715Y-45340888D01*
X105157247Y-45049344D01*
X105156829Y-44989528D01*
X105157247Y-44929712D01*
X105156348Y-44920541D01*
X105125748Y-44629395D01*
X105113710Y-44570753D01*
X105102510Y-44512037D01*
X105099847Y-44503216D01*
X105013279Y-44223560D01*
X104990101Y-44168422D01*
X104967689Y-44112950D01*
X104963362Y-44104814D01*
X104824123Y-43847298D01*
X104790701Y-43797749D01*
X104757920Y-43747653D01*
X104752095Y-43740512D01*
X104565490Y-43514945D01*
X104523054Y-43472804D01*
X104481191Y-43430055D01*
X104474091Y-43424181D01*
X104247227Y-43239155D01*
X104197408Y-43206055D01*
X104148045Y-43172256D01*
X104139939Y-43167873D01*
X103881458Y-43030436D01*
X103826164Y-43007645D01*
X103771171Y-42984075D01*
X103762368Y-42981350D01*
X103660000Y-42950443D01*
X103660000Y-42660000D01*
X132340000Y-42660000D01*
X132340001Y-42950801D01*
G37*
X132340001Y-42950801D02*
X132209523Y-42992191D01*
X132154588Y-43015737D01*
X132099235Y-43038551D01*
X132091129Y-43042935D01*
X131834592Y-43183968D01*
X131785247Y-43217755D01*
X131735409Y-43250867D01*
X131728309Y-43256741D01*
X131504051Y-43444916D01*
X131462207Y-43487646D01*
X131419751Y-43529806D01*
X131413927Y-43536947D01*
X131230491Y-43765097D01*
X131197744Y-43815139D01*
X131164286Y-43864742D01*
X131159960Y-43872879D01*
X131024330Y-44132313D01*
X131001918Y-44187785D01*
X130978740Y-44242923D01*
X130976077Y-44251745D01*
X130893422Y-44532583D01*
X130882224Y-44591284D01*
X130870184Y-44649940D01*
X130869285Y-44659112D01*
X130842753Y-44950656D01*
X130843171Y-45010472D01*
X130842753Y-45070288D01*
X130843652Y-45079460D01*
X130874252Y-45370605D01*
X130886283Y-45429217D01*
X130897489Y-45487963D01*
X130900153Y-45496784D01*
X130986721Y-45776440D01*
X131009899Y-45831578D01*
X131032311Y-45887050D01*
X131036638Y-45895186D01*
X131175877Y-46152702D01*
X131209304Y-46202259D01*
X131242080Y-46252347D01*
X131247905Y-46259488D01*
X131434510Y-46485056D01*
X131476965Y-46527215D01*
X131518809Y-46569945D01*
X131525909Y-46575819D01*
X131752773Y-46760845D01*
X131802566Y-46793927D01*
X131851955Y-46827745D01*
X131860061Y-46832127D01*
X132118542Y-46969564D01*
X132173836Y-46992355D01*
X132228829Y-47015925D01*
X132237632Y-47018650D01*
X132340000Y-47049557D01*
X132340000Y-61963210D01*
X132330537Y-61945506D01*
X132251185Y-61848815D01*
X132154494Y-61769463D01*
X132044180Y-61710498D01*
X131924482Y-61674188D01*
X131800000Y-61661928D01*
X131285750Y-61665000D01*
X131127000Y-61823750D01*
X131127000Y-63173000D01*
X131147000Y-63173000D01*
X131147000Y-63427000D01*
X131127000Y-63427000D01*
X131127000Y-63447000D01*
X130873000Y-63447000D01*
X130873000Y-63427000D01*
X129723750Y-63427000D01*
X129612776Y-63537974D01*
X129278804Y-63204003D01*
X129255001Y-63174999D01*
X129139276Y-63080026D01*
X129007247Y-63009454D01*
X128863986Y-62965997D01*
X128752333Y-62955000D01*
X128752322Y-62955000D01*
X128715000Y-62951324D01*
X128677678Y-62955000D01*
X128132163Y-62955000D01*
X128138072Y-62895000D01*
X128138072Y-62300000D01*
X129561928Y-62300000D01*
X129565000Y-63014250D01*
X129723750Y-63173000D01*
X130873000Y-63173000D01*
X130873000Y-61823750D01*
X130714250Y-61665000D01*
X130200000Y-61661928D01*
X130075518Y-61674188D01*
X129955820Y-61710498D01*
X129845506Y-61769463D01*
X129748815Y-61848815D01*
X129669463Y-61945506D01*
X129610498Y-62055820D01*
X129574188Y-62175518D01*
X129561928Y-62300000D01*
X128138072Y-62300000D01*
X128138072Y-61995000D01*
X128125812Y-61870518D01*
X128107454Y-61810000D01*
X128125812Y-61749482D01*
X128138072Y-61625000D01*
X128138072Y-60725000D01*
X128125812Y-60600518D01*
X128107454Y-60540000D01*
X128125812Y-60479482D01*
X128138072Y-60355000D01*
X128138072Y-59455000D01*
X128125812Y-59330518D01*
X128107454Y-59270000D01*
X128125812Y-59209482D01*
X128138072Y-59085000D01*
X128138072Y-58185000D01*
X128125812Y-58060518D01*
X128107454Y-58000000D01*
X128125812Y-57939482D01*
X128138072Y-57815000D01*
X128138072Y-56915000D01*
X128125812Y-56790518D01*
X128107454Y-56730000D01*
X128125812Y-56669482D01*
X128138072Y-56545000D01*
X128138072Y-55710000D01*
X129916531Y-55710000D01*
X129960000Y-55714281D01*
X130003469Y-55710000D01*
X130003477Y-55710000D01*
X130133490Y-55697195D01*
X130300313Y-55646589D01*
X130454059Y-55564411D01*
X130588817Y-55453817D01*
X130594969Y-55446321D01*
X130663740Y-55460000D01*
X130956260Y-55460000D01*
X131243158Y-55402932D01*
X131513411Y-55290990D01*
X131756632Y-55128475D01*
X131963475Y-54921632D01*
X132125990Y-54678411D01*
X132237932Y-54408158D01*
X132295000Y-54121260D01*
X132295000Y-53828740D01*
X132237932Y-53541842D01*
X132125990Y-53271589D01*
X131963475Y-53028368D01*
X131831620Y-52896513D01*
X131904180Y-52874502D01*
X132014494Y-52815537D01*
X132111185Y-52736185D01*
X132190537Y-52639494D01*
X132249502Y-52529180D01*
X132285812Y-52409482D01*
X132298072Y-52285000D01*
X132298072Y-50585000D01*
X132285812Y-50460518D01*
X132249502Y-50340820D01*
X132190537Y-50230506D01*
X132111185Y-50133815D01*
X132014494Y-50054463D01*
X131904180Y-49995498D01*
X131784482Y-49959188D01*
X131660000Y-49946928D01*
X129960000Y-49946928D01*
X129835518Y-49959188D01*
X129715820Y-49995498D01*
X129605506Y-50054463D01*
X129508815Y-50133815D01*
X129429463Y-50230506D01*
X129370498Y-50340820D01*
X129334188Y-50460518D01*
X129321928Y-50585000D01*
X129321928Y-51426493D01*
X128138072Y-52610350D01*
X128138072Y-51835000D01*
X128125812Y-51710518D01*
X128107454Y-51650000D01*
X128125812Y-51589482D01*
X128138072Y-51465000D01*
X128138072Y-50565000D01*
X128125812Y-50440518D01*
X128107454Y-50380000D01*
X128125812Y-50319482D01*
X128138072Y-50195000D01*
X128135000Y-50030750D01*
X127976250Y-49872000D01*
X126627000Y-49872000D01*
X126627000Y-49892000D01*
X126373000Y-49892000D01*
X126373000Y-49872000D01*
X125023750Y-49872000D01*
X124865000Y-50030750D01*
X124861928Y-50195000D01*
X124874188Y-50319482D01*
X124892546Y-50380000D01*
X124874188Y-50440518D01*
X124861928Y-50565000D01*
X124861928Y-51465000D01*
X124874188Y-51589482D01*
X124892546Y-51650000D01*
X124874188Y-51710518D01*
X124861928Y-51835000D01*
X124861928Y-52735000D01*
X124874188Y-52859482D01*
X124892546Y-52920000D01*
X124874188Y-52980518D01*
X124861928Y-53105000D01*
X124861928Y-54005000D01*
X124874188Y-54129482D01*
X124892546Y-54190000D01*
X124874188Y-54250518D01*
X124861928Y-54375000D01*
X124861928Y-55275000D01*
X124874188Y-55399482D01*
X124892546Y-55460000D01*
X124874188Y-55520518D01*
X124861928Y-55645000D01*
X124861928Y-56545000D01*
X124874188Y-56669482D01*
X124875550Y-56673971D01*
X118621534Y-50419956D01*
X118593817Y-50386183D01*
X118459059Y-50275589D01*
X118305313Y-50193411D01*
X118138490Y-50142805D01*
X118008477Y-50130000D01*
X118008469Y-50130000D01*
X117965000Y-50125719D01*
X117921531Y-50130000D01*
X117118456Y-50130000D01*
X117070258Y-50097795D01*
X116881900Y-50019774D01*
X116681941Y-49980000D01*
X116478063Y-49980000D01*
X116278104Y-50019774D01*
X116089746Y-50097795D01*
X116041548Y-50130000D01*
X111136856Y-50130000D01*
X111135000Y-50030750D01*
X110976250Y-49872000D01*
X109627000Y-49872000D01*
X109627000Y-49892000D01*
X109373000Y-49892000D01*
X109373000Y-49872000D01*
X109353000Y-49872000D01*
X109353000Y-49618000D01*
X109373000Y-49618000D01*
X109373000Y-48818750D01*
X109627000Y-48818750D01*
X109627000Y-49618000D01*
X110976250Y-49618000D01*
X111135000Y-49459250D01*
X111138072Y-49295000D01*
X124861928Y-49295000D01*
X124865000Y-49459250D01*
X125023750Y-49618000D01*
X126373000Y-49618000D01*
X126373000Y-48818750D01*
X126627000Y-48818750D01*
X126627000Y-49618000D01*
X127976250Y-49618000D01*
X128135000Y-49459250D01*
X128138072Y-49295000D01*
X128125812Y-49170518D01*
X128089502Y-49050820D01*
X128030537Y-48940506D01*
X127951185Y-48843815D01*
X127854494Y-48764463D01*
X127744180Y-48705498D01*
X127624482Y-48669188D01*
X127500000Y-48656928D01*
X126785750Y-48660000D01*
X126627000Y-48818750D01*
X126373000Y-48818750D01*
X126214250Y-48660000D01*
X125500000Y-48656928D01*
X125375518Y-48669188D01*
X125255820Y-48705498D01*
X125145506Y-48764463D01*
X125048815Y-48843815D01*
X124969463Y-48940506D01*
X124910498Y-49050820D01*
X124874188Y-49170518D01*
X124861928Y-49295000D01*
X111138072Y-49295000D01*
X111125812Y-49170518D01*
X111089502Y-49050820D01*
X111030537Y-48940506D01*
X110951185Y-48843815D01*
X110854494Y-48764463D01*
X110744180Y-48705498D01*
X110624482Y-48669188D01*
X110500000Y-48656928D01*
X109785750Y-48660000D01*
X109627000Y-48818750D01*
X109373000Y-48818750D01*
X109214250Y-48660000D01*
X108500000Y-48656928D01*
X108375518Y-48669188D01*
X108255820Y-48705498D01*
X108145506Y-48764463D01*
X108048815Y-48843815D01*
X107969463Y-48940506D01*
X107910498Y-49050820D01*
X107874188Y-49170518D01*
X107861928Y-49295000D01*
X107865000Y-49459250D01*
X108023748Y-49617998D01*
X107865000Y-49617998D01*
X107865000Y-49717422D01*
X107336532Y-49188954D01*
X107310286Y-49156972D01*
X107270947Y-49027291D01*
X107189458Y-48874836D01*
X107079792Y-48741208D01*
X106946164Y-48631542D01*
X106793709Y-48550053D01*
X106628285Y-48499872D01*
X106456250Y-48482928D01*
X105543750Y-48482928D01*
X105371715Y-48499872D01*
X105206291Y-48550053D01*
X105053836Y-48631542D01*
X104920208Y-48741208D01*
X104810542Y-48874836D01*
X104729053Y-49027291D01*
X104678872Y-49192715D01*
X104661928Y-49364750D01*
X104661928Y-49852250D01*
X104678872Y-50024285D01*
X104729053Y-50189709D01*
X104810542Y-50342164D01*
X104920208Y-50475792D01*
X105005756Y-50546000D01*
X104920208Y-50616208D01*
X104810542Y-50749836D01*
X104729053Y-50902291D01*
X104678872Y-51067715D01*
X104661928Y-51239750D01*
X104661928Y-51727250D01*
X104678872Y-51899285D01*
X104729053Y-52064709D01*
X104810542Y-52217164D01*
X104920208Y-52350792D01*
X105053836Y-52460458D01*
X105197578Y-52537290D01*
X105118388Y-52616480D01*
X104994176Y-52802376D01*
X104908617Y-53008933D01*
X104865000Y-53228212D01*
X104865000Y-53451788D01*
X104908617Y-53671067D01*
X104994176Y-53877624D01*
X105118388Y-54063520D01*
X105276480Y-54221612D01*
X105462376Y-54345824D01*
X105668933Y-54431383D01*
X105888212Y-54475000D01*
X106060198Y-54475000D01*
X106140001Y-54554803D01*
X106140000Y-55096289D01*
X106096063Y-55140226D01*
X105982795Y-55309744D01*
X105904774Y-55498102D01*
X105865000Y-55698061D01*
X105865000Y-55901939D01*
X105904774Y-56101898D01*
X105982795Y-56290256D01*
X106096063Y-56459774D01*
X106240226Y-56603937D01*
X106409744Y-56717205D01*
X106598102Y-56795226D01*
X106798061Y-56835000D01*
X107001939Y-56835000D01*
X107201898Y-56795226D01*
X107390256Y-56717205D01*
X107559774Y-56603937D01*
X107703937Y-56459774D01*
X107817205Y-56290256D01*
X107861928Y-56182286D01*
X107861928Y-56545000D01*
X107874188Y-56669482D01*
X107892546Y-56730000D01*
X107874188Y-56790518D01*
X107861928Y-56915000D01*
X107861928Y-57815000D01*
X107874188Y-57939482D01*
X107892546Y-58000000D01*
X107874188Y-58060518D01*
X107861928Y-58185000D01*
X107861928Y-59085000D01*
X107874188Y-59209482D01*
X107892546Y-59270000D01*
X107874188Y-59330518D01*
X107861928Y-59455000D01*
X107861928Y-60355000D01*
X107874188Y-60479482D01*
X107892546Y-60540000D01*
X107874188Y-60600518D01*
X107861928Y-60725000D01*
X107861928Y-61625000D01*
X107874188Y-61749482D01*
X107892546Y-61810000D01*
X107874188Y-61870518D01*
X107861928Y-61995000D01*
X107861928Y-62895000D01*
X107874188Y-63019482D01*
X107892546Y-63080000D01*
X107874188Y-63140518D01*
X107861928Y-63265000D01*
X107861928Y-64165000D01*
X107874188Y-64289482D01*
X107892546Y-64350000D01*
X107874188Y-64410518D01*
X107861928Y-64535000D01*
X107861928Y-65435000D01*
X107874188Y-65559482D01*
X107892546Y-65620000D01*
X107874188Y-65680518D01*
X107861928Y-65805000D01*
X107861928Y-66705000D01*
X107874188Y-66829482D01*
X107910498Y-66949180D01*
X107969463Y-67059494D01*
X108048815Y-67156185D01*
X108145506Y-67235537D01*
X108255820Y-67294502D01*
X108375518Y-67330812D01*
X108500000Y-67343072D01*
X110490001Y-67343072D01*
X110490001Y-68962668D01*
X110486324Y-69000000D01*
X110500998Y-69148985D01*
X110544454Y-69292246D01*
X110615026Y-69424276D01*
X110680304Y-69503816D01*
X110710000Y-69540001D01*
X110738998Y-69563799D01*
X113483763Y-72308565D01*
X113483764Y-73131431D01*
X113480087Y-73168763D01*
X113483764Y-73206096D01*
X113490232Y-73271766D01*
X113478872Y-73309215D01*
X113461928Y-73481250D01*
X113461928Y-73968750D01*
X113478872Y-74140785D01*
X113529053Y-74306209D01*
X113610542Y-74458664D01*
X113720208Y-74592292D01*
X113805756Y-74662500D01*
X113720208Y-74732708D01*
X113610542Y-74866336D01*
X113529053Y-75018791D01*
X113478872Y-75184215D01*
X113461928Y-75356250D01*
X113461928Y-75686494D01*
X113129951Y-76018471D01*
X113096184Y-76046183D01*
X113068471Y-76079951D01*
X113068468Y-76079954D01*
X112985590Y-76180941D01*
X112903412Y-76334687D01*
X112852805Y-76501510D01*
X112835719Y-76675000D01*
X112840001Y-76718479D01*
X112840000Y-78141785D01*
X112748042Y-78253836D01*
X112666553Y-78406291D01*
X112616372Y-78571715D01*
X112599428Y-78743750D01*
X112599428Y-78752500D01*
X111258215Y-78752500D01*
X111243506Y-78740429D01*
X111203854Y-78692113D01*
X111279792Y-78629792D01*
X111389458Y-78496164D01*
X111470947Y-78343709D01*
X111521128Y-78178285D01*
X111538072Y-78006250D01*
X111538072Y-77518750D01*
X111535889Y-77496586D01*
X111584974Y-77436776D01*
X111655546Y-77304747D01*
X111699003Y-77161486D01*
X111710000Y-77049833D01*
X111710000Y-77049824D01*
X111713676Y-77012501D01*
X111710000Y-76975178D01*
X111710000Y-76376018D01*
X111801185Y-76301185D01*
X111880537Y-76204494D01*
X111939502Y-76094180D01*
X111975812Y-75974482D01*
X111988072Y-75850000D01*
X111988072Y-74950000D01*
X111975812Y-74825518D01*
X111939502Y-74705820D01*
X111880537Y-74595506D01*
X111801185Y-74498815D01*
X111704494Y-74419463D01*
X111594180Y-74360498D01*
X111474482Y-74324188D01*
X111350000Y-74311928D01*
X110838095Y-74311928D01*
X110851185Y-74301185D01*
X110930537Y-74204494D01*
X110989502Y-74094180D01*
X111025812Y-73974482D01*
X111038072Y-73850000D01*
X111038072Y-72950000D01*
X111025812Y-72825518D01*
X111000419Y-72741808D01*
X111056488Y-72657894D01*
X111134509Y-72469536D01*
X111174283Y-72269577D01*
X111174283Y-72065699D01*
X111134509Y-71865740D01*
X111056488Y-71677382D01*
X110943220Y-71507864D01*
X110799057Y-71363701D01*
X110629539Y-71250433D01*
X110441181Y-71172412D01*
X110241222Y-71132638D01*
X110037344Y-71132638D01*
X109837385Y-71172412D01*
X109649027Y-71250433D01*
X109479509Y-71363701D01*
X109335346Y-71507864D01*
X109222078Y-71677382D01*
X109144057Y-71865740D01*
X109104283Y-72065699D01*
X109104283Y-72269577D01*
X109144057Y-72469536D01*
X109154315Y-72494301D01*
X109148815Y-72498815D01*
X109069463Y-72595506D01*
X109045680Y-72640000D01*
X106699822Y-72640000D01*
X106662499Y-72636324D01*
X106625176Y-72640000D01*
X106625167Y-72640000D01*
X106513514Y-72650997D01*
X106370253Y-72694454D01*
X106238224Y-72765026D01*
X106238222Y-72765027D01*
X106238223Y-72765027D01*
X106151496Y-72836201D01*
X106151492Y-72836205D01*
X106122499Y-72859999D01*
X106098705Y-72888992D01*
X106050769Y-72936928D01*
X105543750Y-72936928D01*
X105371715Y-72953872D01*
X105206291Y-73004053D01*
X105053836Y-73085542D01*
X104920208Y-73195208D01*
X104810542Y-73328836D01*
X104729053Y-73481291D01*
X104678872Y-73646715D01*
X104661928Y-73818750D01*
X104661928Y-74306250D01*
X104678872Y-74478285D01*
X104729053Y-74643709D01*
X104810542Y-74796164D01*
X104920208Y-74929792D01*
X105005756Y-75000000D01*
X104920208Y-75070208D01*
X104810542Y-75203836D01*
X104729053Y-75356291D01*
X104678872Y-75521715D01*
X104661928Y-75693750D01*
X104661928Y-76181250D01*
X104678872Y-76353285D01*
X104729053Y-76518709D01*
X104810542Y-76671164D01*
X104920208Y-76804792D01*
X105053836Y-76914458D01*
X105206291Y-76995947D01*
X105236837Y-77005213D01*
X105240001Y-77037333D01*
X105250998Y-77148986D01*
X105264180Y-77192442D01*
X105294454Y-77292246D01*
X105365026Y-77424276D01*
X105402759Y-77470253D01*
X105460000Y-77540001D01*
X105488998Y-77563799D01*
X106198701Y-78273502D01*
X106222499Y-78302501D01*
X106338224Y-78397474D01*
X106470253Y-78468046D01*
X106613514Y-78511503D01*
X106725167Y-78522500D01*
X106725177Y-78522500D01*
X106762500Y-78526176D01*
X106799823Y-78522500D01*
X109032155Y-78522500D01*
X109120208Y-78629792D01*
X109205756Y-78700000D01*
X109120208Y-78770208D01*
X109010542Y-78903836D01*
X108929053Y-79056291D01*
X108878872Y-79221715D01*
X108861928Y-79393750D01*
X108861928Y-79881250D01*
X108878872Y-80053285D01*
X108929053Y-80218709D01*
X109010542Y-80371164D01*
X109120208Y-80504792D01*
X109253836Y-80614458D01*
X109406291Y-80695947D01*
X109571715Y-80746128D01*
X109743750Y-80763072D01*
X110656250Y-80763072D01*
X110828285Y-80746128D01*
X110993709Y-80695947D01*
X111146164Y-80614458D01*
X111258215Y-80522500D01*
X112225922Y-80522500D01*
X111904951Y-80843471D01*
X111871184Y-80871183D01*
X111843471Y-80904951D01*
X111843468Y-80904954D01*
X111761548Y-81004774D01*
X111760590Y-81005941D01*
X111678411Y-81159687D01*
X111627805Y-81326510D01*
X111615000Y-81456523D01*
X111615000Y-81456531D01*
X111614421Y-81462413D01*
X111582795Y-81509744D01*
X111504774Y-81698102D01*
X111465000Y-81898061D01*
X111465000Y-82101939D01*
X111504774Y-82301898D01*
X111582795Y-82490256D01*
X111696063Y-82659774D01*
X111840226Y-82803937D01*
X112009744Y-82917205D01*
X112198102Y-82995226D01*
X112398061Y-83035000D01*
X112592796Y-83035000D01*
X112464920Y-83139946D01*
X112437205Y-83173717D01*
X112411494Y-83199428D01*
X112081250Y-83199428D01*
X111909215Y-83216372D01*
X111743791Y-83266553D01*
X111591336Y-83348042D01*
X111457708Y-83457708D01*
X111368750Y-83566103D01*
X111279792Y-83457708D01*
X111146164Y-83348042D01*
X110993709Y-83266553D01*
X110960000Y-83256327D01*
X110960000Y-83237367D01*
X110963676Y-83200042D01*
X110960000Y-83162717D01*
X110960000Y-83162709D01*
X110949003Y-83051056D01*
X110905546Y-82907795D01*
X110834974Y-82775766D01*
X110740001Y-82660041D01*
X110711004Y-82636244D01*
X110034958Y-81960199D01*
X110034958Y-81898061D01*
X109995184Y-81698102D01*
X109917163Y-81509744D01*
X109803895Y-81340226D01*
X109659732Y-81196063D01*
X109490214Y-81082795D01*
X109301856Y-81004774D01*
X109101897Y-80965000D01*
X108898019Y-80965000D01*
X108698060Y-81004774D01*
X108509702Y-81082795D01*
X108340184Y-81196063D01*
X108196021Y-81340226D01*
X108082753Y-81509744D01*
X108004732Y-81698102D01*
X107964958Y-81898061D01*
X107964958Y-82101939D01*
X108004732Y-82301898D01*
X108082753Y-82490256D01*
X108196021Y-82659774D01*
X108340184Y-82803937D01*
X108509702Y-82917205D01*
X108698060Y-82995226D01*
X108898019Y-83035000D01*
X108960157Y-83035000D01*
X109266454Y-83341298D01*
X109253836Y-83348042D01*
X109120208Y-83457708D01*
X109010542Y-83591336D01*
X108929053Y-83743791D01*
X108878872Y-83909215D01*
X108861928Y-84081250D01*
X108861928Y-84568750D01*
X108878872Y-84740785D01*
X108929053Y-84906209D01*
X109010542Y-85058664D01*
X109120208Y-85192292D01*
X109205756Y-85262500D01*
X109120208Y-85332708D01*
X109010542Y-85466336D01*
X108929053Y-85618791D01*
X108878872Y-85784215D01*
X108861928Y-85956250D01*
X108861928Y-85963270D01*
X106913271Y-87911928D01*
X106550000Y-87911928D01*
X106425518Y-87924188D01*
X106305820Y-87960498D01*
X106195506Y-88019463D01*
X106098815Y-88098815D01*
X106019463Y-88195506D01*
X105960498Y-88305820D01*
X105924188Y-88425518D01*
X105911928Y-88550000D01*
X105911928Y-89450000D01*
X105924188Y-89574482D01*
X105960498Y-89694180D01*
X106019463Y-89804494D01*
X106098815Y-89901185D01*
X106111905Y-89911928D01*
X105600000Y-89911928D01*
X105475518Y-89924188D01*
X105355820Y-89960498D01*
X105245506Y-90019463D01*
X105148815Y-90098815D01*
X105069463Y-90195506D01*
X105010498Y-90305820D01*
X104974188Y-90425518D01*
X104961928Y-90550000D01*
X104961928Y-91450000D01*
X104974188Y-91574482D01*
X105010498Y-91694180D01*
X105069463Y-91804494D01*
X105148815Y-91901185D01*
X105245506Y-91980537D01*
X105355820Y-92039502D01*
X105475518Y-92075812D01*
X105600000Y-92088072D01*
X106400000Y-92088072D01*
X106524482Y-92075812D01*
X106644180Y-92039502D01*
X106754494Y-91980537D01*
X106851185Y-91901185D01*
X106930537Y-91804494D01*
X106950000Y-91768082D01*
X106969463Y-91804494D01*
X107048815Y-91901185D01*
X107145506Y-91980537D01*
X107255820Y-92039502D01*
X107375518Y-92075812D01*
X107500000Y-92088072D01*
X107614250Y-92085000D01*
X107773000Y-91926250D01*
X107773000Y-91127000D01*
X107753000Y-91127000D01*
X107753000Y-90873000D01*
X107773000Y-90873000D01*
X107773000Y-90853000D01*
X108027000Y-90853000D01*
X108027000Y-90873000D01*
X108047000Y-90873000D01*
X108047000Y-91127000D01*
X108027000Y-91127000D01*
X108027000Y-91926250D01*
X108185750Y-92085000D01*
X108290000Y-92087803D01*
X108290001Y-93523981D01*
X108198815Y-93598815D01*
X108119463Y-93695506D01*
X108060498Y-93805820D01*
X108024188Y-93925518D01*
X108011928Y-94050000D01*
X108011928Y-94950000D01*
X108024188Y-95074482D01*
X108060498Y-95194180D01*
X108119463Y-95304494D01*
X108198815Y-95401185D01*
X108295506Y-95480537D01*
X108405820Y-95539502D01*
X108525518Y-95575812D01*
X108650000Y-95588072D01*
X109450000Y-95588072D01*
X109574482Y-95575812D01*
X109694180Y-95539502D01*
X109804494Y-95480537D01*
X109901185Y-95401185D01*
X109980537Y-95304494D01*
X110000000Y-95268082D01*
X110019463Y-95304494D01*
X110098815Y-95401185D01*
X110195506Y-95480537D01*
X110305820Y-95539502D01*
X110425518Y-95575812D01*
X110550000Y-95588072D01*
X110664250Y-95585000D01*
X110823000Y-95426250D01*
X110823000Y-94627000D01*
X111077000Y-94627000D01*
X111077000Y-95426250D01*
X111235750Y-95585000D01*
X111350000Y-95588072D01*
X111474482Y-95575812D01*
X111594180Y-95539502D01*
X111704494Y-95480537D01*
X111801185Y-95401185D01*
X111880537Y-95304494D01*
X111939502Y-95194180D01*
X111975812Y-95074482D01*
X111988072Y-94950000D01*
X111985000Y-94785750D01*
X111826250Y-94627000D01*
X111077000Y-94627000D01*
X110823000Y-94627000D01*
X110803000Y-94627000D01*
X110803000Y-94373000D01*
X110823000Y-94373000D01*
X110823000Y-93573750D01*
X111077000Y-93573750D01*
X111077000Y-94373000D01*
X111826250Y-94373000D01*
X111985000Y-94214250D01*
X111988072Y-94050000D01*
X111975812Y-93925518D01*
X111939502Y-93805820D01*
X111880537Y-93695506D01*
X111801185Y-93598815D01*
X111704494Y-93519463D01*
X111594180Y-93460498D01*
X111474482Y-93424188D01*
X111350000Y-93411928D01*
X111235750Y-93415000D01*
X111077000Y-93573750D01*
X110823000Y-93573750D01*
X110738393Y-93489143D01*
X110754494Y-93480537D01*
X110851185Y-93401185D01*
X110930537Y-93304494D01*
X110989502Y-93194180D01*
X111025812Y-93074482D01*
X111038072Y-92950000D01*
X111038072Y-92050000D01*
X111025812Y-91925518D01*
X110989502Y-91805820D01*
X110983160Y-91793956D01*
X111053836Y-91851958D01*
X111206291Y-91933447D01*
X111371715Y-91983628D01*
X111543750Y-92000572D01*
X112050771Y-92000572D01*
X115086211Y-95036013D01*
X115110009Y-95065011D01*
X115225734Y-95159984D01*
X115357763Y-95230556D01*
X115501024Y-95274013D01*
X115612677Y-95285010D01*
X115612685Y-95285010D01*
X115650010Y-95288686D01*
X115687335Y-95285010D01*
X117504518Y-95285010D01*
X117541840Y-95288686D01*
X117579162Y-95285010D01*
X117579173Y-95285010D01*
X117690826Y-95274013D01*
X117834087Y-95230556D01*
X117966116Y-95159984D01*
X118081841Y-95065011D01*
X118105644Y-95036007D01*
X118177500Y-94964151D01*
X118177500Y-96774916D01*
X117800000Y-96737735D01*
X116695347Y-96846534D01*
X115633145Y-97168749D01*
X114654214Y-97691999D01*
X113796174Y-98396175D01*
X113091999Y-99254215D01*
X112568749Y-100233146D01*
X112246534Y-101295348D01*
X112165000Y-102123175D01*
X112165001Y-151176826D01*
X112246535Y-152004653D01*
X112568750Y-153066855D01*
X113092000Y-154045786D01*
X113796175Y-154903826D01*
X114654215Y-155608001D01*
X115633146Y-156131251D01*
X116695348Y-156453466D01*
X117800000Y-156562265D01*
X118904653Y-156453466D01*
X119966855Y-156131251D01*
X120945786Y-155608001D01*
X121803826Y-154903826D01*
X122508001Y-154045786D01*
X123031251Y-153066855D01*
X123353466Y-152004653D01*
X123435000Y-151176826D01*
X123435000Y-102123174D01*
X123353466Y-101295347D01*
X123031251Y-100233145D01*
X122508001Y-99254214D01*
X121803825Y-98396174D01*
X121024449Y-97756557D01*
X121063023Y-97760356D01*
X121063032Y-97760356D01*
X121100355Y-97764032D01*
X121137678Y-97760356D01*
X124796645Y-97760356D01*
X124840226Y-97803937D01*
X125009744Y-97917205D01*
X125198102Y-97995226D01*
X125398061Y-98035000D01*
X125601939Y-98035000D01*
X125801898Y-97995226D01*
X125990256Y-97917205D01*
X126159774Y-97803937D01*
X126303937Y-97659774D01*
X126417205Y-97490256D01*
X126495226Y-97301898D01*
X126535000Y-97101939D01*
X126535000Y-96898061D01*
X126495226Y-96698102D01*
X126417205Y-96509744D01*
X126383974Y-96460010D01*
X126845828Y-96460010D01*
X126883151Y-96463686D01*
X126920473Y-96460010D01*
X126920484Y-96460010D01*
X127032137Y-96449013D01*
X127175398Y-96405556D01*
X127307427Y-96334984D01*
X127423152Y-96240011D01*
X127446954Y-96211008D01*
X129211004Y-94446960D01*
X129240001Y-94423163D01*
X129289632Y-94362688D01*
X129334974Y-94307439D01*
X129405546Y-94175409D01*
X129408905Y-94164335D01*
X129449003Y-94032148D01*
X129460000Y-93920495D01*
X129460000Y-93920486D01*
X129463676Y-93883163D01*
X129460000Y-93845838D01*
X129460000Y-89614801D01*
X130864639Y-88210162D01*
X130842753Y-88450656D01*
X130843171Y-88510472D01*
X130842753Y-88570288D01*
X130843652Y-88579460D01*
X130874252Y-88870605D01*
X130886283Y-88929217D01*
X130897489Y-88987963D01*
X130900153Y-88996784D01*
X130986721Y-89276440D01*
X131009899Y-89331578D01*
X131032311Y-89387050D01*
X131036638Y-89395186D01*
X131175877Y-89652702D01*
X131209304Y-89702259D01*
X131242080Y-89752347D01*
X131247905Y-89759488D01*
X131434510Y-89985056D01*
X131476965Y-90027215D01*
X131518809Y-90069945D01*
X131525909Y-90075819D01*
X131752773Y-90260845D01*
X131802566Y-90293927D01*
X131851955Y-90327745D01*
X131860061Y-90332127D01*
X132118542Y-90469564D01*
X132173836Y-90492355D01*
X132228829Y-90515925D01*
X132237632Y-90518650D01*
X132340000Y-90549557D01*
X132340001Y-93646778D01*
X129660588Y-95433054D01*
X129631550Y-95448575D01*
X129581287Y-95489825D01*
X129531543Y-95530562D01*
X129531323Y-95530830D01*
X129531052Y-95531052D01*
X129489702Y-95581438D01*
X129448962Y-95630974D01*
X129448799Y-95631278D01*
X129448575Y-95631551D01*
X129417976Y-95688798D01*
X129387556Y-95745566D01*
X129387454Y-95745901D01*
X129387290Y-95746208D01*
X129368356Y-95808623D01*
X129349687Y-95869938D01*
X129349653Y-95870278D01*
X129349550Y-95870618D01*
X129343124Y-95935859D01*
X129336808Y-95999307D01*
X129340000Y-96032066D01*
X129340001Y-151663912D01*
X118721338Y-159386575D01*
X118314733Y-159479214D01*
X117827192Y-159493131D01*
X117323567Y-159408264D01*
X117297780Y-159400478D01*
X106660000Y-151663913D01*
X106660000Y-96032065D01*
X106663192Y-95999306D01*
X106656876Y-95935858D01*
X106650450Y-95870617D01*
X106650347Y-95870277D01*
X106650313Y-95869937D01*
X106631644Y-95808622D01*
X106612710Y-95746207D01*
X106612546Y-95745900D01*
X106612444Y-95745565D01*
X106582024Y-95688797D01*
X106551425Y-95631550D01*
X106551201Y-95631277D01*
X106551038Y-95630973D01*
X106510105Y-95581201D01*
X106468948Y-95531052D01*
X106468680Y-95530832D01*
X106468457Y-95530561D01*
X106417903Y-95489161D01*
X106368449Y-95448575D01*
X106339423Y-95433061D01*
X103660000Y-93646779D01*
X103660000Y-90549198D01*
X103790476Y-90507809D01*
X103845412Y-90484263D01*
X103900764Y-90461449D01*
X103908870Y-90457065D01*
X104165408Y-90316032D01*
X104214753Y-90282245D01*
X104264591Y-90249133D01*
X104271691Y-90243259D01*
X104495949Y-90055084D01*
X104537793Y-90012354D01*
X104580248Y-89970195D01*
X104586072Y-89963053D01*
X104769509Y-89734903D01*
X104802251Y-89684869D01*
X104835714Y-89635258D01*
X104840040Y-89627122D01*
X104975670Y-89367687D01*
X104998082Y-89312215D01*
X105021260Y-89257077D01*
X105023923Y-89248255D01*
X105106578Y-88967417D01*
X105117785Y-88908669D01*
X105129816Y-88850059D01*
X105130715Y-88840888D01*
X105157247Y-88549344D01*
X105156829Y-88489528D01*
X105157247Y-88429712D01*
X105156348Y-88420541D01*
X105125748Y-88129395D01*
X105113710Y-88070753D01*
X105102510Y-88012037D01*
X105099847Y-88003216D01*
X105013279Y-87723560D01*
X104990101Y-87668422D01*
X104967689Y-87612950D01*
X104963362Y-87604814D01*
X104824123Y-87347298D01*
X104790701Y-87297749D01*
X104757920Y-87247653D01*
X104752095Y-87240512D01*
X104565490Y-87014945D01*
X104523054Y-86972804D01*
X104481191Y-86930055D01*
X104474091Y-86924181D01*
X104247227Y-86739155D01*
X104197408Y-86706055D01*
X104148045Y-86672256D01*
X104139939Y-86667873D01*
X103881458Y-86530436D01*
X103826164Y-86507645D01*
X103771171Y-86484075D01*
X103762368Y-86481350D01*
X103660000Y-86450443D01*
X103660000Y-70036790D01*
X103669463Y-70054494D01*
X103748815Y-70151185D01*
X103845506Y-70230537D01*
X103955820Y-70289502D01*
X104075518Y-70325812D01*
X104200000Y-70338072D01*
X105800000Y-70338072D01*
X105924482Y-70325812D01*
X106044180Y-70289502D01*
X106154494Y-70230537D01*
X106251185Y-70151185D01*
X106330537Y-70054494D01*
X106389502Y-69944180D01*
X106425812Y-69824482D01*
X106438072Y-69700000D01*
X106438072Y-67700000D01*
X106425812Y-67575518D01*
X106389502Y-67455820D01*
X106330537Y-67345506D01*
X106251185Y-67248815D01*
X106154494Y-67169463D01*
X106044180Y-67110498D01*
X105924482Y-67074188D01*
X105895118Y-67071296D01*
X105917205Y-67038240D01*
X105995226Y-66849882D01*
X106035000Y-66649923D01*
X106035000Y-66446045D01*
X105995226Y-66246086D01*
X105917205Y-66057728D01*
X105803937Y-65888210D01*
X105659774Y-65744047D01*
X105490256Y-65630779D01*
X105301898Y-65552758D01*
X105101939Y-65512984D01*
X104898061Y-65512984D01*
X104698102Y-65552758D01*
X104509744Y-65630779D01*
X104340226Y-65744047D01*
X104196063Y-65888210D01*
X104082795Y-66057728D01*
X104004774Y-66246086D01*
X103965000Y-66446045D01*
X103965000Y-66649923D01*
X104004774Y-66849882D01*
X104082795Y-67038240D01*
X104104882Y-67071296D01*
X104075518Y-67074188D01*
X103955820Y-67110498D01*
X103845506Y-67169463D01*
X103748815Y-67248815D01*
X103669463Y-67345506D01*
X103660000Y-67363210D01*
X103660000Y-64636790D01*
X103669463Y-64654494D01*
X103748815Y-64751185D01*
X103845506Y-64830537D01*
X103955820Y-64889502D01*
X104075518Y-64925812D01*
X104200000Y-64938072D01*
X104714250Y-64935000D01*
X104873000Y-64776250D01*
X104873000Y-63427000D01*
X105127000Y-63427000D01*
X105127000Y-64776250D01*
X105285750Y-64935000D01*
X105800000Y-64938072D01*
X105924482Y-64925812D01*
X106044180Y-64889502D01*
X106154494Y-64830537D01*
X106251185Y-64751185D01*
X106330537Y-64654494D01*
X106389502Y-64544180D01*
X106425812Y-64424482D01*
X106438072Y-64300000D01*
X106435000Y-63585750D01*
X106276250Y-63427000D01*
X105127000Y-63427000D01*
X104873000Y-63427000D01*
X104853000Y-63427000D01*
X104853000Y-63173000D01*
X104873000Y-63173000D01*
X104873000Y-61823750D01*
X105127000Y-61823750D01*
X105127000Y-63173000D01*
X106276250Y-63173000D01*
X106435000Y-63014250D01*
X106438072Y-62300000D01*
X106425812Y-62175518D01*
X106389502Y-62055820D01*
X106330537Y-61945506D01*
X106251185Y-61848815D01*
X106154494Y-61769463D01*
X106044180Y-61710498D01*
X105924482Y-61674188D01*
X105800000Y-61661928D01*
X105285750Y-61665000D01*
X105127000Y-61823750D01*
X104873000Y-61823750D01*
X104714250Y-61665000D01*
X104200000Y-61661928D01*
X104075518Y-61674188D01*
X103955820Y-61710498D01*
X103845506Y-61769463D01*
X103748815Y-61848815D01*
X103669463Y-61945506D01*
X103660000Y-61963210D01*
X103660000Y-47049198D01*
X103790476Y-47007809D01*
X103845412Y-46984263D01*
X103900764Y-46961449D01*
X103908870Y-46957065D01*
X104165408Y-46816032D01*
X104214753Y-46782245D01*
X104264591Y-46749133D01*
X104271691Y-46743259D01*
X104495949Y-46555084D01*
X104537793Y-46512354D01*
X104580248Y-46470195D01*
X104586072Y-46463053D01*
X104769509Y-46234903D01*
X104802251Y-46184869D01*
X104835714Y-46135258D01*
X104840040Y-46127122D01*
X104975670Y-45867687D01*
X104998082Y-45812215D01*
X105021260Y-45757077D01*
X105023923Y-45748255D01*
X105106578Y-45467417D01*
X105117785Y-45408669D01*
X105129816Y-45350059D01*
X105130715Y-45340888D01*
X105157247Y-45049344D01*
X105156829Y-44989528D01*
X105157247Y-44929712D01*
X105156348Y-44920541D01*
X105125748Y-44629395D01*
X105113710Y-44570753D01*
X105102510Y-44512037D01*
X105099847Y-44503216D01*
X105013279Y-44223560D01*
X104990101Y-44168422D01*
X104967689Y-44112950D01*
X104963362Y-44104814D01*
X104824123Y-43847298D01*
X104790701Y-43797749D01*
X104757920Y-43747653D01*
X104752095Y-43740512D01*
X104565490Y-43514945D01*
X104523054Y-43472804D01*
X104481191Y-43430055D01*
X104474091Y-43424181D01*
X104247227Y-43239155D01*
X104197408Y-43206055D01*
X104148045Y-43172256D01*
X104139939Y-43167873D01*
X103881458Y-43030436D01*
X103826164Y-43007645D01*
X103771171Y-42984075D01*
X103762368Y-42981350D01*
X103660000Y-42950443D01*
X103660000Y-42660000D01*
X132340000Y-42660000D01*
X132340001Y-42950801D01*
G36*
X124247850Y-82099428D02*
G01*
X123843750Y-82099428D01*
X123671715Y-82116372D01*
X123506291Y-82166553D01*
X123353836Y-82248042D01*
X123220208Y-82357708D01*
X123110542Y-82491336D01*
X123029053Y-82643791D01*
X122978872Y-82809215D01*
X122961928Y-82981250D01*
X122961928Y-83468750D01*
X122978872Y-83640785D01*
X123029053Y-83806209D01*
X123110542Y-83958664D01*
X123220208Y-84092292D01*
X123305756Y-84162500D01*
X123220208Y-84232708D01*
X123110542Y-84366336D01*
X123029053Y-84518791D01*
X122978872Y-84684215D01*
X122961928Y-84856250D01*
X122961928Y-85343750D01*
X122963678Y-85361520D01*
X122294455Y-86030744D01*
X122247121Y-85983410D01*
X122077603Y-85870142D01*
X121889245Y-85792121D01*
X121689286Y-85752347D01*
X121485408Y-85752347D01*
X121285449Y-85792121D01*
X121249161Y-85807152D01*
X121289502Y-85731680D01*
X121325812Y-85611982D01*
X121338072Y-85487500D01*
X121335000Y-85285750D01*
X121176250Y-85127000D01*
X120127000Y-85127000D01*
X120127000Y-85147000D01*
X119873000Y-85147000D01*
X119873000Y-85127000D01*
X118823750Y-85127000D01*
X118665000Y-85285750D01*
X118661928Y-85487500D01*
X118674188Y-85611982D01*
X118710498Y-85731680D01*
X118769463Y-85841994D01*
X118848815Y-85938685D01*
X118926564Y-86002492D01*
X118920208Y-86007708D01*
X118832155Y-86115000D01*
X117167845Y-86115000D01*
X117079792Y-86007708D01*
X117073436Y-86002492D01*
X117151185Y-85938685D01*
X117230537Y-85841994D01*
X117289502Y-85731680D01*
X117325812Y-85611982D01*
X117338072Y-85487500D01*
X117335000Y-85285750D01*
X117176250Y-85127000D01*
X116127000Y-85127000D01*
X116127000Y-85147000D01*
X115873000Y-85147000D01*
X115873000Y-85127000D01*
X114823750Y-85127000D01*
X114665000Y-85285750D01*
X114661928Y-85487500D01*
X114674188Y-85611982D01*
X114710498Y-85731680D01*
X114769463Y-85841994D01*
X114848815Y-85938685D01*
X114926564Y-86002492D01*
X114920208Y-86007708D01*
X114827274Y-86120948D01*
X114776014Y-86125997D01*
X114632753Y-86169454D01*
X114500724Y-86240026D01*
X114384999Y-86334999D01*
X114361201Y-86363998D01*
X114160198Y-86565000D01*
X114098061Y-86565000D01*
X113898102Y-86604774D01*
X113874461Y-86614566D01*
X113872500Y-86485750D01*
X113713750Y-86327000D01*
X112664500Y-86327000D01*
X112664500Y-87163750D01*
X112823250Y-87322500D01*
X113199366Y-87325289D01*
X113165000Y-87498061D01*
X113165000Y-87701939D01*
X113204774Y-87901898D01*
X113282795Y-88090256D01*
X113396063Y-88259774D01*
X113540226Y-88403937D01*
X113709744Y-88517205D01*
X113898102Y-88595226D01*
X114098061Y-88635000D01*
X114301939Y-88635000D01*
X114501898Y-88595226D01*
X114690256Y-88517205D01*
X114772713Y-88462109D01*
X114729053Y-88543791D01*
X114678872Y-88709215D01*
X114661928Y-88881250D01*
X114661928Y-89368750D01*
X114678872Y-89540785D01*
X114729053Y-89706209D01*
X114810542Y-89858664D01*
X114920208Y-89992292D01*
X115005756Y-90062500D01*
X114920208Y-90132708D01*
X114810542Y-90266336D01*
X114729053Y-90418791D01*
X114678872Y-90584215D01*
X114661928Y-90756250D01*
X114661928Y-91243750D01*
X114678872Y-91415785D01*
X114729053Y-91581209D01*
X114810542Y-91733664D01*
X114920208Y-91867292D01*
X115053836Y-91976958D01*
X115206291Y-92058447D01*
X115371715Y-92108628D01*
X115525627Y-92123787D01*
X115698102Y-92195229D01*
X115898061Y-92235003D01*
X116101939Y-92235003D01*
X116301898Y-92195229D01*
X116474373Y-92123787D01*
X116628285Y-92108628D01*
X116793709Y-92058447D01*
X116946164Y-91976958D01*
X117079792Y-91867292D01*
X117167845Y-91760000D01*
X118883448Y-91760000D01*
X118920208Y-91804792D01*
X119053836Y-91914458D01*
X119206291Y-91995947D01*
X119371715Y-92046128D01*
X119543750Y-92063072D01*
X120456250Y-92063072D01*
X120628285Y-92046128D01*
X120793709Y-91995947D01*
X120815000Y-91984567D01*
X120815000Y-93325857D01*
X120811323Y-93363189D01*
X120815000Y-93400522D01*
X120825997Y-93512175D01*
X120837688Y-93550715D01*
X120869453Y-93655435D01*
X120940025Y-93787465D01*
X120996454Y-93856223D01*
X121034999Y-93903190D01*
X121063997Y-93926988D01*
X123348021Y-96211013D01*
X123371819Y-96240011D01*
X123372239Y-96240356D01*
X121705590Y-96240356D01*
X121691383Y-96168933D01*
X121605824Y-95962376D01*
X121481612Y-95776480D01*
X121360000Y-95654868D01*
X121360000Y-95199822D01*
X121363676Y-95162499D01*
X121360000Y-95125176D01*
X121360000Y-95125167D01*
X121349003Y-95013514D01*
X121305546Y-94870253D01*
X121282327Y-94826814D01*
X121234974Y-94738223D01*
X121163799Y-94651497D01*
X121140001Y-94622499D01*
X121111003Y-94598701D01*
X120063072Y-93550771D01*
X120063072Y-93043750D01*
X120046128Y-92871715D01*
X119995947Y-92706291D01*
X119914458Y-92553836D01*
X119804792Y-92420208D01*
X119671164Y-92310542D01*
X119518709Y-92229053D01*
X119353285Y-92178872D01*
X119181250Y-92161928D01*
X118693750Y-92161928D01*
X118521715Y-92178872D01*
X118356291Y-92229053D01*
X118203836Y-92310542D01*
X118070208Y-92420208D01*
X118064992Y-92426564D01*
X118001185Y-92348815D01*
X117904494Y-92269463D01*
X117794180Y-92210498D01*
X117674482Y-92174188D01*
X117550000Y-92161928D01*
X117348250Y-92165000D01*
X117189500Y-92323750D01*
X117189500Y-93373000D01*
X117209500Y-93373000D01*
X117209500Y-93607842D01*
X117199260Y-93627000D01*
X117189500Y-93627000D01*
X117189500Y-93645260D01*
X117188570Y-93647000D01*
X116935500Y-93647000D01*
X116935500Y-93627000D01*
X116098750Y-93627000D01*
X115962776Y-93762974D01*
X114999802Y-92800000D01*
X115936928Y-92800000D01*
X115940000Y-93214250D01*
X116098750Y-93373000D01*
X116935500Y-93373000D01*
X116935500Y-92323750D01*
X116776750Y-92165000D01*
X116575000Y-92161928D01*
X116450518Y-92174188D01*
X116330820Y-92210498D01*
X116220506Y-92269463D01*
X116123815Y-92348815D01*
X116044463Y-92445506D01*
X115985498Y-92555820D01*
X115949188Y-92675518D01*
X115936928Y-92800000D01*
X114999802Y-92800000D01*
X113336322Y-91136521D01*
X113338072Y-91118750D01*
X113338072Y-90631250D01*
X113321128Y-90459215D01*
X113270947Y-90293791D01*
X113189458Y-90141336D01*
X113079792Y-90007708D01*
X112994244Y-89937500D01*
X113079792Y-89867292D01*
X113189458Y-89733664D01*
X113270947Y-89581209D01*
X113321128Y-89415785D01*
X113338072Y-89243750D01*
X113338072Y-88756250D01*
X113321128Y-88584215D01*
X113270947Y-88418791D01*
X113189458Y-88266336D01*
X113079792Y-88132708D01*
X112946164Y-88023042D01*
X112793709Y-87941553D01*
X112628285Y-87891372D01*
X112456250Y-87874428D01*
X111543750Y-87874428D01*
X111371715Y-87891372D01*
X111206291Y-87941553D01*
X111053836Y-88023042D01*
X110920208Y-88132708D01*
X110810542Y-88266336D01*
X110758024Y-88364590D01*
X110757208Y-88365026D01*
X110683499Y-88425518D01*
X110641484Y-88459999D01*
X110617686Y-88488997D01*
X109488998Y-89617686D01*
X109460000Y-89641484D01*
X109436202Y-89670482D01*
X109436201Y-89670483D01*
X109395220Y-89720418D01*
X108324801Y-88650000D01*
X109657705Y-87317097D01*
X109743750Y-87325572D01*
X110656250Y-87325572D01*
X110828285Y-87308628D01*
X110993709Y-87258447D01*
X111146164Y-87176958D01*
X111279792Y-87067292D01*
X111304435Y-87037265D01*
X111306963Y-87041994D01*
X111386315Y-87138685D01*
X111483006Y-87218037D01*
X111593320Y-87277002D01*
X111713018Y-87313312D01*
X111837500Y-87325572D01*
X112251750Y-87322500D01*
X112410500Y-87163750D01*
X112410500Y-86327000D01*
X112390500Y-86327000D01*
X112390500Y-86073000D01*
X112410500Y-86073000D01*
X112410500Y-86053000D01*
X112664500Y-86053000D01*
X112664500Y-86073000D01*
X113713750Y-86073000D01*
X113872500Y-85914250D01*
X113875572Y-85712500D01*
X113863312Y-85588018D01*
X113827002Y-85468320D01*
X113768037Y-85358006D01*
X113688685Y-85261315D01*
X113610936Y-85197508D01*
X113617292Y-85192292D01*
X113726958Y-85058664D01*
X113808447Y-84906209D01*
X113858628Y-84740785D01*
X113867199Y-84653763D01*
X114664079Y-84653763D01*
X114665000Y-84714250D01*
X114823750Y-84873000D01*
X115873000Y-84873000D01*
X115873000Y-84853000D01*
X116127000Y-84853000D01*
X116127000Y-84873000D01*
X117176250Y-84873000D01*
X117335000Y-84714250D01*
X117338072Y-84512500D01*
X117325812Y-84388018D01*
X117289502Y-84268320D01*
X117230537Y-84158006D01*
X117168800Y-84082779D01*
X117194357Y-84057221D01*
X117196063Y-84059774D01*
X117340226Y-84203937D01*
X117509744Y-84317205D01*
X117698102Y-84395226D01*
X117898061Y-84435000D01*
X118101939Y-84435000D01*
X118301898Y-84395226D01*
X118490256Y-84317205D01*
X118538454Y-84285000D01*
X118705438Y-84285000D01*
X118674188Y-84388018D01*
X118661928Y-84512500D01*
X118665000Y-84714250D01*
X118823750Y-84873000D01*
X119873000Y-84873000D01*
X119873000Y-84853000D01*
X120127000Y-84853000D01*
X120127000Y-84873000D01*
X121176250Y-84873000D01*
X121335000Y-84714250D01*
X121338072Y-84512500D01*
X121325812Y-84388018D01*
X121289502Y-84268320D01*
X121230537Y-84158006D01*
X121151185Y-84061315D01*
X121054494Y-83981963D01*
X120944180Y-83922998D01*
X120824482Y-83886688D01*
X120700000Y-83874428D01*
X120285750Y-83877500D01*
X120127002Y-84036248D01*
X120127002Y-83882789D01*
X123079107Y-80930685D01*
X124247850Y-82099428D01*
G37*
X124247850Y-82099428D02*
X123843750Y-82099428D01*
X123671715Y-82116372D01*
X123506291Y-82166553D01*
X123353836Y-82248042D01*
X123220208Y-82357708D01*
X123110542Y-82491336D01*
X123029053Y-82643791D01*
X122978872Y-82809215D01*
X122961928Y-82981250D01*
X122961928Y-83468750D01*
X122978872Y-83640785D01*
X123029053Y-83806209D01*
X123110542Y-83958664D01*
X123220208Y-84092292D01*
X123305756Y-84162500D01*
X123220208Y-84232708D01*
X123110542Y-84366336D01*
X123029053Y-84518791D01*
X122978872Y-84684215D01*
X122961928Y-84856250D01*
X122961928Y-85343750D01*
X122963678Y-85361520D01*
X122294455Y-86030744D01*
X122247121Y-85983410D01*
X122077603Y-85870142D01*
X121889245Y-85792121D01*
X121689286Y-85752347D01*
X121485408Y-85752347D01*
X121285449Y-85792121D01*
X121249161Y-85807152D01*
X121289502Y-85731680D01*
X121325812Y-85611982D01*
X121338072Y-85487500D01*
X121335000Y-85285750D01*
X121176250Y-85127000D01*
X120127000Y-85127000D01*
X120127000Y-85147000D01*
X119873000Y-85147000D01*
X119873000Y-85127000D01*
X118823750Y-85127000D01*
X118665000Y-85285750D01*
X118661928Y-85487500D01*
X118674188Y-85611982D01*
X118710498Y-85731680D01*
X118769463Y-85841994D01*
X118848815Y-85938685D01*
X118926564Y-86002492D01*
X118920208Y-86007708D01*
X118832155Y-86115000D01*
X117167845Y-86115000D01*
X117079792Y-86007708D01*
X117073436Y-86002492D01*
X117151185Y-85938685D01*
X117230537Y-85841994D01*
X117289502Y-85731680D01*
X117325812Y-85611982D01*
X117338072Y-85487500D01*
X117335000Y-85285750D01*
X117176250Y-85127000D01*
X116127000Y-85127000D01*
X116127000Y-85147000D01*
X115873000Y-85147000D01*
X115873000Y-85127000D01*
X114823750Y-85127000D01*
X114665000Y-85285750D01*
X114661928Y-85487500D01*
X114674188Y-85611982D01*
X114710498Y-85731680D01*
X114769463Y-85841994D01*
X114848815Y-85938685D01*
X114926564Y-86002492D01*
X114920208Y-86007708D01*
X114827274Y-86120948D01*
X114776014Y-86125997D01*
X114632753Y-86169454D01*
X114500724Y-86240026D01*
X114384999Y-86334999D01*
X114361201Y-86363998D01*
X114160198Y-86565000D01*
X114098061Y-86565000D01*
X113898102Y-86604774D01*
X113874461Y-86614566D01*
X113872500Y-86485750D01*
X113713750Y-86327000D01*
X112664500Y-86327000D01*
X112664500Y-87163750D01*
X112823250Y-87322500D01*
X113199366Y-87325289D01*
X113165000Y-87498061D01*
X113165000Y-87701939D01*
X113204774Y-87901898D01*
X113282795Y-88090256D01*
X113396063Y-88259774D01*
X113540226Y-88403937D01*
X113709744Y-88517205D01*
X113898102Y-88595226D01*
X114098061Y-88635000D01*
X114301939Y-88635000D01*
X114501898Y-88595226D01*
X114690256Y-88517205D01*
X114772713Y-88462109D01*
X114729053Y-88543791D01*
X114678872Y-88709215D01*
X114661928Y-88881250D01*
X114661928Y-89368750D01*
X114678872Y-89540785D01*
X114729053Y-89706209D01*
X114810542Y-89858664D01*
X114920208Y-89992292D01*
X115005756Y-90062500D01*
X114920208Y-90132708D01*
X114810542Y-90266336D01*
X114729053Y-90418791D01*
X114678872Y-90584215D01*
X114661928Y-90756250D01*
X114661928Y-91243750D01*
X114678872Y-91415785D01*
X114729053Y-91581209D01*
X114810542Y-91733664D01*
X114920208Y-91867292D01*
X115053836Y-91976958D01*
X115206291Y-92058447D01*
X115371715Y-92108628D01*
X115525627Y-92123787D01*
X115698102Y-92195229D01*
X115898061Y-92235003D01*
X116101939Y-92235003D01*
X116301898Y-92195229D01*
X116474373Y-92123787D01*
X116628285Y-92108628D01*
X116793709Y-92058447D01*
X116946164Y-91976958D01*
X117079792Y-91867292D01*
X117167845Y-91760000D01*
X118883448Y-91760000D01*
X118920208Y-91804792D01*
X119053836Y-91914458D01*
X119206291Y-91995947D01*
X119371715Y-92046128D01*
X119543750Y-92063072D01*
X120456250Y-92063072D01*
X120628285Y-92046128D01*
X120793709Y-91995947D01*
X120815000Y-91984567D01*
X120815000Y-93325857D01*
X120811323Y-93363189D01*
X120815000Y-93400522D01*
X120825997Y-93512175D01*
X120837688Y-93550715D01*
X120869453Y-93655435D01*
X120940025Y-93787465D01*
X120996454Y-93856223D01*
X121034999Y-93903190D01*
X121063997Y-93926988D01*
X123348021Y-96211013D01*
X123371819Y-96240011D01*
X123372239Y-96240356D01*
X121705590Y-96240356D01*
X121691383Y-96168933D01*
X121605824Y-95962376D01*
X121481612Y-95776480D01*
X121360000Y-95654868D01*
X121360000Y-95199822D01*
X121363676Y-95162499D01*
X121360000Y-95125176D01*
X121360000Y-95125167D01*
X121349003Y-95013514D01*
X121305546Y-94870253D01*
X121282327Y-94826814D01*
X121234974Y-94738223D01*
X121163799Y-94651497D01*
X121140001Y-94622499D01*
X121111003Y-94598701D01*
X120063072Y-93550771D01*
X120063072Y-93043750D01*
X120046128Y-92871715D01*
X119995947Y-92706291D01*
X119914458Y-92553836D01*
X119804792Y-92420208D01*
X119671164Y-92310542D01*
X119518709Y-92229053D01*
X119353285Y-92178872D01*
X119181250Y-92161928D01*
X118693750Y-92161928D01*
X118521715Y-92178872D01*
X118356291Y-92229053D01*
X118203836Y-92310542D01*
X118070208Y-92420208D01*
X118064992Y-92426564D01*
X118001185Y-92348815D01*
X117904494Y-92269463D01*
X117794180Y-92210498D01*
X117674482Y-92174188D01*
X117550000Y-92161928D01*
X117348250Y-92165000D01*
X117189500Y-92323750D01*
X117189500Y-93373000D01*
X117209500Y-93373000D01*
X117209500Y-93607842D01*
X117199260Y-93627000D01*
X117189500Y-93627000D01*
X117189500Y-93645260D01*
X117188570Y-93647000D01*
X116935500Y-93647000D01*
X116935500Y-93627000D01*
X116098750Y-93627000D01*
X115962776Y-93762974D01*
X114999802Y-92800000D01*
X115936928Y-92800000D01*
X115940000Y-93214250D01*
X116098750Y-93373000D01*
X116935500Y-93373000D01*
X116935500Y-92323750D01*
X116776750Y-92165000D01*
X116575000Y-92161928D01*
X116450518Y-92174188D01*
X116330820Y-92210498D01*
X116220506Y-92269463D01*
X116123815Y-92348815D01*
X116044463Y-92445506D01*
X115985498Y-92555820D01*
X115949188Y-92675518D01*
X115936928Y-92800000D01*
X114999802Y-92800000D01*
X113336322Y-91136521D01*
X113338072Y-91118750D01*
X113338072Y-90631250D01*
X113321128Y-90459215D01*
X113270947Y-90293791D01*
X113189458Y-90141336D01*
X113079792Y-90007708D01*
X112994244Y-89937500D01*
X113079792Y-89867292D01*
X113189458Y-89733664D01*
X113270947Y-89581209D01*
X113321128Y-89415785D01*
X113338072Y-89243750D01*
X113338072Y-88756250D01*
X113321128Y-88584215D01*
X113270947Y-88418791D01*
X113189458Y-88266336D01*
X113079792Y-88132708D01*
X112946164Y-88023042D01*
X112793709Y-87941553D01*
X112628285Y-87891372D01*
X112456250Y-87874428D01*
X111543750Y-87874428D01*
X111371715Y-87891372D01*
X111206291Y-87941553D01*
X111053836Y-88023042D01*
X110920208Y-88132708D01*
X110810542Y-88266336D01*
X110758024Y-88364590D01*
X110757208Y-88365026D01*
X110683499Y-88425518D01*
X110641484Y-88459999D01*
X110617686Y-88488997D01*
X109488998Y-89617686D01*
X109460000Y-89641484D01*
X109436202Y-89670482D01*
X109436201Y-89670483D01*
X109395220Y-89720418D01*
X108324801Y-88650000D01*
X109657705Y-87317097D01*
X109743750Y-87325572D01*
X110656250Y-87325572D01*
X110828285Y-87308628D01*
X110993709Y-87258447D01*
X111146164Y-87176958D01*
X111279792Y-87067292D01*
X111304435Y-87037265D01*
X111306963Y-87041994D01*
X111386315Y-87138685D01*
X111483006Y-87218037D01*
X111593320Y-87277002D01*
X111713018Y-87313312D01*
X111837500Y-87325572D01*
X112251750Y-87322500D01*
X112410500Y-87163750D01*
X112410500Y-86327000D01*
X112390500Y-86327000D01*
X112390500Y-86073000D01*
X112410500Y-86073000D01*
X112410500Y-86053000D01*
X112664500Y-86053000D01*
X112664500Y-86073000D01*
X113713750Y-86073000D01*
X113872500Y-85914250D01*
X113875572Y-85712500D01*
X113863312Y-85588018D01*
X113827002Y-85468320D01*
X113768037Y-85358006D01*
X113688685Y-85261315D01*
X113610936Y-85197508D01*
X113617292Y-85192292D01*
X113726958Y-85058664D01*
X113808447Y-84906209D01*
X113858628Y-84740785D01*
X113867199Y-84653763D01*
X114664079Y-84653763D01*
X114665000Y-84714250D01*
X114823750Y-84873000D01*
X115873000Y-84873000D01*
X115873000Y-84853000D01*
X116127000Y-84853000D01*
X116127000Y-84873000D01*
X117176250Y-84873000D01*
X117335000Y-84714250D01*
X117338072Y-84512500D01*
X117325812Y-84388018D01*
X117289502Y-84268320D01*
X117230537Y-84158006D01*
X117168800Y-84082779D01*
X117194357Y-84057221D01*
X117196063Y-84059774D01*
X117340226Y-84203937D01*
X117509744Y-84317205D01*
X117698102Y-84395226D01*
X117898061Y-84435000D01*
X118101939Y-84435000D01*
X118301898Y-84395226D01*
X118490256Y-84317205D01*
X118538454Y-84285000D01*
X118705438Y-84285000D01*
X118674188Y-84388018D01*
X118661928Y-84512500D01*
X118665000Y-84714250D01*
X118823750Y-84873000D01*
X119873000Y-84873000D01*
X119873000Y-84853000D01*
X120127000Y-84853000D01*
X120127000Y-84873000D01*
X121176250Y-84873000D01*
X121335000Y-84714250D01*
X121338072Y-84512500D01*
X121325812Y-84388018D01*
X121289502Y-84268320D01*
X121230537Y-84158006D01*
X121151185Y-84061315D01*
X121054494Y-83981963D01*
X120944180Y-83922998D01*
X120824482Y-83886688D01*
X120700000Y-83874428D01*
X120285750Y-83877500D01*
X120127002Y-84036248D01*
X120127002Y-83882789D01*
X123079107Y-80930685D01*
X124247850Y-82099428D01*
G36*
X129642029Y-67396831D02*
G01*
X129610498Y-67455820D01*
X129574188Y-67575518D01*
X129561928Y-67700000D01*
X129561928Y-69700000D01*
X129574188Y-69824482D01*
X129610498Y-69944180D01*
X129669463Y-70054494D01*
X129748815Y-70151185D01*
X129845506Y-70230537D01*
X129955820Y-70289502D01*
X130075518Y-70325812D01*
X130200000Y-70338072D01*
X131632777Y-70338072D01*
X131632776Y-81145233D01*
X131573641Y-81021080D01*
X131399588Y-80787731D01*
X131183355Y-80592822D01*
X130933252Y-80443843D01*
X130658891Y-80346519D01*
X130429000Y-80467186D01*
X130429000Y-81661000D01*
X130449000Y-81661000D01*
X130449000Y-81915000D01*
X130429000Y-81915000D01*
X130429000Y-81935000D01*
X130175000Y-81935000D01*
X130175000Y-81915000D01*
X128981845Y-81915000D01*
X128860524Y-82144890D01*
X128905175Y-82292099D01*
X129030359Y-82554920D01*
X129204412Y-82788269D01*
X129288466Y-82864034D01*
X129207820Y-82888498D01*
X129097506Y-82947463D01*
X129000815Y-83026815D01*
X128921463Y-83123506D01*
X128862498Y-83233820D01*
X128826188Y-83353518D01*
X128817375Y-83443000D01*
X128094579Y-83443000D01*
X127656536Y-83004958D01*
X127656532Y-83004953D01*
X127656530Y-83004951D01*
X127628817Y-82971183D01*
X127595050Y-82943471D01*
X126082689Y-81431110D01*
X128860524Y-81431110D01*
X128981845Y-81661000D01*
X130175000Y-81661000D01*
X130175000Y-80467186D01*
X129945109Y-80346519D01*
X129670748Y-80443843D01*
X129420645Y-80592822D01*
X129204412Y-80787731D01*
X129030359Y-81021080D01*
X128905175Y-81283901D01*
X128860524Y-81431110D01*
X126082689Y-81431110D01*
X124607327Y-79955749D01*
X124654494Y-79930537D01*
X124751185Y-79851185D01*
X124830537Y-79754494D01*
X124889502Y-79644180D01*
X124925812Y-79524482D01*
X124938072Y-79400000D01*
X124938072Y-75400000D01*
X124927002Y-75287601D01*
X124927002Y-75166252D01*
X125085750Y-75325000D01*
X125300000Y-75328072D01*
X125424482Y-75315812D01*
X125544180Y-75279502D01*
X125654494Y-75220537D01*
X125751185Y-75141185D01*
X125830537Y-75044494D01*
X125889502Y-74934180D01*
X125925812Y-74814482D01*
X125938072Y-74690000D01*
X125935000Y-73725750D01*
X125776250Y-73567000D01*
X124927000Y-73567000D01*
X124927000Y-73587000D01*
X124673000Y-73587000D01*
X124673000Y-73567000D01*
X124653000Y-73567000D01*
X124653000Y-73313000D01*
X124673000Y-73313000D01*
X124673000Y-71713750D01*
X124927000Y-71713750D01*
X124927000Y-73313000D01*
X125776250Y-73313000D01*
X125935000Y-73154250D01*
X125938072Y-72190000D01*
X125925812Y-72065518D01*
X125889502Y-71945820D01*
X125830537Y-71835506D01*
X125751185Y-71738815D01*
X125654494Y-71659463D01*
X125544180Y-71600498D01*
X125424482Y-71564188D01*
X125300000Y-71551928D01*
X125085750Y-71555000D01*
X124927000Y-71713750D01*
X124673000Y-71713750D01*
X124600414Y-71641164D01*
X127820089Y-68421490D01*
X127998102Y-68495226D01*
X128198061Y-68535000D01*
X128401939Y-68535000D01*
X128601898Y-68495226D01*
X128790256Y-68417205D01*
X128959774Y-68303937D01*
X129103937Y-68159774D01*
X129217205Y-67990256D01*
X129295226Y-67801898D01*
X129335000Y-67601939D01*
X129335000Y-67398061D01*
X129295226Y-67198102D01*
X129219382Y-67015000D01*
X129260199Y-67015000D01*
X129642029Y-67396831D01*
G37*
X129642029Y-67396831D02*
X129610498Y-67455820D01*
X129574188Y-67575518D01*
X129561928Y-67700000D01*
X129561928Y-69700000D01*
X129574188Y-69824482D01*
X129610498Y-69944180D01*
X129669463Y-70054494D01*
X129748815Y-70151185D01*
X129845506Y-70230537D01*
X129955820Y-70289502D01*
X130075518Y-70325812D01*
X130200000Y-70338072D01*
X131632777Y-70338072D01*
X131632776Y-81145233D01*
X131573641Y-81021080D01*
X131399588Y-80787731D01*
X131183355Y-80592822D01*
X130933252Y-80443843D01*
X130658891Y-80346519D01*
X130429000Y-80467186D01*
X130429000Y-81661000D01*
X130449000Y-81661000D01*
X130449000Y-81915000D01*
X130429000Y-81915000D01*
X130429000Y-81935000D01*
X130175000Y-81935000D01*
X130175000Y-81915000D01*
X128981845Y-81915000D01*
X128860524Y-82144890D01*
X128905175Y-82292099D01*
X129030359Y-82554920D01*
X129204412Y-82788269D01*
X129288466Y-82864034D01*
X129207820Y-82888498D01*
X129097506Y-82947463D01*
X129000815Y-83026815D01*
X128921463Y-83123506D01*
X128862498Y-83233820D01*
X128826188Y-83353518D01*
X128817375Y-83443000D01*
X128094579Y-83443000D01*
X127656536Y-83004958D01*
X127656532Y-83004953D01*
X127656530Y-83004951D01*
X127628817Y-82971183D01*
X127595050Y-82943471D01*
X126082689Y-81431110D01*
X128860524Y-81431110D01*
X128981845Y-81661000D01*
X130175000Y-81661000D01*
X130175000Y-80467186D01*
X129945109Y-80346519D01*
X129670748Y-80443843D01*
X129420645Y-80592822D01*
X129204412Y-80787731D01*
X129030359Y-81021080D01*
X128905175Y-81283901D01*
X128860524Y-81431110D01*
X126082689Y-81431110D01*
X124607327Y-79955749D01*
X124654494Y-79930537D01*
X124751185Y-79851185D01*
X124830537Y-79754494D01*
X124889502Y-79644180D01*
X124925812Y-79524482D01*
X124938072Y-79400000D01*
X124938072Y-75400000D01*
X124927002Y-75287601D01*
X124927002Y-75166252D01*
X125085750Y-75325000D01*
X125300000Y-75328072D01*
X125424482Y-75315812D01*
X125544180Y-75279502D01*
X125654494Y-75220537D01*
X125751185Y-75141185D01*
X125830537Y-75044494D01*
X125889502Y-74934180D01*
X125925812Y-74814482D01*
X125938072Y-74690000D01*
X125935000Y-73725750D01*
X125776250Y-73567000D01*
X124927000Y-73567000D01*
X124927000Y-73587000D01*
X124673000Y-73587000D01*
X124673000Y-73567000D01*
X124653000Y-73567000D01*
X124653000Y-73313000D01*
X124673000Y-73313000D01*
X124673000Y-71713750D01*
X124927000Y-71713750D01*
X124927000Y-73313000D01*
X125776250Y-73313000D01*
X125935000Y-73154250D01*
X125938072Y-72190000D01*
X125925812Y-72065518D01*
X125889502Y-71945820D01*
X125830537Y-71835506D01*
X125751185Y-71738815D01*
X125654494Y-71659463D01*
X125544180Y-71600498D01*
X125424482Y-71564188D01*
X125300000Y-71551928D01*
X125085750Y-71555000D01*
X124927000Y-71713750D01*
X124673000Y-71713750D01*
X124600414Y-71641164D01*
X127820089Y-68421490D01*
X127998102Y-68495226D01*
X128198061Y-68535000D01*
X128401939Y-68535000D01*
X128601898Y-68495226D01*
X128790256Y-68417205D01*
X128959774Y-68303937D01*
X129103937Y-68159774D01*
X129217205Y-67990256D01*
X129295226Y-67801898D01*
X129335000Y-67601939D01*
X129335000Y-67398061D01*
X129295226Y-67198102D01*
X129219382Y-67015000D01*
X129260199Y-67015000D01*
X129642029Y-67396831D01*
G36*
X116089746Y-51932205D02*
G01*
X116278104Y-52010226D01*
X116478063Y-52050000D01*
X116681941Y-52050000D01*
X116881900Y-52010226D01*
X117070258Y-51932205D01*
X117118456Y-51900000D01*
X117598422Y-51900000D01*
X123730001Y-58031580D01*
X123730002Y-65616928D01*
X123265000Y-65616928D01*
X123140518Y-65629188D01*
X123080000Y-65647546D01*
X123019482Y-65629188D01*
X122895000Y-65616928D01*
X121995000Y-65616928D01*
X121870518Y-65629188D01*
X121810000Y-65647546D01*
X121749482Y-65629188D01*
X121625000Y-65616928D01*
X120725000Y-65616928D01*
X120600518Y-65629188D01*
X120540000Y-65647546D01*
X120479482Y-65629188D01*
X120355000Y-65616928D01*
X119455000Y-65616928D01*
X119330518Y-65629188D01*
X119270000Y-65647546D01*
X119209482Y-65629188D01*
X119085000Y-65616928D01*
X118185000Y-65616928D01*
X118060518Y-65629188D01*
X118000000Y-65647546D01*
X117939482Y-65629188D01*
X117815000Y-65616928D01*
X116915000Y-65616928D01*
X116790518Y-65629188D01*
X116730000Y-65647546D01*
X116669482Y-65629188D01*
X116545000Y-65616928D01*
X115645000Y-65616928D01*
X115520518Y-65629188D01*
X115460000Y-65647546D01*
X115399482Y-65629188D01*
X115275000Y-65616928D01*
X114375000Y-65616928D01*
X114250518Y-65629188D01*
X114190000Y-65647546D01*
X114129482Y-65629188D01*
X114005000Y-65616928D01*
X113105000Y-65616928D01*
X112980518Y-65629188D01*
X112920000Y-65647546D01*
X112859482Y-65629188D01*
X112735000Y-65616928D01*
X112570750Y-65620000D01*
X112412000Y-65778750D01*
X112412000Y-67128000D01*
X112432000Y-67128000D01*
X112432000Y-67382000D01*
X112412000Y-67382000D01*
X112412000Y-68731250D01*
X112570750Y-68890000D01*
X112735000Y-68893072D01*
X112859482Y-68880812D01*
X112920000Y-68862454D01*
X112980518Y-68880812D01*
X113105000Y-68893072D01*
X114005000Y-68893072D01*
X114129482Y-68880812D01*
X114190000Y-68862454D01*
X114250518Y-68880812D01*
X114375000Y-68893072D01*
X115275000Y-68893072D01*
X115399482Y-68880812D01*
X115460000Y-68862454D01*
X115520518Y-68880812D01*
X115645000Y-68893072D01*
X116545000Y-68893072D01*
X116669482Y-68880812D01*
X116730000Y-68862454D01*
X116790518Y-68880812D01*
X116915000Y-68893072D01*
X117815000Y-68893072D01*
X117939482Y-68880812D01*
X118000000Y-68862454D01*
X118060518Y-68880812D01*
X118185000Y-68893072D01*
X119085000Y-68893072D01*
X119209482Y-68880812D01*
X119270000Y-68862454D01*
X119330518Y-68880812D01*
X119455000Y-68893072D01*
X120355000Y-68893072D01*
X120479482Y-68880812D01*
X120540000Y-68862454D01*
X120600518Y-68880812D01*
X120725000Y-68893072D01*
X121625000Y-68893072D01*
X121749482Y-68880812D01*
X121810000Y-68862454D01*
X121870518Y-68880812D01*
X121995000Y-68893072D01*
X122895000Y-68893072D01*
X123019482Y-68880812D01*
X123080000Y-68862454D01*
X123140518Y-68880812D01*
X123265000Y-68893072D01*
X123345349Y-68893072D01*
X121204956Y-71033466D01*
X121171183Y-71061183D01*
X121060589Y-71195942D01*
X120978411Y-71349688D01*
X120927805Y-71516511D01*
X120915000Y-71646524D01*
X120915000Y-71646531D01*
X120910932Y-71687837D01*
X120848815Y-71738815D01*
X120769463Y-71835506D01*
X120710498Y-71945820D01*
X120674188Y-72065518D01*
X120661928Y-72190000D01*
X120661928Y-74076493D01*
X118935640Y-75802782D01*
X118935000Y-75760750D01*
X118776250Y-75602000D01*
X117727000Y-75602000D01*
X117727000Y-76438750D01*
X117885750Y-76597500D01*
X118300000Y-76600572D01*
X118424482Y-76588312D01*
X118544180Y-76552002D01*
X118613192Y-76515114D01*
X118615001Y-76533479D01*
X118615000Y-78111343D01*
X118563685Y-78048815D01*
X118466994Y-77969463D01*
X118356680Y-77910498D01*
X118236982Y-77874188D01*
X118112500Y-77861928D01*
X117910750Y-77865000D01*
X117752000Y-78023750D01*
X117752000Y-79073000D01*
X117772000Y-79073000D01*
X117772000Y-79327000D01*
X117752000Y-79327000D01*
X117752000Y-80376250D01*
X117910750Y-80535000D01*
X118112500Y-80538072D01*
X118221039Y-80527382D01*
X115864659Y-82883763D01*
X113137206Y-82883763D01*
X113093737Y-82879482D01*
X113050268Y-82883763D01*
X113050260Y-82883763D01*
X113038585Y-82884913D01*
X113159774Y-82803937D01*
X113303937Y-82659774D01*
X113417205Y-82490256D01*
X113495226Y-82301898D01*
X113535000Y-82101939D01*
X113535000Y-81898061D01*
X113504890Y-81746688D01*
X114320050Y-80931529D01*
X114353817Y-80903817D01*
X114464411Y-80769059D01*
X114515493Y-80673490D01*
X114546589Y-80615314D01*
X114597195Y-80448490D01*
X114603300Y-80386502D01*
X114610000Y-80318477D01*
X114610000Y-80318469D01*
X114612621Y-80291851D01*
X114661315Y-80351185D01*
X114758006Y-80430537D01*
X114868320Y-80489502D01*
X114988018Y-80525812D01*
X115112500Y-80538072D01*
X115314250Y-80535000D01*
X115473000Y-80376250D01*
X115473000Y-79327000D01*
X115727000Y-79327000D01*
X115727000Y-80376250D01*
X115885750Y-80535000D01*
X116087500Y-80538072D01*
X116211982Y-80525812D01*
X116331680Y-80489502D01*
X116441994Y-80430537D01*
X116538685Y-80351185D01*
X116612500Y-80261241D01*
X116686315Y-80351185D01*
X116783006Y-80430537D01*
X116893320Y-80489502D01*
X117013018Y-80525812D01*
X117137500Y-80538072D01*
X117339250Y-80535000D01*
X117498000Y-80376250D01*
X117498000Y-79327000D01*
X116661250Y-79327000D01*
X116612500Y-79375750D01*
X116563750Y-79327000D01*
X115727000Y-79327000D01*
X115473000Y-79327000D01*
X115453000Y-79327000D01*
X115453000Y-79073000D01*
X115473000Y-79073000D01*
X115473000Y-78023750D01*
X115727000Y-78023750D01*
X115727000Y-79073000D01*
X116563750Y-79073000D01*
X116612500Y-79024250D01*
X116661250Y-79073000D01*
X117498000Y-79073000D01*
X117498000Y-78023750D01*
X117339250Y-77865000D01*
X117137500Y-77861928D01*
X117013018Y-77874188D01*
X116893320Y-77910498D01*
X116783006Y-77969463D01*
X116686315Y-78048815D01*
X116612500Y-78138759D01*
X116538685Y-78048815D01*
X116441994Y-77969463D01*
X116331680Y-77910498D01*
X116211982Y-77874188D01*
X116087500Y-77861928D01*
X115885750Y-77865000D01*
X115727000Y-78023750D01*
X115473000Y-78023750D01*
X115314250Y-77865000D01*
X115112500Y-77861928D01*
X114988018Y-77874188D01*
X114868320Y-77910498D01*
X114758006Y-77969463D01*
X114661315Y-78048815D01*
X114610000Y-78111343D01*
X114610000Y-77041578D01*
X114926007Y-76725572D01*
X115256250Y-76725572D01*
X115428285Y-76708628D01*
X115593709Y-76658447D01*
X115746164Y-76576958D01*
X115879792Y-76467292D01*
X115989458Y-76333664D01*
X116070947Y-76181209D01*
X116121128Y-76015785D01*
X116126376Y-75962500D01*
X116261928Y-75962500D01*
X116274188Y-76086982D01*
X116310498Y-76206680D01*
X116369463Y-76316994D01*
X116448815Y-76413685D01*
X116545506Y-76493037D01*
X116655820Y-76552002D01*
X116775518Y-76588312D01*
X116900000Y-76600572D01*
X117314250Y-76597500D01*
X117473000Y-76438750D01*
X117473000Y-75602000D01*
X116423750Y-75602000D01*
X116265000Y-75760750D01*
X116261928Y-75962500D01*
X116126376Y-75962500D01*
X116138072Y-75843750D01*
X116138072Y-75356250D01*
X116121128Y-75184215D01*
X116070947Y-75018791D01*
X115989458Y-74866336D01*
X115879792Y-74732708D01*
X115794244Y-74662500D01*
X115879792Y-74592292D01*
X115967845Y-74485000D01*
X116511343Y-74485000D01*
X116448815Y-74536315D01*
X116369463Y-74633006D01*
X116310498Y-74743320D01*
X116274188Y-74863018D01*
X116261928Y-74987500D01*
X116265000Y-75189250D01*
X116423750Y-75348000D01*
X117473000Y-75348000D01*
X117473000Y-75328000D01*
X117727000Y-75328000D01*
X117727000Y-75348000D01*
X118776250Y-75348000D01*
X118935000Y-75189250D01*
X118938072Y-74987500D01*
X118925812Y-74863018D01*
X118889502Y-74743320D01*
X118830537Y-74633006D01*
X118751185Y-74536315D01*
X118673436Y-74472508D01*
X118679792Y-74467292D01*
X118789458Y-74333664D01*
X118870947Y-74181209D01*
X118921128Y-74015785D01*
X118938072Y-73843750D01*
X118938072Y-73356250D01*
X118921128Y-73184215D01*
X118870947Y-73018791D01*
X118789458Y-72866336D01*
X118679792Y-72732708D01*
X118546164Y-72623042D01*
X118393709Y-72541553D01*
X118228285Y-72491372D01*
X118056250Y-72474428D01*
X117143750Y-72474428D01*
X116971715Y-72491372D01*
X116806291Y-72541553D01*
X116653836Y-72623042D01*
X116520208Y-72732708D01*
X116410542Y-72866336D01*
X116357805Y-72965000D01*
X115967845Y-72965000D01*
X115879792Y-72857708D01*
X115746164Y-72748042D01*
X115593709Y-72666553D01*
X115428285Y-72616372D01*
X115256250Y-72599428D01*
X115003763Y-72599428D01*
X115003763Y-72031085D01*
X115007439Y-71993762D01*
X115003763Y-71956439D01*
X115003763Y-71956430D01*
X114992766Y-71844777D01*
X114949309Y-71701516D01*
X114878737Y-71569487D01*
X114783764Y-71453762D01*
X114754767Y-71429965D01*
X112107026Y-68782224D01*
X112158000Y-68731250D01*
X112158000Y-67382000D01*
X112138000Y-67382000D01*
X112138000Y-67128000D01*
X112158000Y-67128000D01*
X112158000Y-65778750D01*
X112010000Y-65630750D01*
X112010000Y-59745000D01*
X113861928Y-59745000D01*
X113874188Y-59869482D01*
X113910498Y-59989180D01*
X113969463Y-60099494D01*
X114048815Y-60196185D01*
X114145506Y-60275537D01*
X114255820Y-60334502D01*
X114375518Y-60370812D01*
X114500000Y-60383072D01*
X116714250Y-60380000D01*
X116873000Y-60221250D01*
X116873000Y-57372000D01*
X117127000Y-57372000D01*
X117127000Y-60221250D01*
X117285750Y-60380000D01*
X119500000Y-60383072D01*
X119624482Y-60370812D01*
X119744180Y-60334502D01*
X119854494Y-60275537D01*
X119951185Y-60196185D01*
X120030537Y-60099494D01*
X120089502Y-59989180D01*
X120125812Y-59869482D01*
X120138072Y-59745000D01*
X120135000Y-57530750D01*
X119976250Y-57372000D01*
X117127000Y-57372000D01*
X116873000Y-57372000D01*
X114023750Y-57372000D01*
X113865000Y-57530750D01*
X113861928Y-59745000D01*
X112010000Y-59745000D01*
X112010000Y-55437325D01*
X112013676Y-55400000D01*
X112010000Y-55362675D01*
X112010000Y-55362667D01*
X111999003Y-55251014D01*
X111955546Y-55107753D01*
X111884974Y-54975724D01*
X111790001Y-54859999D01*
X111761004Y-54836202D01*
X111669802Y-54745000D01*
X113861928Y-54745000D01*
X113865000Y-56959250D01*
X114023750Y-57118000D01*
X116873000Y-57118000D01*
X116873000Y-54268750D01*
X117127000Y-54268750D01*
X117127000Y-57118000D01*
X119976250Y-57118000D01*
X120135000Y-56959250D01*
X120138072Y-54745000D01*
X120125812Y-54620518D01*
X120089502Y-54500820D01*
X120030537Y-54390506D01*
X119951185Y-54293815D01*
X119854494Y-54214463D01*
X119744180Y-54155498D01*
X119624482Y-54119188D01*
X119500000Y-54106928D01*
X117285750Y-54110000D01*
X117127000Y-54268750D01*
X116873000Y-54268750D01*
X116714250Y-54110000D01*
X114500000Y-54106928D01*
X114375518Y-54119188D01*
X114255820Y-54155498D01*
X114145506Y-54214463D01*
X114048815Y-54293815D01*
X113969463Y-54390506D01*
X113910498Y-54500820D01*
X113874188Y-54620518D01*
X113861928Y-54745000D01*
X111669802Y-54745000D01*
X111238803Y-54314002D01*
X111215001Y-54284999D01*
X111110175Y-54198971D01*
X111107454Y-54190000D01*
X111125812Y-54129482D01*
X111138072Y-54005000D01*
X111138072Y-53105000D01*
X111125812Y-52980518D01*
X111107454Y-52920000D01*
X111125812Y-52859482D01*
X111138072Y-52735000D01*
X111138072Y-51900000D01*
X116041548Y-51900000D01*
X116089746Y-51932205D01*
G37*
X116089746Y-51932205D02*
X116278104Y-52010226D01*
X116478063Y-52050000D01*
X116681941Y-52050000D01*
X116881900Y-52010226D01*
X117070258Y-51932205D01*
X117118456Y-51900000D01*
X117598422Y-51900000D01*
X123730001Y-58031580D01*
X123730002Y-65616928D01*
X123265000Y-65616928D01*
X123140518Y-65629188D01*
X123080000Y-65647546D01*
X123019482Y-65629188D01*
X122895000Y-65616928D01*
X121995000Y-65616928D01*
X121870518Y-65629188D01*
X121810000Y-65647546D01*
X121749482Y-65629188D01*
X121625000Y-65616928D01*
X120725000Y-65616928D01*
X120600518Y-65629188D01*
X120540000Y-65647546D01*
X120479482Y-65629188D01*
X120355000Y-65616928D01*
X119455000Y-65616928D01*
X119330518Y-65629188D01*
X119270000Y-65647546D01*
X119209482Y-65629188D01*
X119085000Y-65616928D01*
X118185000Y-65616928D01*
X118060518Y-65629188D01*
X118000000Y-65647546D01*
X117939482Y-65629188D01*
X117815000Y-65616928D01*
X116915000Y-65616928D01*
X116790518Y-65629188D01*
X116730000Y-65647546D01*
X116669482Y-65629188D01*
X116545000Y-65616928D01*
X115645000Y-65616928D01*
X115520518Y-65629188D01*
X115460000Y-65647546D01*
X115399482Y-65629188D01*
X115275000Y-65616928D01*
X114375000Y-65616928D01*
X114250518Y-65629188D01*
X114190000Y-65647546D01*
X114129482Y-65629188D01*
X114005000Y-65616928D01*
X113105000Y-65616928D01*
X112980518Y-65629188D01*
X112920000Y-65647546D01*
X112859482Y-65629188D01*
X112735000Y-65616928D01*
X112570750Y-65620000D01*
X112412000Y-65778750D01*
X112412000Y-67128000D01*
X112432000Y-67128000D01*
X112432000Y-67382000D01*
X112412000Y-67382000D01*
X112412000Y-68731250D01*
X112570750Y-68890000D01*
X112735000Y-68893072D01*
X112859482Y-68880812D01*
X112920000Y-68862454D01*
X112980518Y-68880812D01*
X113105000Y-68893072D01*
X114005000Y-68893072D01*
X114129482Y-68880812D01*
X114190000Y-68862454D01*
X114250518Y-68880812D01*
X114375000Y-68893072D01*
X115275000Y-68893072D01*
X115399482Y-68880812D01*
X115460000Y-68862454D01*
X115520518Y-68880812D01*
X115645000Y-68893072D01*
X116545000Y-68893072D01*
X116669482Y-68880812D01*
X116730000Y-68862454D01*
X116790518Y-68880812D01*
X116915000Y-68893072D01*
X117815000Y-68893072D01*
X117939482Y-68880812D01*
X118000000Y-68862454D01*
X118060518Y-68880812D01*
X118185000Y-68893072D01*
X119085000Y-68893072D01*
X119209482Y-68880812D01*
X119270000Y-68862454D01*
X119330518Y-68880812D01*
X119455000Y-68893072D01*
X120355000Y-68893072D01*
X120479482Y-68880812D01*
X120540000Y-68862454D01*
X120600518Y-68880812D01*
X120725000Y-68893072D01*
X121625000Y-68893072D01*
X121749482Y-68880812D01*
X121810000Y-68862454D01*
X121870518Y-68880812D01*
X121995000Y-68893072D01*
X122895000Y-68893072D01*
X123019482Y-68880812D01*
X123080000Y-68862454D01*
X123140518Y-68880812D01*
X123265000Y-68893072D01*
X123345349Y-68893072D01*
X121204956Y-71033466D01*
X121171183Y-71061183D01*
X121060589Y-71195942D01*
X120978411Y-71349688D01*
X120927805Y-71516511D01*
X120915000Y-71646524D01*
X120915000Y-71646531D01*
X120910932Y-71687837D01*
X120848815Y-71738815D01*
X120769463Y-71835506D01*
X120710498Y-71945820D01*
X120674188Y-72065518D01*
X120661928Y-72190000D01*
X120661928Y-74076493D01*
X118935640Y-75802782D01*
X118935000Y-75760750D01*
X118776250Y-75602000D01*
X117727000Y-75602000D01*
X117727000Y-76438750D01*
X117885750Y-76597500D01*
X118300000Y-76600572D01*
X118424482Y-76588312D01*
X118544180Y-76552002D01*
X118613192Y-76515114D01*
X118615001Y-76533479D01*
X118615000Y-78111343D01*
X118563685Y-78048815D01*
X118466994Y-77969463D01*
X118356680Y-77910498D01*
X118236982Y-77874188D01*
X118112500Y-77861928D01*
X117910750Y-77865000D01*
X117752000Y-78023750D01*
X117752000Y-79073000D01*
X117772000Y-79073000D01*
X117772000Y-79327000D01*
X117752000Y-79327000D01*
X117752000Y-80376250D01*
X117910750Y-80535000D01*
X118112500Y-80538072D01*
X118221039Y-80527382D01*
X115864659Y-82883763D01*
X113137206Y-82883763D01*
X113093737Y-82879482D01*
X113050268Y-82883763D01*
X113050260Y-82883763D01*
X113038585Y-82884913D01*
X113159774Y-82803937D01*
X113303937Y-82659774D01*
X113417205Y-82490256D01*
X113495226Y-82301898D01*
X113535000Y-82101939D01*
X113535000Y-81898061D01*
X113504890Y-81746688D01*
X114320050Y-80931529D01*
X114353817Y-80903817D01*
X114464411Y-80769059D01*
X114515493Y-80673490D01*
X114546589Y-80615314D01*
X114597195Y-80448490D01*
X114603300Y-80386502D01*
X114610000Y-80318477D01*
X114610000Y-80318469D01*
X114612621Y-80291851D01*
X114661315Y-80351185D01*
X114758006Y-80430537D01*
X114868320Y-80489502D01*
X114988018Y-80525812D01*
X115112500Y-80538072D01*
X115314250Y-80535000D01*
X115473000Y-80376250D01*
X115473000Y-79327000D01*
X115727000Y-79327000D01*
X115727000Y-80376250D01*
X115885750Y-80535000D01*
X116087500Y-80538072D01*
X116211982Y-80525812D01*
X116331680Y-80489502D01*
X116441994Y-80430537D01*
X116538685Y-80351185D01*
X116612500Y-80261241D01*
X116686315Y-80351185D01*
X116783006Y-80430537D01*
X116893320Y-80489502D01*
X117013018Y-80525812D01*
X117137500Y-80538072D01*
X117339250Y-80535000D01*
X117498000Y-80376250D01*
X117498000Y-79327000D01*
X116661250Y-79327000D01*
X116612500Y-79375750D01*
X116563750Y-79327000D01*
X115727000Y-79327000D01*
X115473000Y-79327000D01*
X115453000Y-79327000D01*
X115453000Y-79073000D01*
X115473000Y-79073000D01*
X115473000Y-78023750D01*
X115727000Y-78023750D01*
X115727000Y-79073000D01*
X116563750Y-79073000D01*
X116612500Y-79024250D01*
X116661250Y-79073000D01*
X117498000Y-79073000D01*
X117498000Y-78023750D01*
X117339250Y-77865000D01*
X117137500Y-77861928D01*
X117013018Y-77874188D01*
X116893320Y-77910498D01*
X116783006Y-77969463D01*
X116686315Y-78048815D01*
X116612500Y-78138759D01*
X116538685Y-78048815D01*
X116441994Y-77969463D01*
X116331680Y-77910498D01*
X116211982Y-77874188D01*
X116087500Y-77861928D01*
X115885750Y-77865000D01*
X115727000Y-78023750D01*
X115473000Y-78023750D01*
X115314250Y-77865000D01*
X115112500Y-77861928D01*
X114988018Y-77874188D01*
X114868320Y-77910498D01*
X114758006Y-77969463D01*
X114661315Y-78048815D01*
X114610000Y-78111343D01*
X114610000Y-77041578D01*
X114926007Y-76725572D01*
X115256250Y-76725572D01*
X115428285Y-76708628D01*
X115593709Y-76658447D01*
X115746164Y-76576958D01*
X115879792Y-76467292D01*
X115989458Y-76333664D01*
X116070947Y-76181209D01*
X116121128Y-76015785D01*
X116126376Y-75962500D01*
X116261928Y-75962500D01*
X116274188Y-76086982D01*
X116310498Y-76206680D01*
X116369463Y-76316994D01*
X116448815Y-76413685D01*
X116545506Y-76493037D01*
X116655820Y-76552002D01*
X116775518Y-76588312D01*
X116900000Y-76600572D01*
X117314250Y-76597500D01*
X117473000Y-76438750D01*
X117473000Y-75602000D01*
X116423750Y-75602000D01*
X116265000Y-75760750D01*
X116261928Y-75962500D01*
X116126376Y-75962500D01*
X116138072Y-75843750D01*
X116138072Y-75356250D01*
X116121128Y-75184215D01*
X116070947Y-75018791D01*
X115989458Y-74866336D01*
X115879792Y-74732708D01*
X115794244Y-74662500D01*
X115879792Y-74592292D01*
X115967845Y-74485000D01*
X116511343Y-74485000D01*
X116448815Y-74536315D01*
X116369463Y-74633006D01*
X116310498Y-74743320D01*
X116274188Y-74863018D01*
X116261928Y-74987500D01*
X116265000Y-75189250D01*
X116423750Y-75348000D01*
X117473000Y-75348000D01*
X117473000Y-75328000D01*
X117727000Y-75328000D01*
X117727000Y-75348000D01*
X118776250Y-75348000D01*
X118935000Y-75189250D01*
X118938072Y-74987500D01*
X118925812Y-74863018D01*
X118889502Y-74743320D01*
X118830537Y-74633006D01*
X118751185Y-74536315D01*
X118673436Y-74472508D01*
X118679792Y-74467292D01*
X118789458Y-74333664D01*
X118870947Y-74181209D01*
X118921128Y-74015785D01*
X118938072Y-73843750D01*
X118938072Y-73356250D01*
X118921128Y-73184215D01*
X118870947Y-73018791D01*
X118789458Y-72866336D01*
X118679792Y-72732708D01*
X118546164Y-72623042D01*
X118393709Y-72541553D01*
X118228285Y-72491372D01*
X118056250Y-72474428D01*
X117143750Y-72474428D01*
X116971715Y-72491372D01*
X116806291Y-72541553D01*
X116653836Y-72623042D01*
X116520208Y-72732708D01*
X116410542Y-72866336D01*
X116357805Y-72965000D01*
X115967845Y-72965000D01*
X115879792Y-72857708D01*
X115746164Y-72748042D01*
X115593709Y-72666553D01*
X115428285Y-72616372D01*
X115256250Y-72599428D01*
X115003763Y-72599428D01*
X115003763Y-72031085D01*
X115007439Y-71993762D01*
X115003763Y-71956439D01*
X115003763Y-71956430D01*
X114992766Y-71844777D01*
X114949309Y-71701516D01*
X114878737Y-71569487D01*
X114783764Y-71453762D01*
X114754767Y-71429965D01*
X112107026Y-68782224D01*
X112158000Y-68731250D01*
X112158000Y-67382000D01*
X112138000Y-67382000D01*
X112138000Y-67128000D01*
X112158000Y-67128000D01*
X112158000Y-65778750D01*
X112010000Y-65630750D01*
X112010000Y-59745000D01*
X113861928Y-59745000D01*
X113874188Y-59869482D01*
X113910498Y-59989180D01*
X113969463Y-60099494D01*
X114048815Y-60196185D01*
X114145506Y-60275537D01*
X114255820Y-60334502D01*
X114375518Y-60370812D01*
X114500000Y-60383072D01*
X116714250Y-60380000D01*
X116873000Y-60221250D01*
X116873000Y-57372000D01*
X117127000Y-57372000D01*
X117127000Y-60221250D01*
X117285750Y-60380000D01*
X119500000Y-60383072D01*
X119624482Y-60370812D01*
X119744180Y-60334502D01*
X119854494Y-60275537D01*
X119951185Y-60196185D01*
X120030537Y-60099494D01*
X120089502Y-59989180D01*
X120125812Y-59869482D01*
X120138072Y-59745000D01*
X120135000Y-57530750D01*
X119976250Y-57372000D01*
X117127000Y-57372000D01*
X116873000Y-57372000D01*
X114023750Y-57372000D01*
X113865000Y-57530750D01*
X113861928Y-59745000D01*
X112010000Y-59745000D01*
X112010000Y-55437325D01*
X112013676Y-55400000D01*
X112010000Y-55362675D01*
X112010000Y-55362667D01*
X111999003Y-55251014D01*
X111955546Y-55107753D01*
X111884974Y-54975724D01*
X111790001Y-54859999D01*
X111761004Y-54836202D01*
X111669802Y-54745000D01*
X113861928Y-54745000D01*
X113865000Y-56959250D01*
X114023750Y-57118000D01*
X116873000Y-57118000D01*
X116873000Y-54268750D01*
X117127000Y-54268750D01*
X117127000Y-57118000D01*
X119976250Y-57118000D01*
X120135000Y-56959250D01*
X120138072Y-54745000D01*
X120125812Y-54620518D01*
X120089502Y-54500820D01*
X120030537Y-54390506D01*
X119951185Y-54293815D01*
X119854494Y-54214463D01*
X119744180Y-54155498D01*
X119624482Y-54119188D01*
X119500000Y-54106928D01*
X117285750Y-54110000D01*
X117127000Y-54268750D01*
X116873000Y-54268750D01*
X116714250Y-54110000D01*
X114500000Y-54106928D01*
X114375518Y-54119188D01*
X114255820Y-54155498D01*
X114145506Y-54214463D01*
X114048815Y-54293815D01*
X113969463Y-54390506D01*
X113910498Y-54500820D01*
X113874188Y-54620518D01*
X113861928Y-54745000D01*
X111669802Y-54745000D01*
X111238803Y-54314002D01*
X111215001Y-54284999D01*
X111110175Y-54198971D01*
X111107454Y-54190000D01*
X111125812Y-54129482D01*
X111138072Y-54005000D01*
X111138072Y-53105000D01*
X111125812Y-52980518D01*
X111107454Y-52920000D01*
X111125812Y-52859482D01*
X111138072Y-52735000D01*
X111138072Y-51900000D01*
X116041548Y-51900000D01*
X116089746Y-51932205D01*
G36*
X109069463Y-74204494D02*
G01*
X109148815Y-74301185D01*
X109245506Y-74380537D01*
X109261607Y-74389143D01*
X109177000Y-74473750D01*
X109177000Y-75273000D01*
X109197000Y-75273000D01*
X109197000Y-75527000D01*
X109177000Y-75527000D01*
X109177000Y-76326250D01*
X109335750Y-76485000D01*
X109450000Y-76488072D01*
X109574482Y-76475812D01*
X109694180Y-76439502D01*
X109804494Y-76380537D01*
X109901185Y-76301185D01*
X109980537Y-76204494D01*
X110000000Y-76168082D01*
X110019463Y-76204494D01*
X110098815Y-76301185D01*
X110190001Y-76376019D01*
X110190001Y-76636928D01*
X109743750Y-76636928D01*
X109571715Y-76653872D01*
X109406291Y-76704053D01*
X109253836Y-76785542D01*
X109120208Y-76895208D01*
X109032155Y-77002500D01*
X107077302Y-77002500D01*
X106969834Y-76895032D01*
X107079792Y-76804792D01*
X107189458Y-76671164D01*
X107270947Y-76518709D01*
X107321128Y-76353285D01*
X107338072Y-76181250D01*
X107338072Y-75850000D01*
X108011928Y-75850000D01*
X108024188Y-75974482D01*
X108060498Y-76094180D01*
X108119463Y-76204494D01*
X108198815Y-76301185D01*
X108295506Y-76380537D01*
X108405820Y-76439502D01*
X108525518Y-76475812D01*
X108650000Y-76488072D01*
X108764250Y-76485000D01*
X108923000Y-76326250D01*
X108923000Y-75527000D01*
X108173750Y-75527000D01*
X108015000Y-75685750D01*
X108011928Y-75850000D01*
X107338072Y-75850000D01*
X107338072Y-75693750D01*
X107321128Y-75521715D01*
X107270947Y-75356291D01*
X107189458Y-75203836D01*
X107079792Y-75070208D01*
X106994244Y-75000000D01*
X107055168Y-74950000D01*
X108011928Y-74950000D01*
X108015000Y-75114250D01*
X108173750Y-75273000D01*
X108923000Y-75273000D01*
X108923000Y-74473750D01*
X108764250Y-74315000D01*
X108650000Y-74311928D01*
X108525518Y-74324188D01*
X108405820Y-74360498D01*
X108295506Y-74419463D01*
X108198815Y-74498815D01*
X108119463Y-74595506D01*
X108060498Y-74705820D01*
X108024188Y-74825518D01*
X108011928Y-74950000D01*
X107055168Y-74950000D01*
X107079792Y-74929792D01*
X107189458Y-74796164D01*
X107270947Y-74643709D01*
X107321128Y-74478285D01*
X107338072Y-74306250D01*
X107338072Y-74160000D01*
X109045680Y-74160000D01*
X109069463Y-74204494D01*
G37*
X109069463Y-74204494D02*
X109148815Y-74301185D01*
X109245506Y-74380537D01*
X109261607Y-74389143D01*
X109177000Y-74473750D01*
X109177000Y-75273000D01*
X109197000Y-75273000D01*
X109197000Y-75527000D01*
X109177000Y-75527000D01*
X109177000Y-76326250D01*
X109335750Y-76485000D01*
X109450000Y-76488072D01*
X109574482Y-76475812D01*
X109694180Y-76439502D01*
X109804494Y-76380537D01*
X109901185Y-76301185D01*
X109980537Y-76204494D01*
X110000000Y-76168082D01*
X110019463Y-76204494D01*
X110098815Y-76301185D01*
X110190001Y-76376019D01*
X110190001Y-76636928D01*
X109743750Y-76636928D01*
X109571715Y-76653872D01*
X109406291Y-76704053D01*
X109253836Y-76785542D01*
X109120208Y-76895208D01*
X109032155Y-77002500D01*
X107077302Y-77002500D01*
X106969834Y-76895032D01*
X107079792Y-76804792D01*
X107189458Y-76671164D01*
X107270947Y-76518709D01*
X107321128Y-76353285D01*
X107338072Y-76181250D01*
X107338072Y-75850000D01*
X108011928Y-75850000D01*
X108024188Y-75974482D01*
X108060498Y-76094180D01*
X108119463Y-76204494D01*
X108198815Y-76301185D01*
X108295506Y-76380537D01*
X108405820Y-76439502D01*
X108525518Y-76475812D01*
X108650000Y-76488072D01*
X108764250Y-76485000D01*
X108923000Y-76326250D01*
X108923000Y-75527000D01*
X108173750Y-75527000D01*
X108015000Y-75685750D01*
X108011928Y-75850000D01*
X107338072Y-75850000D01*
X107338072Y-75693750D01*
X107321128Y-75521715D01*
X107270947Y-75356291D01*
X107189458Y-75203836D01*
X107079792Y-75070208D01*
X106994244Y-75000000D01*
X107055168Y-74950000D01*
X108011928Y-74950000D01*
X108015000Y-75114250D01*
X108173750Y-75273000D01*
X108923000Y-75273000D01*
X108923000Y-74473750D01*
X108764250Y-74315000D01*
X108650000Y-74311928D01*
X108525518Y-74324188D01*
X108405820Y-74360498D01*
X108295506Y-74419463D01*
X108198815Y-74498815D01*
X108119463Y-74595506D01*
X108060498Y-74705820D01*
X108024188Y-74825518D01*
X108011928Y-74950000D01*
X107055168Y-74950000D01*
X107079792Y-74929792D01*
X107189458Y-74796164D01*
X107270947Y-74643709D01*
X107321128Y-74478285D01*
X107338072Y-74306250D01*
X107338072Y-74160000D01*
X109045680Y-74160000D01*
X109069463Y-74204494D01*
M02*
