G04 #@! TF.GenerationSoftware,KiCad,Pcbnew,(5.1.5)-3*
G04 #@! TF.CreationDate,2021-04-12T22:21:49+08:00*
G04 #@! TF.ProjectId,parasite,70617261-7369-4746-952e-6b696361645f,1.1.0*
G04 #@! TF.SameCoordinates,Original*
G04 #@! TF.FileFunction,Soldermask,Bot*
G04 #@! TF.FilePolarity,Negative*
%FSLAX46Y46*%
G04 Gerber Fmt 4.6, Leading zero omitted, Abs format (unit mm)*
G04 Created by KiCad (PCBNEW (5.1.5)-3) date 2021-04-12 22:21:49*
%MOMM*%
%LPD*%
G04 APERTURE LIST*
%ADD10C,0.100000*%
G04 APERTURE END LIST*
D10*
G36*
X126627617Y-93583420D02*
G01*
X126708399Y-93607925D01*
X126750335Y-93620646D01*
X126863424Y-93681094D01*
X126962554Y-93762447D01*
X127043906Y-93861575D01*
X127104354Y-93974664D01*
X127114040Y-94006596D01*
X127141580Y-94097382D01*
X127151000Y-94193027D01*
X127151000Y-94806973D01*
X127141580Y-94902618D01*
X127114040Y-94993404D01*
X127104354Y-95025336D01*
X127043906Y-95138425D01*
X126962554Y-95237554D01*
X126863425Y-95318906D01*
X126750336Y-95379354D01*
X126718404Y-95389040D01*
X126627618Y-95416580D01*
X126500000Y-95429149D01*
X126372383Y-95416580D01*
X126281597Y-95389040D01*
X126249665Y-95379354D01*
X126136576Y-95318906D01*
X126037447Y-95237554D01*
X125956096Y-95138427D01*
X125956095Y-95138425D01*
X125895647Y-95025336D01*
X125895645Y-95025333D01*
X125883237Y-94984427D01*
X125858420Y-94902618D01*
X125849000Y-94806973D01*
X125849000Y-94193028D01*
X125858420Y-94097383D01*
X125895645Y-93974669D01*
X125895646Y-93974665D01*
X125956094Y-93861576D01*
X126037447Y-93762446D01*
X126136575Y-93681094D01*
X126249664Y-93620646D01*
X126291600Y-93607925D01*
X126372382Y-93583420D01*
X126500000Y-93570851D01*
X126627617Y-93583420D01*
G37*
G36*
X124991242Y-93578404D02*
G01*
X125028337Y-93589657D01*
X125062515Y-93607925D01*
X125092481Y-93632519D01*
X125117075Y-93662485D01*
X125135343Y-93696663D01*
X125146596Y-93733758D01*
X125151000Y-93778474D01*
X125151000Y-95221526D01*
X125146596Y-95266242D01*
X125135343Y-95303337D01*
X125117075Y-95337515D01*
X125092481Y-95367481D01*
X125062515Y-95392075D01*
X125028337Y-95410343D01*
X124991242Y-95421596D01*
X124946526Y-95426000D01*
X124053474Y-95426000D01*
X124008758Y-95421596D01*
X123971663Y-95410343D01*
X123937485Y-95392075D01*
X123907519Y-95367481D01*
X123882925Y-95337515D01*
X123864657Y-95303337D01*
X123853404Y-95266242D01*
X123849000Y-95221526D01*
X123849000Y-93778474D01*
X123853404Y-93733758D01*
X123864657Y-93696663D01*
X123882925Y-93662485D01*
X123907519Y-93632519D01*
X123937485Y-93607925D01*
X123971663Y-93589657D01*
X124008758Y-93578404D01*
X124053474Y-93574000D01*
X124946526Y-93574000D01*
X124991242Y-93578404D01*
G37*
G36*
X120600999Y-90651000D02*
G01*
X114999001Y-90651000D01*
X114999001Y-84549000D01*
X120600999Y-84549000D01*
X120600999Y-90651000D01*
G37*
G36*
X131203000Y-85229000D02*
G01*
X129401000Y-85229000D01*
X129401000Y-83427000D01*
X131203000Y-83427000D01*
X131203000Y-85229000D01*
G37*
G36*
X130415512Y-80891927D02*
G01*
X130564812Y-80921624D01*
X130728784Y-80989544D01*
X130876354Y-81088147D01*
X131001853Y-81213646D01*
X131100456Y-81361216D01*
X131168376Y-81525188D01*
X131203000Y-81699259D01*
X131203000Y-81876741D01*
X131168376Y-82050812D01*
X131100456Y-82214784D01*
X131001853Y-82362354D01*
X130876354Y-82487853D01*
X130728784Y-82586456D01*
X130564812Y-82654376D01*
X130415512Y-82684073D01*
X130390742Y-82689000D01*
X130213258Y-82689000D01*
X130188488Y-82684073D01*
X130039188Y-82654376D01*
X129875216Y-82586456D01*
X129727646Y-82487853D01*
X129602147Y-82362354D01*
X129503544Y-82214784D01*
X129435624Y-82050812D01*
X129401000Y-81876741D01*
X129401000Y-81699259D01*
X129435624Y-81525188D01*
X129503544Y-81361216D01*
X129602147Y-81213646D01*
X129727646Y-81088147D01*
X129875216Y-80989544D01*
X130039188Y-80921624D01*
X130188488Y-80891927D01*
X130213258Y-80887000D01*
X130390742Y-80887000D01*
X130415512Y-80891927D01*
G37*
G36*
X120731767Y-62635254D02*
G01*
X122560932Y-63392919D01*
X122560934Y-63392920D01*
X124207139Y-64492879D01*
X125607121Y-65892861D01*
X126707080Y-67539066D01*
X126707081Y-67539068D01*
X127464746Y-69368233D01*
X127851000Y-71310062D01*
X127851000Y-73289938D01*
X127464746Y-75231767D01*
X126707081Y-77060932D01*
X126707080Y-77060934D01*
X125607121Y-78707139D01*
X124207139Y-80107121D01*
X122560934Y-81207080D01*
X122560933Y-81207081D01*
X122560932Y-81207081D01*
X120731767Y-81964746D01*
X118789938Y-82351000D01*
X116810062Y-82351000D01*
X114868233Y-81964746D01*
X113039068Y-81207081D01*
X113039067Y-81207081D01*
X113039066Y-81207080D01*
X111392861Y-80107121D01*
X109992879Y-78707139D01*
X108892920Y-77060934D01*
X108892919Y-77060932D01*
X108135254Y-75231767D01*
X107749000Y-73289938D01*
X107749000Y-71310062D01*
X108135254Y-69368233D01*
X108892919Y-67539068D01*
X108892920Y-67539066D01*
X109992879Y-65892861D01*
X111392861Y-64492879D01*
X113039066Y-63392920D01*
X113039068Y-63392919D01*
X114868233Y-62635254D01*
X116810062Y-62249000D01*
X118789938Y-62249000D01*
X120731767Y-62635254D01*
G37*
G36*
X120600999Y-60051000D02*
G01*
X114999001Y-60051000D01*
X114999001Y-53949000D01*
X120600999Y-53949000D01*
X120600999Y-60051000D01*
G37*
G36*
X130923512Y-53078927D02*
G01*
X131072812Y-53108624D01*
X131236784Y-53176544D01*
X131384354Y-53275147D01*
X131509853Y-53400646D01*
X131608456Y-53548216D01*
X131676376Y-53712188D01*
X131711000Y-53886259D01*
X131711000Y-54063741D01*
X131676376Y-54237812D01*
X131608456Y-54401784D01*
X131509853Y-54549354D01*
X131384354Y-54674853D01*
X131236784Y-54773456D01*
X131072812Y-54841376D01*
X130923512Y-54871073D01*
X130898742Y-54876000D01*
X130721258Y-54876000D01*
X130696488Y-54871073D01*
X130547188Y-54841376D01*
X130383216Y-54773456D01*
X130235646Y-54674853D01*
X130110147Y-54549354D01*
X130011544Y-54401784D01*
X129943624Y-54237812D01*
X129909000Y-54063741D01*
X129909000Y-53886259D01*
X129943624Y-53712188D01*
X130011544Y-53548216D01*
X130110147Y-53400646D01*
X130235646Y-53275147D01*
X130383216Y-53176544D01*
X130547188Y-53108624D01*
X130696488Y-53078927D01*
X130721258Y-53074000D01*
X130898742Y-53074000D01*
X130923512Y-53078927D01*
G37*
G36*
X131711000Y-52336000D02*
G01*
X129909000Y-52336000D01*
X129909000Y-50534000D01*
X131711000Y-50534000D01*
X131711000Y-52336000D01*
G37*
M02*
