G04 #@! TF.GenerationSoftware,KiCad,Pcbnew,(5.1.5)-3*
G04 #@! TF.CreationDate,2021-04-09T15:24:41+08:00*
G04 #@! TF.ProjectId,parasite,70617261-7369-4746-952e-6b696361645f,1.1.0*
G04 #@! TF.SameCoordinates,Original*
G04 #@! TF.FileFunction,Copper,L2,Bot*
G04 #@! TF.FilePolarity,Positive*
%FSLAX46Y46*%
G04 Gerber Fmt 4.6, Leading zero omitted, Abs format (unit mm)*
G04 Created by KiCad (PCBNEW (5.1.5)-3) date 2021-04-09 15:24:41*
%MOMM*%
%LPD*%
G04 APERTURE LIST*
%ADD10R,5.499999X6.000001*%
%ADD11C,20.000001*%
%ADD12R,1.700000X1.700000*%
%ADD13O,1.200000X1.750000*%
%ADD14C,0.100000*%
%ADD15C,0.800000*%
%ADD16C,0.250000*%
%ADD17C,0.500000*%
%ADD18C,0.254000*%
G04 APERTURE END LIST*
D10*
X117800000Y-87600000D03*
X117800000Y-57000000D03*
D11*
X117800000Y-72300000D03*
D12*
X104750000Y-59944000D03*
X104750000Y-56250000D03*
X130500000Y-54102000D03*
X130500000Y-50500000D03*
D13*
X126500000Y-94500000D03*
G04 #@! TA.AperFunction,ComponentPad*
D14*
G36*
X124874505Y-93626204D02*
G01*
X124898773Y-93629804D01*
X124922572Y-93635765D01*
X124945671Y-93644030D01*
X124967850Y-93654520D01*
X124988893Y-93667132D01*
X125008599Y-93681747D01*
X125026777Y-93698223D01*
X125043253Y-93716401D01*
X125057868Y-93736107D01*
X125070480Y-93757150D01*
X125080970Y-93779329D01*
X125089235Y-93802428D01*
X125095196Y-93826227D01*
X125098796Y-93850495D01*
X125100000Y-93874999D01*
X125100000Y-95125001D01*
X125098796Y-95149505D01*
X125095196Y-95173773D01*
X125089235Y-95197572D01*
X125080970Y-95220671D01*
X125070480Y-95242850D01*
X125057868Y-95263893D01*
X125043253Y-95283599D01*
X125026777Y-95301777D01*
X125008599Y-95318253D01*
X124988893Y-95332868D01*
X124967850Y-95345480D01*
X124945671Y-95355970D01*
X124922572Y-95364235D01*
X124898773Y-95370196D01*
X124874505Y-95373796D01*
X124850001Y-95375000D01*
X124149999Y-95375000D01*
X124125495Y-95373796D01*
X124101227Y-95370196D01*
X124077428Y-95364235D01*
X124054329Y-95355970D01*
X124032150Y-95345480D01*
X124011107Y-95332868D01*
X123991401Y-95318253D01*
X123973223Y-95301777D01*
X123956747Y-95283599D01*
X123942132Y-95263893D01*
X123929520Y-95242850D01*
X123919030Y-95220671D01*
X123910765Y-95197572D01*
X123904804Y-95173773D01*
X123901204Y-95149505D01*
X123900000Y-95125001D01*
X123900000Y-93874999D01*
X123901204Y-93850495D01*
X123904804Y-93826227D01*
X123910765Y-93802428D01*
X123919030Y-93779329D01*
X123929520Y-93757150D01*
X123942132Y-93736107D01*
X123956747Y-93716401D01*
X123973223Y-93698223D01*
X123991401Y-93681747D01*
X124011107Y-93667132D01*
X124032150Y-93654520D01*
X124054329Y-93644030D01*
X124077428Y-93635765D01*
X124101227Y-93629804D01*
X124125495Y-93626204D01*
X124149999Y-93625000D01*
X124850001Y-93625000D01*
X124874505Y-93626204D01*
G37*
G04 #@! TD.AperFunction*
D15*
X117062500Y-93500000D03*
X109700000Y-88500000D03*
X129000000Y-60000000D03*
X113000000Y-50000000D03*
X105000000Y-86000000D03*
X113200000Y-96000000D03*
X113000000Y-56000000D03*
X107625000Y-58334058D03*
X129000000Y-75000000D03*
X126202194Y-80125795D03*
X122000000Y-83000000D03*
X123000000Y-54000000D03*
X122300000Y-88800000D03*
X121587347Y-86787347D03*
X114200000Y-87600000D03*
X106900000Y-55800000D03*
X116580002Y-51015000D03*
X112500000Y-82000000D03*
X128300000Y-67500000D03*
X118000000Y-83400000D03*
X125500000Y-97000000D03*
X124300000Y-87600000D03*
X116500000Y-52300000D03*
X116000000Y-91200003D03*
X106000000Y-91000000D03*
X126500000Y-62445000D03*
X108999958Y-82000000D03*
X110139283Y-72167638D03*
X107657000Y-52285000D03*
X105000000Y-66547984D03*
D16*
X107200000Y-86000000D02*
X109700000Y-88500000D01*
X105000000Y-86000000D02*
X107200000Y-86000000D01*
D17*
X115800000Y-93500000D02*
X117062500Y-93500000D01*
X113200000Y-96000000D02*
X115800000Y-93500000D01*
D16*
X113000000Y-50000000D02*
X113000000Y-56000000D01*
X109959058Y-56000000D02*
X113000000Y-56000000D01*
X107625000Y-58334058D02*
X109959058Y-56000000D01*
D17*
X126202194Y-80125795D02*
X123327989Y-83000000D01*
X123327989Y-83000000D02*
X122000000Y-83000000D01*
D16*
X124000000Y-55000000D02*
X129000000Y-60000000D01*
X123000000Y-54000000D02*
X124000000Y-55000000D01*
X122300000Y-87500000D02*
X121587347Y-86787347D01*
X122300000Y-88800000D02*
X122300000Y-87500000D01*
X114200000Y-87600000D02*
X112526998Y-87600000D01*
X106900000Y-56365685D02*
X106900000Y-55800000D01*
X106900000Y-81973002D02*
X106900000Y-56365685D01*
X112526998Y-87600000D02*
X106900000Y-81973002D01*
D17*
X117800000Y-87800000D02*
X117800000Y-87600000D01*
X124500000Y-94500000D02*
X117800000Y-87800000D01*
X122313002Y-57000000D02*
X121049999Y-57000000D01*
X128300000Y-62986998D02*
X122313002Y-57000000D01*
X121049999Y-57000000D02*
X117800000Y-57000000D01*
X128300000Y-67500000D02*
X128300000Y-62986998D01*
X113900000Y-83400000D02*
X112500000Y-82000000D01*
X118000000Y-83400000D02*
X113900000Y-83400000D01*
D16*
X117800000Y-83400000D02*
X117800000Y-87600000D01*
X118000000Y-83400000D02*
X117800000Y-83400000D01*
X125500000Y-88800000D02*
X124300000Y-87600000D01*
X125500000Y-97000000D02*
X125500000Y-88800000D01*
X126420000Y-52300000D02*
X127794999Y-53674999D01*
X116500000Y-52300000D02*
X126420000Y-52300000D01*
X106200003Y-91200003D02*
X106000000Y-91000000D01*
X116000000Y-91200003D02*
X106200003Y-91200003D01*
X107474999Y-80475041D02*
X108599959Y-81600001D01*
X126500000Y-62445000D02*
X125250000Y-62445000D01*
X108599959Y-81600001D02*
X108999958Y-82000000D01*
X107474999Y-67343999D02*
X107474999Y-80475041D01*
X125250000Y-62445000D02*
X124550000Y-61745000D01*
X124550000Y-61745000D02*
X113073998Y-61745000D01*
X113073998Y-61745000D02*
X107474999Y-67343999D01*
D17*
X117800000Y-72300000D02*
X117500000Y-72600000D01*
D16*
X117800000Y-72300000D02*
X117667638Y-72167638D01*
X110704968Y-72167638D02*
X110139283Y-72167638D01*
X117667638Y-72167638D02*
X110704968Y-72167638D01*
D17*
X122300000Y-72300000D02*
X117800000Y-72300000D01*
X127799999Y-92925001D02*
X127799999Y-77799999D01*
X126500000Y-94500000D02*
X126500000Y-94225000D01*
X127799999Y-77799999D02*
X122300000Y-72300000D01*
X126500000Y-94225000D02*
X127799999Y-92925001D01*
D16*
X106174999Y-65372985D02*
X105399999Y-66147985D01*
X105399999Y-66147985D02*
X105000000Y-66547984D01*
X107657000Y-52285000D02*
X106174999Y-53767001D01*
X106174999Y-53767001D02*
X106174999Y-65372985D01*
D18*
G36*
X132340001Y-42950801D02*
G01*
X132209523Y-42992191D01*
X132154588Y-43015737D01*
X132099235Y-43038551D01*
X132091129Y-43042935D01*
X131834592Y-43183968D01*
X131785247Y-43217755D01*
X131735409Y-43250867D01*
X131728309Y-43256741D01*
X131504051Y-43444916D01*
X131462207Y-43487646D01*
X131419751Y-43529806D01*
X131413927Y-43536947D01*
X131230491Y-43765097D01*
X131197744Y-43815139D01*
X131164286Y-43864742D01*
X131159960Y-43872879D01*
X131024330Y-44132313D01*
X131001918Y-44187785D01*
X130978740Y-44242923D01*
X130976077Y-44251745D01*
X130893422Y-44532583D01*
X130882224Y-44591284D01*
X130870184Y-44649940D01*
X130869285Y-44659112D01*
X130842753Y-44950656D01*
X130843171Y-45010472D01*
X130842753Y-45070288D01*
X130843652Y-45079460D01*
X130874252Y-45370605D01*
X130886283Y-45429217D01*
X130897489Y-45487963D01*
X130900153Y-45496784D01*
X130986721Y-45776440D01*
X131009899Y-45831578D01*
X131032311Y-45887050D01*
X131036638Y-45895186D01*
X131175877Y-46152702D01*
X131209304Y-46202259D01*
X131242080Y-46252347D01*
X131247905Y-46259488D01*
X131434510Y-46485056D01*
X131476965Y-46527215D01*
X131518809Y-46569945D01*
X131525909Y-46575819D01*
X131752773Y-46760845D01*
X131802566Y-46793927D01*
X131851955Y-46827745D01*
X131860061Y-46832127D01*
X132118542Y-46969564D01*
X132173836Y-46992355D01*
X132228829Y-47015925D01*
X132237632Y-47018650D01*
X132340000Y-47049557D01*
X132340001Y-86450801D01*
X132209523Y-86492191D01*
X132154588Y-86515737D01*
X132099235Y-86538551D01*
X132091129Y-86542935D01*
X131834592Y-86683968D01*
X131785247Y-86717755D01*
X131735409Y-86750867D01*
X131728309Y-86756741D01*
X131504051Y-86944916D01*
X131462207Y-86987646D01*
X131419751Y-87029806D01*
X131413927Y-87036947D01*
X131230491Y-87265097D01*
X131197744Y-87315139D01*
X131164286Y-87364742D01*
X131159960Y-87372879D01*
X131024330Y-87632313D01*
X131001918Y-87687785D01*
X130978740Y-87742923D01*
X130976077Y-87751745D01*
X130893422Y-88032583D01*
X130882224Y-88091284D01*
X130870184Y-88149940D01*
X130869285Y-88159112D01*
X130842753Y-88450656D01*
X130843171Y-88510472D01*
X130842753Y-88570288D01*
X130843652Y-88579460D01*
X130874252Y-88870605D01*
X130886283Y-88929217D01*
X130897489Y-88987963D01*
X130900153Y-88996784D01*
X130986721Y-89276440D01*
X131009899Y-89331578D01*
X131032311Y-89387050D01*
X131036638Y-89395186D01*
X131175877Y-89652702D01*
X131209304Y-89702259D01*
X131242080Y-89752347D01*
X131247905Y-89759488D01*
X131434510Y-89985056D01*
X131476965Y-90027215D01*
X131518809Y-90069945D01*
X131525909Y-90075819D01*
X131752773Y-90260845D01*
X131802566Y-90293927D01*
X131851955Y-90327745D01*
X131860061Y-90332127D01*
X132118542Y-90469564D01*
X132173836Y-90492355D01*
X132228829Y-90515925D01*
X132237632Y-90518650D01*
X132340000Y-90549557D01*
X132340001Y-93646778D01*
X129660588Y-95433054D01*
X129631550Y-95448575D01*
X129581287Y-95489825D01*
X129531543Y-95530562D01*
X129531323Y-95530830D01*
X129531052Y-95531052D01*
X129489702Y-95581438D01*
X129448962Y-95630974D01*
X129448799Y-95631278D01*
X129448575Y-95631551D01*
X129417976Y-95688798D01*
X129387556Y-95745566D01*
X129387454Y-95745901D01*
X129387290Y-95746208D01*
X129368356Y-95808623D01*
X129349687Y-95869938D01*
X129349653Y-95870278D01*
X129349550Y-95870618D01*
X129343124Y-95935859D01*
X129336808Y-95999307D01*
X129340000Y-96032066D01*
X129340001Y-151663912D01*
X118721338Y-159386575D01*
X118314733Y-159479214D01*
X117827192Y-159493131D01*
X117323567Y-159408264D01*
X117297780Y-159400478D01*
X106660000Y-151663913D01*
X106660000Y-96032065D01*
X106663192Y-95999306D01*
X106656876Y-95935858D01*
X106650450Y-95870617D01*
X106650347Y-95870277D01*
X106650313Y-95869937D01*
X106631644Y-95808622D01*
X106612710Y-95746207D01*
X106612546Y-95745900D01*
X106612444Y-95745565D01*
X106582024Y-95688797D01*
X106551425Y-95631550D01*
X106551201Y-95631277D01*
X106551038Y-95630973D01*
X106510105Y-95581201D01*
X106468948Y-95531052D01*
X106468680Y-95530832D01*
X106468457Y-95530561D01*
X106417903Y-95489161D01*
X106368449Y-95448575D01*
X106339423Y-95433061D01*
X103660000Y-93646779D01*
X103660000Y-90549198D01*
X103790476Y-90507809D01*
X103845412Y-90484263D01*
X103900764Y-90461449D01*
X103908870Y-90457065D01*
X104165408Y-90316032D01*
X104214753Y-90282245D01*
X104264591Y-90249133D01*
X104271691Y-90243259D01*
X104495949Y-90055084D01*
X104537793Y-90012354D01*
X104580248Y-89970195D01*
X104586072Y-89963053D01*
X104769509Y-89734903D01*
X104802251Y-89684869D01*
X104835714Y-89635258D01*
X104840040Y-89627122D01*
X104975670Y-89367687D01*
X104998082Y-89312215D01*
X105021260Y-89257077D01*
X105023923Y-89248255D01*
X105106578Y-88967417D01*
X105117785Y-88908669D01*
X105129816Y-88850059D01*
X105130715Y-88840888D01*
X105157247Y-88549344D01*
X105156829Y-88489528D01*
X105157247Y-88429712D01*
X105156348Y-88420541D01*
X105125748Y-88129395D01*
X105113710Y-88070753D01*
X105102510Y-88012037D01*
X105099847Y-88003216D01*
X105013279Y-87723560D01*
X104990101Y-87668422D01*
X104967689Y-87612950D01*
X104963362Y-87604814D01*
X104824123Y-87347298D01*
X104790701Y-87297749D01*
X104757920Y-87247653D01*
X104752095Y-87240512D01*
X104565490Y-87014945D01*
X104523054Y-86972804D01*
X104481191Y-86930055D01*
X104474091Y-86924181D01*
X104247227Y-86739155D01*
X104197408Y-86706055D01*
X104148045Y-86672256D01*
X104139939Y-86667873D01*
X103881458Y-86530436D01*
X103826164Y-86507645D01*
X103771171Y-86484075D01*
X103762368Y-86481350D01*
X103660000Y-86450443D01*
X103660000Y-61384770D01*
X103775518Y-61419812D01*
X103900000Y-61432072D01*
X104464250Y-61429000D01*
X104623000Y-61270250D01*
X104623000Y-60071000D01*
X104603000Y-60071000D01*
X104603000Y-59817000D01*
X104623000Y-59817000D01*
X104623000Y-58617750D01*
X104464250Y-58459000D01*
X103900000Y-58455928D01*
X103775518Y-58468188D01*
X103660000Y-58503230D01*
X103660000Y-57690770D01*
X103775518Y-57725812D01*
X103900000Y-57738072D01*
X105414999Y-57738072D01*
X105414999Y-58456935D01*
X105035750Y-58459000D01*
X104877000Y-58617750D01*
X104877000Y-59817000D01*
X104897000Y-59817000D01*
X104897000Y-60071000D01*
X104877000Y-60071000D01*
X104877000Y-61270250D01*
X105035750Y-61429000D01*
X105415000Y-61431065D01*
X105415000Y-65058182D01*
X104960199Y-65512984D01*
X104898061Y-65512984D01*
X104698102Y-65552758D01*
X104509744Y-65630779D01*
X104340226Y-65744047D01*
X104196063Y-65888210D01*
X104082795Y-66057728D01*
X104004774Y-66246086D01*
X103965000Y-66446045D01*
X103965000Y-66649923D01*
X104004774Y-66849882D01*
X104082795Y-67038240D01*
X104196063Y-67207758D01*
X104340226Y-67351921D01*
X104509744Y-67465189D01*
X104698102Y-67543210D01*
X104898061Y-67582984D01*
X105101939Y-67582984D01*
X105301898Y-67543210D01*
X105490256Y-67465189D01*
X105659774Y-67351921D01*
X105803937Y-67207758D01*
X105917205Y-67038240D01*
X105995226Y-66849882D01*
X106035000Y-66649923D01*
X106035000Y-66587785D01*
X106140001Y-66482785D01*
X106140000Y-81935680D01*
X106136324Y-81973002D01*
X106140000Y-82010324D01*
X106140000Y-82010334D01*
X106150997Y-82121987D01*
X106185271Y-82234975D01*
X106194454Y-82265248D01*
X106265026Y-82397278D01*
X106287183Y-82424276D01*
X106359999Y-82513003D01*
X106389003Y-82536806D01*
X111963198Y-88111002D01*
X111986997Y-88140001D01*
X112015995Y-88163799D01*
X112102721Y-88234974D01*
X112234751Y-88305546D01*
X112378012Y-88349003D01*
X112489665Y-88360000D01*
X112489675Y-88360000D01*
X112526998Y-88363676D01*
X112564321Y-88360000D01*
X113496289Y-88360000D01*
X113540226Y-88403937D01*
X113709744Y-88517205D01*
X113898102Y-88595226D01*
X114098061Y-88635000D01*
X114301939Y-88635000D01*
X114411929Y-88613122D01*
X114411929Y-90440003D01*
X106870606Y-90440003D01*
X106803937Y-90340226D01*
X106659774Y-90196063D01*
X106490256Y-90082795D01*
X106301898Y-90004774D01*
X106101939Y-89965000D01*
X105898061Y-89965000D01*
X105698102Y-90004774D01*
X105509744Y-90082795D01*
X105340226Y-90196063D01*
X105196063Y-90340226D01*
X105082795Y-90509744D01*
X105004774Y-90698102D01*
X104965000Y-90898061D01*
X104965000Y-91101939D01*
X105004774Y-91301898D01*
X105082795Y-91490256D01*
X105196063Y-91659774D01*
X105340226Y-91803937D01*
X105509744Y-91917205D01*
X105698102Y-91995226D01*
X105898061Y-92035000D01*
X106101939Y-92035000D01*
X106301898Y-91995226D01*
X106386933Y-91960003D01*
X115296289Y-91960003D01*
X115340226Y-92003940D01*
X115509744Y-92117208D01*
X115698102Y-92195229D01*
X115898061Y-92235003D01*
X116101939Y-92235003D01*
X116301898Y-92195229D01*
X116490256Y-92117208D01*
X116659774Y-92003940D01*
X116803937Y-91859777D01*
X116917205Y-91690259D01*
X116995226Y-91501901D01*
X117035000Y-91301942D01*
X117035000Y-91238072D01*
X119986494Y-91238072D01*
X123261928Y-94513507D01*
X123261928Y-95125001D01*
X123278992Y-95298255D01*
X123329528Y-95464851D01*
X123411595Y-95618387D01*
X123522038Y-95752962D01*
X123656613Y-95863405D01*
X123810149Y-95945472D01*
X123976745Y-95996008D01*
X124149999Y-96013072D01*
X124740000Y-96013072D01*
X124740000Y-96296289D01*
X124696063Y-96340226D01*
X124582795Y-96509744D01*
X124504774Y-96698102D01*
X124465000Y-96898061D01*
X124465000Y-97101939D01*
X124504774Y-97301898D01*
X124582795Y-97490256D01*
X124696063Y-97659774D01*
X124840226Y-97803937D01*
X125009744Y-97917205D01*
X125198102Y-97995226D01*
X125398061Y-98035000D01*
X125601939Y-98035000D01*
X125801898Y-97995226D01*
X125990256Y-97917205D01*
X126159774Y-97803937D01*
X126303937Y-97659774D01*
X126417205Y-97490256D01*
X126495226Y-97301898D01*
X126535000Y-97101939D01*
X126535000Y-96898061D01*
X126495226Y-96698102D01*
X126417205Y-96509744D01*
X126303937Y-96340226D01*
X126260000Y-96296289D01*
X126260000Y-95992337D01*
X126500000Y-96015975D01*
X126742102Y-95992130D01*
X126974901Y-95921511D01*
X127189449Y-95806833D01*
X127377502Y-95652502D01*
X127531833Y-95464449D01*
X127646511Y-95249900D01*
X127717130Y-95017101D01*
X127735000Y-94835664D01*
X127735000Y-94241578D01*
X128395049Y-93581530D01*
X128428816Y-93553818D01*
X128539410Y-93419060D01*
X128621588Y-93265314D01*
X128672194Y-93098491D01*
X128684999Y-92968478D01*
X128684999Y-92968468D01*
X128689280Y-92925002D01*
X128684999Y-92881536D01*
X128684999Y-77843464D01*
X128689280Y-77799998D01*
X128684999Y-77756532D01*
X128684999Y-77756522D01*
X128672194Y-77626509D01*
X128621588Y-77459686D01*
X128539410Y-77305940D01*
X128428816Y-77171182D01*
X128395048Y-77143469D01*
X127624275Y-76372696D01*
X128026303Y-75402115D01*
X128435000Y-73347456D01*
X128435000Y-71252544D01*
X128026303Y-69197885D01*
X127662061Y-68318526D01*
X127809744Y-68417205D01*
X127998102Y-68495226D01*
X128198061Y-68535000D01*
X128401939Y-68535000D01*
X128601898Y-68495226D01*
X128790256Y-68417205D01*
X128959774Y-68303937D01*
X129103937Y-68159774D01*
X129217205Y-67990256D01*
X129295226Y-67801898D01*
X129335000Y-67601939D01*
X129335000Y-67398061D01*
X129295226Y-67198102D01*
X129217205Y-67009744D01*
X129185000Y-66961546D01*
X129185000Y-63030467D01*
X129189281Y-62986998D01*
X129185000Y-62943529D01*
X129185000Y-62943521D01*
X129172195Y-62813508D01*
X129121589Y-62646685D01*
X129039411Y-62492939D01*
X129000068Y-62445000D01*
X128956532Y-62391951D01*
X128956530Y-62391949D01*
X128928817Y-62358181D01*
X128895049Y-62330468D01*
X122969536Y-56404956D01*
X122941819Y-56371183D01*
X122807061Y-56260589D01*
X122653315Y-56178411D01*
X122486492Y-56127805D01*
X122356479Y-56115000D01*
X122356471Y-56115000D01*
X122313002Y-56110719D01*
X122269533Y-56115000D01*
X121188071Y-56115000D01*
X121188071Y-54000000D01*
X121175811Y-53875518D01*
X121139501Y-53755820D01*
X121080536Y-53645506D01*
X121001184Y-53548815D01*
X120904493Y-53469463D01*
X120794179Y-53410498D01*
X120674481Y-53374188D01*
X120549999Y-53361928D01*
X115050001Y-53361928D01*
X114925519Y-53374188D01*
X114805821Y-53410498D01*
X114695507Y-53469463D01*
X114598816Y-53548815D01*
X114519464Y-53645506D01*
X114460499Y-53755820D01*
X114424189Y-53875518D01*
X114411929Y-54000000D01*
X114411929Y-60000000D01*
X114424189Y-60124482D01*
X114460499Y-60244180D01*
X114519464Y-60354494D01*
X114598816Y-60451185D01*
X114695507Y-60530537D01*
X114805821Y-60589502D01*
X114925519Y-60625812D01*
X115050001Y-60638072D01*
X120549999Y-60638072D01*
X120674481Y-60625812D01*
X120794179Y-60589502D01*
X120904493Y-60530537D01*
X121001184Y-60451185D01*
X121080536Y-60354494D01*
X121139501Y-60244180D01*
X121175811Y-60124482D01*
X121188071Y-60000000D01*
X121188071Y-57885000D01*
X121946424Y-57885000D01*
X125746423Y-61685000D01*
X125564802Y-61685000D01*
X125113803Y-61234002D01*
X125090001Y-61204999D01*
X124974276Y-61110026D01*
X124842247Y-61039454D01*
X124698986Y-60995997D01*
X124587333Y-60985000D01*
X124587322Y-60985000D01*
X124550000Y-60981324D01*
X124512678Y-60985000D01*
X113111320Y-60985000D01*
X113073997Y-60981324D01*
X113036674Y-60985000D01*
X113036665Y-60985000D01*
X112925012Y-60995997D01*
X112781751Y-61039454D01*
X112649722Y-61110026D01*
X112533997Y-61204999D01*
X112510199Y-61233997D01*
X107660000Y-66084197D01*
X107660000Y-56503711D01*
X107703937Y-56459774D01*
X107817205Y-56290256D01*
X107895226Y-56101898D01*
X107935000Y-55901939D01*
X107935000Y-55698061D01*
X107895226Y-55498102D01*
X107817205Y-55309744D01*
X107703937Y-55140226D01*
X107559774Y-54996063D01*
X107390256Y-54882795D01*
X107201898Y-54804774D01*
X107001939Y-54765000D01*
X106934999Y-54765000D01*
X106934999Y-54081802D01*
X107696802Y-53320000D01*
X107758939Y-53320000D01*
X107958898Y-53280226D01*
X108147256Y-53202205D01*
X108316774Y-53088937D01*
X108460937Y-52944774D01*
X108574205Y-52775256D01*
X108652226Y-52586898D01*
X108692000Y-52386939D01*
X108692000Y-52198061D01*
X115465000Y-52198061D01*
X115465000Y-52401939D01*
X115504774Y-52601898D01*
X115582795Y-52790256D01*
X115696063Y-52959774D01*
X115840226Y-53103937D01*
X116009744Y-53217205D01*
X116198102Y-53295226D01*
X116398061Y-53335000D01*
X116601939Y-53335000D01*
X116801898Y-53295226D01*
X116990256Y-53217205D01*
X117159774Y-53103937D01*
X117203711Y-53060000D01*
X126105199Y-53060000D01*
X127283996Y-54238798D01*
X127370722Y-54309972D01*
X127502752Y-54380545D01*
X127646012Y-54424001D01*
X127794998Y-54438675D01*
X127943984Y-54424001D01*
X128087245Y-54380545D01*
X128219274Y-54309972D01*
X128335000Y-54215000D01*
X128429972Y-54099274D01*
X128500545Y-53967245D01*
X128544001Y-53823984D01*
X128558675Y-53674998D01*
X128544001Y-53526012D01*
X128500545Y-53382752D01*
X128430656Y-53252000D01*
X129011928Y-53252000D01*
X129011928Y-54952000D01*
X129024188Y-55076482D01*
X129060498Y-55196180D01*
X129119463Y-55306494D01*
X129198815Y-55403185D01*
X129295506Y-55482537D01*
X129405820Y-55541502D01*
X129525518Y-55577812D01*
X129650000Y-55590072D01*
X131350000Y-55590072D01*
X131474482Y-55577812D01*
X131594180Y-55541502D01*
X131704494Y-55482537D01*
X131801185Y-55403185D01*
X131880537Y-55306494D01*
X131939502Y-55196180D01*
X131975812Y-55076482D01*
X131988072Y-54952000D01*
X131988072Y-53252000D01*
X131975812Y-53127518D01*
X131939502Y-53007820D01*
X131880537Y-52897506D01*
X131801185Y-52800815D01*
X131704494Y-52721463D01*
X131594180Y-52662498D01*
X131474482Y-52626188D01*
X131350000Y-52613928D01*
X129650000Y-52613928D01*
X129525518Y-52626188D01*
X129405820Y-52662498D01*
X129295506Y-52721463D01*
X129198815Y-52800815D01*
X129119463Y-52897506D01*
X129060498Y-53007820D01*
X129024188Y-53127518D01*
X129011928Y-53252000D01*
X128430656Y-53252000D01*
X128429972Y-53250722D01*
X128358798Y-53163996D01*
X126983804Y-51789003D01*
X126960001Y-51759999D01*
X126844276Y-51665026D01*
X126712247Y-51594454D01*
X126568986Y-51550997D01*
X126457333Y-51540000D01*
X126457322Y-51540000D01*
X126420000Y-51536324D01*
X126382678Y-51540000D01*
X117473992Y-51540000D01*
X117497207Y-51505256D01*
X117575228Y-51316898D01*
X117615002Y-51116939D01*
X117615002Y-50913061D01*
X117575228Y-50713102D01*
X117497207Y-50524744D01*
X117383939Y-50355226D01*
X117239776Y-50211063D01*
X117070258Y-50097795D01*
X116881900Y-50019774D01*
X116681941Y-49980000D01*
X116478063Y-49980000D01*
X116278104Y-50019774D01*
X116089746Y-50097795D01*
X115920228Y-50211063D01*
X115776065Y-50355226D01*
X115662797Y-50524744D01*
X115584776Y-50713102D01*
X115545002Y-50913061D01*
X115545002Y-51116939D01*
X115584776Y-51316898D01*
X115662797Y-51505256D01*
X115730183Y-51606106D01*
X115696063Y-51640226D01*
X115582795Y-51809744D01*
X115504774Y-51998102D01*
X115465000Y-52198061D01*
X108692000Y-52198061D01*
X108692000Y-52183061D01*
X108652226Y-51983102D01*
X108574205Y-51794744D01*
X108460937Y-51625226D01*
X108316774Y-51481063D01*
X108147256Y-51367795D01*
X107958898Y-51289774D01*
X107758939Y-51250000D01*
X107555061Y-51250000D01*
X107355102Y-51289774D01*
X107166744Y-51367795D01*
X106997226Y-51481063D01*
X106853063Y-51625226D01*
X106739795Y-51794744D01*
X106661774Y-51983102D01*
X106622000Y-52183061D01*
X106622000Y-52245198D01*
X105664002Y-53203197D01*
X105634998Y-53227000D01*
X105591317Y-53280226D01*
X105540025Y-53342725D01*
X105472282Y-53469463D01*
X105469453Y-53474755D01*
X105425996Y-53618016D01*
X105414999Y-53729669D01*
X105414999Y-53729679D01*
X105411323Y-53767001D01*
X105414999Y-53804323D01*
X105414999Y-54761928D01*
X103900000Y-54761928D01*
X103775518Y-54774188D01*
X103660000Y-54809230D01*
X103660000Y-49650000D01*
X129011928Y-49650000D01*
X129011928Y-51350000D01*
X129024188Y-51474482D01*
X129060498Y-51594180D01*
X129119463Y-51704494D01*
X129198815Y-51801185D01*
X129295506Y-51880537D01*
X129405820Y-51939502D01*
X129525518Y-51975812D01*
X129650000Y-51988072D01*
X131350000Y-51988072D01*
X131474482Y-51975812D01*
X131594180Y-51939502D01*
X131704494Y-51880537D01*
X131801185Y-51801185D01*
X131880537Y-51704494D01*
X131939502Y-51594180D01*
X131975812Y-51474482D01*
X131988072Y-51350000D01*
X131988072Y-49650000D01*
X131975812Y-49525518D01*
X131939502Y-49405820D01*
X131880537Y-49295506D01*
X131801185Y-49198815D01*
X131704494Y-49119463D01*
X131594180Y-49060498D01*
X131474482Y-49024188D01*
X131350000Y-49011928D01*
X129650000Y-49011928D01*
X129525518Y-49024188D01*
X129405820Y-49060498D01*
X129295506Y-49119463D01*
X129198815Y-49198815D01*
X129119463Y-49295506D01*
X129060498Y-49405820D01*
X129024188Y-49525518D01*
X129011928Y-49650000D01*
X103660000Y-49650000D01*
X103660000Y-47049198D01*
X103790476Y-47007809D01*
X103845412Y-46984263D01*
X103900764Y-46961449D01*
X103908870Y-46957065D01*
X104165408Y-46816032D01*
X104214753Y-46782245D01*
X104264591Y-46749133D01*
X104271691Y-46743259D01*
X104495949Y-46555084D01*
X104537793Y-46512354D01*
X104580248Y-46470195D01*
X104586072Y-46463053D01*
X104769509Y-46234903D01*
X104802251Y-46184869D01*
X104835714Y-46135258D01*
X104840040Y-46127122D01*
X104975670Y-45867687D01*
X104998082Y-45812215D01*
X105021260Y-45757077D01*
X105023923Y-45748255D01*
X105106578Y-45467417D01*
X105117785Y-45408669D01*
X105129816Y-45350059D01*
X105130715Y-45340888D01*
X105157247Y-45049344D01*
X105156829Y-44989528D01*
X105157247Y-44929712D01*
X105156348Y-44920541D01*
X105125748Y-44629395D01*
X105113710Y-44570753D01*
X105102510Y-44512037D01*
X105099847Y-44503216D01*
X105013279Y-44223560D01*
X104990101Y-44168422D01*
X104967689Y-44112950D01*
X104963362Y-44104814D01*
X104824123Y-43847298D01*
X104790701Y-43797749D01*
X104757920Y-43747653D01*
X104752095Y-43740512D01*
X104565490Y-43514945D01*
X104523054Y-43472804D01*
X104481191Y-43430055D01*
X104474091Y-43424181D01*
X104247227Y-43239155D01*
X104197408Y-43206055D01*
X104148045Y-43172256D01*
X104139939Y-43167873D01*
X103881458Y-43030436D01*
X103826164Y-43007645D01*
X103771171Y-42984075D01*
X103762368Y-42981350D01*
X103660000Y-42950443D01*
X103660000Y-42660000D01*
X132340000Y-42660000D01*
X132340001Y-42950801D01*
G37*
X132340001Y-42950801D02*
X132209523Y-42992191D01*
X132154588Y-43015737D01*
X132099235Y-43038551D01*
X132091129Y-43042935D01*
X131834592Y-43183968D01*
X131785247Y-43217755D01*
X131735409Y-43250867D01*
X131728309Y-43256741D01*
X131504051Y-43444916D01*
X131462207Y-43487646D01*
X131419751Y-43529806D01*
X131413927Y-43536947D01*
X131230491Y-43765097D01*
X131197744Y-43815139D01*
X131164286Y-43864742D01*
X131159960Y-43872879D01*
X131024330Y-44132313D01*
X131001918Y-44187785D01*
X130978740Y-44242923D01*
X130976077Y-44251745D01*
X130893422Y-44532583D01*
X130882224Y-44591284D01*
X130870184Y-44649940D01*
X130869285Y-44659112D01*
X130842753Y-44950656D01*
X130843171Y-45010472D01*
X130842753Y-45070288D01*
X130843652Y-45079460D01*
X130874252Y-45370605D01*
X130886283Y-45429217D01*
X130897489Y-45487963D01*
X130900153Y-45496784D01*
X130986721Y-45776440D01*
X131009899Y-45831578D01*
X131032311Y-45887050D01*
X131036638Y-45895186D01*
X131175877Y-46152702D01*
X131209304Y-46202259D01*
X131242080Y-46252347D01*
X131247905Y-46259488D01*
X131434510Y-46485056D01*
X131476965Y-46527215D01*
X131518809Y-46569945D01*
X131525909Y-46575819D01*
X131752773Y-46760845D01*
X131802566Y-46793927D01*
X131851955Y-46827745D01*
X131860061Y-46832127D01*
X132118542Y-46969564D01*
X132173836Y-46992355D01*
X132228829Y-47015925D01*
X132237632Y-47018650D01*
X132340000Y-47049557D01*
X132340001Y-86450801D01*
X132209523Y-86492191D01*
X132154588Y-86515737D01*
X132099235Y-86538551D01*
X132091129Y-86542935D01*
X131834592Y-86683968D01*
X131785247Y-86717755D01*
X131735409Y-86750867D01*
X131728309Y-86756741D01*
X131504051Y-86944916D01*
X131462207Y-86987646D01*
X131419751Y-87029806D01*
X131413927Y-87036947D01*
X131230491Y-87265097D01*
X131197744Y-87315139D01*
X131164286Y-87364742D01*
X131159960Y-87372879D01*
X131024330Y-87632313D01*
X131001918Y-87687785D01*
X130978740Y-87742923D01*
X130976077Y-87751745D01*
X130893422Y-88032583D01*
X130882224Y-88091284D01*
X130870184Y-88149940D01*
X130869285Y-88159112D01*
X130842753Y-88450656D01*
X130843171Y-88510472D01*
X130842753Y-88570288D01*
X130843652Y-88579460D01*
X130874252Y-88870605D01*
X130886283Y-88929217D01*
X130897489Y-88987963D01*
X130900153Y-88996784D01*
X130986721Y-89276440D01*
X131009899Y-89331578D01*
X131032311Y-89387050D01*
X131036638Y-89395186D01*
X131175877Y-89652702D01*
X131209304Y-89702259D01*
X131242080Y-89752347D01*
X131247905Y-89759488D01*
X131434510Y-89985056D01*
X131476965Y-90027215D01*
X131518809Y-90069945D01*
X131525909Y-90075819D01*
X131752773Y-90260845D01*
X131802566Y-90293927D01*
X131851955Y-90327745D01*
X131860061Y-90332127D01*
X132118542Y-90469564D01*
X132173836Y-90492355D01*
X132228829Y-90515925D01*
X132237632Y-90518650D01*
X132340000Y-90549557D01*
X132340001Y-93646778D01*
X129660588Y-95433054D01*
X129631550Y-95448575D01*
X129581287Y-95489825D01*
X129531543Y-95530562D01*
X129531323Y-95530830D01*
X129531052Y-95531052D01*
X129489702Y-95581438D01*
X129448962Y-95630974D01*
X129448799Y-95631278D01*
X129448575Y-95631551D01*
X129417976Y-95688798D01*
X129387556Y-95745566D01*
X129387454Y-95745901D01*
X129387290Y-95746208D01*
X129368356Y-95808623D01*
X129349687Y-95869938D01*
X129349653Y-95870278D01*
X129349550Y-95870618D01*
X129343124Y-95935859D01*
X129336808Y-95999307D01*
X129340000Y-96032066D01*
X129340001Y-151663912D01*
X118721338Y-159386575D01*
X118314733Y-159479214D01*
X117827192Y-159493131D01*
X117323567Y-159408264D01*
X117297780Y-159400478D01*
X106660000Y-151663913D01*
X106660000Y-96032065D01*
X106663192Y-95999306D01*
X106656876Y-95935858D01*
X106650450Y-95870617D01*
X106650347Y-95870277D01*
X106650313Y-95869937D01*
X106631644Y-95808622D01*
X106612710Y-95746207D01*
X106612546Y-95745900D01*
X106612444Y-95745565D01*
X106582024Y-95688797D01*
X106551425Y-95631550D01*
X106551201Y-95631277D01*
X106551038Y-95630973D01*
X106510105Y-95581201D01*
X106468948Y-95531052D01*
X106468680Y-95530832D01*
X106468457Y-95530561D01*
X106417903Y-95489161D01*
X106368449Y-95448575D01*
X106339423Y-95433061D01*
X103660000Y-93646779D01*
X103660000Y-90549198D01*
X103790476Y-90507809D01*
X103845412Y-90484263D01*
X103900764Y-90461449D01*
X103908870Y-90457065D01*
X104165408Y-90316032D01*
X104214753Y-90282245D01*
X104264591Y-90249133D01*
X104271691Y-90243259D01*
X104495949Y-90055084D01*
X104537793Y-90012354D01*
X104580248Y-89970195D01*
X104586072Y-89963053D01*
X104769509Y-89734903D01*
X104802251Y-89684869D01*
X104835714Y-89635258D01*
X104840040Y-89627122D01*
X104975670Y-89367687D01*
X104998082Y-89312215D01*
X105021260Y-89257077D01*
X105023923Y-89248255D01*
X105106578Y-88967417D01*
X105117785Y-88908669D01*
X105129816Y-88850059D01*
X105130715Y-88840888D01*
X105157247Y-88549344D01*
X105156829Y-88489528D01*
X105157247Y-88429712D01*
X105156348Y-88420541D01*
X105125748Y-88129395D01*
X105113710Y-88070753D01*
X105102510Y-88012037D01*
X105099847Y-88003216D01*
X105013279Y-87723560D01*
X104990101Y-87668422D01*
X104967689Y-87612950D01*
X104963362Y-87604814D01*
X104824123Y-87347298D01*
X104790701Y-87297749D01*
X104757920Y-87247653D01*
X104752095Y-87240512D01*
X104565490Y-87014945D01*
X104523054Y-86972804D01*
X104481191Y-86930055D01*
X104474091Y-86924181D01*
X104247227Y-86739155D01*
X104197408Y-86706055D01*
X104148045Y-86672256D01*
X104139939Y-86667873D01*
X103881458Y-86530436D01*
X103826164Y-86507645D01*
X103771171Y-86484075D01*
X103762368Y-86481350D01*
X103660000Y-86450443D01*
X103660000Y-61384770D01*
X103775518Y-61419812D01*
X103900000Y-61432072D01*
X104464250Y-61429000D01*
X104623000Y-61270250D01*
X104623000Y-60071000D01*
X104603000Y-60071000D01*
X104603000Y-59817000D01*
X104623000Y-59817000D01*
X104623000Y-58617750D01*
X104464250Y-58459000D01*
X103900000Y-58455928D01*
X103775518Y-58468188D01*
X103660000Y-58503230D01*
X103660000Y-57690770D01*
X103775518Y-57725812D01*
X103900000Y-57738072D01*
X105414999Y-57738072D01*
X105414999Y-58456935D01*
X105035750Y-58459000D01*
X104877000Y-58617750D01*
X104877000Y-59817000D01*
X104897000Y-59817000D01*
X104897000Y-60071000D01*
X104877000Y-60071000D01*
X104877000Y-61270250D01*
X105035750Y-61429000D01*
X105415000Y-61431065D01*
X105415000Y-65058182D01*
X104960199Y-65512984D01*
X104898061Y-65512984D01*
X104698102Y-65552758D01*
X104509744Y-65630779D01*
X104340226Y-65744047D01*
X104196063Y-65888210D01*
X104082795Y-66057728D01*
X104004774Y-66246086D01*
X103965000Y-66446045D01*
X103965000Y-66649923D01*
X104004774Y-66849882D01*
X104082795Y-67038240D01*
X104196063Y-67207758D01*
X104340226Y-67351921D01*
X104509744Y-67465189D01*
X104698102Y-67543210D01*
X104898061Y-67582984D01*
X105101939Y-67582984D01*
X105301898Y-67543210D01*
X105490256Y-67465189D01*
X105659774Y-67351921D01*
X105803937Y-67207758D01*
X105917205Y-67038240D01*
X105995226Y-66849882D01*
X106035000Y-66649923D01*
X106035000Y-66587785D01*
X106140001Y-66482785D01*
X106140000Y-81935680D01*
X106136324Y-81973002D01*
X106140000Y-82010324D01*
X106140000Y-82010334D01*
X106150997Y-82121987D01*
X106185271Y-82234975D01*
X106194454Y-82265248D01*
X106265026Y-82397278D01*
X106287183Y-82424276D01*
X106359999Y-82513003D01*
X106389003Y-82536806D01*
X111963198Y-88111002D01*
X111986997Y-88140001D01*
X112015995Y-88163799D01*
X112102721Y-88234974D01*
X112234751Y-88305546D01*
X112378012Y-88349003D01*
X112489665Y-88360000D01*
X112489675Y-88360000D01*
X112526998Y-88363676D01*
X112564321Y-88360000D01*
X113496289Y-88360000D01*
X113540226Y-88403937D01*
X113709744Y-88517205D01*
X113898102Y-88595226D01*
X114098061Y-88635000D01*
X114301939Y-88635000D01*
X114411929Y-88613122D01*
X114411929Y-90440003D01*
X106870606Y-90440003D01*
X106803937Y-90340226D01*
X106659774Y-90196063D01*
X106490256Y-90082795D01*
X106301898Y-90004774D01*
X106101939Y-89965000D01*
X105898061Y-89965000D01*
X105698102Y-90004774D01*
X105509744Y-90082795D01*
X105340226Y-90196063D01*
X105196063Y-90340226D01*
X105082795Y-90509744D01*
X105004774Y-90698102D01*
X104965000Y-90898061D01*
X104965000Y-91101939D01*
X105004774Y-91301898D01*
X105082795Y-91490256D01*
X105196063Y-91659774D01*
X105340226Y-91803937D01*
X105509744Y-91917205D01*
X105698102Y-91995226D01*
X105898061Y-92035000D01*
X106101939Y-92035000D01*
X106301898Y-91995226D01*
X106386933Y-91960003D01*
X115296289Y-91960003D01*
X115340226Y-92003940D01*
X115509744Y-92117208D01*
X115698102Y-92195229D01*
X115898061Y-92235003D01*
X116101939Y-92235003D01*
X116301898Y-92195229D01*
X116490256Y-92117208D01*
X116659774Y-92003940D01*
X116803937Y-91859777D01*
X116917205Y-91690259D01*
X116995226Y-91501901D01*
X117035000Y-91301942D01*
X117035000Y-91238072D01*
X119986494Y-91238072D01*
X123261928Y-94513507D01*
X123261928Y-95125001D01*
X123278992Y-95298255D01*
X123329528Y-95464851D01*
X123411595Y-95618387D01*
X123522038Y-95752962D01*
X123656613Y-95863405D01*
X123810149Y-95945472D01*
X123976745Y-95996008D01*
X124149999Y-96013072D01*
X124740000Y-96013072D01*
X124740000Y-96296289D01*
X124696063Y-96340226D01*
X124582795Y-96509744D01*
X124504774Y-96698102D01*
X124465000Y-96898061D01*
X124465000Y-97101939D01*
X124504774Y-97301898D01*
X124582795Y-97490256D01*
X124696063Y-97659774D01*
X124840226Y-97803937D01*
X125009744Y-97917205D01*
X125198102Y-97995226D01*
X125398061Y-98035000D01*
X125601939Y-98035000D01*
X125801898Y-97995226D01*
X125990256Y-97917205D01*
X126159774Y-97803937D01*
X126303937Y-97659774D01*
X126417205Y-97490256D01*
X126495226Y-97301898D01*
X126535000Y-97101939D01*
X126535000Y-96898061D01*
X126495226Y-96698102D01*
X126417205Y-96509744D01*
X126303937Y-96340226D01*
X126260000Y-96296289D01*
X126260000Y-95992337D01*
X126500000Y-96015975D01*
X126742102Y-95992130D01*
X126974901Y-95921511D01*
X127189449Y-95806833D01*
X127377502Y-95652502D01*
X127531833Y-95464449D01*
X127646511Y-95249900D01*
X127717130Y-95017101D01*
X127735000Y-94835664D01*
X127735000Y-94241578D01*
X128395049Y-93581530D01*
X128428816Y-93553818D01*
X128539410Y-93419060D01*
X128621588Y-93265314D01*
X128672194Y-93098491D01*
X128684999Y-92968478D01*
X128684999Y-92968468D01*
X128689280Y-92925002D01*
X128684999Y-92881536D01*
X128684999Y-77843464D01*
X128689280Y-77799998D01*
X128684999Y-77756532D01*
X128684999Y-77756522D01*
X128672194Y-77626509D01*
X128621588Y-77459686D01*
X128539410Y-77305940D01*
X128428816Y-77171182D01*
X128395048Y-77143469D01*
X127624275Y-76372696D01*
X128026303Y-75402115D01*
X128435000Y-73347456D01*
X128435000Y-71252544D01*
X128026303Y-69197885D01*
X127662061Y-68318526D01*
X127809744Y-68417205D01*
X127998102Y-68495226D01*
X128198061Y-68535000D01*
X128401939Y-68535000D01*
X128601898Y-68495226D01*
X128790256Y-68417205D01*
X128959774Y-68303937D01*
X129103937Y-68159774D01*
X129217205Y-67990256D01*
X129295226Y-67801898D01*
X129335000Y-67601939D01*
X129335000Y-67398061D01*
X129295226Y-67198102D01*
X129217205Y-67009744D01*
X129185000Y-66961546D01*
X129185000Y-63030467D01*
X129189281Y-62986998D01*
X129185000Y-62943529D01*
X129185000Y-62943521D01*
X129172195Y-62813508D01*
X129121589Y-62646685D01*
X129039411Y-62492939D01*
X129000068Y-62445000D01*
X128956532Y-62391951D01*
X128956530Y-62391949D01*
X128928817Y-62358181D01*
X128895049Y-62330468D01*
X122969536Y-56404956D01*
X122941819Y-56371183D01*
X122807061Y-56260589D01*
X122653315Y-56178411D01*
X122486492Y-56127805D01*
X122356479Y-56115000D01*
X122356471Y-56115000D01*
X122313002Y-56110719D01*
X122269533Y-56115000D01*
X121188071Y-56115000D01*
X121188071Y-54000000D01*
X121175811Y-53875518D01*
X121139501Y-53755820D01*
X121080536Y-53645506D01*
X121001184Y-53548815D01*
X120904493Y-53469463D01*
X120794179Y-53410498D01*
X120674481Y-53374188D01*
X120549999Y-53361928D01*
X115050001Y-53361928D01*
X114925519Y-53374188D01*
X114805821Y-53410498D01*
X114695507Y-53469463D01*
X114598816Y-53548815D01*
X114519464Y-53645506D01*
X114460499Y-53755820D01*
X114424189Y-53875518D01*
X114411929Y-54000000D01*
X114411929Y-60000000D01*
X114424189Y-60124482D01*
X114460499Y-60244180D01*
X114519464Y-60354494D01*
X114598816Y-60451185D01*
X114695507Y-60530537D01*
X114805821Y-60589502D01*
X114925519Y-60625812D01*
X115050001Y-60638072D01*
X120549999Y-60638072D01*
X120674481Y-60625812D01*
X120794179Y-60589502D01*
X120904493Y-60530537D01*
X121001184Y-60451185D01*
X121080536Y-60354494D01*
X121139501Y-60244180D01*
X121175811Y-60124482D01*
X121188071Y-60000000D01*
X121188071Y-57885000D01*
X121946424Y-57885000D01*
X125746423Y-61685000D01*
X125564802Y-61685000D01*
X125113803Y-61234002D01*
X125090001Y-61204999D01*
X124974276Y-61110026D01*
X124842247Y-61039454D01*
X124698986Y-60995997D01*
X124587333Y-60985000D01*
X124587322Y-60985000D01*
X124550000Y-60981324D01*
X124512678Y-60985000D01*
X113111320Y-60985000D01*
X113073997Y-60981324D01*
X113036674Y-60985000D01*
X113036665Y-60985000D01*
X112925012Y-60995997D01*
X112781751Y-61039454D01*
X112649722Y-61110026D01*
X112533997Y-61204999D01*
X112510199Y-61233997D01*
X107660000Y-66084197D01*
X107660000Y-56503711D01*
X107703937Y-56459774D01*
X107817205Y-56290256D01*
X107895226Y-56101898D01*
X107935000Y-55901939D01*
X107935000Y-55698061D01*
X107895226Y-55498102D01*
X107817205Y-55309744D01*
X107703937Y-55140226D01*
X107559774Y-54996063D01*
X107390256Y-54882795D01*
X107201898Y-54804774D01*
X107001939Y-54765000D01*
X106934999Y-54765000D01*
X106934999Y-54081802D01*
X107696802Y-53320000D01*
X107758939Y-53320000D01*
X107958898Y-53280226D01*
X108147256Y-53202205D01*
X108316774Y-53088937D01*
X108460937Y-52944774D01*
X108574205Y-52775256D01*
X108652226Y-52586898D01*
X108692000Y-52386939D01*
X108692000Y-52198061D01*
X115465000Y-52198061D01*
X115465000Y-52401939D01*
X115504774Y-52601898D01*
X115582795Y-52790256D01*
X115696063Y-52959774D01*
X115840226Y-53103937D01*
X116009744Y-53217205D01*
X116198102Y-53295226D01*
X116398061Y-53335000D01*
X116601939Y-53335000D01*
X116801898Y-53295226D01*
X116990256Y-53217205D01*
X117159774Y-53103937D01*
X117203711Y-53060000D01*
X126105199Y-53060000D01*
X127283996Y-54238798D01*
X127370722Y-54309972D01*
X127502752Y-54380545D01*
X127646012Y-54424001D01*
X127794998Y-54438675D01*
X127943984Y-54424001D01*
X128087245Y-54380545D01*
X128219274Y-54309972D01*
X128335000Y-54215000D01*
X128429972Y-54099274D01*
X128500545Y-53967245D01*
X128544001Y-53823984D01*
X128558675Y-53674998D01*
X128544001Y-53526012D01*
X128500545Y-53382752D01*
X128430656Y-53252000D01*
X129011928Y-53252000D01*
X129011928Y-54952000D01*
X129024188Y-55076482D01*
X129060498Y-55196180D01*
X129119463Y-55306494D01*
X129198815Y-55403185D01*
X129295506Y-55482537D01*
X129405820Y-55541502D01*
X129525518Y-55577812D01*
X129650000Y-55590072D01*
X131350000Y-55590072D01*
X131474482Y-55577812D01*
X131594180Y-55541502D01*
X131704494Y-55482537D01*
X131801185Y-55403185D01*
X131880537Y-55306494D01*
X131939502Y-55196180D01*
X131975812Y-55076482D01*
X131988072Y-54952000D01*
X131988072Y-53252000D01*
X131975812Y-53127518D01*
X131939502Y-53007820D01*
X131880537Y-52897506D01*
X131801185Y-52800815D01*
X131704494Y-52721463D01*
X131594180Y-52662498D01*
X131474482Y-52626188D01*
X131350000Y-52613928D01*
X129650000Y-52613928D01*
X129525518Y-52626188D01*
X129405820Y-52662498D01*
X129295506Y-52721463D01*
X129198815Y-52800815D01*
X129119463Y-52897506D01*
X129060498Y-53007820D01*
X129024188Y-53127518D01*
X129011928Y-53252000D01*
X128430656Y-53252000D01*
X128429972Y-53250722D01*
X128358798Y-53163996D01*
X126983804Y-51789003D01*
X126960001Y-51759999D01*
X126844276Y-51665026D01*
X126712247Y-51594454D01*
X126568986Y-51550997D01*
X126457333Y-51540000D01*
X126457322Y-51540000D01*
X126420000Y-51536324D01*
X126382678Y-51540000D01*
X117473992Y-51540000D01*
X117497207Y-51505256D01*
X117575228Y-51316898D01*
X117615002Y-51116939D01*
X117615002Y-50913061D01*
X117575228Y-50713102D01*
X117497207Y-50524744D01*
X117383939Y-50355226D01*
X117239776Y-50211063D01*
X117070258Y-50097795D01*
X116881900Y-50019774D01*
X116681941Y-49980000D01*
X116478063Y-49980000D01*
X116278104Y-50019774D01*
X116089746Y-50097795D01*
X115920228Y-50211063D01*
X115776065Y-50355226D01*
X115662797Y-50524744D01*
X115584776Y-50713102D01*
X115545002Y-50913061D01*
X115545002Y-51116939D01*
X115584776Y-51316898D01*
X115662797Y-51505256D01*
X115730183Y-51606106D01*
X115696063Y-51640226D01*
X115582795Y-51809744D01*
X115504774Y-51998102D01*
X115465000Y-52198061D01*
X108692000Y-52198061D01*
X108692000Y-52183061D01*
X108652226Y-51983102D01*
X108574205Y-51794744D01*
X108460937Y-51625226D01*
X108316774Y-51481063D01*
X108147256Y-51367795D01*
X107958898Y-51289774D01*
X107758939Y-51250000D01*
X107555061Y-51250000D01*
X107355102Y-51289774D01*
X107166744Y-51367795D01*
X106997226Y-51481063D01*
X106853063Y-51625226D01*
X106739795Y-51794744D01*
X106661774Y-51983102D01*
X106622000Y-52183061D01*
X106622000Y-52245198D01*
X105664002Y-53203197D01*
X105634998Y-53227000D01*
X105591317Y-53280226D01*
X105540025Y-53342725D01*
X105472282Y-53469463D01*
X105469453Y-53474755D01*
X105425996Y-53618016D01*
X105414999Y-53729669D01*
X105414999Y-53729679D01*
X105411323Y-53767001D01*
X105414999Y-53804323D01*
X105414999Y-54761928D01*
X103900000Y-54761928D01*
X103775518Y-54774188D01*
X103660000Y-54809230D01*
X103660000Y-49650000D01*
X129011928Y-49650000D01*
X129011928Y-51350000D01*
X129024188Y-51474482D01*
X129060498Y-51594180D01*
X129119463Y-51704494D01*
X129198815Y-51801185D01*
X129295506Y-51880537D01*
X129405820Y-51939502D01*
X129525518Y-51975812D01*
X129650000Y-51988072D01*
X131350000Y-51988072D01*
X131474482Y-51975812D01*
X131594180Y-51939502D01*
X131704494Y-51880537D01*
X131801185Y-51801185D01*
X131880537Y-51704494D01*
X131939502Y-51594180D01*
X131975812Y-51474482D01*
X131988072Y-51350000D01*
X131988072Y-49650000D01*
X131975812Y-49525518D01*
X131939502Y-49405820D01*
X131880537Y-49295506D01*
X131801185Y-49198815D01*
X131704494Y-49119463D01*
X131594180Y-49060498D01*
X131474482Y-49024188D01*
X131350000Y-49011928D01*
X129650000Y-49011928D01*
X129525518Y-49024188D01*
X129405820Y-49060498D01*
X129295506Y-49119463D01*
X129198815Y-49198815D01*
X129119463Y-49295506D01*
X129060498Y-49405820D01*
X129024188Y-49525518D01*
X129011928Y-49650000D01*
X103660000Y-49650000D01*
X103660000Y-47049198D01*
X103790476Y-47007809D01*
X103845412Y-46984263D01*
X103900764Y-46961449D01*
X103908870Y-46957065D01*
X104165408Y-46816032D01*
X104214753Y-46782245D01*
X104264591Y-46749133D01*
X104271691Y-46743259D01*
X104495949Y-46555084D01*
X104537793Y-46512354D01*
X104580248Y-46470195D01*
X104586072Y-46463053D01*
X104769509Y-46234903D01*
X104802251Y-46184869D01*
X104835714Y-46135258D01*
X104840040Y-46127122D01*
X104975670Y-45867687D01*
X104998082Y-45812215D01*
X105021260Y-45757077D01*
X105023923Y-45748255D01*
X105106578Y-45467417D01*
X105117785Y-45408669D01*
X105129816Y-45350059D01*
X105130715Y-45340888D01*
X105157247Y-45049344D01*
X105156829Y-44989528D01*
X105157247Y-44929712D01*
X105156348Y-44920541D01*
X105125748Y-44629395D01*
X105113710Y-44570753D01*
X105102510Y-44512037D01*
X105099847Y-44503216D01*
X105013279Y-44223560D01*
X104990101Y-44168422D01*
X104967689Y-44112950D01*
X104963362Y-44104814D01*
X104824123Y-43847298D01*
X104790701Y-43797749D01*
X104757920Y-43747653D01*
X104752095Y-43740512D01*
X104565490Y-43514945D01*
X104523054Y-43472804D01*
X104481191Y-43430055D01*
X104474091Y-43424181D01*
X104247227Y-43239155D01*
X104197408Y-43206055D01*
X104148045Y-43172256D01*
X104139939Y-43167873D01*
X103881458Y-43030436D01*
X103826164Y-43007645D01*
X103771171Y-42984075D01*
X103762368Y-42981350D01*
X103660000Y-42950443D01*
X103660000Y-42660000D01*
X132340000Y-42660000D01*
X132340001Y-42950801D01*
G36*
X126915000Y-78166579D02*
G01*
X126914999Y-92558422D01*
X126488238Y-92985183D01*
X126260000Y-93007663D01*
X126260000Y-88837322D01*
X126263676Y-88799999D01*
X126260000Y-88762676D01*
X126260000Y-88762667D01*
X126249003Y-88651014D01*
X126205546Y-88507753D01*
X126134974Y-88375724D01*
X126040001Y-88259999D01*
X126011003Y-88236201D01*
X125335000Y-87560199D01*
X125335000Y-87498061D01*
X125295226Y-87298102D01*
X125217205Y-87109744D01*
X125103937Y-86940226D01*
X124959774Y-86796063D01*
X124790256Y-86682795D01*
X124601898Y-86604774D01*
X124401939Y-86565000D01*
X124198061Y-86565000D01*
X123998102Y-86604774D01*
X123809744Y-86682795D01*
X123640226Y-86796063D01*
X123496063Y-86940226D01*
X123382795Y-87109744D01*
X123304774Y-87298102D01*
X123265000Y-87498061D01*
X123265000Y-87701939D01*
X123304774Y-87901898D01*
X123382795Y-88090256D01*
X123496063Y-88259774D01*
X123640226Y-88403937D01*
X123809744Y-88517205D01*
X123998102Y-88595226D01*
X124198061Y-88635000D01*
X124260199Y-88635000D01*
X124740001Y-89114803D01*
X124740000Y-92986928D01*
X124238507Y-92986928D01*
X121188071Y-89936493D01*
X121188071Y-87742237D01*
X121285449Y-87782573D01*
X121485408Y-87822347D01*
X121540001Y-87822347D01*
X121540001Y-88096288D01*
X121496063Y-88140226D01*
X121382795Y-88309744D01*
X121304774Y-88498102D01*
X121265000Y-88698061D01*
X121265000Y-88901939D01*
X121304774Y-89101898D01*
X121382795Y-89290256D01*
X121496063Y-89459774D01*
X121640226Y-89603937D01*
X121809744Y-89717205D01*
X121998102Y-89795226D01*
X122198061Y-89835000D01*
X122401939Y-89835000D01*
X122601898Y-89795226D01*
X122790256Y-89717205D01*
X122959774Y-89603937D01*
X123103937Y-89459774D01*
X123217205Y-89290256D01*
X123295226Y-89101898D01*
X123335000Y-88901939D01*
X123335000Y-88698061D01*
X123295226Y-88498102D01*
X123217205Y-88309744D01*
X123103937Y-88140226D01*
X123060000Y-88096289D01*
X123060000Y-87537333D01*
X123063677Y-87500000D01*
X123055178Y-87413704D01*
X123049003Y-87351014D01*
X123005546Y-87207753D01*
X122934974Y-87075724D01*
X122840001Y-86959999D01*
X122811002Y-86936201D01*
X122622347Y-86747545D01*
X122622347Y-86685408D01*
X122582573Y-86485449D01*
X122504552Y-86297091D01*
X122391284Y-86127573D01*
X122247121Y-85983410D01*
X122077603Y-85870142D01*
X121889245Y-85792121D01*
X121689286Y-85752347D01*
X121485408Y-85752347D01*
X121285449Y-85792121D01*
X121188071Y-85832457D01*
X121188071Y-84600000D01*
X121175811Y-84475518D01*
X121139501Y-84355820D01*
X121080536Y-84245506D01*
X121001184Y-84148815D01*
X120904493Y-84069463D01*
X120794179Y-84010498D01*
X120674481Y-83974188D01*
X120549999Y-83961928D01*
X118869315Y-83961928D01*
X118917205Y-83890256D01*
X118995226Y-83701898D01*
X119035000Y-83501939D01*
X119035000Y-83298061D01*
X118995226Y-83098102D01*
X118921561Y-82920260D01*
X120902115Y-82526303D01*
X122837561Y-81724615D01*
X124579417Y-80560744D01*
X126060744Y-79079417D01*
X126768543Y-78020122D01*
X126915000Y-78166579D01*
G37*
X126915000Y-78166579D02*
X126914999Y-92558422D01*
X126488238Y-92985183D01*
X126260000Y-93007663D01*
X126260000Y-88837322D01*
X126263676Y-88799999D01*
X126260000Y-88762676D01*
X126260000Y-88762667D01*
X126249003Y-88651014D01*
X126205546Y-88507753D01*
X126134974Y-88375724D01*
X126040001Y-88259999D01*
X126011003Y-88236201D01*
X125335000Y-87560199D01*
X125335000Y-87498061D01*
X125295226Y-87298102D01*
X125217205Y-87109744D01*
X125103937Y-86940226D01*
X124959774Y-86796063D01*
X124790256Y-86682795D01*
X124601898Y-86604774D01*
X124401939Y-86565000D01*
X124198061Y-86565000D01*
X123998102Y-86604774D01*
X123809744Y-86682795D01*
X123640226Y-86796063D01*
X123496063Y-86940226D01*
X123382795Y-87109744D01*
X123304774Y-87298102D01*
X123265000Y-87498061D01*
X123265000Y-87701939D01*
X123304774Y-87901898D01*
X123382795Y-88090256D01*
X123496063Y-88259774D01*
X123640226Y-88403937D01*
X123809744Y-88517205D01*
X123998102Y-88595226D01*
X124198061Y-88635000D01*
X124260199Y-88635000D01*
X124740001Y-89114803D01*
X124740000Y-92986928D01*
X124238507Y-92986928D01*
X121188071Y-89936493D01*
X121188071Y-87742237D01*
X121285449Y-87782573D01*
X121485408Y-87822347D01*
X121540001Y-87822347D01*
X121540001Y-88096288D01*
X121496063Y-88140226D01*
X121382795Y-88309744D01*
X121304774Y-88498102D01*
X121265000Y-88698061D01*
X121265000Y-88901939D01*
X121304774Y-89101898D01*
X121382795Y-89290256D01*
X121496063Y-89459774D01*
X121640226Y-89603937D01*
X121809744Y-89717205D01*
X121998102Y-89795226D01*
X122198061Y-89835000D01*
X122401939Y-89835000D01*
X122601898Y-89795226D01*
X122790256Y-89717205D01*
X122959774Y-89603937D01*
X123103937Y-89459774D01*
X123217205Y-89290256D01*
X123295226Y-89101898D01*
X123335000Y-88901939D01*
X123335000Y-88698061D01*
X123295226Y-88498102D01*
X123217205Y-88309744D01*
X123103937Y-88140226D01*
X123060000Y-88096289D01*
X123060000Y-87537333D01*
X123063677Y-87500000D01*
X123055178Y-87413704D01*
X123049003Y-87351014D01*
X123005546Y-87207753D01*
X122934974Y-87075724D01*
X122840001Y-86959999D01*
X122811002Y-86936201D01*
X122622347Y-86747545D01*
X122622347Y-86685408D01*
X122582573Y-86485449D01*
X122504552Y-86297091D01*
X122391284Y-86127573D01*
X122247121Y-85983410D01*
X122077603Y-85870142D01*
X121889245Y-85792121D01*
X121689286Y-85752347D01*
X121485408Y-85752347D01*
X121285449Y-85792121D01*
X121188071Y-85832457D01*
X121188071Y-84600000D01*
X121175811Y-84475518D01*
X121139501Y-84355820D01*
X121080536Y-84245506D01*
X121001184Y-84148815D01*
X120904493Y-84069463D01*
X120794179Y-84010498D01*
X120674481Y-83974188D01*
X120549999Y-83961928D01*
X118869315Y-83961928D01*
X118917205Y-83890256D01*
X118995226Y-83701898D01*
X119035000Y-83501939D01*
X119035000Y-83298061D01*
X118995226Y-83098102D01*
X118921561Y-82920260D01*
X120902115Y-82526303D01*
X122837561Y-81724615D01*
X124579417Y-80560744D01*
X126060744Y-79079417D01*
X126768543Y-78020122D01*
X126915000Y-78166579D01*
M02*
