G04 #@! TF.GenerationSoftware,KiCad,Pcbnew,(5.1.5)-3*
G04 #@! TF.CreationDate,2021-04-12T22:21:49+08:00*
G04 #@! TF.ProjectId,parasite,70617261-7369-4746-952e-6b696361645f,1.1.0*
G04 #@! TF.SameCoordinates,Original*
G04 #@! TF.FileFunction,Legend,Top*
G04 #@! TF.FilePolarity,Positive*
%FSLAX46Y46*%
G04 Gerber Fmt 4.6, Leading zero omitted, Abs format (unit mm)*
G04 Created by KiCad (PCBNEW (5.1.5)-3) date 2021-04-12 22:21:49*
%MOMM*%
%LPD*%
G04 APERTURE LIST*
%ADD10C,0.250000*%
%ADD11C,0.150000*%
%ADD12C,0.120000*%
%ADD13C,0.125000*%
G04 APERTURE END LIST*
D10*
X130122308Y-56166388D02*
X130693736Y-56166388D01*
X130408022Y-57166388D02*
X130408022Y-56166388D01*
X130931832Y-56166388D02*
X131598498Y-57166388D01*
X131598498Y-56166388D02*
X130931832Y-57166388D01*
X130717546Y-58916388D02*
X130384213Y-58440198D01*
X130146117Y-58916388D02*
X130146117Y-57916388D01*
X130527070Y-57916388D01*
X130622308Y-57964008D01*
X130669927Y-58011627D01*
X130717546Y-58106865D01*
X130717546Y-58249722D01*
X130669927Y-58344960D01*
X130622308Y-58392579D01*
X130527070Y-58440198D01*
X130146117Y-58440198D01*
X131050879Y-57916388D02*
X131717546Y-58916388D01*
X131717546Y-57916388D02*
X131050879Y-58916388D01*
D11*
X114352380Y-63352380D02*
X114352380Y-62352380D01*
X114352380Y-62828571D02*
X114923809Y-62828571D01*
X114923809Y-63352380D02*
X114923809Y-62352380D01*
X115400000Y-63352380D02*
X115400000Y-62685714D01*
X115400000Y-62352380D02*
X115352380Y-62400000D01*
X115400000Y-62447619D01*
X115447619Y-62400000D01*
X115400000Y-62352380D01*
X115400000Y-62447619D01*
X116495238Y-62685714D02*
X116876190Y-62685714D01*
X116638095Y-62352380D02*
X116638095Y-63209523D01*
X116685714Y-63304761D01*
X116780952Y-63352380D01*
X116876190Y-63352380D01*
X117209523Y-63352380D02*
X117209523Y-62352380D01*
X117638095Y-63352380D02*
X117638095Y-62828571D01*
X117590476Y-62733333D01*
X117495238Y-62685714D01*
X117352380Y-62685714D01*
X117257142Y-62733333D01*
X117209523Y-62780952D01*
X118495238Y-63304761D02*
X118400000Y-63352380D01*
X118209523Y-63352380D01*
X118114285Y-63304761D01*
X118066666Y-63209523D01*
X118066666Y-62828571D01*
X118114285Y-62733333D01*
X118209523Y-62685714D01*
X118400000Y-62685714D01*
X118495238Y-62733333D01*
X118542857Y-62828571D01*
X118542857Y-62923809D01*
X118066666Y-63019047D01*
X118971428Y-63352380D02*
X118971428Y-62685714D01*
X118971428Y-62876190D02*
X119019047Y-62780952D01*
X119066666Y-62733333D01*
X119161904Y-62685714D01*
X119257142Y-62685714D01*
X119971428Y-63304761D02*
X119876190Y-63352380D01*
X119685714Y-63352380D01*
X119590476Y-63304761D01*
X119542857Y-63209523D01*
X119542857Y-62828571D01*
X119590476Y-62733333D01*
X119685714Y-62685714D01*
X119876190Y-62685714D01*
X119971428Y-62733333D01*
X120019047Y-62828571D01*
X120019047Y-62923809D01*
X119542857Y-63019047D01*
X120447619Y-63257142D02*
X120495238Y-63304761D01*
X120447619Y-63352380D01*
X120400000Y-63304761D01*
X120447619Y-63257142D01*
X120447619Y-63352380D01*
X120447619Y-62971428D02*
X120400000Y-62400000D01*
X120447619Y-62352380D01*
X120495238Y-62400000D01*
X120447619Y-62971428D01*
X120447619Y-62352380D01*
D12*
X128200000Y-62500000D02*
G75*
G03X128200000Y-62500000I-200000J0D01*
G01*
X108200000Y-54800000D02*
G75*
G03X108200000Y-54800000I-200000J0D01*
G01*
X108200000Y-49800000D02*
G75*
G03X108200000Y-49800000I-200000J0D01*
G01*
X108200000Y-51000000D02*
G75*
G03X108200000Y-51000000I-200000J0D01*
G01*
X108200000Y-52400000D02*
G75*
G03X108200000Y-52400000I-200000J0D01*
G01*
X108200000Y-53600000D02*
G75*
G03X108200000Y-53600000I-200000J0D01*
G01*
X112400000Y-68800000D02*
G75*
G03X112400000Y-68800000I-200000J0D01*
G01*
X128200000Y-66200000D02*
G75*
G03X128200000Y-66200000I-200000J0D01*
G01*
X128200000Y-63800000D02*
G75*
G03X128200000Y-63800000I-200000J0D01*
G01*
X128200000Y-54800000D02*
G75*
G03X128200000Y-54800000I-200000J0D01*
G01*
X128200000Y-53600000D02*
G75*
G03X128200000Y-53600000I-200000J0D01*
G01*
X128200000Y-49800000D02*
G75*
G03X128200000Y-49800000I-200000J0D01*
G01*
X106500000Y-99000000D02*
X129500000Y-99000000D01*
X131632000Y-85658000D02*
X130302000Y-85658000D01*
X131632000Y-84328000D02*
X131632000Y-85658000D01*
X131632000Y-83058000D02*
X128972000Y-83058000D01*
X128972000Y-83058000D02*
X128972000Y-80458000D01*
X131632000Y-83058000D02*
X131632000Y-80458000D01*
X131632000Y-80458000D02*
X128972000Y-80458000D01*
X129480000Y-50105000D02*
X130810000Y-50105000D01*
X129480000Y-51435000D02*
X129480000Y-50105000D01*
X129480000Y-52705000D02*
X132140000Y-52705000D01*
X132140000Y-52705000D02*
X132140000Y-55305000D01*
X129480000Y-52705000D02*
X129480000Y-55305000D01*
X129480000Y-55305000D02*
X132140000Y-55305000D01*
X132850000Y-69100000D02*
X132850000Y-62900000D01*
X129150000Y-62900000D02*
X129150000Y-69100000D01*
X129150000Y-69100000D02*
X129800000Y-69100000D01*
X132200000Y-69100000D02*
X132850000Y-69100000D01*
X132850000Y-62900000D02*
X132200000Y-62900000D01*
X129150000Y-62900000D02*
X129800000Y-62900000D01*
X106850000Y-69100000D02*
X106850000Y-62900000D01*
X103150000Y-62900000D02*
X103150000Y-69100000D01*
X103150000Y-69100000D02*
X103800000Y-69100000D01*
X106200000Y-69100000D02*
X106850000Y-69100000D01*
X106850000Y-62900000D02*
X106200000Y-62900000D01*
X103150000Y-62900000D02*
X103800000Y-62900000D01*
X108880000Y-67100000D02*
X108880000Y-67880000D01*
X108880000Y-67880000D02*
X109880000Y-67880000D01*
X127120000Y-67100000D02*
X127120000Y-67880000D01*
X127120000Y-67880000D02*
X126120000Y-67880000D01*
X108880000Y-42135000D02*
X127120000Y-42135000D01*
X127120000Y-42135000D02*
X127120000Y-48555000D01*
X108880000Y-42135000D02*
X108880000Y-48555000D01*
X108880000Y-48555000D02*
X108500000Y-48555000D01*
X116890000Y-74278922D02*
X116890000Y-74796078D01*
X118310000Y-74278922D02*
X118310000Y-74796078D01*
X115510000Y-74921078D02*
X115510000Y-74403922D01*
X114090000Y-74921078D02*
X114090000Y-74403922D01*
X111580000Y-92740000D02*
X111580000Y-94200000D01*
X108420000Y-92740000D02*
X108420000Y-94900000D01*
X108420000Y-92740000D02*
X109350000Y-92740000D01*
X111580000Y-92740000D02*
X110650000Y-92740000D01*
X108530000Y-89240000D02*
X108530000Y-90700000D01*
X105370000Y-89240000D02*
X105370000Y-91400000D01*
X105370000Y-89240000D02*
X106300000Y-89240000D01*
X108530000Y-89240000D02*
X107600000Y-89240000D01*
X117741422Y-94210000D02*
X118258578Y-94210000D01*
X117741422Y-92790000D02*
X118258578Y-92790000D01*
X120710000Y-86196078D02*
X120710000Y-85678922D01*
X119290000Y-86196078D02*
X119290000Y-85678922D01*
X113247500Y-85003922D02*
X113247500Y-85521078D01*
X111827500Y-85003922D02*
X111827500Y-85521078D01*
X114403922Y-78490000D02*
X114921078Y-78490000D01*
X114403922Y-79910000D02*
X114921078Y-79910000D01*
X118821078Y-78490000D02*
X118303922Y-78490000D01*
X118821078Y-79910000D02*
X118303922Y-79910000D01*
X123300000Y-87600000D02*
X123300000Y-91900000D01*
X123300000Y-91900000D02*
X125300000Y-91900000D01*
X125300000Y-91900000D02*
X125300000Y-87600000D01*
X122100000Y-77200000D02*
X120900000Y-77200000D01*
X120900000Y-77200000D02*
X120900000Y-74500000D01*
X125700000Y-73200000D02*
X125700000Y-77200000D01*
X125700000Y-77200000D02*
X124500000Y-77200000D01*
X125010000Y-84421078D02*
X125010000Y-83903922D01*
X123590000Y-84421078D02*
X123590000Y-83903922D01*
X106710000Y-50287422D02*
X106710000Y-50804578D01*
X105290000Y-50287422D02*
X105290000Y-50804578D01*
X110910000Y-85003922D02*
X110910000Y-85521078D01*
X109490000Y-85003922D02*
X109490000Y-85521078D01*
X120710000Y-90258578D02*
X120710000Y-89741422D01*
X119290000Y-90258578D02*
X119290000Y-89741422D01*
X112710000Y-90196078D02*
X112710000Y-89678922D01*
X111290000Y-90196078D02*
X111290000Y-89678922D01*
X115290000Y-86196078D02*
X115290000Y-85678922D01*
X116710000Y-86196078D02*
X116710000Y-85678922D01*
X121300000Y-96500000D02*
G75*
G03X121300000Y-96500000I-700000J0D01*
G01*
X106700000Y-53340000D02*
G75*
G03X106700000Y-53340000I-700000J0D01*
G01*
X115290000Y-90321078D02*
X115290000Y-89803922D01*
X116710000Y-90321078D02*
X116710000Y-89803922D01*
X105290000Y-75258578D02*
X105290000Y-74741422D01*
X106710000Y-75258578D02*
X106710000Y-74741422D01*
X109490000Y-78958578D02*
X109490000Y-78441422D01*
X110910000Y-78958578D02*
X110910000Y-78441422D01*
X111580000Y-73640000D02*
X110650000Y-73640000D01*
X108420000Y-73640000D02*
X109350000Y-73640000D01*
X108420000Y-73640000D02*
X108420000Y-75800000D01*
X111580000Y-73640000D02*
X111580000Y-75100000D01*
D11*
X129968666Y-86110380D02*
X129968666Y-86824666D01*
X129921047Y-86967523D01*
X129825809Y-87062761D01*
X129682952Y-87110380D01*
X129587714Y-87110380D01*
X130349619Y-86110380D02*
X130968666Y-86110380D01*
X130635333Y-86491333D01*
X130778190Y-86491333D01*
X130873428Y-86538952D01*
X130921047Y-86586571D01*
X130968666Y-86681809D01*
X130968666Y-86919904D01*
X130921047Y-87015142D01*
X130873428Y-87062761D01*
X130778190Y-87110380D01*
X130492476Y-87110380D01*
X130397238Y-87062761D01*
X130349619Y-87015142D01*
X130476666Y-48557380D02*
X130476666Y-49271666D01*
X130429047Y-49414523D01*
X130333809Y-49509761D01*
X130190952Y-49557380D01*
X130095714Y-49557380D01*
X130905238Y-48652619D02*
X130952857Y-48605000D01*
X131048095Y-48557380D01*
X131286190Y-48557380D01*
X131381428Y-48605000D01*
X131429047Y-48652619D01*
X131476666Y-48747857D01*
X131476666Y-48843095D01*
X131429047Y-48985952D01*
X130857619Y-49557380D01*
X131476666Y-49557380D01*
X129666666Y-71404761D02*
X129809523Y-71452380D01*
X130047619Y-71452380D01*
X130142857Y-71404761D01*
X130190476Y-71357142D01*
X130238095Y-71261904D01*
X130238095Y-71166666D01*
X130190476Y-71071428D01*
X130142857Y-71023809D01*
X130047619Y-70976190D01*
X129857142Y-70928571D01*
X129761904Y-70880952D01*
X129714285Y-70833333D01*
X129666666Y-70738095D01*
X129666666Y-70642857D01*
X129714285Y-70547619D01*
X129761904Y-70500000D01*
X129857142Y-70452380D01*
X130095238Y-70452380D01*
X130238095Y-70500000D01*
X130571428Y-70452380D02*
X130809523Y-71452380D01*
X131000000Y-70738095D01*
X131190476Y-71452380D01*
X131428571Y-70452380D01*
X132333333Y-71452380D02*
X131761904Y-71452380D01*
X132047619Y-71452380D02*
X132047619Y-70452380D01*
X131952380Y-70595238D01*
X131857142Y-70690476D01*
X131761904Y-70738095D01*
X103764666Y-71364761D02*
X103907523Y-71412380D01*
X104145619Y-71412380D01*
X104240857Y-71364761D01*
X104288476Y-71317142D01*
X104336095Y-71221904D01*
X104336095Y-71126666D01*
X104288476Y-71031428D01*
X104240857Y-70983809D01*
X104145619Y-70936190D01*
X103955142Y-70888571D01*
X103859904Y-70840952D01*
X103812285Y-70793333D01*
X103764666Y-70698095D01*
X103764666Y-70602857D01*
X103812285Y-70507619D01*
X103859904Y-70460000D01*
X103955142Y-70412380D01*
X104193238Y-70412380D01*
X104336095Y-70460000D01*
X104669428Y-70412380D02*
X104907523Y-71412380D01*
X105098000Y-70698095D01*
X105288476Y-71412380D01*
X105526571Y-70412380D01*
X105859904Y-70507619D02*
X105907523Y-70460000D01*
X106002761Y-70412380D01*
X106240857Y-70412380D01*
X106336095Y-70460000D01*
X106383714Y-70507619D01*
X106431333Y-70602857D01*
X106431333Y-70698095D01*
X106383714Y-70840952D01*
X105812285Y-71412380D01*
X106431333Y-71412380D01*
X107842380Y-68263333D02*
X106842380Y-68263333D01*
X107556666Y-67930000D01*
X106842380Y-67596666D01*
X107842380Y-67596666D01*
X106842380Y-66930000D02*
X106842380Y-66739523D01*
X106890000Y-66644285D01*
X106985238Y-66549047D01*
X107175714Y-66501428D01*
X107509047Y-66501428D01*
X107699523Y-66549047D01*
X107794761Y-66644285D01*
X107842380Y-66739523D01*
X107842380Y-66930000D01*
X107794761Y-67025238D01*
X107699523Y-67120476D01*
X107509047Y-67168095D01*
X107175714Y-67168095D01*
X106985238Y-67120476D01*
X106890000Y-67025238D01*
X106842380Y-66930000D01*
X107842380Y-66072857D02*
X106842380Y-66072857D01*
X106842380Y-65834761D01*
X106890000Y-65691904D01*
X106985238Y-65596666D01*
X107080476Y-65549047D01*
X107270952Y-65501428D01*
X107413809Y-65501428D01*
X107604285Y-65549047D01*
X107699523Y-65596666D01*
X107794761Y-65691904D01*
X107842380Y-65834761D01*
X107842380Y-66072857D01*
X107842380Y-64549047D02*
X107842380Y-65120476D01*
X107842380Y-64834761D02*
X106842380Y-64834761D01*
X106985238Y-64930000D01*
X107080476Y-65025238D01*
X107128095Y-65120476D01*
X117433333Y-72652380D02*
X117100000Y-72176190D01*
X116861904Y-72652380D02*
X116861904Y-71652380D01*
X117242857Y-71652380D01*
X117338095Y-71700000D01*
X117385714Y-71747619D01*
X117433333Y-71842857D01*
X117433333Y-71985714D01*
X117385714Y-72080952D01*
X117338095Y-72128571D01*
X117242857Y-72176190D01*
X116861904Y-72176190D01*
X118004761Y-72080952D02*
X117909523Y-72033333D01*
X117861904Y-71985714D01*
X117814285Y-71890476D01*
X117814285Y-71842857D01*
X117861904Y-71747619D01*
X117909523Y-71700000D01*
X118004761Y-71652380D01*
X118195238Y-71652380D01*
X118290476Y-71700000D01*
X118338095Y-71747619D01*
X118385714Y-71842857D01*
X118385714Y-71890476D01*
X118338095Y-71985714D01*
X118290476Y-72033333D01*
X118195238Y-72080952D01*
X118004761Y-72080952D01*
X117909523Y-72128571D01*
X117861904Y-72176190D01*
X117814285Y-72271428D01*
X117814285Y-72461904D01*
X117861904Y-72557142D01*
X117909523Y-72604761D01*
X118004761Y-72652380D01*
X118195238Y-72652380D01*
X118290476Y-72604761D01*
X118338095Y-72557142D01*
X118385714Y-72461904D01*
X118385714Y-72271428D01*
X118338095Y-72176190D01*
X118290476Y-72128571D01*
X118195238Y-72080952D01*
X114633333Y-72852380D02*
X114300000Y-72376190D01*
X114061904Y-72852380D02*
X114061904Y-71852380D01*
X114442857Y-71852380D01*
X114538095Y-71900000D01*
X114585714Y-71947619D01*
X114633333Y-72042857D01*
X114633333Y-72185714D01*
X114585714Y-72280952D01*
X114538095Y-72328571D01*
X114442857Y-72376190D01*
X114061904Y-72376190D01*
X114966666Y-71852380D02*
X115633333Y-71852380D01*
X115204761Y-72852380D01*
X108047619Y-93595238D02*
X108000000Y-93690476D01*
X107904761Y-93785714D01*
X107761904Y-93928571D01*
X107714285Y-94023809D01*
X107714285Y-94119047D01*
X107952380Y-94071428D02*
X107904761Y-94166666D01*
X107809523Y-94261904D01*
X107619047Y-94309523D01*
X107285714Y-94309523D01*
X107095238Y-94261904D01*
X107000000Y-94166666D01*
X106952380Y-94071428D01*
X106952380Y-93880952D01*
X107000000Y-93785714D01*
X107095238Y-93690476D01*
X107285714Y-93642857D01*
X107619047Y-93642857D01*
X107809523Y-93690476D01*
X107904761Y-93785714D01*
X107952380Y-93880952D01*
X107952380Y-94071428D01*
X107047619Y-93261904D02*
X107000000Y-93214285D01*
X106952380Y-93119047D01*
X106952380Y-92880952D01*
X107000000Y-92785714D01*
X107047619Y-92738095D01*
X107142857Y-92690476D01*
X107238095Y-92690476D01*
X107380952Y-92738095D01*
X107952380Y-93309523D01*
X107952380Y-92690476D01*
X104997619Y-91095238D02*
X104950000Y-91190476D01*
X104854761Y-91285714D01*
X104711904Y-91428571D01*
X104664285Y-91523809D01*
X104664285Y-91619047D01*
X104902380Y-91571428D02*
X104854761Y-91666666D01*
X104759523Y-91761904D01*
X104569047Y-91809523D01*
X104235714Y-91809523D01*
X104045238Y-91761904D01*
X103950000Y-91666666D01*
X103902380Y-91571428D01*
X103902380Y-91380952D01*
X103950000Y-91285714D01*
X104045238Y-91190476D01*
X104235714Y-91142857D01*
X104569047Y-91142857D01*
X104759523Y-91190476D01*
X104854761Y-91285714D01*
X104902380Y-91380952D01*
X104902380Y-91571428D01*
X104902380Y-90190476D02*
X104902380Y-90761904D01*
X104902380Y-90476190D02*
X103902380Y-90476190D01*
X104045238Y-90571428D01*
X104140476Y-90666666D01*
X104188095Y-90761904D01*
D12*
X116533333Y-95385714D02*
X116495238Y-95423809D01*
X116380952Y-95461904D01*
X116304761Y-95461904D01*
X116190476Y-95423809D01*
X116114285Y-95347619D01*
X116076190Y-95271428D01*
X116038095Y-95119047D01*
X116038095Y-95004761D01*
X116076190Y-94852380D01*
X116114285Y-94776190D01*
X116190476Y-94700000D01*
X116304761Y-94661904D01*
X116380952Y-94661904D01*
X116495238Y-94700000D01*
X116533333Y-94738095D01*
X116876190Y-94928571D02*
X116876190Y-95728571D01*
X116876190Y-94966666D02*
X116952380Y-94928571D01*
X117104761Y-94928571D01*
X117180952Y-94966666D01*
X117219047Y-95004761D01*
X117257142Y-95080952D01*
X117257142Y-95309523D01*
X117219047Y-95385714D01*
X117180952Y-95423809D01*
X117104761Y-95461904D01*
X116952380Y-95461904D01*
X116876190Y-95423809D01*
X117942857Y-95461904D02*
X117942857Y-95042857D01*
X117904761Y-94966666D01*
X117828571Y-94928571D01*
X117676190Y-94928571D01*
X117600000Y-94966666D01*
X117942857Y-95423809D02*
X117866666Y-95461904D01*
X117676190Y-95461904D01*
X117600000Y-95423809D01*
X117561904Y-95347619D01*
X117561904Y-95271428D01*
X117600000Y-95195238D01*
X117676190Y-95157142D01*
X117866666Y-95157142D01*
X117942857Y-95119047D01*
X118323809Y-95461904D02*
X118323809Y-94928571D01*
X118323809Y-95080952D02*
X118361904Y-95004761D01*
X118400000Y-94966666D01*
X118476190Y-94928571D01*
X118552380Y-94928571D01*
X119161904Y-95461904D02*
X119161904Y-95042857D01*
X119123809Y-94966666D01*
X119047619Y-94928571D01*
X118895238Y-94928571D01*
X118819047Y-94966666D01*
X119161904Y-95423809D02*
X119085714Y-95461904D01*
X118895238Y-95461904D01*
X118819047Y-95423809D01*
X118780952Y-95347619D01*
X118780952Y-95271428D01*
X118819047Y-95195238D01*
X118895238Y-95157142D01*
X119085714Y-95157142D01*
X119161904Y-95119047D01*
X119961904Y-95461904D02*
X119504761Y-95461904D01*
X119733333Y-95461904D02*
X119733333Y-94661904D01*
X119657142Y-94776190D01*
X119580952Y-94852380D01*
X119504761Y-94890476D01*
D11*
X118707142Y-86104166D02*
X118754761Y-86151785D01*
X118802380Y-86294642D01*
X118802380Y-86389880D01*
X118754761Y-86532738D01*
X118659523Y-86627976D01*
X118564285Y-86675595D01*
X118373809Y-86723214D01*
X118230952Y-86723214D01*
X118040476Y-86675595D01*
X117945238Y-86627976D01*
X117850000Y-86532738D01*
X117802380Y-86389880D01*
X117802380Y-86294642D01*
X117850000Y-86151785D01*
X117897619Y-86104166D01*
X118802380Y-85151785D02*
X118802380Y-85723214D01*
X118802380Y-85437500D02*
X117802380Y-85437500D01*
X117945238Y-85532738D01*
X118040476Y-85627976D01*
X118088095Y-85723214D01*
X112233333Y-83357142D02*
X112185714Y-83404761D01*
X112042857Y-83452380D01*
X111947619Y-83452380D01*
X111804761Y-83404761D01*
X111709523Y-83309523D01*
X111661904Y-83214285D01*
X111614285Y-83023809D01*
X111614285Y-82880952D01*
X111661904Y-82690476D01*
X111709523Y-82595238D01*
X111804761Y-82500000D01*
X111947619Y-82452380D01*
X112042857Y-82452380D01*
X112185714Y-82500000D01*
X112233333Y-82547619D01*
X112614285Y-82547619D02*
X112661904Y-82500000D01*
X112757142Y-82452380D01*
X112995238Y-82452380D01*
X113090476Y-82500000D01*
X113138095Y-82547619D01*
X113185714Y-82642857D01*
X113185714Y-82738095D01*
X113138095Y-82880952D01*
X112566666Y-83452380D01*
X113185714Y-83452380D01*
X114495833Y-77907142D02*
X114448214Y-77954761D01*
X114305357Y-78002380D01*
X114210119Y-78002380D01*
X114067261Y-77954761D01*
X113972023Y-77859523D01*
X113924404Y-77764285D01*
X113876785Y-77573809D01*
X113876785Y-77430952D01*
X113924404Y-77240476D01*
X113972023Y-77145238D01*
X114067261Y-77050000D01*
X114210119Y-77002380D01*
X114305357Y-77002380D01*
X114448214Y-77050000D01*
X114495833Y-77097619D01*
X114829166Y-77002380D02*
X115448214Y-77002380D01*
X115114880Y-77383333D01*
X115257738Y-77383333D01*
X115352976Y-77430952D01*
X115400595Y-77478571D01*
X115448214Y-77573809D01*
X115448214Y-77811904D01*
X115400595Y-77907142D01*
X115352976Y-77954761D01*
X115257738Y-78002380D01*
X114972023Y-78002380D01*
X114876785Y-77954761D01*
X114829166Y-77907142D01*
X118395833Y-81207142D02*
X118348214Y-81254761D01*
X118205357Y-81302380D01*
X118110119Y-81302380D01*
X117967261Y-81254761D01*
X117872023Y-81159523D01*
X117824404Y-81064285D01*
X117776785Y-80873809D01*
X117776785Y-80730952D01*
X117824404Y-80540476D01*
X117872023Y-80445238D01*
X117967261Y-80350000D01*
X118110119Y-80302380D01*
X118205357Y-80302380D01*
X118348214Y-80350000D01*
X118395833Y-80397619D01*
X119252976Y-80635714D02*
X119252976Y-81302380D01*
X119014880Y-80254761D02*
X118776785Y-80969047D01*
X119395833Y-80969047D01*
X122752380Y-90088095D02*
X121752380Y-90088095D01*
X121752380Y-89850000D01*
X121800000Y-89707142D01*
X121895238Y-89611904D01*
X121990476Y-89564285D01*
X122180952Y-89516666D01*
X122323809Y-89516666D01*
X122514285Y-89564285D01*
X122609523Y-89611904D01*
X122704761Y-89707142D01*
X122752380Y-89850000D01*
X122752380Y-90088095D01*
X122752380Y-88564285D02*
X122752380Y-89135714D01*
X122752380Y-88850000D02*
X121752380Y-88850000D01*
X121895238Y-88945238D01*
X121990476Y-89040476D01*
X122038095Y-89135714D01*
X127052380Y-76036666D02*
X127052380Y-76512857D01*
X126052380Y-76512857D01*
X127052380Y-75179523D02*
X127052380Y-75750952D01*
X127052380Y-75465238D02*
X126052380Y-75465238D01*
X126195238Y-75560476D01*
X126290476Y-75655714D01*
X126338095Y-75750952D01*
X123102380Y-84329166D02*
X122626190Y-84662500D01*
X123102380Y-84900595D02*
X122102380Y-84900595D01*
X122102380Y-84519642D01*
X122150000Y-84424404D01*
X122197619Y-84376785D01*
X122292857Y-84329166D01*
X122435714Y-84329166D01*
X122530952Y-84376785D01*
X122578571Y-84424404D01*
X122626190Y-84519642D01*
X122626190Y-84900595D01*
X123102380Y-83376785D02*
X123102380Y-83948214D01*
X123102380Y-83662500D02*
X122102380Y-83662500D01*
X122245238Y-83757738D01*
X122340476Y-83852976D01*
X122388095Y-83948214D01*
X105833333Y-48735880D02*
X105500000Y-48259690D01*
X105261904Y-48735880D02*
X105261904Y-47735880D01*
X105642857Y-47735880D01*
X105738095Y-47783500D01*
X105785714Y-47831119D01*
X105833333Y-47926357D01*
X105833333Y-48069214D01*
X105785714Y-48164452D01*
X105738095Y-48212071D01*
X105642857Y-48259690D01*
X105261904Y-48259690D01*
X106214285Y-47831119D02*
X106261904Y-47783500D01*
X106357142Y-47735880D01*
X106595238Y-47735880D01*
X106690476Y-47783500D01*
X106738095Y-47831119D01*
X106785714Y-47926357D01*
X106785714Y-48021595D01*
X106738095Y-48164452D01*
X106166666Y-48735880D01*
X106785714Y-48735880D01*
X110033333Y-83452380D02*
X109700000Y-82976190D01*
X109461904Y-83452380D02*
X109461904Y-82452380D01*
X109842857Y-82452380D01*
X109938095Y-82500000D01*
X109985714Y-82547619D01*
X110033333Y-82642857D01*
X110033333Y-82785714D01*
X109985714Y-82880952D01*
X109938095Y-82928571D01*
X109842857Y-82976190D01*
X109461904Y-82976190D01*
X110366666Y-82452380D02*
X110985714Y-82452380D01*
X110652380Y-82833333D01*
X110795238Y-82833333D01*
X110890476Y-82880952D01*
X110938095Y-82928571D01*
X110985714Y-83023809D01*
X110985714Y-83261904D01*
X110938095Y-83357142D01*
X110890476Y-83404761D01*
X110795238Y-83452380D01*
X110509523Y-83452380D01*
X110414285Y-83404761D01*
X110366666Y-83357142D01*
X118802380Y-90166666D02*
X118326190Y-90500000D01*
X118802380Y-90738095D02*
X117802380Y-90738095D01*
X117802380Y-90357142D01*
X117850000Y-90261904D01*
X117897619Y-90214285D01*
X117992857Y-90166666D01*
X118135714Y-90166666D01*
X118230952Y-90214285D01*
X118278571Y-90261904D01*
X118326190Y-90357142D01*
X118326190Y-90738095D01*
X118135714Y-89309523D02*
X118802380Y-89309523D01*
X117754761Y-89547619D02*
X118469047Y-89785714D01*
X118469047Y-89166666D01*
X110802380Y-90104166D02*
X110326190Y-90437500D01*
X110802380Y-90675595D02*
X109802380Y-90675595D01*
X109802380Y-90294642D01*
X109850000Y-90199404D01*
X109897619Y-90151785D01*
X109992857Y-90104166D01*
X110135714Y-90104166D01*
X110230952Y-90151785D01*
X110278571Y-90199404D01*
X110326190Y-90294642D01*
X110326190Y-90675595D01*
X109802380Y-89199404D02*
X109802380Y-89675595D01*
X110278571Y-89723214D01*
X110230952Y-89675595D01*
X110183333Y-89580357D01*
X110183333Y-89342261D01*
X110230952Y-89247023D01*
X110278571Y-89199404D01*
X110373809Y-89151785D01*
X110611904Y-89151785D01*
X110707142Y-89199404D01*
X110754761Y-89247023D01*
X110802380Y-89342261D01*
X110802380Y-89580357D01*
X110754761Y-89675595D01*
X110707142Y-89723214D01*
X114802380Y-86104166D02*
X114326190Y-86437500D01*
X114802380Y-86675595D02*
X113802380Y-86675595D01*
X113802380Y-86294642D01*
X113850000Y-86199404D01*
X113897619Y-86151785D01*
X113992857Y-86104166D01*
X114135714Y-86104166D01*
X114230952Y-86151785D01*
X114278571Y-86199404D01*
X114326190Y-86294642D01*
X114326190Y-86675595D01*
X113802380Y-85247023D02*
X113802380Y-85437500D01*
X113850000Y-85532738D01*
X113897619Y-85580357D01*
X114040476Y-85675595D01*
X114230952Y-85723214D01*
X114611904Y-85723214D01*
X114707142Y-85675595D01*
X114754761Y-85627976D01*
X114802380Y-85532738D01*
X114802380Y-85342261D01*
X114754761Y-85247023D01*
X114707142Y-85199404D01*
X114611904Y-85151785D01*
X114373809Y-85151785D01*
X114278571Y-85199404D01*
X114230952Y-85247023D01*
X114183333Y-85342261D01*
X114183333Y-85532738D01*
X114230952Y-85627976D01*
X114278571Y-85675595D01*
X114373809Y-85723214D01*
X119004761Y-98407142D02*
X118957142Y-98454761D01*
X118814285Y-98502380D01*
X118719047Y-98502380D01*
X118576190Y-98454761D01*
X118480952Y-98359523D01*
X118433333Y-98264285D01*
X118385714Y-98073809D01*
X118385714Y-97930952D01*
X118433333Y-97740476D01*
X118480952Y-97645238D01*
X118576190Y-97550000D01*
X118719047Y-97502380D01*
X118814285Y-97502380D01*
X118957142Y-97550000D01*
X119004761Y-97597619D01*
X119385714Y-98454761D02*
X119480952Y-98502380D01*
X119671428Y-98502380D01*
X119766666Y-98454761D01*
X119814285Y-98359523D01*
X119814285Y-98311904D01*
X119766666Y-98216666D01*
X119671428Y-98169047D01*
X119528571Y-98169047D01*
X119433333Y-98121428D01*
X119385714Y-98026190D01*
X119385714Y-97978571D01*
X119433333Y-97883333D01*
X119528571Y-97835714D01*
X119671428Y-97835714D01*
X119766666Y-97883333D01*
X120623809Y-98454761D02*
X120528571Y-98502380D01*
X120338095Y-98502380D01*
X120242857Y-98454761D01*
X120195238Y-98359523D01*
X120195238Y-97978571D01*
X120242857Y-97883333D01*
X120338095Y-97835714D01*
X120528571Y-97835714D01*
X120623809Y-97883333D01*
X120671428Y-97978571D01*
X120671428Y-98073809D01*
X120195238Y-98169047D01*
X121100000Y-97835714D02*
X121100000Y-98502380D01*
X121100000Y-97930952D02*
X121147619Y-97883333D01*
X121242857Y-97835714D01*
X121385714Y-97835714D01*
X121480952Y-97883333D01*
X121528571Y-97978571D01*
X121528571Y-98502380D01*
X122004761Y-98121428D02*
X122766666Y-98121428D01*
X122385714Y-98502380D02*
X122385714Y-97740476D01*
D13*
X104176190Y-54173238D02*
X104676190Y-54006571D01*
X104176190Y-53839904D01*
X104652380Y-53697047D02*
X104676190Y-53649428D01*
X104676190Y-53554190D01*
X104652380Y-53506571D01*
X104604761Y-53482761D01*
X104580952Y-53482761D01*
X104533333Y-53506571D01*
X104509523Y-53554190D01*
X104509523Y-53625619D01*
X104485714Y-53673238D01*
X104438095Y-53697047D01*
X104414285Y-53697047D01*
X104366666Y-53673238D01*
X104342857Y-53625619D01*
X104342857Y-53554190D01*
X104366666Y-53506571D01*
X104652380Y-53078000D02*
X104676190Y-53125619D01*
X104676190Y-53220857D01*
X104652380Y-53268476D01*
X104604761Y-53292285D01*
X104414285Y-53292285D01*
X104366666Y-53268476D01*
X104342857Y-53220857D01*
X104342857Y-53125619D01*
X104366666Y-53078000D01*
X104414285Y-53054190D01*
X104461904Y-53054190D01*
X104509523Y-53292285D01*
X104342857Y-52839904D02*
X104676190Y-52839904D01*
X104390476Y-52839904D02*
X104366666Y-52816095D01*
X104342857Y-52768476D01*
X104342857Y-52697047D01*
X104366666Y-52649428D01*
X104414285Y-52625619D01*
X104676190Y-52625619D01*
X104723809Y-52506571D02*
X104723809Y-52125619D01*
X104676190Y-51935142D02*
X104652380Y-51982761D01*
X104628571Y-52006571D01*
X104580952Y-52030380D01*
X104438095Y-52030380D01*
X104390476Y-52006571D01*
X104366666Y-51982761D01*
X104342857Y-51935142D01*
X104342857Y-51863714D01*
X104366666Y-51816095D01*
X104390476Y-51792285D01*
X104438095Y-51768476D01*
X104580952Y-51768476D01*
X104628571Y-51792285D01*
X104652380Y-51816095D01*
X104676190Y-51863714D01*
X104676190Y-51935142D01*
X104342857Y-51339904D02*
X104676190Y-51339904D01*
X104342857Y-51554190D02*
X104604761Y-51554190D01*
X104652380Y-51530380D01*
X104676190Y-51482761D01*
X104676190Y-51411333D01*
X104652380Y-51363714D01*
X104628571Y-51339904D01*
X104342857Y-51173238D02*
X104342857Y-50982761D01*
X104176190Y-51101809D02*
X104604761Y-51101809D01*
X104652380Y-51078000D01*
X104676190Y-51030380D01*
X104676190Y-50982761D01*
D11*
X114707142Y-90229166D02*
X114754761Y-90276785D01*
X114802380Y-90419642D01*
X114802380Y-90514880D01*
X114754761Y-90657738D01*
X114659523Y-90752976D01*
X114564285Y-90800595D01*
X114373809Y-90848214D01*
X114230952Y-90848214D01*
X114040476Y-90800595D01*
X113945238Y-90752976D01*
X113850000Y-90657738D01*
X113802380Y-90514880D01*
X113802380Y-90419642D01*
X113850000Y-90276785D01*
X113897619Y-90229166D01*
X113802380Y-89372023D02*
X113802380Y-89562500D01*
X113850000Y-89657738D01*
X113897619Y-89705357D01*
X114040476Y-89800595D01*
X114230952Y-89848214D01*
X114611904Y-89848214D01*
X114707142Y-89800595D01*
X114754761Y-89752976D01*
X114802380Y-89657738D01*
X114802380Y-89467261D01*
X114754761Y-89372023D01*
X114707142Y-89324404D01*
X114611904Y-89276785D01*
X114373809Y-89276785D01*
X114278571Y-89324404D01*
X114230952Y-89372023D01*
X114183333Y-89467261D01*
X114183333Y-89657738D01*
X114230952Y-89752976D01*
X114278571Y-89800595D01*
X114373809Y-89848214D01*
X104707142Y-75166666D02*
X104754761Y-75214285D01*
X104802380Y-75357142D01*
X104802380Y-75452380D01*
X104754761Y-75595238D01*
X104659523Y-75690476D01*
X104564285Y-75738095D01*
X104373809Y-75785714D01*
X104230952Y-75785714D01*
X104040476Y-75738095D01*
X103945238Y-75690476D01*
X103850000Y-75595238D01*
X103802380Y-75452380D01*
X103802380Y-75357142D01*
X103850000Y-75214285D01*
X103897619Y-75166666D01*
X103802380Y-74261904D02*
X103802380Y-74738095D01*
X104278571Y-74785714D01*
X104230952Y-74738095D01*
X104183333Y-74642857D01*
X104183333Y-74404761D01*
X104230952Y-74309523D01*
X104278571Y-74261904D01*
X104373809Y-74214285D01*
X104611904Y-74214285D01*
X104707142Y-74261904D01*
X104754761Y-74309523D01*
X104802380Y-74404761D01*
X104802380Y-74642857D01*
X104754761Y-74738095D01*
X104707142Y-74785714D01*
X109002380Y-78866666D02*
X108526190Y-79200000D01*
X109002380Y-79438095D02*
X108002380Y-79438095D01*
X108002380Y-79057142D01*
X108050000Y-78961904D01*
X108097619Y-78914285D01*
X108192857Y-78866666D01*
X108335714Y-78866666D01*
X108430952Y-78914285D01*
X108478571Y-78961904D01*
X108526190Y-79057142D01*
X108526190Y-79438095D01*
X109002380Y-78390476D02*
X109002380Y-78200000D01*
X108954761Y-78104761D01*
X108907142Y-78057142D01*
X108764285Y-77961904D01*
X108573809Y-77914285D01*
X108192857Y-77914285D01*
X108097619Y-77961904D01*
X108050000Y-78009523D01*
X108002380Y-78104761D01*
X108002380Y-78295238D01*
X108050000Y-78390476D01*
X108097619Y-78438095D01*
X108192857Y-78485714D01*
X108430952Y-78485714D01*
X108526190Y-78438095D01*
X108573809Y-78390476D01*
X108621428Y-78295238D01*
X108621428Y-78104761D01*
X108573809Y-78009523D01*
X108526190Y-77961904D01*
X108430952Y-77914285D01*
X106952380Y-75161904D02*
X107761904Y-75161904D01*
X107857142Y-75114285D01*
X107904761Y-75066666D01*
X107952380Y-74971428D01*
X107952380Y-74780952D01*
X107904761Y-74685714D01*
X107857142Y-74638095D01*
X107761904Y-74590476D01*
X106952380Y-74590476D01*
X107952380Y-73590476D02*
X107952380Y-74161904D01*
X107952380Y-73876190D02*
X106952380Y-73876190D01*
X107095238Y-73971428D01*
X107190476Y-74066666D01*
X107238095Y-74161904D01*
M02*
