M48
; DRILL file {KiCad (5.1.5)-3} date 2021/3/30 星期二 1:11:36
; FORMAT={-:-/ absolute / inch / decimal}
; #@! TF.CreationDate,2021-03-30T01:11:36+08:00
; #@! TF.GenerationSoftware,Kicad,Pcbnew,(5.1.5)-3
; #@! TF.FileFunction,Plated,1,2,PTH
FMAT,2
INCH
T1C0.0157
T2C0.0295
%
G90
G05
T1
X4.1732Y-3.5827
X4.2087Y-2.1969
X4.3189Y-3.4843
X4.3425Y-2.8583
X4.3661Y-3.252
X4.4291Y-2.2835
X4.4291Y-3.2283
X4.4567Y-3.7835
X4.4961Y-3.4488
X4.5276Y-3.2835
X4.5669Y-3.5906
X4.5866Y-2.0591
X4.5898Y-2.0085
X4.6088Y-3.6811
X4.7869Y-3.4168
X4.815Y-3.4961
X4.8937Y-3.4488
X4.9409Y-3.8189
X4.9803Y-2.4585
X5.0236Y-3.0906
X5.0512Y-2.6575
X5.1181Y-2.1
X5.1181Y-2.2
T2
X4.9016Y-3.7205
X4.9803Y-3.7205
T0
M30
