M48
; DRILL file {KiCad (5.1.5)-3} date 2021/3/30 星期二 1:02:55
; FORMAT={-:-/ absolute / inch / decimal}
; #@! TF.CreationDate,2021-03-30T01:02:55+08:00
; #@! TF.GenerationSoftware,Kicad,Pcbnew,(5.1.5)-3
; #@! TF.FileFunction,Plated,1,2,PTH
FMAT,2
INCH
T1C0.0157
T2C0.0295
%
G90
G05
T1
X5.1232Y-2.2827
X5.1587Y-0.8969
X5.2689Y-2.1843
X5.2925Y-1.5583
X5.3161Y-1.952
X5.3791Y-0.9835
X5.3791Y-1.9283
X5.4067Y-2.4835
X5.4461Y-2.1488
X5.4776Y-1.9835
X5.5169Y-2.2906
X5.5366Y-0.7591
X5.5398Y-0.7085
X5.5588Y-2.3811
X5.7369Y-2.1168
X5.765Y-2.1961
X5.8437Y-2.1488
X5.8909Y-2.5189
X5.9303Y-1.1585
X5.9736Y-1.7906
X6.0012Y-1.3575
X6.0681Y-0.8
X6.0681Y-0.9
X6.3031Y-2.2835
X6.3386Y-0.8976
X6.4488Y-2.185
X6.4724Y-1.5591
X6.4961Y-1.9528
X6.5591Y-0.9843
X6.5591Y-1.9291
X6.5866Y-2.4843
X6.626Y-2.1496
X6.6575Y-1.9843
X6.6969Y-2.2913
X6.7165Y-0.7598
X6.7197Y-0.7093
X6.7387Y-2.3819
X6.9168Y-2.1176
X6.9449Y-2.1969
X7.0236Y-2.1496
X7.0709Y-2.5197
X7.1102Y-1.1593
X7.1535Y-1.7913
X7.1811Y-1.3583
X7.248Y-0.8008
X7.248Y-0.9008
X7.4862Y-2.2835
X7.5217Y-0.8976
X7.6319Y-2.185
X7.6555Y-1.5591
X7.6791Y-1.9528
X7.7421Y-0.9843
X7.7421Y-1.9291
X7.7697Y-2.4843
X7.8091Y-2.1496
X7.8406Y-1.9843
X7.8799Y-2.2913
X7.8996Y-0.7598
X7.9028Y-0.7093
X7.9218Y-2.3819
X8.0999Y-2.1176
X8.128Y-2.1969
X8.2067Y-2.1496
X8.2539Y-2.5197
X8.2933Y-1.1593
X8.3366Y-1.7913
X8.3642Y-1.3583
X8.4311Y-0.8008
X8.4311Y-0.9008
T2
X5.8516Y-2.4205
X5.9303Y-2.4205
X8.2146Y-2.4213
X8.2933Y-2.4213
X7.0315Y-2.4213
X7.1102Y-2.4213
T0
M30
