G04 #@! TF.GenerationSoftware,KiCad,Pcbnew,(5.1.5)-3*
G04 #@! TF.CreationDate,2021-03-30T01:03:12+08:00*
G04 #@! TF.ProjectId,panelize,70616e65-6c69-47a6-952e-6b696361645f,1.1.0*
G04 #@! TF.SameCoordinates,Original*
G04 #@! TF.FileFunction,Soldermask,Top*
G04 #@! TF.FilePolarity,Negative*
%FSLAX46Y46*%
G04 Gerber Fmt 4.6, Leading zero omitted, Abs format (unit mm)*
G04 Created by KiCad (PCBNEW (5.1.5)-3) date 2021-03-30 01:03:12*
%MOMM*%
%LPD*%
G04 APERTURE LIST*
%ADD10C,0.100000*%
G04 APERTURE END LIST*
D10*
G36*
X204910721Y-62970174D02*
G01*
X205010995Y-63011709D01*
X205010996Y-63011710D01*
X205101242Y-63072010D01*
X205177990Y-63148758D01*
X205177991Y-63148760D01*
X205238291Y-63239005D01*
X205279826Y-63339279D01*
X205301000Y-63445730D01*
X205301000Y-63554270D01*
X205279826Y-63660721D01*
X205238291Y-63760995D01*
X205238290Y-63760996D01*
X205177990Y-63851242D01*
X205101242Y-63927990D01*
X205055812Y-63958345D01*
X205010995Y-63988291D01*
X204910721Y-64029826D01*
X204804270Y-64051000D01*
X204695730Y-64051000D01*
X204589279Y-64029826D01*
X204489005Y-63988291D01*
X204444188Y-63958345D01*
X204398758Y-63927990D01*
X204322010Y-63851242D01*
X204261710Y-63760996D01*
X204261709Y-63760995D01*
X204220174Y-63660721D01*
X204199000Y-63554270D01*
X204199000Y-63445730D01*
X204220174Y-63339279D01*
X204261709Y-63239005D01*
X204322009Y-63148760D01*
X204322010Y-63148758D01*
X204398758Y-63072010D01*
X204489004Y-63011710D01*
X204489005Y-63011709D01*
X204589279Y-62970174D01*
X204695730Y-62949000D01*
X204804270Y-62949000D01*
X204910721Y-62970174D01*
G37*
G36*
X174860721Y-62970174D02*
G01*
X174960995Y-63011709D01*
X174960996Y-63011710D01*
X175051242Y-63072010D01*
X175127990Y-63148758D01*
X175127991Y-63148760D01*
X175188291Y-63239005D01*
X175229826Y-63339279D01*
X175251000Y-63445730D01*
X175251000Y-63554270D01*
X175229826Y-63660721D01*
X175188291Y-63760995D01*
X175188290Y-63760996D01*
X175127990Y-63851242D01*
X175051242Y-63927990D01*
X175005812Y-63958345D01*
X174960995Y-63988291D01*
X174860721Y-64029826D01*
X174754270Y-64051000D01*
X174645730Y-64051000D01*
X174539279Y-64029826D01*
X174439005Y-63988291D01*
X174394188Y-63958345D01*
X174348758Y-63927990D01*
X174272010Y-63851242D01*
X174211710Y-63760996D01*
X174211709Y-63760995D01*
X174170174Y-63660721D01*
X174149000Y-63554270D01*
X174149000Y-63445730D01*
X174170174Y-63339279D01*
X174211709Y-63239005D01*
X174272009Y-63148760D01*
X174272010Y-63148758D01*
X174348758Y-63072010D01*
X174439004Y-63011710D01*
X174439005Y-63011709D01*
X174539279Y-62970174D01*
X174645730Y-62949000D01*
X174754270Y-62949000D01*
X174860721Y-62970174D01*
G37*
G36*
X144890721Y-62950174D02*
G01*
X144990995Y-62991709D01*
X145035812Y-63021655D01*
X145081242Y-63052010D01*
X145157990Y-63128758D01*
X145157991Y-63128760D01*
X145218291Y-63219005D01*
X145259826Y-63319279D01*
X145281000Y-63425730D01*
X145281000Y-63534270D01*
X145259826Y-63640721D01*
X145218291Y-63740995D01*
X145218290Y-63740996D01*
X145157990Y-63831242D01*
X145081242Y-63907990D01*
X145051308Y-63927991D01*
X144990995Y-63968291D01*
X144890721Y-64009826D01*
X144784270Y-64031000D01*
X144675730Y-64031000D01*
X144569279Y-64009826D01*
X144469005Y-63968291D01*
X144408692Y-63927991D01*
X144378758Y-63907990D01*
X144302010Y-63831242D01*
X144241710Y-63740996D01*
X144241709Y-63740995D01*
X144200174Y-63640721D01*
X144179000Y-63534270D01*
X144179000Y-63425730D01*
X144200174Y-63319279D01*
X144241709Y-63219005D01*
X144302009Y-63128760D01*
X144302010Y-63128758D01*
X144378758Y-63052010D01*
X144424188Y-63021655D01*
X144469005Y-62991709D01*
X144569279Y-62950174D01*
X144675730Y-62929000D01*
X144784270Y-62929000D01*
X144890721Y-62950174D01*
G37*
G36*
X210777617Y-60583420D02*
G01*
X210834403Y-60600646D01*
X210900335Y-60620646D01*
X211013424Y-60681094D01*
X211112554Y-60762447D01*
X211193906Y-60861575D01*
X211254354Y-60974664D01*
X211255669Y-60979000D01*
X211291580Y-61097382D01*
X211301000Y-61193027D01*
X211301000Y-61806973D01*
X211291580Y-61902618D01*
X211267803Y-61981000D01*
X211254354Y-62025336D01*
X211193906Y-62138425D01*
X211112554Y-62237554D01*
X211013425Y-62318906D01*
X210900336Y-62379354D01*
X210880563Y-62385352D01*
X210777618Y-62416580D01*
X210650000Y-62429149D01*
X210522383Y-62416580D01*
X210419438Y-62385352D01*
X210399665Y-62379354D01*
X210286576Y-62318906D01*
X210187447Y-62237554D01*
X210106096Y-62138427D01*
X210106095Y-62138425D01*
X210045647Y-62025336D01*
X210045645Y-62025333D01*
X210032197Y-61981000D01*
X210008420Y-61902618D01*
X209999000Y-61806973D01*
X209999000Y-61193028D01*
X209999297Y-61190017D01*
X210005076Y-61131337D01*
X210008420Y-61097383D01*
X210045645Y-60974669D01*
X210045646Y-60974665D01*
X210106094Y-60861576D01*
X210187447Y-60762446D01*
X210286575Y-60681094D01*
X210399664Y-60620646D01*
X210465596Y-60600646D01*
X210522382Y-60583420D01*
X210650000Y-60570851D01*
X210777617Y-60583420D01*
G37*
G36*
X180727617Y-60583420D02*
G01*
X180784403Y-60600646D01*
X180850335Y-60620646D01*
X180963424Y-60681094D01*
X181062554Y-60762447D01*
X181143906Y-60861575D01*
X181204354Y-60974664D01*
X181205669Y-60979000D01*
X181241580Y-61097382D01*
X181251000Y-61193027D01*
X181251000Y-61806973D01*
X181241580Y-61902618D01*
X181217803Y-61981000D01*
X181204354Y-62025336D01*
X181143906Y-62138425D01*
X181062554Y-62237554D01*
X180963425Y-62318906D01*
X180850336Y-62379354D01*
X180830563Y-62385352D01*
X180727618Y-62416580D01*
X180600000Y-62429149D01*
X180472383Y-62416580D01*
X180369438Y-62385352D01*
X180349665Y-62379354D01*
X180236576Y-62318906D01*
X180137447Y-62237554D01*
X180056096Y-62138427D01*
X180056095Y-62138425D01*
X179995647Y-62025336D01*
X179995645Y-62025333D01*
X179982197Y-61981000D01*
X179958420Y-61902618D01*
X179949000Y-61806973D01*
X179949000Y-61193028D01*
X179949297Y-61190017D01*
X179955076Y-61131337D01*
X179958420Y-61097383D01*
X179995645Y-60974669D01*
X179995646Y-60974665D01*
X180056094Y-60861576D01*
X180137447Y-60762446D01*
X180236575Y-60681094D01*
X180349664Y-60620646D01*
X180415596Y-60600646D01*
X180472382Y-60583420D01*
X180600000Y-60570851D01*
X180727617Y-60583420D01*
G37*
G36*
X209141242Y-60578404D02*
G01*
X209178337Y-60589657D01*
X209212515Y-60607925D01*
X209242481Y-60632519D01*
X209267075Y-60662485D01*
X209285343Y-60696663D01*
X209296596Y-60733758D01*
X209301000Y-60778474D01*
X209301000Y-62221526D01*
X209296596Y-62266242D01*
X209285343Y-62303337D01*
X209267075Y-62337515D01*
X209242481Y-62367481D01*
X209212515Y-62392075D01*
X209178337Y-62410343D01*
X209141242Y-62421596D01*
X209096526Y-62426000D01*
X208203474Y-62426000D01*
X208158758Y-62421596D01*
X208121663Y-62410343D01*
X208087485Y-62392075D01*
X208057519Y-62367481D01*
X208032925Y-62337515D01*
X208014657Y-62303337D01*
X208003404Y-62266242D01*
X207999000Y-62221526D01*
X207999000Y-60778474D01*
X208003404Y-60733758D01*
X208014657Y-60696663D01*
X208032925Y-60662485D01*
X208057519Y-60632519D01*
X208087485Y-60607925D01*
X208121663Y-60589657D01*
X208158758Y-60578404D01*
X208203474Y-60574000D01*
X209096526Y-60574000D01*
X209141242Y-60578404D01*
G37*
G36*
X179091242Y-60578404D02*
G01*
X179128337Y-60589657D01*
X179162515Y-60607925D01*
X179192481Y-60632519D01*
X179217075Y-60662485D01*
X179235343Y-60696663D01*
X179246596Y-60733758D01*
X179251000Y-60778474D01*
X179251000Y-62221526D01*
X179246596Y-62266242D01*
X179235343Y-62303337D01*
X179217075Y-62337515D01*
X179192481Y-62367481D01*
X179162515Y-62392075D01*
X179128337Y-62410343D01*
X179091242Y-62421596D01*
X179046526Y-62426000D01*
X178153474Y-62426000D01*
X178108758Y-62421596D01*
X178071663Y-62410343D01*
X178037485Y-62392075D01*
X178007519Y-62367481D01*
X177982925Y-62337515D01*
X177964657Y-62303337D01*
X177953404Y-62266242D01*
X177949000Y-62221526D01*
X177949000Y-60778474D01*
X177953404Y-60733758D01*
X177964657Y-60696663D01*
X177982925Y-60662485D01*
X178007519Y-60632519D01*
X178037485Y-60607925D01*
X178071663Y-60589657D01*
X178108758Y-60578404D01*
X178153474Y-60574000D01*
X179046526Y-60574000D01*
X179091242Y-60578404D01*
G37*
G36*
X150757617Y-60563420D02*
G01*
X150848403Y-60590960D01*
X150880335Y-60600646D01*
X150993424Y-60661094D01*
X151092554Y-60742447D01*
X151173906Y-60841575D01*
X151234354Y-60954664D01*
X151236503Y-60961750D01*
X151271580Y-61077382D01*
X151281000Y-61173027D01*
X151281000Y-61786973D01*
X151271580Y-61882618D01*
X151265513Y-61902618D01*
X151234354Y-62005336D01*
X151173906Y-62118425D01*
X151092554Y-62217554D01*
X150993425Y-62298906D01*
X150880336Y-62359354D01*
X150853544Y-62367481D01*
X150757618Y-62396580D01*
X150630000Y-62409149D01*
X150502383Y-62396580D01*
X150406457Y-62367481D01*
X150379665Y-62359354D01*
X150266576Y-62298906D01*
X150167447Y-62217554D01*
X150086096Y-62118427D01*
X150086095Y-62118425D01*
X150036337Y-62025336D01*
X150025645Y-62005333D01*
X149994487Y-61902618D01*
X149988420Y-61882618D01*
X149979000Y-61786973D01*
X149979000Y-61173028D01*
X149979088Y-61172139D01*
X149985076Y-61111337D01*
X149988420Y-61077383D01*
X150019579Y-60974665D01*
X150025646Y-60954665D01*
X150086094Y-60841576D01*
X150167447Y-60742446D01*
X150266575Y-60661094D01*
X150379664Y-60600646D01*
X150411596Y-60590960D01*
X150502382Y-60563420D01*
X150630000Y-60550851D01*
X150757617Y-60563420D01*
G37*
G36*
X149121242Y-60558404D02*
G01*
X149158337Y-60569657D01*
X149192515Y-60587925D01*
X149222481Y-60612519D01*
X149247075Y-60642485D01*
X149265343Y-60676663D01*
X149276596Y-60713758D01*
X149281000Y-60758474D01*
X149281000Y-62201526D01*
X149276596Y-62246242D01*
X149265343Y-62283337D01*
X149247075Y-62317515D01*
X149222481Y-62347481D01*
X149192515Y-62372075D01*
X149158337Y-62390343D01*
X149121242Y-62401596D01*
X149076526Y-62406000D01*
X148183474Y-62406000D01*
X148138758Y-62401596D01*
X148101663Y-62390343D01*
X148067485Y-62372075D01*
X148037519Y-62347481D01*
X148012925Y-62317515D01*
X147994657Y-62283337D01*
X147983404Y-62246242D01*
X147979000Y-62201526D01*
X147979000Y-60758474D01*
X147983404Y-60713758D01*
X147994657Y-60676663D01*
X148012925Y-60642485D01*
X148037519Y-60612519D01*
X148067485Y-60587925D01*
X148101663Y-60569657D01*
X148138758Y-60558404D01*
X148183474Y-60554000D01*
X149076526Y-60554000D01*
X149121242Y-60558404D01*
G37*
G36*
X165501000Y-62001000D02*
G01*
X164599000Y-62001000D01*
X164599000Y-60999000D01*
X165501000Y-60999000D01*
X165501000Y-62001000D01*
G37*
G36*
X193651000Y-62001000D02*
G01*
X192749000Y-62001000D01*
X192749000Y-60999000D01*
X193651000Y-60999000D01*
X193651000Y-62001000D01*
G37*
G36*
X195551000Y-62001000D02*
G01*
X194649000Y-62001000D01*
X194649000Y-60999000D01*
X195551000Y-60999000D01*
X195551000Y-62001000D01*
G37*
G36*
X163601000Y-62001000D02*
G01*
X162699000Y-62001000D01*
X162699000Y-60999000D01*
X163601000Y-60999000D01*
X163601000Y-62001000D01*
G37*
G36*
X133631000Y-61981000D02*
G01*
X132729000Y-61981000D01*
X132729000Y-60979000D01*
X133631000Y-60979000D01*
X133631000Y-61981000D01*
G37*
G36*
X135531000Y-61981000D02*
G01*
X134629000Y-61981000D01*
X134629000Y-60979000D01*
X135531000Y-60979000D01*
X135531000Y-61981000D01*
G37*
G36*
X171534468Y-59753565D02*
G01*
X171573138Y-59765296D01*
X171608777Y-59784346D01*
X171640017Y-59809983D01*
X171665654Y-59841223D01*
X171684704Y-59876862D01*
X171696435Y-59915532D01*
X171701000Y-59961888D01*
X171701000Y-61038112D01*
X171696435Y-61084468D01*
X171684704Y-61123138D01*
X171665654Y-61158777D01*
X171640017Y-61190017D01*
X171608777Y-61215654D01*
X171573138Y-61234704D01*
X171534468Y-61246435D01*
X171488112Y-61251000D01*
X170836888Y-61251000D01*
X170790532Y-61246435D01*
X170751862Y-61234704D01*
X170716223Y-61215654D01*
X170684983Y-61190017D01*
X170659346Y-61158777D01*
X170640296Y-61123138D01*
X170628565Y-61084468D01*
X170624000Y-61038112D01*
X170624000Y-59961888D01*
X170628565Y-59915532D01*
X170640296Y-59876862D01*
X170659346Y-59841223D01*
X170684983Y-59809983D01*
X170716223Y-59784346D01*
X170751862Y-59765296D01*
X170790532Y-59753565D01*
X170836888Y-59749000D01*
X171488112Y-59749000D01*
X171534468Y-59753565D01*
G37*
G36*
X201584468Y-59753565D02*
G01*
X201623138Y-59765296D01*
X201658777Y-59784346D01*
X201690017Y-59809983D01*
X201715654Y-59841223D01*
X201734704Y-59876862D01*
X201746435Y-59915532D01*
X201751000Y-59961888D01*
X201751000Y-61038112D01*
X201746435Y-61084468D01*
X201734704Y-61123138D01*
X201715654Y-61158777D01*
X201690017Y-61190017D01*
X201658777Y-61215654D01*
X201623138Y-61234704D01*
X201584468Y-61246435D01*
X201538112Y-61251000D01*
X200886888Y-61251000D01*
X200840532Y-61246435D01*
X200801862Y-61234704D01*
X200766223Y-61215654D01*
X200734983Y-61190017D01*
X200709346Y-61158777D01*
X200690296Y-61123138D01*
X200678565Y-61084468D01*
X200674000Y-61038112D01*
X200674000Y-59961888D01*
X200678565Y-59915532D01*
X200690296Y-59876862D01*
X200709346Y-59841223D01*
X200734983Y-59809983D01*
X200766223Y-59784346D01*
X200801862Y-59765296D01*
X200840532Y-59753565D01*
X200886888Y-59749000D01*
X201538112Y-59749000D01*
X201584468Y-59753565D01*
G37*
G36*
X173409468Y-59753565D02*
G01*
X173448138Y-59765296D01*
X173483777Y-59784346D01*
X173515017Y-59809983D01*
X173540654Y-59841223D01*
X173559704Y-59876862D01*
X173571435Y-59915532D01*
X173576000Y-59961888D01*
X173576000Y-61038112D01*
X173571435Y-61084468D01*
X173559704Y-61123138D01*
X173540654Y-61158777D01*
X173515017Y-61190017D01*
X173483777Y-61215654D01*
X173448138Y-61234704D01*
X173409468Y-61246435D01*
X173363112Y-61251000D01*
X172711888Y-61251000D01*
X172665532Y-61246435D01*
X172626862Y-61234704D01*
X172591223Y-61215654D01*
X172559983Y-61190017D01*
X172534346Y-61158777D01*
X172515296Y-61123138D01*
X172503565Y-61084468D01*
X172499000Y-61038112D01*
X172499000Y-59961888D01*
X172503565Y-59915532D01*
X172515296Y-59876862D01*
X172534346Y-59841223D01*
X172559983Y-59809983D01*
X172591223Y-59784346D01*
X172626862Y-59765296D01*
X172665532Y-59753565D01*
X172711888Y-59749000D01*
X173363112Y-59749000D01*
X173409468Y-59753565D01*
G37*
G36*
X203459468Y-59753565D02*
G01*
X203498138Y-59765296D01*
X203533777Y-59784346D01*
X203565017Y-59809983D01*
X203590654Y-59841223D01*
X203609704Y-59876862D01*
X203621435Y-59915532D01*
X203626000Y-59961888D01*
X203626000Y-61038112D01*
X203621435Y-61084468D01*
X203609704Y-61123138D01*
X203590654Y-61158777D01*
X203565017Y-61190017D01*
X203533777Y-61215654D01*
X203498138Y-61234704D01*
X203459468Y-61246435D01*
X203413112Y-61251000D01*
X202761888Y-61251000D01*
X202715532Y-61246435D01*
X202676862Y-61234704D01*
X202641223Y-61215654D01*
X202609983Y-61190017D01*
X202584346Y-61158777D01*
X202565296Y-61123138D01*
X202553565Y-61084468D01*
X202549000Y-61038112D01*
X202549000Y-59961888D01*
X202553565Y-59915532D01*
X202565296Y-59876862D01*
X202584346Y-59841223D01*
X202609983Y-59809983D01*
X202641223Y-59784346D01*
X202676862Y-59765296D01*
X202715532Y-59753565D01*
X202761888Y-59749000D01*
X203413112Y-59749000D01*
X203459468Y-59753565D01*
G37*
G36*
X141564468Y-59733565D02*
G01*
X141603138Y-59745296D01*
X141638777Y-59764346D01*
X141670017Y-59789983D01*
X141695654Y-59821223D01*
X141714704Y-59856862D01*
X141726435Y-59895532D01*
X141731000Y-59941888D01*
X141731000Y-61018112D01*
X141726435Y-61064468D01*
X141714704Y-61103138D01*
X141695654Y-61138777D01*
X141670017Y-61170017D01*
X141638777Y-61195654D01*
X141603138Y-61214704D01*
X141564468Y-61226435D01*
X141518112Y-61231000D01*
X140866888Y-61231000D01*
X140820532Y-61226435D01*
X140781862Y-61214704D01*
X140746223Y-61195654D01*
X140714983Y-61170017D01*
X140689346Y-61138777D01*
X140670296Y-61103138D01*
X140658565Y-61064468D01*
X140654000Y-61018112D01*
X140654000Y-59941888D01*
X140658565Y-59895532D01*
X140670296Y-59856862D01*
X140689346Y-59821223D01*
X140714983Y-59789983D01*
X140746223Y-59764346D01*
X140781862Y-59745296D01*
X140820532Y-59733565D01*
X140866888Y-59729000D01*
X141518112Y-59729000D01*
X141564468Y-59733565D01*
G37*
G36*
X143439468Y-59733565D02*
G01*
X143478138Y-59745296D01*
X143513777Y-59764346D01*
X143545017Y-59789983D01*
X143570654Y-59821223D01*
X143589704Y-59856862D01*
X143601435Y-59895532D01*
X143606000Y-59941888D01*
X143606000Y-61018112D01*
X143601435Y-61064468D01*
X143589704Y-61103138D01*
X143570654Y-61138777D01*
X143545017Y-61170017D01*
X143513777Y-61195654D01*
X143478138Y-61214704D01*
X143439468Y-61226435D01*
X143393112Y-61231000D01*
X142741888Y-61231000D01*
X142695532Y-61226435D01*
X142656862Y-61214704D01*
X142621223Y-61195654D01*
X142589983Y-61170017D01*
X142564346Y-61138777D01*
X142545296Y-61103138D01*
X142533565Y-61064468D01*
X142529000Y-61018112D01*
X142529000Y-59941888D01*
X142533565Y-59895532D01*
X142545296Y-59856862D01*
X142564346Y-59821223D01*
X142589983Y-59789983D01*
X142621223Y-59764346D01*
X142656862Y-59745296D01*
X142695532Y-59733565D01*
X142741888Y-59729000D01*
X143393112Y-59729000D01*
X143439468Y-59733565D01*
G37*
G36*
X194601000Y-60001000D02*
G01*
X193699000Y-60001000D01*
X193699000Y-58999000D01*
X194601000Y-58999000D01*
X194601000Y-60001000D01*
G37*
G36*
X164551000Y-60001000D02*
G01*
X163649000Y-60001000D01*
X163649000Y-58999000D01*
X164551000Y-58999000D01*
X164551000Y-60001000D01*
G37*
G36*
X134581000Y-59981000D02*
G01*
X133679000Y-59981000D01*
X133679000Y-58979000D01*
X134581000Y-58979000D01*
X134581000Y-59981000D01*
G37*
G36*
X209351000Y-58801000D02*
G01*
X207549000Y-58801000D01*
X207549000Y-57399000D01*
X209351000Y-57399000D01*
X209351000Y-58801000D01*
G37*
G36*
X179301000Y-58801000D02*
G01*
X177499000Y-58801000D01*
X177499000Y-57399000D01*
X179301000Y-57399000D01*
X179301000Y-58801000D01*
G37*
G36*
X149331000Y-58781000D02*
G01*
X147529000Y-58781000D01*
X147529000Y-57379000D01*
X149331000Y-57379000D01*
X149331000Y-58781000D01*
G37*
G36*
X170684468Y-57466065D02*
G01*
X170723138Y-57477796D01*
X170758777Y-57496846D01*
X170790017Y-57522483D01*
X170815654Y-57553723D01*
X170834704Y-57589362D01*
X170846435Y-57628032D01*
X170851000Y-57674388D01*
X170851000Y-58325612D01*
X170846435Y-58371968D01*
X170834704Y-58410638D01*
X170815654Y-58446277D01*
X170790017Y-58477517D01*
X170758777Y-58503154D01*
X170723138Y-58522204D01*
X170684468Y-58533935D01*
X170638112Y-58538500D01*
X169561888Y-58538500D01*
X169515532Y-58533935D01*
X169476862Y-58522204D01*
X169441223Y-58503154D01*
X169409983Y-58477517D01*
X169384346Y-58446277D01*
X169365296Y-58410638D01*
X169353565Y-58371968D01*
X169349000Y-58325612D01*
X169349000Y-57674388D01*
X169353565Y-57628032D01*
X169365296Y-57589362D01*
X169384346Y-57553723D01*
X169409983Y-57522483D01*
X169441223Y-57496846D01*
X169476862Y-57477796D01*
X169515532Y-57466065D01*
X169561888Y-57461500D01*
X170638112Y-57461500D01*
X170684468Y-57466065D01*
G37*
G36*
X200734468Y-57466065D02*
G01*
X200773138Y-57477796D01*
X200808777Y-57496846D01*
X200840017Y-57522483D01*
X200865654Y-57553723D01*
X200884704Y-57589362D01*
X200896435Y-57628032D01*
X200901000Y-57674388D01*
X200901000Y-58325612D01*
X200896435Y-58371968D01*
X200884704Y-58410638D01*
X200865654Y-58446277D01*
X200840017Y-58477517D01*
X200808777Y-58503154D01*
X200773138Y-58522204D01*
X200734468Y-58533935D01*
X200688112Y-58538500D01*
X199611888Y-58538500D01*
X199565532Y-58533935D01*
X199526862Y-58522204D01*
X199491223Y-58503154D01*
X199459983Y-58477517D01*
X199434346Y-58446277D01*
X199415296Y-58410638D01*
X199403565Y-58371968D01*
X199399000Y-58325612D01*
X199399000Y-57674388D01*
X199403565Y-57628032D01*
X199415296Y-57589362D01*
X199434346Y-57553723D01*
X199459983Y-57522483D01*
X199491223Y-57496846D01*
X199526862Y-57477796D01*
X199565532Y-57466065D01*
X199611888Y-57461500D01*
X200688112Y-57461500D01*
X200734468Y-57466065D01*
G37*
G36*
X140714468Y-57446065D02*
G01*
X140753138Y-57457796D01*
X140788777Y-57476846D01*
X140820017Y-57502483D01*
X140845654Y-57533723D01*
X140864704Y-57569362D01*
X140876435Y-57608032D01*
X140881000Y-57654388D01*
X140881000Y-58305612D01*
X140876435Y-58351968D01*
X140864704Y-58390638D01*
X140845654Y-58426277D01*
X140820017Y-58457517D01*
X140788777Y-58483154D01*
X140753138Y-58502204D01*
X140714468Y-58513935D01*
X140668112Y-58518500D01*
X139591888Y-58518500D01*
X139545532Y-58513935D01*
X139506862Y-58502204D01*
X139471223Y-58483154D01*
X139439983Y-58457517D01*
X139414346Y-58426277D01*
X139395296Y-58390638D01*
X139383565Y-58351968D01*
X139379000Y-58305612D01*
X139379000Y-57654388D01*
X139383565Y-57608032D01*
X139395296Y-57569362D01*
X139414346Y-57533723D01*
X139439983Y-57502483D01*
X139471223Y-57476846D01*
X139506862Y-57457796D01*
X139545532Y-57446065D01*
X139591888Y-57441500D01*
X140668112Y-57441500D01*
X140714468Y-57446065D01*
G37*
G36*
X162451000Y-58501000D02*
G01*
X161549000Y-58501000D01*
X161549000Y-57499000D01*
X162451000Y-57499000D01*
X162451000Y-58501000D01*
G37*
G36*
X192501000Y-58501000D02*
G01*
X191599000Y-58501000D01*
X191599000Y-57499000D01*
X192501000Y-57499000D01*
X192501000Y-58501000D01*
G37*
G36*
X190601000Y-58501000D02*
G01*
X189699000Y-58501000D01*
X189699000Y-57499000D01*
X190601000Y-57499000D01*
X190601000Y-58501000D01*
G37*
G36*
X160551000Y-58501000D02*
G01*
X159649000Y-58501000D01*
X159649000Y-57499000D01*
X160551000Y-57499000D01*
X160551000Y-58501000D01*
G37*
G36*
X132481000Y-58481000D02*
G01*
X131579000Y-58481000D01*
X131579000Y-57479000D01*
X132481000Y-57479000D01*
X132481000Y-58481000D01*
G37*
G36*
X130581000Y-58481000D02*
G01*
X129679000Y-58481000D01*
X129679000Y-57479000D01*
X130581000Y-57479000D01*
X130581000Y-58481000D01*
G37*
G36*
X174684468Y-57403565D02*
G01*
X174723138Y-57415296D01*
X174758777Y-57434346D01*
X174790017Y-57459983D01*
X174815654Y-57491223D01*
X174834704Y-57526862D01*
X174846435Y-57565532D01*
X174851000Y-57611888D01*
X174851000Y-58263112D01*
X174846435Y-58309468D01*
X174834704Y-58348138D01*
X174815654Y-58383777D01*
X174790017Y-58415017D01*
X174758777Y-58440654D01*
X174723138Y-58459704D01*
X174684468Y-58471435D01*
X174638112Y-58476000D01*
X173561888Y-58476000D01*
X173515532Y-58471435D01*
X173476862Y-58459704D01*
X173441223Y-58440654D01*
X173409983Y-58415017D01*
X173384346Y-58383777D01*
X173365296Y-58348138D01*
X173353565Y-58309468D01*
X173349000Y-58263112D01*
X173349000Y-57611888D01*
X173353565Y-57565532D01*
X173365296Y-57526862D01*
X173384346Y-57491223D01*
X173409983Y-57459983D01*
X173441223Y-57434346D01*
X173476862Y-57415296D01*
X173515532Y-57403565D01*
X173561888Y-57399000D01*
X174638112Y-57399000D01*
X174684468Y-57403565D01*
G37*
G36*
X204734468Y-57403565D02*
G01*
X204773138Y-57415296D01*
X204808777Y-57434346D01*
X204840017Y-57459983D01*
X204865654Y-57491223D01*
X204884704Y-57526862D01*
X204896435Y-57565532D01*
X204901000Y-57611888D01*
X204901000Y-58263112D01*
X204896435Y-58309468D01*
X204884704Y-58348138D01*
X204865654Y-58383777D01*
X204840017Y-58415017D01*
X204808777Y-58440654D01*
X204773138Y-58459704D01*
X204734468Y-58471435D01*
X204688112Y-58476000D01*
X203611888Y-58476000D01*
X203565532Y-58471435D01*
X203526862Y-58459704D01*
X203491223Y-58440654D01*
X203459983Y-58415017D01*
X203434346Y-58383777D01*
X203415296Y-58348138D01*
X203403565Y-58309468D01*
X203399000Y-58263112D01*
X203399000Y-57611888D01*
X203403565Y-57565532D01*
X203415296Y-57526862D01*
X203434346Y-57491223D01*
X203459983Y-57459983D01*
X203491223Y-57434346D01*
X203526862Y-57415296D01*
X203565532Y-57403565D01*
X203611888Y-57399000D01*
X204688112Y-57399000D01*
X204734468Y-57403565D01*
G37*
G36*
X144714468Y-57383565D02*
G01*
X144753138Y-57395296D01*
X144788777Y-57414346D01*
X144820017Y-57439983D01*
X144845654Y-57471223D01*
X144864704Y-57506862D01*
X144876435Y-57545532D01*
X144881000Y-57591888D01*
X144881000Y-58243112D01*
X144876435Y-58289468D01*
X144864704Y-58328138D01*
X144845654Y-58363777D01*
X144820017Y-58395017D01*
X144788777Y-58420654D01*
X144753138Y-58439704D01*
X144714468Y-58451435D01*
X144668112Y-58456000D01*
X143591888Y-58456000D01*
X143545532Y-58451435D01*
X143506862Y-58439704D01*
X143471223Y-58420654D01*
X143439983Y-58395017D01*
X143414346Y-58363777D01*
X143395296Y-58328138D01*
X143383565Y-58289468D01*
X143379000Y-58243112D01*
X143379000Y-57591888D01*
X143383565Y-57545532D01*
X143395296Y-57506862D01*
X143414346Y-57471223D01*
X143439983Y-57439983D01*
X143471223Y-57414346D01*
X143506862Y-57395296D01*
X143545532Y-57383565D01*
X143591888Y-57379000D01*
X144668112Y-57379000D01*
X144714468Y-57383565D01*
G37*
G36*
X166684468Y-57341065D02*
G01*
X166723138Y-57352796D01*
X166758777Y-57371846D01*
X166790017Y-57397483D01*
X166815654Y-57428723D01*
X166834704Y-57464362D01*
X166846435Y-57503032D01*
X166851000Y-57549388D01*
X166851000Y-58200612D01*
X166846435Y-58246968D01*
X166834704Y-58285638D01*
X166815654Y-58321277D01*
X166790017Y-58352517D01*
X166758777Y-58378154D01*
X166723138Y-58397204D01*
X166684468Y-58408935D01*
X166638112Y-58413500D01*
X165561888Y-58413500D01*
X165515532Y-58408935D01*
X165476862Y-58397204D01*
X165441223Y-58378154D01*
X165409983Y-58352517D01*
X165384346Y-58321277D01*
X165365296Y-58285638D01*
X165353565Y-58246968D01*
X165349000Y-58200612D01*
X165349000Y-57549388D01*
X165353565Y-57503032D01*
X165365296Y-57464362D01*
X165384346Y-57428723D01*
X165409983Y-57397483D01*
X165441223Y-57371846D01*
X165476862Y-57352796D01*
X165515532Y-57341065D01*
X165561888Y-57336500D01*
X166638112Y-57336500D01*
X166684468Y-57341065D01*
G37*
G36*
X196734468Y-57341065D02*
G01*
X196773138Y-57352796D01*
X196808777Y-57371846D01*
X196840017Y-57397483D01*
X196865654Y-57428723D01*
X196884704Y-57464362D01*
X196896435Y-57503032D01*
X196901000Y-57549388D01*
X196901000Y-58200612D01*
X196896435Y-58246968D01*
X196884704Y-58285638D01*
X196865654Y-58321277D01*
X196840017Y-58352517D01*
X196808777Y-58378154D01*
X196773138Y-58397204D01*
X196734468Y-58408935D01*
X196688112Y-58413500D01*
X195611888Y-58413500D01*
X195565532Y-58408935D01*
X195526862Y-58397204D01*
X195491223Y-58378154D01*
X195459983Y-58352517D01*
X195434346Y-58321277D01*
X195415296Y-58285638D01*
X195403565Y-58246968D01*
X195399000Y-58200612D01*
X195399000Y-57549388D01*
X195403565Y-57503032D01*
X195415296Y-57464362D01*
X195434346Y-57428723D01*
X195459983Y-57397483D01*
X195491223Y-57371846D01*
X195526862Y-57352796D01*
X195565532Y-57341065D01*
X195611888Y-57336500D01*
X196688112Y-57336500D01*
X196734468Y-57341065D01*
G37*
G36*
X136714468Y-57321065D02*
G01*
X136753138Y-57332796D01*
X136788777Y-57351846D01*
X136820017Y-57377483D01*
X136845654Y-57408723D01*
X136864704Y-57444362D01*
X136876435Y-57483032D01*
X136881000Y-57529388D01*
X136881000Y-58180612D01*
X136876435Y-58226968D01*
X136864704Y-58265638D01*
X136845654Y-58301277D01*
X136820017Y-58332517D01*
X136788777Y-58358154D01*
X136753138Y-58377204D01*
X136714468Y-58388935D01*
X136668112Y-58393500D01*
X135591888Y-58393500D01*
X135545532Y-58388935D01*
X135506862Y-58377204D01*
X135471223Y-58358154D01*
X135439983Y-58332517D01*
X135414346Y-58301277D01*
X135395296Y-58265638D01*
X135383565Y-58226968D01*
X135379000Y-58180612D01*
X135379000Y-57529388D01*
X135383565Y-57483032D01*
X135395296Y-57444362D01*
X135414346Y-57408723D01*
X135439983Y-57377483D01*
X135471223Y-57351846D01*
X135506862Y-57332796D01*
X135545532Y-57321065D01*
X135591888Y-57316500D01*
X136668112Y-57316500D01*
X136714468Y-57321065D01*
G37*
G36*
X170684468Y-55591065D02*
G01*
X170723138Y-55602796D01*
X170758777Y-55621846D01*
X170790017Y-55647483D01*
X170815654Y-55678723D01*
X170834704Y-55714362D01*
X170846435Y-55753032D01*
X170851000Y-55799388D01*
X170851000Y-56450612D01*
X170846435Y-56496968D01*
X170834704Y-56535638D01*
X170815654Y-56571277D01*
X170790017Y-56602517D01*
X170758777Y-56628154D01*
X170723138Y-56647204D01*
X170684468Y-56658935D01*
X170638112Y-56663500D01*
X169561888Y-56663500D01*
X169515532Y-56658935D01*
X169476862Y-56647204D01*
X169441223Y-56628154D01*
X169409983Y-56602517D01*
X169384346Y-56571277D01*
X169365296Y-56535638D01*
X169353565Y-56496968D01*
X169349000Y-56450612D01*
X169349000Y-55799388D01*
X169353565Y-55753032D01*
X169365296Y-55714362D01*
X169384346Y-55678723D01*
X169409983Y-55647483D01*
X169441223Y-55621846D01*
X169476862Y-55602796D01*
X169515532Y-55591065D01*
X169561888Y-55586500D01*
X170638112Y-55586500D01*
X170684468Y-55591065D01*
G37*
G36*
X200734468Y-55591065D02*
G01*
X200773138Y-55602796D01*
X200808777Y-55621846D01*
X200840017Y-55647483D01*
X200865654Y-55678723D01*
X200884704Y-55714362D01*
X200896435Y-55753032D01*
X200901000Y-55799388D01*
X200901000Y-56450612D01*
X200896435Y-56496968D01*
X200884704Y-56535638D01*
X200865654Y-56571277D01*
X200840017Y-56602517D01*
X200808777Y-56628154D01*
X200773138Y-56647204D01*
X200734468Y-56658935D01*
X200688112Y-56663500D01*
X199611888Y-56663500D01*
X199565532Y-56658935D01*
X199526862Y-56647204D01*
X199491223Y-56628154D01*
X199459983Y-56602517D01*
X199434346Y-56571277D01*
X199415296Y-56535638D01*
X199403565Y-56496968D01*
X199399000Y-56450612D01*
X199399000Y-55799388D01*
X199403565Y-55753032D01*
X199415296Y-55714362D01*
X199434346Y-55678723D01*
X199459983Y-55647483D01*
X199491223Y-55621846D01*
X199526862Y-55602796D01*
X199565532Y-55591065D01*
X199611888Y-55586500D01*
X200688112Y-55586500D01*
X200734468Y-55591065D01*
G37*
G36*
X140714468Y-55571065D02*
G01*
X140753138Y-55582796D01*
X140788777Y-55601846D01*
X140820017Y-55627483D01*
X140845654Y-55658723D01*
X140864704Y-55694362D01*
X140876435Y-55733032D01*
X140881000Y-55779388D01*
X140881000Y-56430612D01*
X140876435Y-56476968D01*
X140864704Y-56515638D01*
X140845654Y-56551277D01*
X140820017Y-56582517D01*
X140788777Y-56608154D01*
X140753138Y-56627204D01*
X140714468Y-56638935D01*
X140668112Y-56643500D01*
X139591888Y-56643500D01*
X139545532Y-56638935D01*
X139506862Y-56627204D01*
X139471223Y-56608154D01*
X139439983Y-56582517D01*
X139414346Y-56551277D01*
X139395296Y-56515638D01*
X139383565Y-56476968D01*
X139379000Y-56430612D01*
X139379000Y-55779388D01*
X139383565Y-55733032D01*
X139395296Y-55694362D01*
X139414346Y-55658723D01*
X139439983Y-55627483D01*
X139471223Y-55601846D01*
X139506862Y-55582796D01*
X139545532Y-55571065D01*
X139591888Y-55566500D01*
X140668112Y-55566500D01*
X140714468Y-55571065D01*
G37*
G36*
X174684468Y-55528565D02*
G01*
X174723138Y-55540296D01*
X174758777Y-55559346D01*
X174790017Y-55584983D01*
X174815654Y-55616223D01*
X174834704Y-55651862D01*
X174846435Y-55690532D01*
X174851000Y-55736888D01*
X174851000Y-56388112D01*
X174846435Y-56434468D01*
X174834704Y-56473138D01*
X174815654Y-56508777D01*
X174790017Y-56540017D01*
X174758777Y-56565654D01*
X174723138Y-56584704D01*
X174684468Y-56596435D01*
X174638112Y-56601000D01*
X173561888Y-56601000D01*
X173515532Y-56596435D01*
X173476862Y-56584704D01*
X173441223Y-56565654D01*
X173409983Y-56540017D01*
X173384346Y-56508777D01*
X173365296Y-56473138D01*
X173353565Y-56434468D01*
X173349000Y-56388112D01*
X173349000Y-55736888D01*
X173353565Y-55690532D01*
X173365296Y-55651862D01*
X173384346Y-55616223D01*
X173409983Y-55584983D01*
X173441223Y-55559346D01*
X173476862Y-55540296D01*
X173515532Y-55528565D01*
X173561888Y-55524000D01*
X174638112Y-55524000D01*
X174684468Y-55528565D01*
G37*
G36*
X204734468Y-55528565D02*
G01*
X204773138Y-55540296D01*
X204808777Y-55559346D01*
X204840017Y-55584983D01*
X204865654Y-55616223D01*
X204884704Y-55651862D01*
X204896435Y-55690532D01*
X204901000Y-55736888D01*
X204901000Y-56388112D01*
X204896435Y-56434468D01*
X204884704Y-56473138D01*
X204865654Y-56508777D01*
X204840017Y-56540017D01*
X204808777Y-56565654D01*
X204773138Y-56584704D01*
X204734468Y-56596435D01*
X204688112Y-56601000D01*
X203611888Y-56601000D01*
X203565532Y-56596435D01*
X203526862Y-56584704D01*
X203491223Y-56565654D01*
X203459983Y-56540017D01*
X203434346Y-56508777D01*
X203415296Y-56473138D01*
X203403565Y-56434468D01*
X203399000Y-56388112D01*
X203399000Y-55736888D01*
X203403565Y-55690532D01*
X203415296Y-55651862D01*
X203434346Y-55616223D01*
X203459983Y-55584983D01*
X203491223Y-55559346D01*
X203526862Y-55540296D01*
X203565532Y-55528565D01*
X203611888Y-55524000D01*
X204688112Y-55524000D01*
X204734468Y-55528565D01*
G37*
G36*
X144714468Y-55508565D02*
G01*
X144753138Y-55520296D01*
X144788777Y-55539346D01*
X144820017Y-55564983D01*
X144845654Y-55596223D01*
X144864704Y-55631862D01*
X144876435Y-55670532D01*
X144881000Y-55716888D01*
X144881000Y-56368112D01*
X144876435Y-56414468D01*
X144864704Y-56453138D01*
X144845654Y-56488777D01*
X144820017Y-56520017D01*
X144788777Y-56545654D01*
X144753138Y-56564704D01*
X144714468Y-56576435D01*
X144668112Y-56581000D01*
X143591888Y-56581000D01*
X143545532Y-56576435D01*
X143506862Y-56564704D01*
X143471223Y-56545654D01*
X143439983Y-56520017D01*
X143414346Y-56488777D01*
X143395296Y-56453138D01*
X143383565Y-56414468D01*
X143379000Y-56368112D01*
X143379000Y-55716888D01*
X143383565Y-55670532D01*
X143395296Y-55631862D01*
X143414346Y-55596223D01*
X143439983Y-55564983D01*
X143471223Y-55539346D01*
X143506862Y-55520296D01*
X143545532Y-55508565D01*
X143591888Y-55504000D01*
X144668112Y-55504000D01*
X144714468Y-55508565D01*
G37*
G36*
X166684468Y-55466065D02*
G01*
X166723138Y-55477796D01*
X166758777Y-55496846D01*
X166790017Y-55522483D01*
X166815654Y-55553723D01*
X166834704Y-55589362D01*
X166846435Y-55628032D01*
X166851000Y-55674388D01*
X166851000Y-56325612D01*
X166846435Y-56371968D01*
X166834704Y-56410638D01*
X166815654Y-56446277D01*
X166790017Y-56477517D01*
X166758777Y-56503154D01*
X166723138Y-56522204D01*
X166684468Y-56533935D01*
X166638112Y-56538500D01*
X165561888Y-56538500D01*
X165515532Y-56533935D01*
X165476862Y-56522204D01*
X165441223Y-56503154D01*
X165409983Y-56477517D01*
X165384346Y-56446277D01*
X165365296Y-56410638D01*
X165353565Y-56371968D01*
X165349000Y-56325612D01*
X165349000Y-55674388D01*
X165353565Y-55628032D01*
X165365296Y-55589362D01*
X165384346Y-55553723D01*
X165409983Y-55522483D01*
X165441223Y-55496846D01*
X165476862Y-55477796D01*
X165515532Y-55466065D01*
X165561888Y-55461500D01*
X166638112Y-55461500D01*
X166684468Y-55466065D01*
G37*
G36*
X196734468Y-55466065D02*
G01*
X196773138Y-55477796D01*
X196808777Y-55496846D01*
X196840017Y-55522483D01*
X196865654Y-55553723D01*
X196884704Y-55589362D01*
X196896435Y-55628032D01*
X196901000Y-55674388D01*
X196901000Y-56325612D01*
X196896435Y-56371968D01*
X196884704Y-56410638D01*
X196865654Y-56446277D01*
X196840017Y-56477517D01*
X196808777Y-56503154D01*
X196773138Y-56522204D01*
X196734468Y-56533935D01*
X196688112Y-56538500D01*
X195611888Y-56538500D01*
X195565532Y-56533935D01*
X195526862Y-56522204D01*
X195491223Y-56503154D01*
X195459983Y-56477517D01*
X195434346Y-56446277D01*
X195415296Y-56410638D01*
X195403565Y-56371968D01*
X195399000Y-56325612D01*
X195399000Y-55674388D01*
X195403565Y-55628032D01*
X195415296Y-55589362D01*
X195434346Y-55553723D01*
X195459983Y-55522483D01*
X195491223Y-55496846D01*
X195526862Y-55477796D01*
X195565532Y-55466065D01*
X195611888Y-55461500D01*
X196688112Y-55461500D01*
X196734468Y-55466065D01*
G37*
G36*
X136714468Y-55446065D02*
G01*
X136753138Y-55457796D01*
X136788777Y-55476846D01*
X136820017Y-55502483D01*
X136845654Y-55533723D01*
X136864704Y-55569362D01*
X136876435Y-55608032D01*
X136881000Y-55654388D01*
X136881000Y-56305612D01*
X136876435Y-56351968D01*
X136864704Y-56390638D01*
X136845654Y-56426277D01*
X136820017Y-56457517D01*
X136788777Y-56483154D01*
X136753138Y-56502204D01*
X136714468Y-56513935D01*
X136668112Y-56518500D01*
X135591888Y-56518500D01*
X135545532Y-56513935D01*
X135506862Y-56502204D01*
X135471223Y-56483154D01*
X135439983Y-56457517D01*
X135414346Y-56426277D01*
X135395296Y-56390638D01*
X135383565Y-56351968D01*
X135379000Y-56305612D01*
X135379000Y-55654388D01*
X135383565Y-55608032D01*
X135395296Y-55569362D01*
X135414346Y-55533723D01*
X135439983Y-55502483D01*
X135471223Y-55476846D01*
X135506862Y-55457796D01*
X135545532Y-55446065D01*
X135591888Y-55441500D01*
X136668112Y-55441500D01*
X136714468Y-55446065D01*
G37*
G36*
X191551000Y-56501000D02*
G01*
X190649000Y-56501000D01*
X190649000Y-55499000D01*
X191551000Y-55499000D01*
X191551000Y-56501000D01*
G37*
G36*
X161501000Y-56501000D02*
G01*
X160599000Y-56501000D01*
X160599000Y-55499000D01*
X161501000Y-55499000D01*
X161501000Y-56501000D01*
G37*
G36*
X131531000Y-56481000D02*
G01*
X130629000Y-56481000D01*
X130629000Y-55479000D01*
X131531000Y-55479000D01*
X131531000Y-56481000D01*
G37*
G36*
X209351000Y-55301000D02*
G01*
X207549000Y-55301000D01*
X207549000Y-53899000D01*
X209351000Y-53899000D01*
X209351000Y-55301000D01*
G37*
G36*
X179301000Y-55301000D02*
G01*
X177499000Y-55301000D01*
X177499000Y-53899000D01*
X179301000Y-53899000D01*
X179301000Y-55301000D01*
G37*
G36*
X149331000Y-55281000D02*
G01*
X147529000Y-55281000D01*
X147529000Y-53879000D01*
X149331000Y-53879000D01*
X149331000Y-55281000D01*
G37*
G36*
X204734468Y-53341065D02*
G01*
X204773138Y-53352796D01*
X204808777Y-53371846D01*
X204840017Y-53397483D01*
X204865654Y-53428723D01*
X204884704Y-53464362D01*
X204896435Y-53503032D01*
X204901000Y-53549388D01*
X204901000Y-54200612D01*
X204896435Y-54246968D01*
X204884704Y-54285638D01*
X204865654Y-54321277D01*
X204840017Y-54352517D01*
X204808777Y-54378154D01*
X204773138Y-54397204D01*
X204734468Y-54408935D01*
X204688112Y-54413500D01*
X203611888Y-54413500D01*
X203565532Y-54408935D01*
X203526862Y-54397204D01*
X203491223Y-54378154D01*
X203459983Y-54352517D01*
X203434346Y-54321277D01*
X203415296Y-54285638D01*
X203403565Y-54246968D01*
X203399000Y-54200612D01*
X203399000Y-53549388D01*
X203403565Y-53503032D01*
X203415296Y-53464362D01*
X203434346Y-53428723D01*
X203459983Y-53397483D01*
X203491223Y-53371846D01*
X203526862Y-53352796D01*
X203565532Y-53341065D01*
X203611888Y-53336500D01*
X204688112Y-53336500D01*
X204734468Y-53341065D01*
G37*
G36*
X170684468Y-53341065D02*
G01*
X170723138Y-53352796D01*
X170758777Y-53371846D01*
X170790017Y-53397483D01*
X170815654Y-53428723D01*
X170834704Y-53464362D01*
X170846435Y-53503032D01*
X170851000Y-53549388D01*
X170851000Y-54200612D01*
X170846435Y-54246968D01*
X170834704Y-54285638D01*
X170815654Y-54321277D01*
X170790017Y-54352517D01*
X170758777Y-54378154D01*
X170723138Y-54397204D01*
X170684468Y-54408935D01*
X170638112Y-54413500D01*
X169561888Y-54413500D01*
X169515532Y-54408935D01*
X169476862Y-54397204D01*
X169441223Y-54378154D01*
X169409983Y-54352517D01*
X169384346Y-54321277D01*
X169365296Y-54285638D01*
X169353565Y-54246968D01*
X169349000Y-54200612D01*
X169349000Y-53549388D01*
X169353565Y-53503032D01*
X169365296Y-53464362D01*
X169384346Y-53428723D01*
X169409983Y-53397483D01*
X169441223Y-53371846D01*
X169476862Y-53352796D01*
X169515532Y-53341065D01*
X169561888Y-53336500D01*
X170638112Y-53336500D01*
X170684468Y-53341065D01*
G37*
G36*
X200734468Y-53341065D02*
G01*
X200773138Y-53352796D01*
X200808777Y-53371846D01*
X200840017Y-53397483D01*
X200865654Y-53428723D01*
X200884704Y-53464362D01*
X200896435Y-53503032D01*
X200901000Y-53549388D01*
X200901000Y-54200612D01*
X200896435Y-54246968D01*
X200884704Y-54285638D01*
X200865654Y-54321277D01*
X200840017Y-54352517D01*
X200808777Y-54378154D01*
X200773138Y-54397204D01*
X200734468Y-54408935D01*
X200688112Y-54413500D01*
X199611888Y-54413500D01*
X199565532Y-54408935D01*
X199526862Y-54397204D01*
X199491223Y-54378154D01*
X199459983Y-54352517D01*
X199434346Y-54321277D01*
X199415296Y-54285638D01*
X199403565Y-54246968D01*
X199399000Y-54200612D01*
X199399000Y-53549388D01*
X199403565Y-53503032D01*
X199415296Y-53464362D01*
X199434346Y-53428723D01*
X199459983Y-53397483D01*
X199491223Y-53371846D01*
X199526862Y-53352796D01*
X199565532Y-53341065D01*
X199611888Y-53336500D01*
X200688112Y-53336500D01*
X200734468Y-53341065D01*
G37*
G36*
X174684468Y-53341065D02*
G01*
X174723138Y-53352796D01*
X174758777Y-53371846D01*
X174790017Y-53397483D01*
X174815654Y-53428723D01*
X174834704Y-53464362D01*
X174846435Y-53503032D01*
X174851000Y-53549388D01*
X174851000Y-54200612D01*
X174846435Y-54246968D01*
X174834704Y-54285638D01*
X174815654Y-54321277D01*
X174790017Y-54352517D01*
X174758777Y-54378154D01*
X174723138Y-54397204D01*
X174684468Y-54408935D01*
X174638112Y-54413500D01*
X173561888Y-54413500D01*
X173515532Y-54408935D01*
X173476862Y-54397204D01*
X173441223Y-54378154D01*
X173409983Y-54352517D01*
X173384346Y-54321277D01*
X173365296Y-54285638D01*
X173353565Y-54246968D01*
X173349000Y-54200612D01*
X173349000Y-53549388D01*
X173353565Y-53503032D01*
X173365296Y-53464362D01*
X173384346Y-53428723D01*
X173409983Y-53397483D01*
X173441223Y-53371846D01*
X173476862Y-53352796D01*
X173515532Y-53341065D01*
X173561888Y-53336500D01*
X174638112Y-53336500D01*
X174684468Y-53341065D01*
G37*
G36*
X144714468Y-53321065D02*
G01*
X144753138Y-53332796D01*
X144788777Y-53351846D01*
X144820017Y-53377483D01*
X144845654Y-53408723D01*
X144864704Y-53444362D01*
X144876435Y-53483032D01*
X144881000Y-53529388D01*
X144881000Y-54180612D01*
X144876435Y-54226968D01*
X144864704Y-54265638D01*
X144845654Y-54301277D01*
X144820017Y-54332517D01*
X144788777Y-54358154D01*
X144753138Y-54377204D01*
X144714468Y-54388935D01*
X144668112Y-54393500D01*
X143591888Y-54393500D01*
X143545532Y-54388935D01*
X143506862Y-54377204D01*
X143471223Y-54358154D01*
X143439983Y-54332517D01*
X143414346Y-54301277D01*
X143395296Y-54265638D01*
X143383565Y-54226968D01*
X143379000Y-54180612D01*
X143379000Y-53529388D01*
X143383565Y-53483032D01*
X143395296Y-53444362D01*
X143414346Y-53408723D01*
X143439983Y-53377483D01*
X143471223Y-53351846D01*
X143506862Y-53332796D01*
X143545532Y-53321065D01*
X143591888Y-53316500D01*
X144668112Y-53316500D01*
X144714468Y-53321065D01*
G37*
G36*
X140714468Y-53321065D02*
G01*
X140753138Y-53332796D01*
X140788777Y-53351846D01*
X140820017Y-53377483D01*
X140845654Y-53408723D01*
X140864704Y-53444362D01*
X140876435Y-53483032D01*
X140881000Y-53529388D01*
X140881000Y-54180612D01*
X140876435Y-54226968D01*
X140864704Y-54265638D01*
X140845654Y-54301277D01*
X140820017Y-54332517D01*
X140788777Y-54358154D01*
X140753138Y-54377204D01*
X140714468Y-54388935D01*
X140668112Y-54393500D01*
X139591888Y-54393500D01*
X139545532Y-54388935D01*
X139506862Y-54377204D01*
X139471223Y-54358154D01*
X139439983Y-54332517D01*
X139414346Y-54301277D01*
X139395296Y-54265638D01*
X139383565Y-54226968D01*
X139379000Y-54180612D01*
X139379000Y-53529388D01*
X139383565Y-53483032D01*
X139395296Y-53444362D01*
X139414346Y-53408723D01*
X139439983Y-53377483D01*
X139471223Y-53351846D01*
X139506862Y-53332796D01*
X139545532Y-53321065D01*
X139591888Y-53316500D01*
X140668112Y-53316500D01*
X140714468Y-53321065D01*
G37*
G36*
X167221968Y-52666065D02*
G01*
X167260638Y-52677796D01*
X167296277Y-52696846D01*
X167327517Y-52722483D01*
X167353154Y-52753723D01*
X167372204Y-52789362D01*
X167383935Y-52828032D01*
X167388500Y-52874388D01*
X167388500Y-53525612D01*
X167383935Y-53571968D01*
X167372204Y-53610638D01*
X167353154Y-53646277D01*
X167327517Y-53677517D01*
X167296277Y-53703154D01*
X167260638Y-53722204D01*
X167221968Y-53733935D01*
X167175612Y-53738500D01*
X166099388Y-53738500D01*
X166053032Y-53733935D01*
X166014362Y-53722204D01*
X165978723Y-53703154D01*
X165947483Y-53677517D01*
X165921846Y-53646277D01*
X165902796Y-53610638D01*
X165891065Y-53571968D01*
X165886500Y-53525612D01*
X165886500Y-52874388D01*
X165891065Y-52828032D01*
X165902796Y-52789362D01*
X165921846Y-52753723D01*
X165947483Y-52722483D01*
X165978723Y-52696846D01*
X166014362Y-52677796D01*
X166053032Y-52666065D01*
X166099388Y-52661500D01*
X167175612Y-52661500D01*
X167221968Y-52666065D01*
G37*
G36*
X194934468Y-52666065D02*
G01*
X194973138Y-52677796D01*
X195008777Y-52696846D01*
X195040017Y-52722483D01*
X195065654Y-52753723D01*
X195084704Y-52789362D01*
X195096435Y-52828032D01*
X195101000Y-52874388D01*
X195101000Y-53525612D01*
X195096435Y-53571968D01*
X195084704Y-53610638D01*
X195065654Y-53646277D01*
X195040017Y-53677517D01*
X195008777Y-53703154D01*
X194973138Y-53722204D01*
X194934468Y-53733935D01*
X194888112Y-53738500D01*
X193811888Y-53738500D01*
X193765532Y-53733935D01*
X193726862Y-53722204D01*
X193691223Y-53703154D01*
X193659983Y-53677517D01*
X193634346Y-53646277D01*
X193615296Y-53610638D01*
X193603565Y-53571968D01*
X193599000Y-53525612D01*
X193599000Y-52874388D01*
X193603565Y-52828032D01*
X193615296Y-52789362D01*
X193634346Y-52753723D01*
X193659983Y-52722483D01*
X193691223Y-52696846D01*
X193726862Y-52677796D01*
X193765532Y-52666065D01*
X193811888Y-52661500D01*
X194888112Y-52661500D01*
X194934468Y-52666065D01*
G37*
G36*
X164884468Y-52666065D02*
G01*
X164923138Y-52677796D01*
X164958777Y-52696846D01*
X164990017Y-52722483D01*
X165015654Y-52753723D01*
X165034704Y-52789362D01*
X165046435Y-52828032D01*
X165051000Y-52874388D01*
X165051000Y-53525612D01*
X165046435Y-53571968D01*
X165034704Y-53610638D01*
X165015654Y-53646277D01*
X164990017Y-53677517D01*
X164958777Y-53703154D01*
X164923138Y-53722204D01*
X164884468Y-53733935D01*
X164838112Y-53738500D01*
X163761888Y-53738500D01*
X163715532Y-53733935D01*
X163676862Y-53722204D01*
X163641223Y-53703154D01*
X163609983Y-53677517D01*
X163584346Y-53646277D01*
X163565296Y-53610638D01*
X163553565Y-53571968D01*
X163549000Y-53525612D01*
X163549000Y-52874388D01*
X163553565Y-52828032D01*
X163565296Y-52789362D01*
X163584346Y-52753723D01*
X163609983Y-52722483D01*
X163641223Y-52696846D01*
X163676862Y-52677796D01*
X163715532Y-52666065D01*
X163761888Y-52661500D01*
X164838112Y-52661500D01*
X164884468Y-52666065D01*
G37*
G36*
X197271968Y-52666065D02*
G01*
X197310638Y-52677796D01*
X197346277Y-52696846D01*
X197377517Y-52722483D01*
X197403154Y-52753723D01*
X197422204Y-52789362D01*
X197433935Y-52828032D01*
X197438500Y-52874388D01*
X197438500Y-53525612D01*
X197433935Y-53571968D01*
X197422204Y-53610638D01*
X197403154Y-53646277D01*
X197377517Y-53677517D01*
X197346277Y-53703154D01*
X197310638Y-53722204D01*
X197271968Y-53733935D01*
X197225612Y-53738500D01*
X196149388Y-53738500D01*
X196103032Y-53733935D01*
X196064362Y-53722204D01*
X196028723Y-53703154D01*
X195997483Y-53677517D01*
X195971846Y-53646277D01*
X195952796Y-53610638D01*
X195941065Y-53571968D01*
X195936500Y-53525612D01*
X195936500Y-52874388D01*
X195941065Y-52828032D01*
X195952796Y-52789362D01*
X195971846Y-52753723D01*
X195997483Y-52722483D01*
X196028723Y-52696846D01*
X196064362Y-52677796D01*
X196103032Y-52666065D01*
X196149388Y-52661500D01*
X197225612Y-52661500D01*
X197271968Y-52666065D01*
G37*
G36*
X137251968Y-52646065D02*
G01*
X137290638Y-52657796D01*
X137326277Y-52676846D01*
X137357517Y-52702483D01*
X137383154Y-52733723D01*
X137402204Y-52769362D01*
X137413935Y-52808032D01*
X137418500Y-52854388D01*
X137418500Y-53505612D01*
X137413935Y-53551968D01*
X137402204Y-53590638D01*
X137383154Y-53626277D01*
X137357517Y-53657517D01*
X137326277Y-53683154D01*
X137290638Y-53702204D01*
X137251968Y-53713935D01*
X137205612Y-53718500D01*
X136129388Y-53718500D01*
X136083032Y-53713935D01*
X136044362Y-53702204D01*
X136008723Y-53683154D01*
X135977483Y-53657517D01*
X135951846Y-53626277D01*
X135932796Y-53590638D01*
X135921065Y-53551968D01*
X135916500Y-53505612D01*
X135916500Y-52854388D01*
X135921065Y-52808032D01*
X135932796Y-52769362D01*
X135951846Y-52733723D01*
X135977483Y-52702483D01*
X136008723Y-52676846D01*
X136044362Y-52657796D01*
X136083032Y-52646065D01*
X136129388Y-52641500D01*
X137205612Y-52641500D01*
X137251968Y-52646065D01*
G37*
G36*
X134914468Y-52646065D02*
G01*
X134953138Y-52657796D01*
X134988777Y-52676846D01*
X135020017Y-52702483D01*
X135045654Y-52733723D01*
X135064704Y-52769362D01*
X135076435Y-52808032D01*
X135081000Y-52854388D01*
X135081000Y-53505612D01*
X135076435Y-53551968D01*
X135064704Y-53590638D01*
X135045654Y-53626277D01*
X135020017Y-53657517D01*
X134988777Y-53683154D01*
X134953138Y-53702204D01*
X134914468Y-53713935D01*
X134868112Y-53718500D01*
X133791888Y-53718500D01*
X133745532Y-53713935D01*
X133706862Y-53702204D01*
X133671223Y-53683154D01*
X133639983Y-53657517D01*
X133614346Y-53626277D01*
X133595296Y-53590638D01*
X133583565Y-53551968D01*
X133579000Y-53505612D01*
X133579000Y-52854388D01*
X133583565Y-52808032D01*
X133595296Y-52769362D01*
X133614346Y-52733723D01*
X133639983Y-52702483D01*
X133671223Y-52676846D01*
X133706862Y-52657796D01*
X133745532Y-52646065D01*
X133791888Y-52641500D01*
X134868112Y-52641500D01*
X134914468Y-52646065D01*
G37*
G36*
X178984468Y-51566065D02*
G01*
X179023138Y-51577796D01*
X179058777Y-51596846D01*
X179090017Y-51622483D01*
X179115654Y-51653723D01*
X179134704Y-51689362D01*
X179146435Y-51728032D01*
X179151000Y-51774388D01*
X179151000Y-52425612D01*
X179146435Y-52471968D01*
X179134704Y-52510638D01*
X179115654Y-52546277D01*
X179090017Y-52577517D01*
X179058777Y-52603154D01*
X179023138Y-52622204D01*
X178984468Y-52633935D01*
X178938112Y-52638500D01*
X177861888Y-52638500D01*
X177815532Y-52633935D01*
X177776862Y-52622204D01*
X177741223Y-52603154D01*
X177709983Y-52577517D01*
X177684346Y-52546277D01*
X177665296Y-52510638D01*
X177653565Y-52471968D01*
X177649000Y-52425612D01*
X177649000Y-51774388D01*
X177653565Y-51728032D01*
X177665296Y-51689362D01*
X177684346Y-51653723D01*
X177709983Y-51622483D01*
X177741223Y-51596846D01*
X177776862Y-51577796D01*
X177815532Y-51566065D01*
X177861888Y-51561500D01*
X178938112Y-51561500D01*
X178984468Y-51566065D01*
G37*
G36*
X209034468Y-51566065D02*
G01*
X209073138Y-51577796D01*
X209108777Y-51596846D01*
X209140017Y-51622483D01*
X209165654Y-51653723D01*
X209184704Y-51689362D01*
X209196435Y-51728032D01*
X209201000Y-51774388D01*
X209201000Y-52425612D01*
X209196435Y-52471968D01*
X209184704Y-52510638D01*
X209165654Y-52546277D01*
X209140017Y-52577517D01*
X209108777Y-52603154D01*
X209073138Y-52622204D01*
X209034468Y-52633935D01*
X208988112Y-52638500D01*
X207911888Y-52638500D01*
X207865532Y-52633935D01*
X207826862Y-52622204D01*
X207791223Y-52603154D01*
X207759983Y-52577517D01*
X207734346Y-52546277D01*
X207715296Y-52510638D01*
X207703565Y-52471968D01*
X207699000Y-52425612D01*
X207699000Y-51774388D01*
X207703565Y-51728032D01*
X207715296Y-51689362D01*
X207734346Y-51653723D01*
X207759983Y-51622483D01*
X207791223Y-51596846D01*
X207826862Y-51577796D01*
X207865532Y-51566065D01*
X207911888Y-51561500D01*
X208988112Y-51561500D01*
X209034468Y-51566065D01*
G37*
G36*
X149014468Y-51546065D02*
G01*
X149053138Y-51557796D01*
X149088777Y-51576846D01*
X149120017Y-51602483D01*
X149145654Y-51633723D01*
X149164704Y-51669362D01*
X149176435Y-51708032D01*
X149181000Y-51754388D01*
X149181000Y-52405612D01*
X149176435Y-52451968D01*
X149164704Y-52490638D01*
X149145654Y-52526277D01*
X149120017Y-52557517D01*
X149088777Y-52583154D01*
X149053138Y-52602204D01*
X149014468Y-52613935D01*
X148968112Y-52618500D01*
X147891888Y-52618500D01*
X147845532Y-52613935D01*
X147806862Y-52602204D01*
X147771223Y-52583154D01*
X147739983Y-52557517D01*
X147714346Y-52526277D01*
X147695296Y-52490638D01*
X147683565Y-52451968D01*
X147679000Y-52405612D01*
X147679000Y-51754388D01*
X147683565Y-51708032D01*
X147695296Y-51669362D01*
X147714346Y-51633723D01*
X147739983Y-51602483D01*
X147771223Y-51576846D01*
X147806862Y-51557796D01*
X147845532Y-51546065D01*
X147891888Y-51541500D01*
X148968112Y-51541500D01*
X149014468Y-51546065D01*
G37*
G36*
X204734468Y-51466065D02*
G01*
X204773138Y-51477796D01*
X204808777Y-51496846D01*
X204840017Y-51522483D01*
X204865654Y-51553723D01*
X204884704Y-51589362D01*
X204896435Y-51628032D01*
X204901000Y-51674388D01*
X204901000Y-52325612D01*
X204896435Y-52371968D01*
X204884704Y-52410638D01*
X204865654Y-52446277D01*
X204840017Y-52477517D01*
X204808777Y-52503154D01*
X204773138Y-52522204D01*
X204734468Y-52533935D01*
X204688112Y-52538500D01*
X203611888Y-52538500D01*
X203565532Y-52533935D01*
X203526862Y-52522204D01*
X203491223Y-52503154D01*
X203459983Y-52477517D01*
X203434346Y-52446277D01*
X203415296Y-52410638D01*
X203403565Y-52371968D01*
X203399000Y-52325612D01*
X203399000Y-51674388D01*
X203403565Y-51628032D01*
X203415296Y-51589362D01*
X203434346Y-51553723D01*
X203459983Y-51522483D01*
X203491223Y-51496846D01*
X203526862Y-51477796D01*
X203565532Y-51466065D01*
X203611888Y-51461500D01*
X204688112Y-51461500D01*
X204734468Y-51466065D01*
G37*
G36*
X174684468Y-51466065D02*
G01*
X174723138Y-51477796D01*
X174758777Y-51496846D01*
X174790017Y-51522483D01*
X174815654Y-51553723D01*
X174834704Y-51589362D01*
X174846435Y-51628032D01*
X174851000Y-51674388D01*
X174851000Y-52325612D01*
X174846435Y-52371968D01*
X174834704Y-52410638D01*
X174815654Y-52446277D01*
X174790017Y-52477517D01*
X174758777Y-52503154D01*
X174723138Y-52522204D01*
X174684468Y-52533935D01*
X174638112Y-52538500D01*
X173561888Y-52538500D01*
X173515532Y-52533935D01*
X173476862Y-52522204D01*
X173441223Y-52503154D01*
X173409983Y-52477517D01*
X173384346Y-52446277D01*
X173365296Y-52410638D01*
X173353565Y-52371968D01*
X173349000Y-52325612D01*
X173349000Y-51674388D01*
X173353565Y-51628032D01*
X173365296Y-51589362D01*
X173384346Y-51553723D01*
X173409983Y-51522483D01*
X173441223Y-51496846D01*
X173476862Y-51477796D01*
X173515532Y-51466065D01*
X173561888Y-51461500D01*
X174638112Y-51461500D01*
X174684468Y-51466065D01*
G37*
G36*
X170684468Y-51466065D02*
G01*
X170723138Y-51477796D01*
X170758777Y-51496846D01*
X170790017Y-51522483D01*
X170815654Y-51553723D01*
X170834704Y-51589362D01*
X170846435Y-51628032D01*
X170851000Y-51674388D01*
X170851000Y-52325612D01*
X170846435Y-52371968D01*
X170834704Y-52410638D01*
X170815654Y-52446277D01*
X170790017Y-52477517D01*
X170758777Y-52503154D01*
X170723138Y-52522204D01*
X170684468Y-52533935D01*
X170638112Y-52538500D01*
X169561888Y-52538500D01*
X169515532Y-52533935D01*
X169476862Y-52522204D01*
X169441223Y-52503154D01*
X169409983Y-52477517D01*
X169384346Y-52446277D01*
X169365296Y-52410638D01*
X169353565Y-52371968D01*
X169349000Y-52325612D01*
X169349000Y-51674388D01*
X169353565Y-51628032D01*
X169365296Y-51589362D01*
X169384346Y-51553723D01*
X169409983Y-51522483D01*
X169441223Y-51496846D01*
X169476862Y-51477796D01*
X169515532Y-51466065D01*
X169561888Y-51461500D01*
X170638112Y-51461500D01*
X170684468Y-51466065D01*
G37*
G36*
X200734468Y-51466065D02*
G01*
X200773138Y-51477796D01*
X200808777Y-51496846D01*
X200840017Y-51522483D01*
X200865654Y-51553723D01*
X200884704Y-51589362D01*
X200896435Y-51628032D01*
X200901000Y-51674388D01*
X200901000Y-52325612D01*
X200896435Y-52371968D01*
X200884704Y-52410638D01*
X200865654Y-52446277D01*
X200840017Y-52477517D01*
X200808777Y-52503154D01*
X200773138Y-52522204D01*
X200734468Y-52533935D01*
X200688112Y-52538500D01*
X199611888Y-52538500D01*
X199565532Y-52533935D01*
X199526862Y-52522204D01*
X199491223Y-52503154D01*
X199459983Y-52477517D01*
X199434346Y-52446277D01*
X199415296Y-52410638D01*
X199403565Y-52371968D01*
X199399000Y-52325612D01*
X199399000Y-51674388D01*
X199403565Y-51628032D01*
X199415296Y-51589362D01*
X199434346Y-51553723D01*
X199459983Y-51522483D01*
X199491223Y-51496846D01*
X199526862Y-51477796D01*
X199565532Y-51466065D01*
X199611888Y-51461500D01*
X200688112Y-51461500D01*
X200734468Y-51466065D01*
G37*
G36*
X144714468Y-51446065D02*
G01*
X144753138Y-51457796D01*
X144788777Y-51476846D01*
X144820017Y-51502483D01*
X144845654Y-51533723D01*
X144864704Y-51569362D01*
X144876435Y-51608032D01*
X144881000Y-51654388D01*
X144881000Y-52305612D01*
X144876435Y-52351968D01*
X144864704Y-52390638D01*
X144845654Y-52426277D01*
X144820017Y-52457517D01*
X144788777Y-52483154D01*
X144753138Y-52502204D01*
X144714468Y-52513935D01*
X144668112Y-52518500D01*
X143591888Y-52518500D01*
X143545532Y-52513935D01*
X143506862Y-52502204D01*
X143471223Y-52483154D01*
X143439983Y-52457517D01*
X143414346Y-52426277D01*
X143395296Y-52390638D01*
X143383565Y-52351968D01*
X143379000Y-52305612D01*
X143379000Y-51654388D01*
X143383565Y-51608032D01*
X143395296Y-51569362D01*
X143414346Y-51533723D01*
X143439983Y-51502483D01*
X143471223Y-51476846D01*
X143506862Y-51457796D01*
X143545532Y-51446065D01*
X143591888Y-51441500D01*
X144668112Y-51441500D01*
X144714468Y-51446065D01*
G37*
G36*
X140714468Y-51446065D02*
G01*
X140753138Y-51457796D01*
X140788777Y-51476846D01*
X140820017Y-51502483D01*
X140845654Y-51533723D01*
X140864704Y-51569362D01*
X140876435Y-51608032D01*
X140881000Y-51654388D01*
X140881000Y-52305612D01*
X140876435Y-52351968D01*
X140864704Y-52390638D01*
X140845654Y-52426277D01*
X140820017Y-52457517D01*
X140788777Y-52483154D01*
X140753138Y-52502204D01*
X140714468Y-52513935D01*
X140668112Y-52518500D01*
X139591888Y-52518500D01*
X139545532Y-52513935D01*
X139506862Y-52502204D01*
X139471223Y-52483154D01*
X139439983Y-52457517D01*
X139414346Y-52426277D01*
X139395296Y-52390638D01*
X139383565Y-52351968D01*
X139379000Y-52305612D01*
X139379000Y-51654388D01*
X139383565Y-51608032D01*
X139395296Y-51569362D01*
X139414346Y-51533723D01*
X139439983Y-51502483D01*
X139471223Y-51476846D01*
X139506862Y-51457796D01*
X139545532Y-51446065D01*
X139591888Y-51441500D01*
X140668112Y-51441500D01*
X140714468Y-51446065D01*
G37*
G36*
X164884468Y-50791065D02*
G01*
X164923138Y-50802796D01*
X164958777Y-50821846D01*
X164990017Y-50847483D01*
X165015654Y-50878723D01*
X165034704Y-50914362D01*
X165046435Y-50953032D01*
X165051000Y-50999388D01*
X165051000Y-51650612D01*
X165046435Y-51696968D01*
X165034704Y-51735638D01*
X165015654Y-51771277D01*
X164990017Y-51802517D01*
X164958777Y-51828154D01*
X164923138Y-51847204D01*
X164884468Y-51858935D01*
X164838112Y-51863500D01*
X163761888Y-51863500D01*
X163715532Y-51858935D01*
X163676862Y-51847204D01*
X163641223Y-51828154D01*
X163609983Y-51802517D01*
X163584346Y-51771277D01*
X163565296Y-51735638D01*
X163553565Y-51696968D01*
X163549000Y-51650612D01*
X163549000Y-50999388D01*
X163553565Y-50953032D01*
X163565296Y-50914362D01*
X163584346Y-50878723D01*
X163609983Y-50847483D01*
X163641223Y-50821846D01*
X163676862Y-50802796D01*
X163715532Y-50791065D01*
X163761888Y-50786500D01*
X164838112Y-50786500D01*
X164884468Y-50791065D01*
G37*
G36*
X194934468Y-50791065D02*
G01*
X194973138Y-50802796D01*
X195008777Y-50821846D01*
X195040017Y-50847483D01*
X195065654Y-50878723D01*
X195084704Y-50914362D01*
X195096435Y-50953032D01*
X195101000Y-50999388D01*
X195101000Y-51650612D01*
X195096435Y-51696968D01*
X195084704Y-51735638D01*
X195065654Y-51771277D01*
X195040017Y-51802517D01*
X195008777Y-51828154D01*
X194973138Y-51847204D01*
X194934468Y-51858935D01*
X194888112Y-51863500D01*
X193811888Y-51863500D01*
X193765532Y-51858935D01*
X193726862Y-51847204D01*
X193691223Y-51828154D01*
X193659983Y-51802517D01*
X193634346Y-51771277D01*
X193615296Y-51735638D01*
X193603565Y-51696968D01*
X193599000Y-51650612D01*
X193599000Y-50999388D01*
X193603565Y-50953032D01*
X193615296Y-50914362D01*
X193634346Y-50878723D01*
X193659983Y-50847483D01*
X193691223Y-50821846D01*
X193726862Y-50802796D01*
X193765532Y-50791065D01*
X193811888Y-50786500D01*
X194888112Y-50786500D01*
X194934468Y-50791065D01*
G37*
G36*
X197271968Y-50791065D02*
G01*
X197310638Y-50802796D01*
X197346277Y-50821846D01*
X197377517Y-50847483D01*
X197403154Y-50878723D01*
X197422204Y-50914362D01*
X197433935Y-50953032D01*
X197438500Y-50999388D01*
X197438500Y-51650612D01*
X197433935Y-51696968D01*
X197422204Y-51735638D01*
X197403154Y-51771277D01*
X197377517Y-51802517D01*
X197346277Y-51828154D01*
X197310638Y-51847204D01*
X197271968Y-51858935D01*
X197225612Y-51863500D01*
X196149388Y-51863500D01*
X196103032Y-51858935D01*
X196064362Y-51847204D01*
X196028723Y-51828154D01*
X195997483Y-51802517D01*
X195971846Y-51771277D01*
X195952796Y-51735638D01*
X195941065Y-51696968D01*
X195936500Y-51650612D01*
X195936500Y-50999388D01*
X195941065Y-50953032D01*
X195952796Y-50914362D01*
X195971846Y-50878723D01*
X195997483Y-50847483D01*
X196028723Y-50821846D01*
X196064362Y-50802796D01*
X196103032Y-50791065D01*
X196149388Y-50786500D01*
X197225612Y-50786500D01*
X197271968Y-50791065D01*
G37*
G36*
X167221968Y-50791065D02*
G01*
X167260638Y-50802796D01*
X167296277Y-50821846D01*
X167327517Y-50847483D01*
X167353154Y-50878723D01*
X167372204Y-50914362D01*
X167383935Y-50953032D01*
X167388500Y-50999388D01*
X167388500Y-51650612D01*
X167383935Y-51696968D01*
X167372204Y-51735638D01*
X167353154Y-51771277D01*
X167327517Y-51802517D01*
X167296277Y-51828154D01*
X167260638Y-51847204D01*
X167221968Y-51858935D01*
X167175612Y-51863500D01*
X166099388Y-51863500D01*
X166053032Y-51858935D01*
X166014362Y-51847204D01*
X165978723Y-51828154D01*
X165947483Y-51802517D01*
X165921846Y-51771277D01*
X165902796Y-51735638D01*
X165891065Y-51696968D01*
X165886500Y-51650612D01*
X165886500Y-50999388D01*
X165891065Y-50953032D01*
X165902796Y-50914362D01*
X165921846Y-50878723D01*
X165947483Y-50847483D01*
X165978723Y-50821846D01*
X166014362Y-50802796D01*
X166053032Y-50791065D01*
X166099388Y-50786500D01*
X167175612Y-50786500D01*
X167221968Y-50791065D01*
G37*
G36*
X137251968Y-50771065D02*
G01*
X137290638Y-50782796D01*
X137326277Y-50801846D01*
X137357517Y-50827483D01*
X137383154Y-50858723D01*
X137402204Y-50894362D01*
X137413935Y-50933032D01*
X137418500Y-50979388D01*
X137418500Y-51630612D01*
X137413935Y-51676968D01*
X137402204Y-51715638D01*
X137383154Y-51751277D01*
X137357517Y-51782517D01*
X137326277Y-51808154D01*
X137290638Y-51827204D01*
X137251968Y-51838935D01*
X137205612Y-51843500D01*
X136129388Y-51843500D01*
X136083032Y-51838935D01*
X136044362Y-51827204D01*
X136008723Y-51808154D01*
X135977483Y-51782517D01*
X135951846Y-51751277D01*
X135932796Y-51715638D01*
X135921065Y-51676968D01*
X135916500Y-51630612D01*
X135916500Y-50979388D01*
X135921065Y-50933032D01*
X135932796Y-50894362D01*
X135951846Y-50858723D01*
X135977483Y-50827483D01*
X136008723Y-50801846D01*
X136044362Y-50782796D01*
X136083032Y-50771065D01*
X136129388Y-50766500D01*
X137205612Y-50766500D01*
X137251968Y-50771065D01*
G37*
G36*
X134914468Y-50771065D02*
G01*
X134953138Y-50782796D01*
X134988777Y-50801846D01*
X135020017Y-50827483D01*
X135045654Y-50858723D01*
X135064704Y-50894362D01*
X135076435Y-50933032D01*
X135081000Y-50979388D01*
X135081000Y-51630612D01*
X135076435Y-51676968D01*
X135064704Y-51715638D01*
X135045654Y-51751277D01*
X135020017Y-51782517D01*
X134988777Y-51808154D01*
X134953138Y-51827204D01*
X134914468Y-51838935D01*
X134868112Y-51843500D01*
X133791888Y-51843500D01*
X133745532Y-51838935D01*
X133706862Y-51827204D01*
X133671223Y-51808154D01*
X133639983Y-51782517D01*
X133614346Y-51751277D01*
X133595296Y-51715638D01*
X133583565Y-51676968D01*
X133579000Y-51630612D01*
X133579000Y-50979388D01*
X133583565Y-50933032D01*
X133595296Y-50894362D01*
X133614346Y-50858723D01*
X133639983Y-50827483D01*
X133671223Y-50801846D01*
X133706862Y-50782796D01*
X133745532Y-50771065D01*
X133791888Y-50766500D01*
X134868112Y-50766500D01*
X134914468Y-50771065D01*
G37*
G36*
X209034468Y-49691065D02*
G01*
X209073138Y-49702796D01*
X209108777Y-49721846D01*
X209140017Y-49747483D01*
X209165654Y-49778723D01*
X209184704Y-49814362D01*
X209196435Y-49853032D01*
X209201000Y-49899388D01*
X209201000Y-50550612D01*
X209196435Y-50596968D01*
X209184704Y-50635638D01*
X209165654Y-50671277D01*
X209140017Y-50702517D01*
X209108777Y-50728154D01*
X209073138Y-50747204D01*
X209034468Y-50758935D01*
X208988112Y-50763500D01*
X207911888Y-50763500D01*
X207865532Y-50758935D01*
X207826862Y-50747204D01*
X207791223Y-50728154D01*
X207759983Y-50702517D01*
X207734346Y-50671277D01*
X207715296Y-50635638D01*
X207703565Y-50596968D01*
X207699000Y-50550612D01*
X207699000Y-49899388D01*
X207703565Y-49853032D01*
X207715296Y-49814362D01*
X207734346Y-49778723D01*
X207759983Y-49747483D01*
X207791223Y-49721846D01*
X207826862Y-49702796D01*
X207865532Y-49691065D01*
X207911888Y-49686500D01*
X208988112Y-49686500D01*
X209034468Y-49691065D01*
G37*
G36*
X178984468Y-49691065D02*
G01*
X179023138Y-49702796D01*
X179058777Y-49721846D01*
X179090017Y-49747483D01*
X179115654Y-49778723D01*
X179134704Y-49814362D01*
X179146435Y-49853032D01*
X179151000Y-49899388D01*
X179151000Y-50550612D01*
X179146435Y-50596968D01*
X179134704Y-50635638D01*
X179115654Y-50671277D01*
X179090017Y-50702517D01*
X179058777Y-50728154D01*
X179023138Y-50747204D01*
X178984468Y-50758935D01*
X178938112Y-50763500D01*
X177861888Y-50763500D01*
X177815532Y-50758935D01*
X177776862Y-50747204D01*
X177741223Y-50728154D01*
X177709983Y-50702517D01*
X177684346Y-50671277D01*
X177665296Y-50635638D01*
X177653565Y-50596968D01*
X177649000Y-50550612D01*
X177649000Y-49899388D01*
X177653565Y-49853032D01*
X177665296Y-49814362D01*
X177684346Y-49778723D01*
X177709983Y-49747483D01*
X177741223Y-49721846D01*
X177776862Y-49702796D01*
X177815532Y-49691065D01*
X177861888Y-49686500D01*
X178938112Y-49686500D01*
X178984468Y-49691065D01*
G37*
G36*
X149014468Y-49671065D02*
G01*
X149053138Y-49682796D01*
X149088777Y-49701846D01*
X149120017Y-49727483D01*
X149145654Y-49758723D01*
X149164704Y-49794362D01*
X149176435Y-49833032D01*
X149181000Y-49879388D01*
X149181000Y-50530612D01*
X149176435Y-50576968D01*
X149164704Y-50615638D01*
X149145654Y-50651277D01*
X149120017Y-50682517D01*
X149088777Y-50708154D01*
X149053138Y-50727204D01*
X149014468Y-50738935D01*
X148968112Y-50743500D01*
X147891888Y-50743500D01*
X147845532Y-50738935D01*
X147806862Y-50727204D01*
X147771223Y-50708154D01*
X147739983Y-50682517D01*
X147714346Y-50651277D01*
X147695296Y-50615638D01*
X147683565Y-50576968D01*
X147679000Y-50530612D01*
X147679000Y-49879388D01*
X147683565Y-49833032D01*
X147695296Y-49794362D01*
X147714346Y-49758723D01*
X147739983Y-49727483D01*
X147771223Y-49701846D01*
X147806862Y-49682796D01*
X147845532Y-49671065D01*
X147891888Y-49666500D01*
X148968112Y-49666500D01*
X149014468Y-49671065D01*
G37*
G36*
X194934468Y-46103565D02*
G01*
X194973138Y-46115296D01*
X195008777Y-46134346D01*
X195040017Y-46159983D01*
X195065654Y-46191223D01*
X195084704Y-46226862D01*
X195096435Y-46265532D01*
X195101000Y-46311888D01*
X195101000Y-46963112D01*
X195096435Y-47009468D01*
X195084704Y-47048138D01*
X195065654Y-47083777D01*
X195040017Y-47115017D01*
X195008777Y-47140654D01*
X194973138Y-47159704D01*
X194934468Y-47171435D01*
X194888112Y-47176000D01*
X193811888Y-47176000D01*
X193765532Y-47171435D01*
X193726862Y-47159704D01*
X193691223Y-47140654D01*
X193659983Y-47115017D01*
X193634346Y-47083777D01*
X193615296Y-47048138D01*
X193603565Y-47009468D01*
X193599000Y-46963112D01*
X193599000Y-46311888D01*
X193603565Y-46265532D01*
X193615296Y-46226862D01*
X193634346Y-46191223D01*
X193659983Y-46159983D01*
X193691223Y-46134346D01*
X193726862Y-46115296D01*
X193765532Y-46103565D01*
X193811888Y-46099000D01*
X194888112Y-46099000D01*
X194934468Y-46103565D01*
G37*
G36*
X164884468Y-46103565D02*
G01*
X164923138Y-46115296D01*
X164958777Y-46134346D01*
X164990017Y-46159983D01*
X165015654Y-46191223D01*
X165034704Y-46226862D01*
X165046435Y-46265532D01*
X165051000Y-46311888D01*
X165051000Y-46963112D01*
X165046435Y-47009468D01*
X165034704Y-47048138D01*
X165015654Y-47083777D01*
X164990017Y-47115017D01*
X164958777Y-47140654D01*
X164923138Y-47159704D01*
X164884468Y-47171435D01*
X164838112Y-47176000D01*
X163761888Y-47176000D01*
X163715532Y-47171435D01*
X163676862Y-47159704D01*
X163641223Y-47140654D01*
X163609983Y-47115017D01*
X163584346Y-47083777D01*
X163565296Y-47048138D01*
X163553565Y-47009468D01*
X163549000Y-46963112D01*
X163549000Y-46311888D01*
X163553565Y-46265532D01*
X163565296Y-46226862D01*
X163584346Y-46191223D01*
X163609983Y-46159983D01*
X163641223Y-46134346D01*
X163676862Y-46115296D01*
X163715532Y-46103565D01*
X163761888Y-46099000D01*
X164838112Y-46099000D01*
X164884468Y-46103565D01*
G37*
G36*
X134914468Y-46083565D02*
G01*
X134953138Y-46095296D01*
X134988777Y-46114346D01*
X135020017Y-46139983D01*
X135045654Y-46171223D01*
X135064704Y-46206862D01*
X135076435Y-46245532D01*
X135081000Y-46291888D01*
X135081000Y-46943112D01*
X135076435Y-46989468D01*
X135064704Y-47028138D01*
X135045654Y-47063777D01*
X135020017Y-47095017D01*
X134988777Y-47120654D01*
X134953138Y-47139704D01*
X134914468Y-47151435D01*
X134868112Y-47156000D01*
X133791888Y-47156000D01*
X133745532Y-47151435D01*
X133706862Y-47139704D01*
X133671223Y-47120654D01*
X133639983Y-47095017D01*
X133614346Y-47063777D01*
X133595296Y-47028138D01*
X133583565Y-46989468D01*
X133579000Y-46943112D01*
X133579000Y-46291888D01*
X133583565Y-46245532D01*
X133595296Y-46206862D01*
X133614346Y-46171223D01*
X133639983Y-46139983D01*
X133671223Y-46114346D01*
X133706862Y-46095296D01*
X133745532Y-46083565D01*
X133791888Y-46079000D01*
X134868112Y-46079000D01*
X134914468Y-46083565D01*
G37*
G36*
X191534468Y-46066065D02*
G01*
X191573138Y-46077796D01*
X191608777Y-46096846D01*
X191640017Y-46122483D01*
X191665654Y-46153723D01*
X191684704Y-46189362D01*
X191696435Y-46228032D01*
X191701000Y-46274388D01*
X191701000Y-46925612D01*
X191696435Y-46971968D01*
X191684704Y-47010638D01*
X191665654Y-47046277D01*
X191640017Y-47077517D01*
X191608777Y-47103154D01*
X191573138Y-47122204D01*
X191534468Y-47133935D01*
X191488112Y-47138500D01*
X190411888Y-47138500D01*
X190365532Y-47133935D01*
X190326862Y-47122204D01*
X190291223Y-47103154D01*
X190259983Y-47077517D01*
X190234346Y-47046277D01*
X190215296Y-47010638D01*
X190203565Y-46971968D01*
X190199000Y-46925612D01*
X190199000Y-46274388D01*
X190203565Y-46228032D01*
X190215296Y-46189362D01*
X190234346Y-46153723D01*
X190259983Y-46122483D01*
X190291223Y-46096846D01*
X190326862Y-46077796D01*
X190365532Y-46066065D01*
X190411888Y-46061500D01*
X191488112Y-46061500D01*
X191534468Y-46066065D01*
G37*
G36*
X161484468Y-46066065D02*
G01*
X161523138Y-46077796D01*
X161558777Y-46096846D01*
X161590017Y-46122483D01*
X161615654Y-46153723D01*
X161634704Y-46189362D01*
X161646435Y-46228032D01*
X161651000Y-46274388D01*
X161651000Y-46925612D01*
X161646435Y-46971968D01*
X161634704Y-47010638D01*
X161615654Y-47046277D01*
X161590017Y-47077517D01*
X161558777Y-47103154D01*
X161523138Y-47122204D01*
X161484468Y-47133935D01*
X161438112Y-47138500D01*
X160361888Y-47138500D01*
X160315532Y-47133935D01*
X160276862Y-47122204D01*
X160241223Y-47103154D01*
X160209983Y-47077517D01*
X160184346Y-47046277D01*
X160165296Y-47010638D01*
X160153565Y-46971968D01*
X160149000Y-46925612D01*
X160149000Y-46274388D01*
X160153565Y-46228032D01*
X160165296Y-46189362D01*
X160184346Y-46153723D01*
X160209983Y-46122483D01*
X160241223Y-46096846D01*
X160276862Y-46077796D01*
X160315532Y-46066065D01*
X160361888Y-46061500D01*
X161438112Y-46061500D01*
X161484468Y-46066065D01*
G37*
G36*
X131514468Y-46046065D02*
G01*
X131553138Y-46057796D01*
X131588777Y-46076846D01*
X131620017Y-46102483D01*
X131645654Y-46133723D01*
X131664704Y-46169362D01*
X131676435Y-46208032D01*
X131681000Y-46254388D01*
X131681000Y-46905612D01*
X131676435Y-46951968D01*
X131664704Y-46990638D01*
X131645654Y-47026277D01*
X131620017Y-47057517D01*
X131588777Y-47083154D01*
X131553138Y-47102204D01*
X131514468Y-47113935D01*
X131468112Y-47118500D01*
X130391888Y-47118500D01*
X130345532Y-47113935D01*
X130306862Y-47102204D01*
X130271223Y-47083154D01*
X130239983Y-47057517D01*
X130214346Y-47026277D01*
X130195296Y-46990638D01*
X130183565Y-46951968D01*
X130179000Y-46905612D01*
X130179000Y-46254388D01*
X130183565Y-46208032D01*
X130195296Y-46169362D01*
X130214346Y-46133723D01*
X130239983Y-46102483D01*
X130271223Y-46076846D01*
X130306862Y-46057796D01*
X130345532Y-46046065D01*
X130391888Y-46041500D01*
X131468112Y-46041500D01*
X131514468Y-46046065D01*
G37*
G36*
X198246968Y-45453565D02*
G01*
X198285638Y-45465296D01*
X198321277Y-45484346D01*
X198352517Y-45509983D01*
X198378154Y-45541223D01*
X198397204Y-45576862D01*
X198408935Y-45615532D01*
X198413500Y-45661888D01*
X198413500Y-46738112D01*
X198408935Y-46784468D01*
X198397204Y-46823138D01*
X198378154Y-46858777D01*
X198352517Y-46890017D01*
X198321277Y-46915654D01*
X198285638Y-46934704D01*
X198246968Y-46946435D01*
X198200612Y-46951000D01*
X197549388Y-46951000D01*
X197503032Y-46946435D01*
X197464362Y-46934704D01*
X197428723Y-46915654D01*
X197397483Y-46890017D01*
X197371846Y-46858777D01*
X197352796Y-46823138D01*
X197341065Y-46784468D01*
X197336500Y-46738112D01*
X197336500Y-45661888D01*
X197341065Y-45615532D01*
X197352796Y-45576862D01*
X197371846Y-45541223D01*
X197397483Y-45509983D01*
X197428723Y-45484346D01*
X197464362Y-45465296D01*
X197503032Y-45453565D01*
X197549388Y-45449000D01*
X198200612Y-45449000D01*
X198246968Y-45453565D01*
G37*
G36*
X168196968Y-45453565D02*
G01*
X168235638Y-45465296D01*
X168271277Y-45484346D01*
X168302517Y-45509983D01*
X168328154Y-45541223D01*
X168347204Y-45576862D01*
X168358935Y-45615532D01*
X168363500Y-45661888D01*
X168363500Y-46738112D01*
X168358935Y-46784468D01*
X168347204Y-46823138D01*
X168328154Y-46858777D01*
X168302517Y-46890017D01*
X168271277Y-46915654D01*
X168235638Y-46934704D01*
X168196968Y-46946435D01*
X168150612Y-46951000D01*
X167499388Y-46951000D01*
X167453032Y-46946435D01*
X167414362Y-46934704D01*
X167378723Y-46915654D01*
X167347483Y-46890017D01*
X167321846Y-46858777D01*
X167302796Y-46823138D01*
X167291065Y-46784468D01*
X167286500Y-46738112D01*
X167286500Y-45661888D01*
X167291065Y-45615532D01*
X167302796Y-45576862D01*
X167321846Y-45541223D01*
X167347483Y-45509983D01*
X167378723Y-45484346D01*
X167414362Y-45465296D01*
X167453032Y-45453565D01*
X167499388Y-45449000D01*
X168150612Y-45449000D01*
X168196968Y-45453565D01*
G37*
G36*
X170071968Y-45453565D02*
G01*
X170110638Y-45465296D01*
X170146277Y-45484346D01*
X170177517Y-45509983D01*
X170203154Y-45541223D01*
X170222204Y-45576862D01*
X170233935Y-45615532D01*
X170238500Y-45661888D01*
X170238500Y-46738112D01*
X170233935Y-46784468D01*
X170222204Y-46823138D01*
X170203154Y-46858777D01*
X170177517Y-46890017D01*
X170146277Y-46915654D01*
X170110638Y-46934704D01*
X170071968Y-46946435D01*
X170025612Y-46951000D01*
X169374388Y-46951000D01*
X169328032Y-46946435D01*
X169289362Y-46934704D01*
X169253723Y-46915654D01*
X169222483Y-46890017D01*
X169196846Y-46858777D01*
X169177796Y-46823138D01*
X169166065Y-46784468D01*
X169161500Y-46738112D01*
X169161500Y-45661888D01*
X169166065Y-45615532D01*
X169177796Y-45576862D01*
X169196846Y-45541223D01*
X169222483Y-45509983D01*
X169253723Y-45484346D01*
X169289362Y-45465296D01*
X169328032Y-45453565D01*
X169374388Y-45449000D01*
X170025612Y-45449000D01*
X170071968Y-45453565D01*
G37*
G36*
X172096968Y-45453565D02*
G01*
X172135638Y-45465296D01*
X172171277Y-45484346D01*
X172202517Y-45509983D01*
X172228154Y-45541223D01*
X172247204Y-45576862D01*
X172258935Y-45615532D01*
X172263500Y-45661888D01*
X172263500Y-46738112D01*
X172258935Y-46784468D01*
X172247204Y-46823138D01*
X172228154Y-46858777D01*
X172202517Y-46890017D01*
X172171277Y-46915654D01*
X172135638Y-46934704D01*
X172096968Y-46946435D01*
X172050612Y-46951000D01*
X171399388Y-46951000D01*
X171353032Y-46946435D01*
X171314362Y-46934704D01*
X171278723Y-46915654D01*
X171247483Y-46890017D01*
X171221846Y-46858777D01*
X171202796Y-46823138D01*
X171191065Y-46784468D01*
X171186500Y-46738112D01*
X171186500Y-45661888D01*
X171191065Y-45615532D01*
X171202796Y-45576862D01*
X171221846Y-45541223D01*
X171247483Y-45509983D01*
X171278723Y-45484346D01*
X171314362Y-45465296D01*
X171353032Y-45453565D01*
X171399388Y-45449000D01*
X172050612Y-45449000D01*
X172096968Y-45453565D01*
G37*
G36*
X173971968Y-45453565D02*
G01*
X174010638Y-45465296D01*
X174046277Y-45484346D01*
X174077517Y-45509983D01*
X174103154Y-45541223D01*
X174122204Y-45576862D01*
X174133935Y-45615532D01*
X174138500Y-45661888D01*
X174138500Y-46738112D01*
X174133935Y-46784468D01*
X174122204Y-46823138D01*
X174103154Y-46858777D01*
X174077517Y-46890017D01*
X174046277Y-46915654D01*
X174010638Y-46934704D01*
X173971968Y-46946435D01*
X173925612Y-46951000D01*
X173274388Y-46951000D01*
X173228032Y-46946435D01*
X173189362Y-46934704D01*
X173153723Y-46915654D01*
X173122483Y-46890017D01*
X173096846Y-46858777D01*
X173077796Y-46823138D01*
X173066065Y-46784468D01*
X173061500Y-46738112D01*
X173061500Y-45661888D01*
X173066065Y-45615532D01*
X173077796Y-45576862D01*
X173096846Y-45541223D01*
X173122483Y-45509983D01*
X173153723Y-45484346D01*
X173189362Y-45465296D01*
X173228032Y-45453565D01*
X173274388Y-45449000D01*
X173925612Y-45449000D01*
X173971968Y-45453565D01*
G37*
G36*
X204021968Y-45453565D02*
G01*
X204060638Y-45465296D01*
X204096277Y-45484346D01*
X204127517Y-45509983D01*
X204153154Y-45541223D01*
X204172204Y-45576862D01*
X204183935Y-45615532D01*
X204188500Y-45661888D01*
X204188500Y-46738112D01*
X204183935Y-46784468D01*
X204172204Y-46823138D01*
X204153154Y-46858777D01*
X204127517Y-46890017D01*
X204096277Y-46915654D01*
X204060638Y-46934704D01*
X204021968Y-46946435D01*
X203975612Y-46951000D01*
X203324388Y-46951000D01*
X203278032Y-46946435D01*
X203239362Y-46934704D01*
X203203723Y-46915654D01*
X203172483Y-46890017D01*
X203146846Y-46858777D01*
X203127796Y-46823138D01*
X203116065Y-46784468D01*
X203111500Y-46738112D01*
X203111500Y-45661888D01*
X203116065Y-45615532D01*
X203127796Y-45576862D01*
X203146846Y-45541223D01*
X203172483Y-45509983D01*
X203203723Y-45484346D01*
X203239362Y-45465296D01*
X203278032Y-45453565D01*
X203324388Y-45449000D01*
X203975612Y-45449000D01*
X204021968Y-45453565D01*
G37*
G36*
X202146968Y-45453565D02*
G01*
X202185638Y-45465296D01*
X202221277Y-45484346D01*
X202252517Y-45509983D01*
X202278154Y-45541223D01*
X202297204Y-45576862D01*
X202308935Y-45615532D01*
X202313500Y-45661888D01*
X202313500Y-46738112D01*
X202308935Y-46784468D01*
X202297204Y-46823138D01*
X202278154Y-46858777D01*
X202252517Y-46890017D01*
X202221277Y-46915654D01*
X202185638Y-46934704D01*
X202146968Y-46946435D01*
X202100612Y-46951000D01*
X201449388Y-46951000D01*
X201403032Y-46946435D01*
X201364362Y-46934704D01*
X201328723Y-46915654D01*
X201297483Y-46890017D01*
X201271846Y-46858777D01*
X201252796Y-46823138D01*
X201241065Y-46784468D01*
X201236500Y-46738112D01*
X201236500Y-45661888D01*
X201241065Y-45615532D01*
X201252796Y-45576862D01*
X201271846Y-45541223D01*
X201297483Y-45509983D01*
X201328723Y-45484346D01*
X201364362Y-45465296D01*
X201403032Y-45453565D01*
X201449388Y-45449000D01*
X202100612Y-45449000D01*
X202146968Y-45453565D01*
G37*
G36*
X200121968Y-45453565D02*
G01*
X200160638Y-45465296D01*
X200196277Y-45484346D01*
X200227517Y-45509983D01*
X200253154Y-45541223D01*
X200272204Y-45576862D01*
X200283935Y-45615532D01*
X200288500Y-45661888D01*
X200288500Y-46738112D01*
X200283935Y-46784468D01*
X200272204Y-46823138D01*
X200253154Y-46858777D01*
X200227517Y-46890017D01*
X200196277Y-46915654D01*
X200160638Y-46934704D01*
X200121968Y-46946435D01*
X200075612Y-46951000D01*
X199424388Y-46951000D01*
X199378032Y-46946435D01*
X199339362Y-46934704D01*
X199303723Y-46915654D01*
X199272483Y-46890017D01*
X199246846Y-46858777D01*
X199227796Y-46823138D01*
X199216065Y-46784468D01*
X199211500Y-46738112D01*
X199211500Y-45661888D01*
X199216065Y-45615532D01*
X199227796Y-45576862D01*
X199246846Y-45541223D01*
X199272483Y-45509983D01*
X199303723Y-45484346D01*
X199339362Y-45465296D01*
X199378032Y-45453565D01*
X199424388Y-45449000D01*
X200075612Y-45449000D01*
X200121968Y-45453565D01*
G37*
G36*
X140101968Y-45433565D02*
G01*
X140140638Y-45445296D01*
X140176277Y-45464346D01*
X140207517Y-45489983D01*
X140233154Y-45521223D01*
X140252204Y-45556862D01*
X140263935Y-45595532D01*
X140268500Y-45641888D01*
X140268500Y-46718112D01*
X140263935Y-46764468D01*
X140252204Y-46803138D01*
X140233154Y-46838777D01*
X140207517Y-46870017D01*
X140176277Y-46895654D01*
X140140638Y-46914704D01*
X140101968Y-46926435D01*
X140055612Y-46931000D01*
X139404388Y-46931000D01*
X139358032Y-46926435D01*
X139319362Y-46914704D01*
X139283723Y-46895654D01*
X139252483Y-46870017D01*
X139226846Y-46838777D01*
X139207796Y-46803138D01*
X139196065Y-46764468D01*
X139191500Y-46718112D01*
X139191500Y-45641888D01*
X139196065Y-45595532D01*
X139207796Y-45556862D01*
X139226846Y-45521223D01*
X139252483Y-45489983D01*
X139283723Y-45464346D01*
X139319362Y-45445296D01*
X139358032Y-45433565D01*
X139404388Y-45429000D01*
X140055612Y-45429000D01*
X140101968Y-45433565D01*
G37*
G36*
X144001968Y-45433565D02*
G01*
X144040638Y-45445296D01*
X144076277Y-45464346D01*
X144107517Y-45489983D01*
X144133154Y-45521223D01*
X144152204Y-45556862D01*
X144163935Y-45595532D01*
X144168500Y-45641888D01*
X144168500Y-46718112D01*
X144163935Y-46764468D01*
X144152204Y-46803138D01*
X144133154Y-46838777D01*
X144107517Y-46870017D01*
X144076277Y-46895654D01*
X144040638Y-46914704D01*
X144001968Y-46926435D01*
X143955612Y-46931000D01*
X143304388Y-46931000D01*
X143258032Y-46926435D01*
X143219362Y-46914704D01*
X143183723Y-46895654D01*
X143152483Y-46870017D01*
X143126846Y-46838777D01*
X143107796Y-46803138D01*
X143096065Y-46764468D01*
X143091500Y-46718112D01*
X143091500Y-45641888D01*
X143096065Y-45595532D01*
X143107796Y-45556862D01*
X143126846Y-45521223D01*
X143152483Y-45489983D01*
X143183723Y-45464346D01*
X143219362Y-45445296D01*
X143258032Y-45433565D01*
X143304388Y-45429000D01*
X143955612Y-45429000D01*
X144001968Y-45433565D01*
G37*
G36*
X142126968Y-45433565D02*
G01*
X142165638Y-45445296D01*
X142201277Y-45464346D01*
X142232517Y-45489983D01*
X142258154Y-45521223D01*
X142277204Y-45556862D01*
X142288935Y-45595532D01*
X142293500Y-45641888D01*
X142293500Y-46718112D01*
X142288935Y-46764468D01*
X142277204Y-46803138D01*
X142258154Y-46838777D01*
X142232517Y-46870017D01*
X142201277Y-46895654D01*
X142165638Y-46914704D01*
X142126968Y-46926435D01*
X142080612Y-46931000D01*
X141429388Y-46931000D01*
X141383032Y-46926435D01*
X141344362Y-46914704D01*
X141308723Y-46895654D01*
X141277483Y-46870017D01*
X141251846Y-46838777D01*
X141232796Y-46803138D01*
X141221065Y-46764468D01*
X141216500Y-46718112D01*
X141216500Y-45641888D01*
X141221065Y-45595532D01*
X141232796Y-45556862D01*
X141251846Y-45521223D01*
X141277483Y-45489983D01*
X141308723Y-45464346D01*
X141344362Y-45445296D01*
X141383032Y-45433565D01*
X141429388Y-45429000D01*
X142080612Y-45429000D01*
X142126968Y-45433565D01*
G37*
G36*
X138226968Y-45433565D02*
G01*
X138265638Y-45445296D01*
X138301277Y-45464346D01*
X138332517Y-45489983D01*
X138358154Y-45521223D01*
X138377204Y-45556862D01*
X138388935Y-45595532D01*
X138393500Y-45641888D01*
X138393500Y-46718112D01*
X138388935Y-46764468D01*
X138377204Y-46803138D01*
X138358154Y-46838777D01*
X138332517Y-46870017D01*
X138301277Y-46895654D01*
X138265638Y-46914704D01*
X138226968Y-46926435D01*
X138180612Y-46931000D01*
X137529388Y-46931000D01*
X137483032Y-46926435D01*
X137444362Y-46914704D01*
X137408723Y-46895654D01*
X137377483Y-46870017D01*
X137351846Y-46838777D01*
X137332796Y-46803138D01*
X137321065Y-46764468D01*
X137316500Y-46718112D01*
X137316500Y-45641888D01*
X137321065Y-45595532D01*
X137332796Y-45556862D01*
X137351846Y-45521223D01*
X137377483Y-45489983D01*
X137408723Y-45464346D01*
X137444362Y-45445296D01*
X137483032Y-45433565D01*
X137529388Y-45429000D01*
X138180612Y-45429000D01*
X138226968Y-45433565D01*
G37*
G36*
X177951000Y-41621713D02*
G01*
X177953402Y-41646099D01*
X177960515Y-41669548D01*
X177971994Y-41691050D01*
X178119996Y-41913053D01*
X178128500Y-41923437D01*
X178134852Y-41935336D01*
X178373520Y-42293338D01*
X178389045Y-42312296D01*
X178407971Y-42327861D01*
X178429569Y-42339435D01*
X178451000Y-42345961D01*
X178451000Y-42371712D01*
X178453402Y-42396098D01*
X178460515Y-42419547D01*
X178471994Y-42441049D01*
X178508607Y-42495968D01*
X178506553Y-42497066D01*
X178487611Y-42512611D01*
X178472066Y-42531553D01*
X178460515Y-42553164D01*
X178453402Y-42576613D01*
X178451000Y-42600999D01*
X178451000Y-46451000D01*
X176349000Y-46451000D01*
X176349000Y-42600999D01*
X176346598Y-42576613D01*
X176339485Y-42553164D01*
X176327934Y-42531553D01*
X176312389Y-42512611D01*
X176293447Y-42497066D01*
X176291393Y-42495968D01*
X176328006Y-42441049D01*
X176339535Y-42419426D01*
X176346624Y-42395970D01*
X176349000Y-42371712D01*
X176349000Y-42345949D01*
X176370310Y-42339485D01*
X176391921Y-42327934D01*
X176410863Y-42312389D01*
X176426480Y-42293338D01*
X176665148Y-41935336D01*
X176671493Y-41923435D01*
X176680004Y-41913053D01*
X176828006Y-41691050D01*
X176839535Y-41669427D01*
X176846624Y-41645971D01*
X176849000Y-41621713D01*
X176849000Y-39139000D01*
X177951000Y-39139000D01*
X177951000Y-41621713D01*
G37*
G36*
X208001000Y-41621713D02*
G01*
X208003402Y-41646099D01*
X208010515Y-41669548D01*
X208021994Y-41691050D01*
X208169996Y-41913053D01*
X208178500Y-41923437D01*
X208184852Y-41935336D01*
X208423520Y-42293338D01*
X208439045Y-42312296D01*
X208457971Y-42327861D01*
X208479569Y-42339435D01*
X208501000Y-42345961D01*
X208501000Y-42371712D01*
X208503402Y-42396098D01*
X208510515Y-42419547D01*
X208521994Y-42441049D01*
X208558607Y-42495968D01*
X208556553Y-42497066D01*
X208537611Y-42512611D01*
X208522066Y-42531553D01*
X208510515Y-42553164D01*
X208503402Y-42576613D01*
X208501000Y-42600999D01*
X208501000Y-46451000D01*
X206399000Y-46451000D01*
X206399000Y-42600999D01*
X206396598Y-42576613D01*
X206389485Y-42553164D01*
X206377934Y-42531553D01*
X206362389Y-42512611D01*
X206343447Y-42497066D01*
X206341393Y-42495968D01*
X206378006Y-42441049D01*
X206389535Y-42419426D01*
X206396624Y-42395970D01*
X206399000Y-42371712D01*
X206399000Y-42345949D01*
X206420310Y-42339485D01*
X206441921Y-42327934D01*
X206460863Y-42312389D01*
X206476480Y-42293338D01*
X206715148Y-41935336D01*
X206721493Y-41923435D01*
X206730004Y-41913053D01*
X206878006Y-41691050D01*
X206889535Y-41669427D01*
X206896624Y-41645971D01*
X206899000Y-41621713D01*
X206899000Y-39139000D01*
X208001000Y-39139000D01*
X208001000Y-41621713D01*
G37*
G36*
X147981000Y-41601713D02*
G01*
X147983402Y-41626099D01*
X147990515Y-41649548D01*
X148001994Y-41671050D01*
X148149996Y-41893053D01*
X148158500Y-41903437D01*
X148164852Y-41915336D01*
X148403520Y-42273338D01*
X148419045Y-42292296D01*
X148437971Y-42307861D01*
X148459569Y-42319435D01*
X148481000Y-42325961D01*
X148481000Y-42351712D01*
X148483402Y-42376098D01*
X148490515Y-42399547D01*
X148501994Y-42421049D01*
X148538607Y-42475968D01*
X148536553Y-42477066D01*
X148517611Y-42492611D01*
X148502066Y-42511553D01*
X148490515Y-42533164D01*
X148483402Y-42556613D01*
X148481000Y-42580999D01*
X148481000Y-46431000D01*
X146379000Y-46431000D01*
X146379000Y-42580999D01*
X146376598Y-42556613D01*
X146369485Y-42533164D01*
X146357934Y-42511553D01*
X146342389Y-42492611D01*
X146323447Y-42477066D01*
X146321393Y-42475968D01*
X146358006Y-42421049D01*
X146369535Y-42399426D01*
X146376624Y-42375970D01*
X146379000Y-42351712D01*
X146379000Y-42325949D01*
X146400310Y-42319485D01*
X146421921Y-42307934D01*
X146440863Y-42292389D01*
X146456480Y-42273338D01*
X146695148Y-41915336D01*
X146701493Y-41903435D01*
X146710004Y-41893053D01*
X146858006Y-41671050D01*
X146869535Y-41649427D01*
X146876624Y-41625971D01*
X146879000Y-41601713D01*
X146879000Y-39119000D01*
X147981000Y-39119000D01*
X147981000Y-41601713D01*
G37*
G36*
X194934468Y-44228565D02*
G01*
X194973138Y-44240296D01*
X195008777Y-44259346D01*
X195040017Y-44284983D01*
X195065654Y-44316223D01*
X195084704Y-44351862D01*
X195096435Y-44390532D01*
X195101000Y-44436888D01*
X195101000Y-45088112D01*
X195096435Y-45134468D01*
X195084704Y-45173138D01*
X195065654Y-45208777D01*
X195040017Y-45240017D01*
X195008777Y-45265654D01*
X194973138Y-45284704D01*
X194934468Y-45296435D01*
X194888112Y-45301000D01*
X193811888Y-45301000D01*
X193765532Y-45296435D01*
X193726862Y-45284704D01*
X193691223Y-45265654D01*
X193659983Y-45240017D01*
X193634346Y-45208777D01*
X193615296Y-45173138D01*
X193603565Y-45134468D01*
X193599000Y-45088112D01*
X193599000Y-44436888D01*
X193603565Y-44390532D01*
X193615296Y-44351862D01*
X193634346Y-44316223D01*
X193659983Y-44284983D01*
X193691223Y-44259346D01*
X193726862Y-44240296D01*
X193765532Y-44228565D01*
X193811888Y-44224000D01*
X194888112Y-44224000D01*
X194934468Y-44228565D01*
G37*
G36*
X164884468Y-44228565D02*
G01*
X164923138Y-44240296D01*
X164958777Y-44259346D01*
X164990017Y-44284983D01*
X165015654Y-44316223D01*
X165034704Y-44351862D01*
X165046435Y-44390532D01*
X165051000Y-44436888D01*
X165051000Y-45088112D01*
X165046435Y-45134468D01*
X165034704Y-45173138D01*
X165015654Y-45208777D01*
X164990017Y-45240017D01*
X164958777Y-45265654D01*
X164923138Y-45284704D01*
X164884468Y-45296435D01*
X164838112Y-45301000D01*
X163761888Y-45301000D01*
X163715532Y-45296435D01*
X163676862Y-45284704D01*
X163641223Y-45265654D01*
X163609983Y-45240017D01*
X163584346Y-45208777D01*
X163565296Y-45173138D01*
X163553565Y-45134468D01*
X163549000Y-45088112D01*
X163549000Y-44436888D01*
X163553565Y-44390532D01*
X163565296Y-44351862D01*
X163584346Y-44316223D01*
X163609983Y-44284983D01*
X163641223Y-44259346D01*
X163676862Y-44240296D01*
X163715532Y-44228565D01*
X163761888Y-44224000D01*
X164838112Y-44224000D01*
X164884468Y-44228565D01*
G37*
G36*
X134914468Y-44208565D02*
G01*
X134953138Y-44220296D01*
X134988777Y-44239346D01*
X135020017Y-44264983D01*
X135045654Y-44296223D01*
X135064704Y-44331862D01*
X135076435Y-44370532D01*
X135081000Y-44416888D01*
X135081000Y-45068112D01*
X135076435Y-45114468D01*
X135064704Y-45153138D01*
X135045654Y-45188777D01*
X135020017Y-45220017D01*
X134988777Y-45245654D01*
X134953138Y-45264704D01*
X134914468Y-45276435D01*
X134868112Y-45281000D01*
X133791888Y-45281000D01*
X133745532Y-45276435D01*
X133706862Y-45264704D01*
X133671223Y-45245654D01*
X133639983Y-45220017D01*
X133614346Y-45188777D01*
X133595296Y-45153138D01*
X133583565Y-45114468D01*
X133579000Y-45068112D01*
X133579000Y-44416888D01*
X133583565Y-44370532D01*
X133595296Y-44331862D01*
X133614346Y-44296223D01*
X133639983Y-44264983D01*
X133671223Y-44239346D01*
X133706862Y-44220296D01*
X133745532Y-44208565D01*
X133791888Y-44204000D01*
X134868112Y-44204000D01*
X134914468Y-44208565D01*
G37*
G36*
X161484468Y-44191065D02*
G01*
X161523138Y-44202796D01*
X161558777Y-44221846D01*
X161590017Y-44247483D01*
X161615654Y-44278723D01*
X161634704Y-44314362D01*
X161646435Y-44353032D01*
X161651000Y-44399388D01*
X161651000Y-45050612D01*
X161646435Y-45096968D01*
X161634704Y-45135638D01*
X161615654Y-45171277D01*
X161590017Y-45202517D01*
X161558777Y-45228154D01*
X161523138Y-45247204D01*
X161484468Y-45258935D01*
X161438112Y-45263500D01*
X160361888Y-45263500D01*
X160315532Y-45258935D01*
X160276862Y-45247204D01*
X160241223Y-45228154D01*
X160209983Y-45202517D01*
X160184346Y-45171277D01*
X160165296Y-45135638D01*
X160153565Y-45096968D01*
X160149000Y-45050612D01*
X160149000Y-44399388D01*
X160153565Y-44353032D01*
X160165296Y-44314362D01*
X160184346Y-44278723D01*
X160209983Y-44247483D01*
X160241223Y-44221846D01*
X160276862Y-44202796D01*
X160315532Y-44191065D01*
X160361888Y-44186500D01*
X161438112Y-44186500D01*
X161484468Y-44191065D01*
G37*
G36*
X191534468Y-44191065D02*
G01*
X191573138Y-44202796D01*
X191608777Y-44221846D01*
X191640017Y-44247483D01*
X191665654Y-44278723D01*
X191684704Y-44314362D01*
X191696435Y-44353032D01*
X191701000Y-44399388D01*
X191701000Y-45050612D01*
X191696435Y-45096968D01*
X191684704Y-45135638D01*
X191665654Y-45171277D01*
X191640017Y-45202517D01*
X191608777Y-45228154D01*
X191573138Y-45247204D01*
X191534468Y-45258935D01*
X191488112Y-45263500D01*
X190411888Y-45263500D01*
X190365532Y-45258935D01*
X190326862Y-45247204D01*
X190291223Y-45228154D01*
X190259983Y-45202517D01*
X190234346Y-45171277D01*
X190215296Y-45135638D01*
X190203565Y-45096968D01*
X190199000Y-45050612D01*
X190199000Y-44399388D01*
X190203565Y-44353032D01*
X190215296Y-44314362D01*
X190234346Y-44278723D01*
X190259983Y-44247483D01*
X190291223Y-44221846D01*
X190326862Y-44202796D01*
X190365532Y-44191065D01*
X190411888Y-44186500D01*
X191488112Y-44186500D01*
X191534468Y-44191065D01*
G37*
G36*
X131514468Y-44171065D02*
G01*
X131553138Y-44182796D01*
X131588777Y-44201846D01*
X131620017Y-44227483D01*
X131645654Y-44258723D01*
X131664704Y-44294362D01*
X131676435Y-44333032D01*
X131681000Y-44379388D01*
X131681000Y-45030612D01*
X131676435Y-45076968D01*
X131664704Y-45115638D01*
X131645654Y-45151277D01*
X131620017Y-45182517D01*
X131588777Y-45208154D01*
X131553138Y-45227204D01*
X131514468Y-45238935D01*
X131468112Y-45243500D01*
X130391888Y-45243500D01*
X130345532Y-45238935D01*
X130306862Y-45227204D01*
X130271223Y-45208154D01*
X130239983Y-45182517D01*
X130214346Y-45151277D01*
X130195296Y-45115638D01*
X130183565Y-45076968D01*
X130179000Y-45030612D01*
X130179000Y-44379388D01*
X130183565Y-44333032D01*
X130195296Y-44294362D01*
X130214346Y-44258723D01*
X130239983Y-44227483D01*
X130271223Y-44201846D01*
X130306862Y-44182796D01*
X130345532Y-44171065D01*
X130391888Y-44166500D01*
X131468112Y-44166500D01*
X131514468Y-44171065D01*
G37*
G36*
X169484468Y-42066065D02*
G01*
X169523138Y-42077796D01*
X169558777Y-42096846D01*
X169590017Y-42122483D01*
X169615654Y-42153723D01*
X169634704Y-42189362D01*
X169646435Y-42228032D01*
X169651000Y-42274388D01*
X169651000Y-42925612D01*
X169646435Y-42971968D01*
X169634704Y-43010638D01*
X169615654Y-43046277D01*
X169590017Y-43077517D01*
X169558777Y-43103154D01*
X169523138Y-43122204D01*
X169484468Y-43133935D01*
X169438112Y-43138500D01*
X168361888Y-43138500D01*
X168315532Y-43133935D01*
X168276862Y-43122204D01*
X168241223Y-43103154D01*
X168209983Y-43077517D01*
X168184346Y-43046277D01*
X168165296Y-43010638D01*
X168153565Y-42971968D01*
X168149000Y-42925612D01*
X168149000Y-42274388D01*
X168153565Y-42228032D01*
X168165296Y-42189362D01*
X168184346Y-42153723D01*
X168209983Y-42122483D01*
X168241223Y-42096846D01*
X168276862Y-42077796D01*
X168315532Y-42066065D01*
X168361888Y-42061500D01*
X169438112Y-42061500D01*
X169484468Y-42066065D01*
G37*
G36*
X199534468Y-42066065D02*
G01*
X199573138Y-42077796D01*
X199608777Y-42096846D01*
X199640017Y-42122483D01*
X199665654Y-42153723D01*
X199684704Y-42189362D01*
X199696435Y-42228032D01*
X199701000Y-42274388D01*
X199701000Y-42925612D01*
X199696435Y-42971968D01*
X199684704Y-43010638D01*
X199665654Y-43046277D01*
X199640017Y-43077517D01*
X199608777Y-43103154D01*
X199573138Y-43122204D01*
X199534468Y-43133935D01*
X199488112Y-43138500D01*
X198411888Y-43138500D01*
X198365532Y-43133935D01*
X198326862Y-43122204D01*
X198291223Y-43103154D01*
X198259983Y-43077517D01*
X198234346Y-43046277D01*
X198215296Y-43010638D01*
X198203565Y-42971968D01*
X198199000Y-42925612D01*
X198199000Y-42274388D01*
X198203565Y-42228032D01*
X198215296Y-42189362D01*
X198234346Y-42153723D01*
X198259983Y-42122483D01*
X198291223Y-42096846D01*
X198326862Y-42077796D01*
X198365532Y-42066065D01*
X198411888Y-42061500D01*
X199488112Y-42061500D01*
X199534468Y-42066065D01*
G37*
G36*
X139514468Y-42046065D02*
G01*
X139553138Y-42057796D01*
X139588777Y-42076846D01*
X139620017Y-42102483D01*
X139645654Y-42133723D01*
X139664704Y-42169362D01*
X139676435Y-42208032D01*
X139681000Y-42254388D01*
X139681000Y-42905612D01*
X139676435Y-42951968D01*
X139664704Y-42990638D01*
X139645654Y-43026277D01*
X139620017Y-43057517D01*
X139588777Y-43083154D01*
X139553138Y-43102204D01*
X139514468Y-43113935D01*
X139468112Y-43118500D01*
X138391888Y-43118500D01*
X138345532Y-43113935D01*
X138306862Y-43102204D01*
X138271223Y-43083154D01*
X138239983Y-43057517D01*
X138214346Y-43026277D01*
X138195296Y-42990638D01*
X138183565Y-42951968D01*
X138179000Y-42905612D01*
X138179000Y-42254388D01*
X138183565Y-42208032D01*
X138195296Y-42169362D01*
X138214346Y-42133723D01*
X138239983Y-42102483D01*
X138271223Y-42076846D01*
X138306862Y-42057796D01*
X138345532Y-42046065D01*
X138391888Y-42041500D01*
X139468112Y-42041500D01*
X139514468Y-42046065D01*
G37*
G36*
X172284468Y-41941065D02*
G01*
X172323138Y-41952796D01*
X172358777Y-41971846D01*
X172390017Y-41997483D01*
X172415654Y-42028723D01*
X172434704Y-42064362D01*
X172446435Y-42103032D01*
X172451000Y-42149388D01*
X172451000Y-42800612D01*
X172446435Y-42846968D01*
X172434704Y-42885638D01*
X172415654Y-42921277D01*
X172390017Y-42952517D01*
X172358777Y-42978154D01*
X172323138Y-42997204D01*
X172284468Y-43008935D01*
X172238112Y-43013500D01*
X171161888Y-43013500D01*
X171115532Y-43008935D01*
X171076862Y-42997204D01*
X171041223Y-42978154D01*
X171009983Y-42952517D01*
X170984346Y-42921277D01*
X170965296Y-42885638D01*
X170953565Y-42846968D01*
X170949000Y-42800612D01*
X170949000Y-42149388D01*
X170953565Y-42103032D01*
X170965296Y-42064362D01*
X170984346Y-42028723D01*
X171009983Y-41997483D01*
X171041223Y-41971846D01*
X171076862Y-41952796D01*
X171115532Y-41941065D01*
X171161888Y-41936500D01*
X172238112Y-41936500D01*
X172284468Y-41941065D01*
G37*
G36*
X202334468Y-41941065D02*
G01*
X202373138Y-41952796D01*
X202408777Y-41971846D01*
X202440017Y-41997483D01*
X202465654Y-42028723D01*
X202484704Y-42064362D01*
X202496435Y-42103032D01*
X202501000Y-42149388D01*
X202501000Y-42800612D01*
X202496435Y-42846968D01*
X202484704Y-42885638D01*
X202465654Y-42921277D01*
X202440017Y-42952517D01*
X202408777Y-42978154D01*
X202373138Y-42997204D01*
X202334468Y-43008935D01*
X202288112Y-43013500D01*
X201211888Y-43013500D01*
X201165532Y-43008935D01*
X201126862Y-42997204D01*
X201091223Y-42978154D01*
X201059983Y-42952517D01*
X201034346Y-42921277D01*
X201015296Y-42885638D01*
X201003565Y-42846968D01*
X200999000Y-42800612D01*
X200999000Y-42149388D01*
X201003565Y-42103032D01*
X201015296Y-42064362D01*
X201034346Y-42028723D01*
X201059983Y-41997483D01*
X201091223Y-41971846D01*
X201126862Y-41952796D01*
X201165532Y-41941065D01*
X201211888Y-41936500D01*
X202288112Y-41936500D01*
X202334468Y-41941065D01*
G37*
G36*
X142314468Y-41921065D02*
G01*
X142353138Y-41932796D01*
X142388777Y-41951846D01*
X142420017Y-41977483D01*
X142445654Y-42008723D01*
X142464704Y-42044362D01*
X142476435Y-42083032D01*
X142481000Y-42129388D01*
X142481000Y-42780612D01*
X142476435Y-42826968D01*
X142464704Y-42865638D01*
X142445654Y-42901277D01*
X142420017Y-42932517D01*
X142388777Y-42958154D01*
X142353138Y-42977204D01*
X142314468Y-42988935D01*
X142268112Y-42993500D01*
X141191888Y-42993500D01*
X141145532Y-42988935D01*
X141106862Y-42977204D01*
X141071223Y-42958154D01*
X141039983Y-42932517D01*
X141014346Y-42901277D01*
X140995296Y-42865638D01*
X140983565Y-42826968D01*
X140979000Y-42780612D01*
X140979000Y-42129388D01*
X140983565Y-42083032D01*
X140995296Y-42044362D01*
X141014346Y-42008723D01*
X141039983Y-41977483D01*
X141071223Y-41951846D01*
X141106862Y-41932796D01*
X141145532Y-41921065D01*
X141191888Y-41916500D01*
X142268112Y-41916500D01*
X142314468Y-41921065D01*
G37*
G36*
X193251000Y-42901000D02*
G01*
X192349000Y-42901000D01*
X192349000Y-41899000D01*
X193251000Y-41899000D01*
X193251000Y-42901000D01*
G37*
G36*
X161301000Y-42901000D02*
G01*
X160399000Y-42901000D01*
X160399000Y-41899000D01*
X161301000Y-41899000D01*
X161301000Y-42901000D01*
G37*
G36*
X163201000Y-42901000D02*
G01*
X162299000Y-42901000D01*
X162299000Y-41899000D01*
X163201000Y-41899000D01*
X163201000Y-42901000D01*
G37*
G36*
X191351000Y-42901000D02*
G01*
X190449000Y-42901000D01*
X190449000Y-41899000D01*
X191351000Y-41899000D01*
X191351000Y-42901000D01*
G37*
G36*
X131331000Y-42881000D02*
G01*
X130429000Y-42881000D01*
X130429000Y-41879000D01*
X131331000Y-41879000D01*
X131331000Y-42881000D01*
G37*
G36*
X133231000Y-42881000D02*
G01*
X132329000Y-42881000D01*
X132329000Y-41879000D01*
X133231000Y-41879000D01*
X133231000Y-42881000D01*
G37*
G36*
X206501000Y-41741000D02*
G01*
X205399000Y-41741000D01*
X205399000Y-39139000D01*
X206501000Y-39139000D01*
X206501000Y-41741000D01*
G37*
G36*
X179451000Y-41741000D02*
G01*
X178349000Y-41741000D01*
X178349000Y-39139000D01*
X179451000Y-39139000D01*
X179451000Y-41741000D01*
G37*
G36*
X176451000Y-41741000D02*
G01*
X175349000Y-41741000D01*
X175349000Y-39139000D01*
X176451000Y-39139000D01*
X176451000Y-41741000D01*
G37*
G36*
X209501000Y-41741000D02*
G01*
X208399000Y-41741000D01*
X208399000Y-39139000D01*
X209501000Y-39139000D01*
X209501000Y-41741000D01*
G37*
G36*
X149481000Y-41721000D02*
G01*
X148379000Y-41721000D01*
X148379000Y-39119000D01*
X149481000Y-39119000D01*
X149481000Y-41721000D01*
G37*
G36*
X146481000Y-41721000D02*
G01*
X145379000Y-41721000D01*
X145379000Y-39119000D01*
X146481000Y-39119000D01*
X146481000Y-41721000D01*
G37*
G36*
X169484468Y-40191065D02*
G01*
X169523138Y-40202796D01*
X169558777Y-40221846D01*
X169590017Y-40247483D01*
X169615654Y-40278723D01*
X169634704Y-40314362D01*
X169646435Y-40353032D01*
X169651000Y-40399388D01*
X169651000Y-41050612D01*
X169646435Y-41096968D01*
X169634704Y-41135638D01*
X169615654Y-41171277D01*
X169590017Y-41202517D01*
X169558777Y-41228154D01*
X169523138Y-41247204D01*
X169484468Y-41258935D01*
X169438112Y-41263500D01*
X168361888Y-41263500D01*
X168315532Y-41258935D01*
X168276862Y-41247204D01*
X168241223Y-41228154D01*
X168209983Y-41202517D01*
X168184346Y-41171277D01*
X168165296Y-41135638D01*
X168153565Y-41096968D01*
X168149000Y-41050612D01*
X168149000Y-40399388D01*
X168153565Y-40353032D01*
X168165296Y-40314362D01*
X168184346Y-40278723D01*
X168209983Y-40247483D01*
X168241223Y-40221846D01*
X168276862Y-40202796D01*
X168315532Y-40191065D01*
X168361888Y-40186500D01*
X169438112Y-40186500D01*
X169484468Y-40191065D01*
G37*
G36*
X199534468Y-40191065D02*
G01*
X199573138Y-40202796D01*
X199608777Y-40221846D01*
X199640017Y-40247483D01*
X199665654Y-40278723D01*
X199684704Y-40314362D01*
X199696435Y-40353032D01*
X199701000Y-40399388D01*
X199701000Y-41050612D01*
X199696435Y-41096968D01*
X199684704Y-41135638D01*
X199665654Y-41171277D01*
X199640017Y-41202517D01*
X199608777Y-41228154D01*
X199573138Y-41247204D01*
X199534468Y-41258935D01*
X199488112Y-41263500D01*
X198411888Y-41263500D01*
X198365532Y-41258935D01*
X198326862Y-41247204D01*
X198291223Y-41228154D01*
X198259983Y-41202517D01*
X198234346Y-41171277D01*
X198215296Y-41135638D01*
X198203565Y-41096968D01*
X198199000Y-41050612D01*
X198199000Y-40399388D01*
X198203565Y-40353032D01*
X198215296Y-40314362D01*
X198234346Y-40278723D01*
X198259983Y-40247483D01*
X198291223Y-40221846D01*
X198326862Y-40202796D01*
X198365532Y-40191065D01*
X198411888Y-40186500D01*
X199488112Y-40186500D01*
X199534468Y-40191065D01*
G37*
G36*
X139514468Y-40171065D02*
G01*
X139553138Y-40182796D01*
X139588777Y-40201846D01*
X139620017Y-40227483D01*
X139645654Y-40258723D01*
X139664704Y-40294362D01*
X139676435Y-40333032D01*
X139681000Y-40379388D01*
X139681000Y-41030612D01*
X139676435Y-41076968D01*
X139664704Y-41115638D01*
X139645654Y-41151277D01*
X139620017Y-41182517D01*
X139588777Y-41208154D01*
X139553138Y-41227204D01*
X139514468Y-41238935D01*
X139468112Y-41243500D01*
X138391888Y-41243500D01*
X138345532Y-41238935D01*
X138306862Y-41227204D01*
X138271223Y-41208154D01*
X138239983Y-41182517D01*
X138214346Y-41151277D01*
X138195296Y-41115638D01*
X138183565Y-41076968D01*
X138179000Y-41030612D01*
X138179000Y-40379388D01*
X138183565Y-40333032D01*
X138195296Y-40294362D01*
X138214346Y-40258723D01*
X138239983Y-40227483D01*
X138271223Y-40201846D01*
X138306862Y-40182796D01*
X138345532Y-40171065D01*
X138391888Y-40166500D01*
X139468112Y-40166500D01*
X139514468Y-40171065D01*
G37*
G36*
X172284468Y-40066065D02*
G01*
X172323138Y-40077796D01*
X172358777Y-40096846D01*
X172390017Y-40122483D01*
X172415654Y-40153723D01*
X172434704Y-40189362D01*
X172446435Y-40228032D01*
X172451000Y-40274388D01*
X172451000Y-40925612D01*
X172446435Y-40971968D01*
X172434704Y-41010638D01*
X172415654Y-41046277D01*
X172390017Y-41077517D01*
X172358777Y-41103154D01*
X172323138Y-41122204D01*
X172284468Y-41133935D01*
X172238112Y-41138500D01*
X171161888Y-41138500D01*
X171115532Y-41133935D01*
X171076862Y-41122204D01*
X171041223Y-41103154D01*
X171009983Y-41077517D01*
X170984346Y-41046277D01*
X170965296Y-41010638D01*
X170953565Y-40971968D01*
X170949000Y-40925612D01*
X170949000Y-40274388D01*
X170953565Y-40228032D01*
X170965296Y-40189362D01*
X170984346Y-40153723D01*
X171009983Y-40122483D01*
X171041223Y-40096846D01*
X171076862Y-40077796D01*
X171115532Y-40066065D01*
X171161888Y-40061500D01*
X172238112Y-40061500D01*
X172284468Y-40066065D01*
G37*
G36*
X202334468Y-40066065D02*
G01*
X202373138Y-40077796D01*
X202408777Y-40096846D01*
X202440017Y-40122483D01*
X202465654Y-40153723D01*
X202484704Y-40189362D01*
X202496435Y-40228032D01*
X202501000Y-40274388D01*
X202501000Y-40925612D01*
X202496435Y-40971968D01*
X202484704Y-41010638D01*
X202465654Y-41046277D01*
X202440017Y-41077517D01*
X202408777Y-41103154D01*
X202373138Y-41122204D01*
X202334468Y-41133935D01*
X202288112Y-41138500D01*
X201211888Y-41138500D01*
X201165532Y-41133935D01*
X201126862Y-41122204D01*
X201091223Y-41103154D01*
X201059983Y-41077517D01*
X201034346Y-41046277D01*
X201015296Y-41010638D01*
X201003565Y-40971968D01*
X200999000Y-40925612D01*
X200999000Y-40274388D01*
X201003565Y-40228032D01*
X201015296Y-40189362D01*
X201034346Y-40153723D01*
X201059983Y-40122483D01*
X201091223Y-40096846D01*
X201126862Y-40077796D01*
X201165532Y-40066065D01*
X201211888Y-40061500D01*
X202288112Y-40061500D01*
X202334468Y-40066065D01*
G37*
G36*
X142314468Y-40046065D02*
G01*
X142353138Y-40057796D01*
X142388777Y-40076846D01*
X142420017Y-40102483D01*
X142445654Y-40133723D01*
X142464704Y-40169362D01*
X142476435Y-40208032D01*
X142481000Y-40254388D01*
X142481000Y-40905612D01*
X142476435Y-40951968D01*
X142464704Y-40990638D01*
X142445654Y-41026277D01*
X142420017Y-41057517D01*
X142388777Y-41083154D01*
X142353138Y-41102204D01*
X142314468Y-41113935D01*
X142268112Y-41118500D01*
X141191888Y-41118500D01*
X141145532Y-41113935D01*
X141106862Y-41102204D01*
X141071223Y-41083154D01*
X141039983Y-41057517D01*
X141014346Y-41026277D01*
X140995296Y-40990638D01*
X140983565Y-40951968D01*
X140979000Y-40905612D01*
X140979000Y-40254388D01*
X140983565Y-40208032D01*
X140995296Y-40169362D01*
X141014346Y-40133723D01*
X141039983Y-40102483D01*
X141071223Y-40076846D01*
X141106862Y-40057796D01*
X141145532Y-40046065D01*
X141191888Y-40041500D01*
X142268112Y-40041500D01*
X142314468Y-40046065D01*
G37*
G36*
X192301000Y-40901000D02*
G01*
X191399000Y-40901000D01*
X191399000Y-39899000D01*
X192301000Y-39899000D01*
X192301000Y-40901000D01*
G37*
G36*
X162251000Y-40901000D02*
G01*
X161349000Y-40901000D01*
X161349000Y-39899000D01*
X162251000Y-39899000D01*
X162251000Y-40901000D01*
G37*
G36*
X132281000Y-40881000D02*
G01*
X131379000Y-40881000D01*
X131379000Y-39879000D01*
X132281000Y-39879000D01*
X132281000Y-40881000D01*
G37*
G36*
X168156000Y-35306000D02*
G01*
X167154000Y-35306000D01*
X167154000Y-33204000D01*
X168156000Y-33204000D01*
X168156000Y-35306000D01*
G37*
G36*
X169426000Y-35306000D02*
G01*
X168424000Y-35306000D01*
X168424000Y-33204000D01*
X169426000Y-33204000D01*
X169426000Y-35306000D01*
G37*
G36*
X166886000Y-35306000D02*
G01*
X165884000Y-35306000D01*
X165884000Y-33204000D01*
X166886000Y-33204000D01*
X166886000Y-35306000D01*
G37*
G36*
X203286000Y-35306000D02*
G01*
X202284000Y-35306000D01*
X202284000Y-33204000D01*
X203286000Y-33204000D01*
X203286000Y-35306000D01*
G37*
G36*
X204556000Y-35306000D02*
G01*
X203554000Y-35306000D01*
X203554000Y-33204000D01*
X204556000Y-33204000D01*
X204556000Y-35306000D01*
G37*
G36*
X205826000Y-35306000D02*
G01*
X204824000Y-35306000D01*
X204824000Y-33204000D01*
X205826000Y-33204000D01*
X205826000Y-35306000D01*
G37*
G36*
X207096000Y-35306000D02*
G01*
X206094000Y-35306000D01*
X206094000Y-33204000D01*
X207096000Y-33204000D01*
X207096000Y-35306000D01*
G37*
G36*
X208366000Y-35306000D02*
G01*
X207364000Y-35306000D01*
X207364000Y-33204000D01*
X208366000Y-33204000D01*
X208366000Y-35306000D01*
G37*
G36*
X196936000Y-35306000D02*
G01*
X195934000Y-35306000D01*
X195934000Y-33204000D01*
X196936000Y-33204000D01*
X196936000Y-35306000D01*
G37*
G36*
X202016000Y-35306000D02*
G01*
X201014000Y-35306000D01*
X201014000Y-33204000D01*
X202016000Y-33204000D01*
X202016000Y-35306000D01*
G37*
G36*
X171966000Y-35306000D02*
G01*
X170964000Y-35306000D01*
X170964000Y-33204000D01*
X171966000Y-33204000D01*
X171966000Y-35306000D01*
G37*
G36*
X170696000Y-35306000D02*
G01*
X169694000Y-35306000D01*
X169694000Y-33204000D01*
X170696000Y-33204000D01*
X170696000Y-35306000D01*
G37*
G36*
X198206000Y-35306000D02*
G01*
X197204000Y-35306000D01*
X197204000Y-33204000D01*
X198206000Y-33204000D01*
X198206000Y-35306000D01*
G37*
G36*
X199476000Y-35306000D02*
G01*
X198474000Y-35306000D01*
X198474000Y-33204000D01*
X199476000Y-33204000D01*
X199476000Y-35306000D01*
G37*
G36*
X200746000Y-35306000D02*
G01*
X199744000Y-35306000D01*
X199744000Y-33204000D01*
X200746000Y-33204000D01*
X200746000Y-35306000D01*
G37*
G36*
X178316000Y-35306000D02*
G01*
X177314000Y-35306000D01*
X177314000Y-33204000D01*
X178316000Y-33204000D01*
X178316000Y-35306000D01*
G37*
G36*
X175776000Y-35306000D02*
G01*
X174774000Y-35306000D01*
X174774000Y-33204000D01*
X175776000Y-33204000D01*
X175776000Y-35306000D01*
G37*
G36*
X177046000Y-35306000D02*
G01*
X176044000Y-35306000D01*
X176044000Y-33204000D01*
X177046000Y-33204000D01*
X177046000Y-35306000D01*
G37*
G36*
X173236000Y-35306000D02*
G01*
X172234000Y-35306000D01*
X172234000Y-33204000D01*
X173236000Y-33204000D01*
X173236000Y-35306000D01*
G37*
G36*
X174506000Y-35306000D02*
G01*
X173504000Y-35306000D01*
X173504000Y-33204000D01*
X174506000Y-33204000D01*
X174506000Y-35306000D01*
G37*
G36*
X148346000Y-35286000D02*
G01*
X147344000Y-35286000D01*
X147344000Y-33184000D01*
X148346000Y-33184000D01*
X148346000Y-35286000D01*
G37*
G36*
X147076000Y-35286000D02*
G01*
X146074000Y-35286000D01*
X146074000Y-33184000D01*
X147076000Y-33184000D01*
X147076000Y-35286000D01*
G37*
G36*
X139456000Y-35286000D02*
G01*
X138454000Y-35286000D01*
X138454000Y-33184000D01*
X139456000Y-33184000D01*
X139456000Y-35286000D01*
G37*
G36*
X145806000Y-35286000D02*
G01*
X144804000Y-35286000D01*
X144804000Y-33184000D01*
X145806000Y-33184000D01*
X145806000Y-35286000D01*
G37*
G36*
X144536000Y-35286000D02*
G01*
X143534000Y-35286000D01*
X143534000Y-33184000D01*
X144536000Y-33184000D01*
X144536000Y-35286000D01*
G37*
G36*
X143266000Y-35286000D02*
G01*
X142264000Y-35286000D01*
X142264000Y-33184000D01*
X143266000Y-33184000D01*
X143266000Y-35286000D01*
G37*
G36*
X141996000Y-35286000D02*
G01*
X140994000Y-35286000D01*
X140994000Y-33184000D01*
X141996000Y-33184000D01*
X141996000Y-35286000D01*
G37*
G36*
X138186000Y-35286000D02*
G01*
X137184000Y-35286000D01*
X137184000Y-33184000D01*
X138186000Y-33184000D01*
X138186000Y-35286000D01*
G37*
G36*
X140726000Y-35286000D02*
G01*
X139724000Y-35286000D01*
X139724000Y-33184000D01*
X140726000Y-33184000D01*
X140726000Y-35286000D01*
G37*
G36*
X136916000Y-35286000D02*
G01*
X135914000Y-35286000D01*
X135914000Y-33184000D01*
X136916000Y-33184000D01*
X136916000Y-35286000D01*
G37*
G36*
X181651000Y-33756000D02*
G01*
X179549000Y-33756000D01*
X179549000Y-32754000D01*
X181651000Y-32754000D01*
X181651000Y-33756000D01*
G37*
G36*
X211701000Y-33756000D02*
G01*
X209599000Y-33756000D01*
X209599000Y-32754000D01*
X211701000Y-32754000D01*
X211701000Y-33756000D01*
G37*
G36*
X164651000Y-33756000D02*
G01*
X162549000Y-33756000D01*
X162549000Y-32754000D01*
X164651000Y-32754000D01*
X164651000Y-33756000D01*
G37*
G36*
X194701000Y-33756000D02*
G01*
X192599000Y-33756000D01*
X192599000Y-32754000D01*
X194701000Y-32754000D01*
X194701000Y-33756000D01*
G37*
G36*
X134681000Y-33736000D02*
G01*
X132579000Y-33736000D01*
X132579000Y-32734000D01*
X134681000Y-32734000D01*
X134681000Y-33736000D01*
G37*
G36*
X151681000Y-33736000D02*
G01*
X149579000Y-33736000D01*
X149579000Y-32734000D01*
X151681000Y-32734000D01*
X151681000Y-33736000D01*
G37*
G36*
X211701000Y-32486000D02*
G01*
X209599000Y-32486000D01*
X209599000Y-31484000D01*
X211701000Y-31484000D01*
X211701000Y-32486000D01*
G37*
G36*
X181651000Y-32486000D02*
G01*
X179549000Y-32486000D01*
X179549000Y-31484000D01*
X181651000Y-31484000D01*
X181651000Y-32486000D01*
G37*
G36*
X194701000Y-32486000D02*
G01*
X192599000Y-32486000D01*
X192599000Y-31484000D01*
X194701000Y-31484000D01*
X194701000Y-32486000D01*
G37*
G36*
X164651000Y-32486000D02*
G01*
X162549000Y-32486000D01*
X162549000Y-31484000D01*
X164651000Y-31484000D01*
X164651000Y-32486000D01*
G37*
G36*
X151681000Y-32466000D02*
G01*
X149579000Y-32466000D01*
X149579000Y-31464000D01*
X151681000Y-31464000D01*
X151681000Y-32466000D01*
G37*
G36*
X134681000Y-32466000D02*
G01*
X132579000Y-32466000D01*
X132579000Y-31464000D01*
X134681000Y-31464000D01*
X134681000Y-32466000D01*
G37*
G36*
X211701000Y-31216000D02*
G01*
X209599000Y-31216000D01*
X209599000Y-30214000D01*
X211701000Y-30214000D01*
X211701000Y-31216000D01*
G37*
G36*
X194701000Y-31216000D02*
G01*
X192599000Y-31216000D01*
X192599000Y-30214000D01*
X194701000Y-30214000D01*
X194701000Y-31216000D01*
G37*
G36*
X181651000Y-31216000D02*
G01*
X179549000Y-31216000D01*
X179549000Y-30214000D01*
X181651000Y-30214000D01*
X181651000Y-31216000D01*
G37*
G36*
X164651000Y-31216000D02*
G01*
X162549000Y-31216000D01*
X162549000Y-30214000D01*
X164651000Y-30214000D01*
X164651000Y-31216000D01*
G37*
G36*
X151681000Y-31196000D02*
G01*
X149579000Y-31196000D01*
X149579000Y-30194000D01*
X151681000Y-30194000D01*
X151681000Y-31196000D01*
G37*
G36*
X134681000Y-31196000D02*
G01*
X132579000Y-31196000D01*
X132579000Y-30194000D01*
X134681000Y-30194000D01*
X134681000Y-31196000D01*
G37*
G36*
X214310721Y-29970174D02*
G01*
X214410995Y-30011709D01*
X214410996Y-30011710D01*
X214501242Y-30072010D01*
X214577990Y-30148758D01*
X214577991Y-30148760D01*
X214638291Y-30239005D01*
X214679826Y-30339279D01*
X214701000Y-30445730D01*
X214701000Y-30554270D01*
X214679826Y-30660721D01*
X214638291Y-30760995D01*
X214638290Y-30760996D01*
X214577990Y-30851242D01*
X214501242Y-30927990D01*
X214455812Y-30958345D01*
X214410995Y-30988291D01*
X214310721Y-31029826D01*
X214204270Y-31051000D01*
X214095730Y-31051000D01*
X213989279Y-31029826D01*
X213889005Y-30988291D01*
X213844188Y-30958345D01*
X213798758Y-30927990D01*
X213722010Y-30851242D01*
X213661710Y-30760996D01*
X213661709Y-30760995D01*
X213620174Y-30660721D01*
X213599000Y-30554270D01*
X213599000Y-30445730D01*
X213620174Y-30339279D01*
X213661709Y-30239005D01*
X213722009Y-30148760D01*
X213722010Y-30148758D01*
X213798758Y-30072010D01*
X213889004Y-30011710D01*
X213889005Y-30011709D01*
X213989279Y-29970174D01*
X214095730Y-29949000D01*
X214204270Y-29949000D01*
X214310721Y-29970174D01*
G37*
G36*
X184260721Y-29970174D02*
G01*
X184360995Y-30011709D01*
X184360996Y-30011710D01*
X184451242Y-30072010D01*
X184527990Y-30148758D01*
X184527991Y-30148760D01*
X184588291Y-30239005D01*
X184629826Y-30339279D01*
X184651000Y-30445730D01*
X184651000Y-30554270D01*
X184629826Y-30660721D01*
X184588291Y-30760995D01*
X184588290Y-30760996D01*
X184527990Y-30851242D01*
X184451242Y-30927990D01*
X184405812Y-30958345D01*
X184360995Y-30988291D01*
X184260721Y-31029826D01*
X184154270Y-31051000D01*
X184045730Y-31051000D01*
X183939279Y-31029826D01*
X183839005Y-30988291D01*
X183794188Y-30958345D01*
X183748758Y-30927990D01*
X183672010Y-30851242D01*
X183611710Y-30760996D01*
X183611709Y-30760995D01*
X183570174Y-30660721D01*
X183549000Y-30554270D01*
X183549000Y-30445730D01*
X183570174Y-30339279D01*
X183611709Y-30239005D01*
X183672009Y-30148760D01*
X183672010Y-30148758D01*
X183748758Y-30072010D01*
X183839004Y-30011710D01*
X183839005Y-30011709D01*
X183939279Y-29970174D01*
X184045730Y-29949000D01*
X184154270Y-29949000D01*
X184260721Y-29970174D01*
G37*
G36*
X154290721Y-29950174D02*
G01*
X154390995Y-29991709D01*
X154435812Y-30021655D01*
X154481242Y-30052010D01*
X154557990Y-30128758D01*
X154557991Y-30128760D01*
X154618291Y-30219005D01*
X154659826Y-30319279D01*
X154681000Y-30425730D01*
X154681000Y-30534270D01*
X154659826Y-30640721D01*
X154618291Y-30740995D01*
X154618290Y-30740996D01*
X154557990Y-30831242D01*
X154481242Y-30907990D01*
X154451308Y-30927991D01*
X154390995Y-30968291D01*
X154290721Y-31009826D01*
X154184270Y-31031000D01*
X154075730Y-31031000D01*
X153969279Y-31009826D01*
X153869005Y-30968291D01*
X153808692Y-30927991D01*
X153778758Y-30907990D01*
X153702010Y-30831242D01*
X153641710Y-30740996D01*
X153641709Y-30740995D01*
X153600174Y-30640721D01*
X153579000Y-30534270D01*
X153579000Y-30425730D01*
X153600174Y-30319279D01*
X153641709Y-30219005D01*
X153702009Y-30128760D01*
X153702010Y-30128758D01*
X153778758Y-30052010D01*
X153824188Y-30021655D01*
X153869005Y-29991709D01*
X153969279Y-29950174D01*
X154075730Y-29929000D01*
X154184270Y-29929000D01*
X154290721Y-29950174D01*
G37*
G36*
X211701000Y-29946000D02*
G01*
X209599000Y-29946000D01*
X209599000Y-28944000D01*
X211701000Y-28944000D01*
X211701000Y-29946000D01*
G37*
G36*
X194701000Y-29946000D02*
G01*
X192599000Y-29946000D01*
X192599000Y-28944000D01*
X194701000Y-28944000D01*
X194701000Y-29946000D01*
G37*
G36*
X164651000Y-29946000D02*
G01*
X162549000Y-29946000D01*
X162549000Y-28944000D01*
X164651000Y-28944000D01*
X164651000Y-29946000D01*
G37*
G36*
X181651000Y-29946000D02*
G01*
X179549000Y-29946000D01*
X179549000Y-28944000D01*
X181651000Y-28944000D01*
X181651000Y-29946000D01*
G37*
G36*
X134681000Y-29926000D02*
G01*
X132579000Y-29926000D01*
X132579000Y-28924000D01*
X134681000Y-28924000D01*
X134681000Y-29926000D01*
G37*
G36*
X151681000Y-29926000D02*
G01*
X149579000Y-29926000D01*
X149579000Y-28924000D01*
X151681000Y-28924000D01*
X151681000Y-29926000D01*
G37*
G36*
X194701000Y-28676000D02*
G01*
X192599000Y-28676000D01*
X192599000Y-27674000D01*
X194701000Y-27674000D01*
X194701000Y-28676000D01*
G37*
G36*
X164651000Y-28676000D02*
G01*
X162549000Y-28676000D01*
X162549000Y-27674000D01*
X164651000Y-27674000D01*
X164651000Y-28676000D01*
G37*
G36*
X211701000Y-28676000D02*
G01*
X209599000Y-28676000D01*
X209599000Y-27674000D01*
X211701000Y-27674000D01*
X211701000Y-28676000D01*
G37*
G36*
X181651000Y-28676000D02*
G01*
X179549000Y-28676000D01*
X179549000Y-27674000D01*
X181651000Y-27674000D01*
X181651000Y-28676000D01*
G37*
G36*
X151681000Y-28656000D02*
G01*
X149579000Y-28656000D01*
X149579000Y-27654000D01*
X151681000Y-27654000D01*
X151681000Y-28656000D01*
G37*
G36*
X134681000Y-28656000D02*
G01*
X132579000Y-28656000D01*
X132579000Y-27654000D01*
X134681000Y-27654000D01*
X134681000Y-28656000D01*
G37*
G36*
X214310721Y-27430174D02*
G01*
X214410995Y-27471709D01*
X214410996Y-27471710D01*
X214501242Y-27532010D01*
X214577990Y-27608758D01*
X214577991Y-27608760D01*
X214638291Y-27699005D01*
X214679826Y-27799279D01*
X214701000Y-27905730D01*
X214701000Y-28014270D01*
X214679826Y-28120721D01*
X214638291Y-28220995D01*
X214638290Y-28220996D01*
X214577990Y-28311242D01*
X214501242Y-28387990D01*
X214455812Y-28418345D01*
X214410995Y-28448291D01*
X214310721Y-28489826D01*
X214204270Y-28511000D01*
X214095730Y-28511000D01*
X213989279Y-28489826D01*
X213889005Y-28448291D01*
X213844188Y-28418345D01*
X213798758Y-28387990D01*
X213722010Y-28311242D01*
X213661710Y-28220996D01*
X213661709Y-28220995D01*
X213620174Y-28120721D01*
X213599000Y-28014270D01*
X213599000Y-27905730D01*
X213620174Y-27799279D01*
X213661709Y-27699005D01*
X213722009Y-27608760D01*
X213722010Y-27608758D01*
X213798758Y-27532010D01*
X213889004Y-27471710D01*
X213889005Y-27471709D01*
X213989279Y-27430174D01*
X214095730Y-27409000D01*
X214204270Y-27409000D01*
X214310721Y-27430174D01*
G37*
G36*
X184260721Y-27430174D02*
G01*
X184360995Y-27471709D01*
X184360996Y-27471710D01*
X184451242Y-27532010D01*
X184527990Y-27608758D01*
X184527991Y-27608760D01*
X184588291Y-27699005D01*
X184629826Y-27799279D01*
X184651000Y-27905730D01*
X184651000Y-28014270D01*
X184629826Y-28120721D01*
X184588291Y-28220995D01*
X184588290Y-28220996D01*
X184527990Y-28311242D01*
X184451242Y-28387990D01*
X184405812Y-28418345D01*
X184360995Y-28448291D01*
X184260721Y-28489826D01*
X184154270Y-28511000D01*
X184045730Y-28511000D01*
X183939279Y-28489826D01*
X183839005Y-28448291D01*
X183794188Y-28418345D01*
X183748758Y-28387990D01*
X183672010Y-28311242D01*
X183611710Y-28220996D01*
X183611709Y-28220995D01*
X183570174Y-28120721D01*
X183549000Y-28014270D01*
X183549000Y-27905730D01*
X183570174Y-27799279D01*
X183611709Y-27699005D01*
X183672009Y-27608760D01*
X183672010Y-27608758D01*
X183748758Y-27532010D01*
X183839004Y-27471710D01*
X183839005Y-27471709D01*
X183939279Y-27430174D01*
X184045730Y-27409000D01*
X184154270Y-27409000D01*
X184260721Y-27430174D01*
G37*
G36*
X154290721Y-27410174D02*
G01*
X154390995Y-27451709D01*
X154435812Y-27481655D01*
X154481242Y-27512010D01*
X154557990Y-27588758D01*
X154557991Y-27588760D01*
X154618291Y-27679005D01*
X154659826Y-27779279D01*
X154681000Y-27885730D01*
X154681000Y-27994270D01*
X154659826Y-28100721D01*
X154618291Y-28200995D01*
X154618290Y-28200996D01*
X154557990Y-28291242D01*
X154481242Y-28367990D01*
X154451308Y-28387991D01*
X154390995Y-28428291D01*
X154290721Y-28469826D01*
X154184270Y-28491000D01*
X154075730Y-28491000D01*
X153969279Y-28469826D01*
X153869005Y-28428291D01*
X153808692Y-28387991D01*
X153778758Y-28367990D01*
X153702010Y-28291242D01*
X153641710Y-28200996D01*
X153641709Y-28200995D01*
X153600174Y-28100721D01*
X153579000Y-27994270D01*
X153579000Y-27885730D01*
X153600174Y-27779279D01*
X153641709Y-27679005D01*
X153702009Y-27588760D01*
X153702010Y-27588758D01*
X153778758Y-27512010D01*
X153824188Y-27481655D01*
X153869005Y-27451709D01*
X153969279Y-27410174D01*
X154075730Y-27389000D01*
X154184270Y-27389000D01*
X154290721Y-27410174D01*
G37*
G36*
X181651000Y-27406000D02*
G01*
X179549000Y-27406000D01*
X179549000Y-26404000D01*
X181651000Y-26404000D01*
X181651000Y-27406000D01*
G37*
G36*
X194701000Y-27406000D02*
G01*
X192599000Y-27406000D01*
X192599000Y-26404000D01*
X194701000Y-26404000D01*
X194701000Y-27406000D01*
G37*
G36*
X164651000Y-27406000D02*
G01*
X162549000Y-27406000D01*
X162549000Y-26404000D01*
X164651000Y-26404000D01*
X164651000Y-27406000D01*
G37*
G36*
X211701000Y-27406000D02*
G01*
X209599000Y-27406000D01*
X209599000Y-26404000D01*
X211701000Y-26404000D01*
X211701000Y-27406000D01*
G37*
G36*
X151681000Y-27386000D02*
G01*
X149579000Y-27386000D01*
X149579000Y-26384000D01*
X151681000Y-26384000D01*
X151681000Y-27386000D01*
G37*
G36*
X134681000Y-27386000D02*
G01*
X132579000Y-27386000D01*
X132579000Y-26384000D01*
X134681000Y-26384000D01*
X134681000Y-27386000D01*
G37*
G36*
X173651000Y-26796000D02*
G01*
X168549000Y-26796000D01*
X168549000Y-21694000D01*
X173651000Y-21694000D01*
X173651000Y-26796000D01*
G37*
G36*
X203701000Y-26796000D02*
G01*
X198599000Y-26796000D01*
X198599000Y-21694000D01*
X203701000Y-21694000D01*
X203701000Y-26796000D01*
G37*
G36*
X143681000Y-26776000D02*
G01*
X138579000Y-26776000D01*
X138579000Y-21674000D01*
X143681000Y-21674000D01*
X143681000Y-26776000D01*
G37*
G36*
X164651000Y-26136000D02*
G01*
X162549000Y-26136000D01*
X162549000Y-25134000D01*
X164651000Y-25134000D01*
X164651000Y-26136000D01*
G37*
G36*
X181651000Y-26136000D02*
G01*
X179549000Y-26136000D01*
X179549000Y-25134000D01*
X181651000Y-25134000D01*
X181651000Y-26136000D01*
G37*
G36*
X194701000Y-26136000D02*
G01*
X192599000Y-26136000D01*
X192599000Y-25134000D01*
X194701000Y-25134000D01*
X194701000Y-26136000D01*
G37*
G36*
X211701000Y-26136000D02*
G01*
X209599000Y-26136000D01*
X209599000Y-25134000D01*
X211701000Y-25134000D01*
X211701000Y-26136000D01*
G37*
G36*
X134681000Y-26116000D02*
G01*
X132579000Y-26116000D01*
X132579000Y-25114000D01*
X134681000Y-25114000D01*
X134681000Y-26116000D01*
G37*
G36*
X151681000Y-26116000D02*
G01*
X149579000Y-26116000D01*
X149579000Y-25114000D01*
X151681000Y-25114000D01*
X151681000Y-26116000D01*
G37*
G36*
X214310721Y-24890174D02*
G01*
X214410995Y-24931709D01*
X214410996Y-24931710D01*
X214501242Y-24992010D01*
X214577990Y-25068758D01*
X214577991Y-25068760D01*
X214638291Y-25159005D01*
X214679826Y-25259279D01*
X214701000Y-25365730D01*
X214701000Y-25474270D01*
X214679826Y-25580721D01*
X214638291Y-25680995D01*
X214638290Y-25680996D01*
X214577990Y-25771242D01*
X214501242Y-25847990D01*
X214455812Y-25878345D01*
X214410995Y-25908291D01*
X214310721Y-25949826D01*
X214204270Y-25971000D01*
X214095730Y-25971000D01*
X213989279Y-25949826D01*
X213889005Y-25908291D01*
X213844188Y-25878345D01*
X213798758Y-25847990D01*
X213722010Y-25771242D01*
X213661710Y-25680996D01*
X213661709Y-25680995D01*
X213620174Y-25580721D01*
X213599000Y-25474270D01*
X213599000Y-25365730D01*
X213620174Y-25259279D01*
X213661709Y-25159005D01*
X213722009Y-25068760D01*
X213722010Y-25068758D01*
X213798758Y-24992010D01*
X213889004Y-24931710D01*
X213889005Y-24931709D01*
X213989279Y-24890174D01*
X214095730Y-24869000D01*
X214204270Y-24869000D01*
X214310721Y-24890174D01*
G37*
G36*
X184260721Y-24890174D02*
G01*
X184360995Y-24931709D01*
X184360996Y-24931710D01*
X184451242Y-24992010D01*
X184527990Y-25068758D01*
X184527991Y-25068760D01*
X184588291Y-25159005D01*
X184629826Y-25259279D01*
X184651000Y-25365730D01*
X184651000Y-25474270D01*
X184629826Y-25580721D01*
X184588291Y-25680995D01*
X184588290Y-25680996D01*
X184527990Y-25771242D01*
X184451242Y-25847990D01*
X184405812Y-25878345D01*
X184360995Y-25908291D01*
X184260721Y-25949826D01*
X184154270Y-25971000D01*
X184045730Y-25971000D01*
X183939279Y-25949826D01*
X183839005Y-25908291D01*
X183794188Y-25878345D01*
X183748758Y-25847990D01*
X183672010Y-25771242D01*
X183611710Y-25680996D01*
X183611709Y-25680995D01*
X183570174Y-25580721D01*
X183549000Y-25474270D01*
X183549000Y-25365730D01*
X183570174Y-25259279D01*
X183611709Y-25159005D01*
X183672009Y-25068760D01*
X183672010Y-25068758D01*
X183748758Y-24992010D01*
X183839004Y-24931710D01*
X183839005Y-24931709D01*
X183939279Y-24890174D01*
X184045730Y-24869000D01*
X184154270Y-24869000D01*
X184260721Y-24890174D01*
G37*
G36*
X154290721Y-24870174D02*
G01*
X154390995Y-24911709D01*
X154435812Y-24941655D01*
X154481242Y-24972010D01*
X154557990Y-25048758D01*
X154557991Y-25048760D01*
X154618291Y-25139005D01*
X154659826Y-25239279D01*
X154681000Y-25345730D01*
X154681000Y-25454270D01*
X154659826Y-25560721D01*
X154618291Y-25660995D01*
X154618290Y-25660996D01*
X154557990Y-25751242D01*
X154481242Y-25827990D01*
X154451308Y-25847991D01*
X154390995Y-25888291D01*
X154290721Y-25929826D01*
X154184270Y-25951000D01*
X154075730Y-25951000D01*
X153969279Y-25929826D01*
X153869005Y-25888291D01*
X153808692Y-25847991D01*
X153778758Y-25827990D01*
X153702010Y-25751242D01*
X153641710Y-25660996D01*
X153641709Y-25660995D01*
X153600174Y-25560721D01*
X153579000Y-25454270D01*
X153579000Y-25345730D01*
X153600174Y-25239279D01*
X153641709Y-25139005D01*
X153702009Y-25048760D01*
X153702010Y-25048758D01*
X153778758Y-24972010D01*
X153824188Y-24941655D01*
X153869005Y-24911709D01*
X153969279Y-24870174D01*
X154075730Y-24849000D01*
X154184270Y-24849000D01*
X154290721Y-24870174D01*
G37*
G36*
X164651000Y-24866000D02*
G01*
X162549000Y-24866000D01*
X162549000Y-23864000D01*
X164651000Y-23864000D01*
X164651000Y-24866000D01*
G37*
G36*
X194701000Y-24866000D02*
G01*
X192599000Y-24866000D01*
X192599000Y-23864000D01*
X194701000Y-23864000D01*
X194701000Y-24866000D01*
G37*
G36*
X211701000Y-24866000D02*
G01*
X209599000Y-24866000D01*
X209599000Y-23864000D01*
X211701000Y-23864000D01*
X211701000Y-24866000D01*
G37*
G36*
X181651000Y-24866000D02*
G01*
X179549000Y-24866000D01*
X179549000Y-23864000D01*
X181651000Y-23864000D01*
X181651000Y-24866000D01*
G37*
G36*
X134681000Y-24846000D02*
G01*
X132579000Y-24846000D01*
X132579000Y-23844000D01*
X134681000Y-23844000D01*
X134681000Y-24846000D01*
G37*
G36*
X151681000Y-24846000D02*
G01*
X149579000Y-24846000D01*
X149579000Y-23844000D01*
X151681000Y-23844000D01*
X151681000Y-24846000D01*
G37*
G36*
X211701000Y-23596000D02*
G01*
X209599000Y-23596000D01*
X209599000Y-22594000D01*
X211701000Y-22594000D01*
X211701000Y-23596000D01*
G37*
G36*
X194701000Y-23596000D02*
G01*
X192599000Y-23596000D01*
X192599000Y-22594000D01*
X194701000Y-22594000D01*
X194701000Y-23596000D01*
G37*
G36*
X164651000Y-23596000D02*
G01*
X162549000Y-23596000D01*
X162549000Y-22594000D01*
X164651000Y-22594000D01*
X164651000Y-23596000D01*
G37*
G36*
X181651000Y-23596000D02*
G01*
X179549000Y-23596000D01*
X179549000Y-22594000D01*
X181651000Y-22594000D01*
X181651000Y-23596000D01*
G37*
G36*
X151681000Y-23576000D02*
G01*
X149579000Y-23576000D01*
X149579000Y-22574000D01*
X151681000Y-22574000D01*
X151681000Y-23576000D01*
G37*
G36*
X134681000Y-23576000D02*
G01*
X132579000Y-23576000D01*
X132579000Y-22574000D01*
X134681000Y-22574000D01*
X134681000Y-23576000D01*
G37*
G36*
X184260721Y-22350174D02*
G01*
X184360995Y-22391709D01*
X184360996Y-22391710D01*
X184451242Y-22452010D01*
X184527990Y-22528758D01*
X184527991Y-22528760D01*
X184588291Y-22619005D01*
X184629826Y-22719279D01*
X184651000Y-22825730D01*
X184651000Y-22934270D01*
X184629826Y-23040721D01*
X184588291Y-23140995D01*
X184588290Y-23140996D01*
X184527990Y-23231242D01*
X184451242Y-23307990D01*
X184405812Y-23338345D01*
X184360995Y-23368291D01*
X184260721Y-23409826D01*
X184154270Y-23431000D01*
X184045730Y-23431000D01*
X183939279Y-23409826D01*
X183839005Y-23368291D01*
X183794188Y-23338345D01*
X183748758Y-23307990D01*
X183672010Y-23231242D01*
X183611710Y-23140996D01*
X183611709Y-23140995D01*
X183570174Y-23040721D01*
X183549000Y-22934270D01*
X183549000Y-22825730D01*
X183570174Y-22719279D01*
X183611709Y-22619005D01*
X183672009Y-22528760D01*
X183672010Y-22528758D01*
X183748758Y-22452010D01*
X183839004Y-22391710D01*
X183839005Y-22391709D01*
X183939279Y-22350174D01*
X184045730Y-22329000D01*
X184154270Y-22329000D01*
X184260721Y-22350174D01*
G37*
G36*
X214310721Y-22350174D02*
G01*
X214410995Y-22391709D01*
X214410996Y-22391710D01*
X214501242Y-22452010D01*
X214577990Y-22528758D01*
X214577991Y-22528760D01*
X214638291Y-22619005D01*
X214679826Y-22719279D01*
X214701000Y-22825730D01*
X214701000Y-22934270D01*
X214679826Y-23040721D01*
X214638291Y-23140995D01*
X214638290Y-23140996D01*
X214577990Y-23231242D01*
X214501242Y-23307990D01*
X214455812Y-23338345D01*
X214410995Y-23368291D01*
X214310721Y-23409826D01*
X214204270Y-23431000D01*
X214095730Y-23431000D01*
X213989279Y-23409826D01*
X213889005Y-23368291D01*
X213844188Y-23338345D01*
X213798758Y-23307990D01*
X213722010Y-23231242D01*
X213661710Y-23140996D01*
X213661709Y-23140995D01*
X213620174Y-23040721D01*
X213599000Y-22934270D01*
X213599000Y-22825730D01*
X213620174Y-22719279D01*
X213661709Y-22619005D01*
X213722009Y-22528760D01*
X213722010Y-22528758D01*
X213798758Y-22452010D01*
X213889004Y-22391710D01*
X213889005Y-22391709D01*
X213989279Y-22350174D01*
X214095730Y-22329000D01*
X214204270Y-22329000D01*
X214310721Y-22350174D01*
G37*
G36*
X154290721Y-22330174D02*
G01*
X154390995Y-22371709D01*
X154435812Y-22401655D01*
X154481242Y-22432010D01*
X154557990Y-22508758D01*
X154557991Y-22508760D01*
X154618291Y-22599005D01*
X154659826Y-22699279D01*
X154681000Y-22805730D01*
X154681000Y-22914270D01*
X154659826Y-23020721D01*
X154618291Y-23120995D01*
X154618290Y-23120996D01*
X154557990Y-23211242D01*
X154481242Y-23287990D01*
X154451308Y-23307991D01*
X154390995Y-23348291D01*
X154290721Y-23389826D01*
X154184270Y-23411000D01*
X154075730Y-23411000D01*
X153969279Y-23389826D01*
X153869005Y-23348291D01*
X153808692Y-23307991D01*
X153778758Y-23287990D01*
X153702010Y-23211242D01*
X153641710Y-23120996D01*
X153641709Y-23120995D01*
X153600174Y-23020721D01*
X153579000Y-22914270D01*
X153579000Y-22805730D01*
X153600174Y-22699279D01*
X153641709Y-22599005D01*
X153702009Y-22508760D01*
X153702010Y-22508758D01*
X153778758Y-22432010D01*
X153824188Y-22401655D01*
X153869005Y-22371709D01*
X153969279Y-22330174D01*
X154075730Y-22309000D01*
X154184270Y-22309000D01*
X154290721Y-22330174D01*
G37*
G36*
X211701000Y-22326000D02*
G01*
X209599000Y-22326000D01*
X209599000Y-21324000D01*
X211701000Y-21324000D01*
X211701000Y-22326000D01*
G37*
G36*
X194701000Y-22326000D02*
G01*
X192599000Y-22326000D01*
X192599000Y-21324000D01*
X194701000Y-21324000D01*
X194701000Y-22326000D01*
G37*
G36*
X164651000Y-22326000D02*
G01*
X162549000Y-22326000D01*
X162549000Y-21324000D01*
X164651000Y-21324000D01*
X164651000Y-22326000D01*
G37*
G36*
X181651000Y-22326000D02*
G01*
X179549000Y-22326000D01*
X179549000Y-21324000D01*
X181651000Y-21324000D01*
X181651000Y-22326000D01*
G37*
G36*
X134681000Y-22306000D02*
G01*
X132579000Y-22306000D01*
X132579000Y-21304000D01*
X134681000Y-21304000D01*
X134681000Y-22306000D01*
G37*
G36*
X151681000Y-22306000D02*
G01*
X149579000Y-22306000D01*
X149579000Y-21304000D01*
X151681000Y-21304000D01*
X151681000Y-22306000D01*
G37*
G36*
X164651000Y-21056000D02*
G01*
X162549000Y-21056000D01*
X162549000Y-20054000D01*
X164651000Y-20054000D01*
X164651000Y-21056000D01*
G37*
G36*
X194701000Y-21056000D02*
G01*
X192599000Y-21056000D01*
X192599000Y-20054000D01*
X194701000Y-20054000D01*
X194701000Y-21056000D01*
G37*
G36*
X211701000Y-21056000D02*
G01*
X209599000Y-21056000D01*
X209599000Y-20054000D01*
X211701000Y-20054000D01*
X211701000Y-21056000D01*
G37*
G36*
X181651000Y-21056000D02*
G01*
X179549000Y-21056000D01*
X179549000Y-20054000D01*
X181651000Y-20054000D01*
X181651000Y-21056000D01*
G37*
G36*
X134681000Y-21036000D02*
G01*
X132579000Y-21036000D01*
X132579000Y-20034000D01*
X134681000Y-20034000D01*
X134681000Y-21036000D01*
G37*
G36*
X151681000Y-21036000D02*
G01*
X149579000Y-21036000D01*
X149579000Y-20034000D01*
X151681000Y-20034000D01*
X151681000Y-21036000D01*
G37*
G36*
X160260721Y-19810174D02*
G01*
X160360995Y-19851709D01*
X160360996Y-19851710D01*
X160451242Y-19912010D01*
X160527990Y-19988758D01*
X160527991Y-19988760D01*
X160588291Y-20079005D01*
X160629826Y-20179279D01*
X160651000Y-20285730D01*
X160651000Y-20394270D01*
X160629826Y-20500721D01*
X160588291Y-20600995D01*
X160588290Y-20600996D01*
X160527990Y-20691242D01*
X160451242Y-20767990D01*
X160405812Y-20798345D01*
X160360995Y-20828291D01*
X160260721Y-20869826D01*
X160154270Y-20891000D01*
X160045730Y-20891000D01*
X159939279Y-20869826D01*
X159839005Y-20828291D01*
X159794188Y-20798345D01*
X159748758Y-20767990D01*
X159672010Y-20691242D01*
X159611710Y-20600996D01*
X159611709Y-20600995D01*
X159570174Y-20500721D01*
X159549000Y-20394270D01*
X159549000Y-20285730D01*
X159570174Y-20179279D01*
X159611709Y-20079005D01*
X159672009Y-19988760D01*
X159672010Y-19988758D01*
X159748758Y-19912010D01*
X159839004Y-19851710D01*
X159839005Y-19851709D01*
X159939279Y-19810174D01*
X160045730Y-19789000D01*
X160154270Y-19789000D01*
X160260721Y-19810174D01*
G37*
G36*
X214310721Y-19810174D02*
G01*
X214410995Y-19851709D01*
X214410996Y-19851710D01*
X214501242Y-19912010D01*
X214577990Y-19988758D01*
X214577991Y-19988760D01*
X214638291Y-20079005D01*
X214679826Y-20179279D01*
X214701000Y-20285730D01*
X214701000Y-20394270D01*
X214679826Y-20500721D01*
X214638291Y-20600995D01*
X214638290Y-20600996D01*
X214577990Y-20691242D01*
X214501242Y-20767990D01*
X214455812Y-20798345D01*
X214410995Y-20828291D01*
X214310721Y-20869826D01*
X214204270Y-20891000D01*
X214095730Y-20891000D01*
X213989279Y-20869826D01*
X213889005Y-20828291D01*
X213844188Y-20798345D01*
X213798758Y-20767990D01*
X213722010Y-20691242D01*
X213661710Y-20600996D01*
X213661709Y-20600995D01*
X213620174Y-20500721D01*
X213599000Y-20394270D01*
X213599000Y-20285730D01*
X213620174Y-20179279D01*
X213661709Y-20079005D01*
X213722009Y-19988760D01*
X213722010Y-19988758D01*
X213798758Y-19912010D01*
X213889004Y-19851710D01*
X213889005Y-19851709D01*
X213989279Y-19810174D01*
X214095730Y-19789000D01*
X214204270Y-19789000D01*
X214310721Y-19810174D01*
G37*
G36*
X190310721Y-19810174D02*
G01*
X190410995Y-19851709D01*
X190410996Y-19851710D01*
X190501242Y-19912010D01*
X190577990Y-19988758D01*
X190577991Y-19988760D01*
X190638291Y-20079005D01*
X190679826Y-20179279D01*
X190701000Y-20285730D01*
X190701000Y-20394270D01*
X190679826Y-20500721D01*
X190638291Y-20600995D01*
X190638290Y-20600996D01*
X190577990Y-20691242D01*
X190501242Y-20767990D01*
X190455812Y-20798345D01*
X190410995Y-20828291D01*
X190310721Y-20869826D01*
X190204270Y-20891000D01*
X190095730Y-20891000D01*
X189989279Y-20869826D01*
X189889005Y-20828291D01*
X189844188Y-20798345D01*
X189798758Y-20767990D01*
X189722010Y-20691242D01*
X189661710Y-20600996D01*
X189661709Y-20600995D01*
X189620174Y-20500721D01*
X189599000Y-20394270D01*
X189599000Y-20285730D01*
X189620174Y-20179279D01*
X189661709Y-20079005D01*
X189722009Y-19988760D01*
X189722010Y-19988758D01*
X189798758Y-19912010D01*
X189889004Y-19851710D01*
X189889005Y-19851709D01*
X189989279Y-19810174D01*
X190095730Y-19789000D01*
X190204270Y-19789000D01*
X190310721Y-19810174D01*
G37*
G36*
X184260721Y-19810174D02*
G01*
X184360995Y-19851709D01*
X184360996Y-19851710D01*
X184451242Y-19912010D01*
X184527990Y-19988758D01*
X184527991Y-19988760D01*
X184588291Y-20079005D01*
X184629826Y-20179279D01*
X184651000Y-20285730D01*
X184651000Y-20394270D01*
X184629826Y-20500721D01*
X184588291Y-20600995D01*
X184588290Y-20600996D01*
X184527990Y-20691242D01*
X184451242Y-20767990D01*
X184405812Y-20798345D01*
X184360995Y-20828291D01*
X184260721Y-20869826D01*
X184154270Y-20891000D01*
X184045730Y-20891000D01*
X183939279Y-20869826D01*
X183839005Y-20828291D01*
X183794188Y-20798345D01*
X183748758Y-20767990D01*
X183672010Y-20691242D01*
X183611710Y-20600996D01*
X183611709Y-20600995D01*
X183570174Y-20500721D01*
X183549000Y-20394270D01*
X183549000Y-20285730D01*
X183570174Y-20179279D01*
X183611709Y-20079005D01*
X183672009Y-19988760D01*
X183672010Y-19988758D01*
X183748758Y-19912010D01*
X183839004Y-19851710D01*
X183839005Y-19851709D01*
X183939279Y-19810174D01*
X184045730Y-19789000D01*
X184154270Y-19789000D01*
X184260721Y-19810174D01*
G37*
G36*
X154290721Y-19790174D02*
G01*
X154390995Y-19831709D01*
X154435812Y-19861655D01*
X154481242Y-19892010D01*
X154557990Y-19968758D01*
X154557991Y-19968760D01*
X154618291Y-20059005D01*
X154659826Y-20159279D01*
X154681000Y-20265730D01*
X154681000Y-20374270D01*
X154659826Y-20480721D01*
X154618291Y-20580995D01*
X154618290Y-20580996D01*
X154557990Y-20671242D01*
X154481242Y-20747990D01*
X154451308Y-20767991D01*
X154390995Y-20808291D01*
X154290721Y-20849826D01*
X154184270Y-20871000D01*
X154075730Y-20871000D01*
X153969279Y-20849826D01*
X153869005Y-20808291D01*
X153808692Y-20767991D01*
X153778758Y-20747990D01*
X153702010Y-20671242D01*
X153641710Y-20580996D01*
X153641709Y-20580995D01*
X153600174Y-20480721D01*
X153579000Y-20374270D01*
X153579000Y-20265730D01*
X153600174Y-20159279D01*
X153641709Y-20059005D01*
X153702009Y-19968760D01*
X153702010Y-19968758D01*
X153778758Y-19892010D01*
X153824188Y-19861655D01*
X153869005Y-19831709D01*
X153969279Y-19790174D01*
X154075730Y-19769000D01*
X154184270Y-19769000D01*
X154290721Y-19790174D01*
G37*
G36*
X130290721Y-19790174D02*
G01*
X130390995Y-19831709D01*
X130435812Y-19861655D01*
X130481242Y-19892010D01*
X130557990Y-19968758D01*
X130557991Y-19968760D01*
X130618291Y-20059005D01*
X130659826Y-20159279D01*
X130681000Y-20265730D01*
X130681000Y-20374270D01*
X130659826Y-20480721D01*
X130618291Y-20580995D01*
X130618290Y-20580996D01*
X130557990Y-20671242D01*
X130481242Y-20747990D01*
X130451308Y-20767991D01*
X130390995Y-20808291D01*
X130290721Y-20849826D01*
X130184270Y-20871000D01*
X130075730Y-20871000D01*
X129969279Y-20849826D01*
X129869005Y-20808291D01*
X129808692Y-20767991D01*
X129778758Y-20747990D01*
X129702010Y-20671242D01*
X129641710Y-20580996D01*
X129641709Y-20580995D01*
X129600174Y-20480721D01*
X129579000Y-20374270D01*
X129579000Y-20265730D01*
X129600174Y-20159279D01*
X129641709Y-20059005D01*
X129702009Y-19968760D01*
X129702010Y-19968758D01*
X129778758Y-19892010D01*
X129824188Y-19861655D01*
X129869005Y-19831709D01*
X129969279Y-19790174D01*
X130075730Y-19769000D01*
X130184270Y-19769000D01*
X130290721Y-19790174D01*
G37*
G36*
X181651000Y-19786000D02*
G01*
X179549000Y-19786000D01*
X179549000Y-18784000D01*
X181651000Y-18784000D01*
X181651000Y-19786000D01*
G37*
G36*
X211701000Y-19786000D02*
G01*
X209599000Y-19786000D01*
X209599000Y-18784000D01*
X211701000Y-18784000D01*
X211701000Y-19786000D01*
G37*
G36*
X194701000Y-19786000D02*
G01*
X192599000Y-19786000D01*
X192599000Y-18784000D01*
X194701000Y-18784000D01*
X194701000Y-19786000D01*
G37*
G36*
X164651000Y-19786000D02*
G01*
X162549000Y-19786000D01*
X162549000Y-18784000D01*
X164651000Y-18784000D01*
X164651000Y-19786000D01*
G37*
G36*
X151681000Y-19766000D02*
G01*
X149579000Y-19766000D01*
X149579000Y-18764000D01*
X151681000Y-18764000D01*
X151681000Y-19766000D01*
G37*
G36*
X134681000Y-19766000D02*
G01*
X132579000Y-19766000D01*
X132579000Y-18764000D01*
X134681000Y-18764000D01*
X134681000Y-19766000D01*
G37*
G36*
X190734468Y-17466065D02*
G01*
X190773138Y-17477796D01*
X190808777Y-17496846D01*
X190840017Y-17522483D01*
X190865654Y-17553723D01*
X190884704Y-17589362D01*
X190896435Y-17628032D01*
X190901000Y-17674388D01*
X190901000Y-18325612D01*
X190896435Y-18371968D01*
X190884704Y-18410638D01*
X190865654Y-18446277D01*
X190840017Y-18477517D01*
X190808777Y-18503154D01*
X190773138Y-18522204D01*
X190734468Y-18533935D01*
X190688112Y-18538500D01*
X189611888Y-18538500D01*
X189565532Y-18533935D01*
X189526862Y-18522204D01*
X189491223Y-18503154D01*
X189459983Y-18477517D01*
X189434346Y-18446277D01*
X189415296Y-18410638D01*
X189403565Y-18371968D01*
X189399000Y-18325612D01*
X189399000Y-17674388D01*
X189403565Y-17628032D01*
X189415296Y-17589362D01*
X189434346Y-17553723D01*
X189459983Y-17522483D01*
X189491223Y-17496846D01*
X189526862Y-17477796D01*
X189565532Y-17466065D01*
X189611888Y-17461500D01*
X190688112Y-17461500D01*
X190734468Y-17466065D01*
G37*
G36*
X160684468Y-17466065D02*
G01*
X160723138Y-17477796D01*
X160758777Y-17496846D01*
X160790017Y-17522483D01*
X160815654Y-17553723D01*
X160834704Y-17589362D01*
X160846435Y-17628032D01*
X160851000Y-17674388D01*
X160851000Y-18325612D01*
X160846435Y-18371968D01*
X160834704Y-18410638D01*
X160815654Y-18446277D01*
X160790017Y-18477517D01*
X160758777Y-18503154D01*
X160723138Y-18522204D01*
X160684468Y-18533935D01*
X160638112Y-18538500D01*
X159561888Y-18538500D01*
X159515532Y-18533935D01*
X159476862Y-18522204D01*
X159441223Y-18503154D01*
X159409983Y-18477517D01*
X159384346Y-18446277D01*
X159365296Y-18410638D01*
X159353565Y-18371968D01*
X159349000Y-18325612D01*
X159349000Y-17674388D01*
X159353565Y-17628032D01*
X159365296Y-17589362D01*
X159384346Y-17553723D01*
X159409983Y-17522483D01*
X159441223Y-17496846D01*
X159476862Y-17477796D01*
X159515532Y-17466065D01*
X159561888Y-17461500D01*
X160638112Y-17461500D01*
X160684468Y-17466065D01*
G37*
G36*
X130714468Y-17446065D02*
G01*
X130753138Y-17457796D01*
X130788777Y-17476846D01*
X130820017Y-17502483D01*
X130845654Y-17533723D01*
X130864704Y-17569362D01*
X130876435Y-17608032D01*
X130881000Y-17654388D01*
X130881000Y-18305612D01*
X130876435Y-18351968D01*
X130864704Y-18390638D01*
X130845654Y-18426277D01*
X130820017Y-18457517D01*
X130788777Y-18483154D01*
X130753138Y-18502204D01*
X130714468Y-18513935D01*
X130668112Y-18518500D01*
X129591888Y-18518500D01*
X129545532Y-18513935D01*
X129506862Y-18502204D01*
X129471223Y-18483154D01*
X129439983Y-18457517D01*
X129414346Y-18426277D01*
X129395296Y-18390638D01*
X129383565Y-18351968D01*
X129379000Y-18305612D01*
X129379000Y-17654388D01*
X129383565Y-17608032D01*
X129395296Y-17569362D01*
X129414346Y-17533723D01*
X129439983Y-17502483D01*
X129471223Y-17476846D01*
X129506862Y-17457796D01*
X129545532Y-17446065D01*
X129591888Y-17441500D01*
X130668112Y-17441500D01*
X130714468Y-17446065D01*
G37*
G36*
X194701000Y-18516000D02*
G01*
X192599000Y-18516000D01*
X192599000Y-17514000D01*
X194701000Y-17514000D01*
X194701000Y-18516000D01*
G37*
G36*
X181651000Y-18516000D02*
G01*
X179549000Y-18516000D01*
X179549000Y-17514000D01*
X181651000Y-17514000D01*
X181651000Y-18516000D01*
G37*
G36*
X164651000Y-18516000D02*
G01*
X162549000Y-18516000D01*
X162549000Y-17514000D01*
X164651000Y-17514000D01*
X164651000Y-18516000D01*
G37*
G36*
X211701000Y-18516000D02*
G01*
X209599000Y-18516000D01*
X209599000Y-17514000D01*
X211701000Y-17514000D01*
X211701000Y-18516000D01*
G37*
G36*
X151681000Y-18496000D02*
G01*
X149579000Y-18496000D01*
X149579000Y-17494000D01*
X151681000Y-17494000D01*
X151681000Y-18496000D01*
G37*
G36*
X134681000Y-18496000D02*
G01*
X132579000Y-18496000D01*
X132579000Y-17494000D01*
X134681000Y-17494000D01*
X134681000Y-18496000D01*
G37*
G36*
X214310721Y-17270174D02*
G01*
X214410995Y-17311709D01*
X214410996Y-17311710D01*
X214501242Y-17372010D01*
X214577990Y-17448758D01*
X214589554Y-17466065D01*
X214638291Y-17539005D01*
X214679826Y-17639279D01*
X214701000Y-17745730D01*
X214701000Y-17854270D01*
X214679826Y-17960721D01*
X214638291Y-18060995D01*
X214638290Y-18060996D01*
X214577990Y-18151242D01*
X214501242Y-18227990D01*
X214469424Y-18249250D01*
X214410995Y-18288291D01*
X214310721Y-18329826D01*
X214204270Y-18351000D01*
X214095730Y-18351000D01*
X213989279Y-18329826D01*
X213889005Y-18288291D01*
X213830576Y-18249250D01*
X213798758Y-18227990D01*
X213722010Y-18151242D01*
X213661710Y-18060996D01*
X213661709Y-18060995D01*
X213620174Y-17960721D01*
X213599000Y-17854270D01*
X213599000Y-17745730D01*
X213620174Y-17639279D01*
X213661709Y-17539005D01*
X213710446Y-17466065D01*
X213722010Y-17448758D01*
X213798758Y-17372010D01*
X213889004Y-17311710D01*
X213889005Y-17311709D01*
X213989279Y-17270174D01*
X214095730Y-17249000D01*
X214204270Y-17249000D01*
X214310721Y-17270174D01*
G37*
G36*
X184260721Y-17270174D02*
G01*
X184360995Y-17311709D01*
X184360996Y-17311710D01*
X184451242Y-17372010D01*
X184527990Y-17448758D01*
X184539554Y-17466065D01*
X184588291Y-17539005D01*
X184629826Y-17639279D01*
X184651000Y-17745730D01*
X184651000Y-17854270D01*
X184629826Y-17960721D01*
X184588291Y-18060995D01*
X184588290Y-18060996D01*
X184527990Y-18151242D01*
X184451242Y-18227990D01*
X184419424Y-18249250D01*
X184360995Y-18288291D01*
X184260721Y-18329826D01*
X184154270Y-18351000D01*
X184045730Y-18351000D01*
X183939279Y-18329826D01*
X183839005Y-18288291D01*
X183780576Y-18249250D01*
X183748758Y-18227990D01*
X183672010Y-18151242D01*
X183611710Y-18060996D01*
X183611709Y-18060995D01*
X183570174Y-17960721D01*
X183549000Y-17854270D01*
X183549000Y-17745730D01*
X183570174Y-17639279D01*
X183611709Y-17539005D01*
X183660446Y-17466065D01*
X183672010Y-17448758D01*
X183748758Y-17372010D01*
X183839004Y-17311710D01*
X183839005Y-17311709D01*
X183939279Y-17270174D01*
X184045730Y-17249000D01*
X184154270Y-17249000D01*
X184260721Y-17270174D01*
G37*
G36*
X154290721Y-17250174D02*
G01*
X154390995Y-17291709D01*
X154435812Y-17321655D01*
X154481242Y-17352010D01*
X154557990Y-17428758D01*
X154583324Y-17466674D01*
X154618291Y-17519005D01*
X154659826Y-17619279D01*
X154681000Y-17725730D01*
X154681000Y-17834270D01*
X154659826Y-17940721D01*
X154618291Y-18040995D01*
X154618290Y-18040996D01*
X154557990Y-18131242D01*
X154481242Y-18207990D01*
X154451308Y-18227991D01*
X154390995Y-18268291D01*
X154290721Y-18309826D01*
X154184270Y-18331000D01*
X154075730Y-18331000D01*
X153969279Y-18309826D01*
X153869005Y-18268291D01*
X153808692Y-18227991D01*
X153778758Y-18207990D01*
X153702010Y-18131242D01*
X153641710Y-18040996D01*
X153641709Y-18040995D01*
X153600174Y-17940721D01*
X153579000Y-17834270D01*
X153579000Y-17725730D01*
X153600174Y-17619279D01*
X153641709Y-17519005D01*
X153676676Y-17466674D01*
X153702010Y-17428758D01*
X153778758Y-17352010D01*
X153824188Y-17321655D01*
X153869005Y-17291709D01*
X153969279Y-17250174D01*
X154075730Y-17229000D01*
X154184270Y-17229000D01*
X154290721Y-17250174D01*
G37*
G36*
X211701000Y-17246000D02*
G01*
X209599000Y-17246000D01*
X209599000Y-16244000D01*
X211701000Y-16244000D01*
X211701000Y-17246000D01*
G37*
G36*
X164651000Y-17246000D02*
G01*
X162549000Y-17246000D01*
X162549000Y-16244000D01*
X164651000Y-16244000D01*
X164651000Y-17246000D01*
G37*
G36*
X194701000Y-17246000D02*
G01*
X192599000Y-17246000D01*
X192599000Y-16244000D01*
X194701000Y-16244000D01*
X194701000Y-17246000D01*
G37*
G36*
X181651000Y-17246000D02*
G01*
X179549000Y-17246000D01*
X179549000Y-16244000D01*
X181651000Y-16244000D01*
X181651000Y-17246000D01*
G37*
G36*
X134681000Y-17226000D02*
G01*
X132579000Y-17226000D01*
X132579000Y-16224000D01*
X134681000Y-16224000D01*
X134681000Y-17226000D01*
G37*
G36*
X151681000Y-17226000D02*
G01*
X149579000Y-17226000D01*
X149579000Y-16224000D01*
X151681000Y-16224000D01*
X151681000Y-17226000D01*
G37*
G36*
X190734468Y-15591065D02*
G01*
X190773138Y-15602796D01*
X190808777Y-15621846D01*
X190840017Y-15647483D01*
X190865654Y-15678723D01*
X190884704Y-15714362D01*
X190896435Y-15753032D01*
X190901000Y-15799388D01*
X190901000Y-16450612D01*
X190896435Y-16496968D01*
X190884704Y-16535638D01*
X190865654Y-16571277D01*
X190840017Y-16602517D01*
X190808777Y-16628154D01*
X190773138Y-16647204D01*
X190734468Y-16658935D01*
X190688112Y-16663500D01*
X189611888Y-16663500D01*
X189565532Y-16658935D01*
X189526862Y-16647204D01*
X189491223Y-16628154D01*
X189459983Y-16602517D01*
X189434346Y-16571277D01*
X189415296Y-16535638D01*
X189403565Y-16496968D01*
X189399000Y-16450612D01*
X189399000Y-15799388D01*
X189403565Y-15753032D01*
X189415296Y-15714362D01*
X189434346Y-15678723D01*
X189459983Y-15647483D01*
X189491223Y-15621846D01*
X189526862Y-15602796D01*
X189565532Y-15591065D01*
X189611888Y-15586500D01*
X190688112Y-15586500D01*
X190734468Y-15591065D01*
G37*
G36*
X160684468Y-15591065D02*
G01*
X160723138Y-15602796D01*
X160758777Y-15621846D01*
X160790017Y-15647483D01*
X160815654Y-15678723D01*
X160834704Y-15714362D01*
X160846435Y-15753032D01*
X160851000Y-15799388D01*
X160851000Y-16450612D01*
X160846435Y-16496968D01*
X160834704Y-16535638D01*
X160815654Y-16571277D01*
X160790017Y-16602517D01*
X160758777Y-16628154D01*
X160723138Y-16647204D01*
X160684468Y-16658935D01*
X160638112Y-16663500D01*
X159561888Y-16663500D01*
X159515532Y-16658935D01*
X159476862Y-16647204D01*
X159441223Y-16628154D01*
X159409983Y-16602517D01*
X159384346Y-16571277D01*
X159365296Y-16535638D01*
X159353565Y-16496968D01*
X159349000Y-16450612D01*
X159349000Y-15799388D01*
X159353565Y-15753032D01*
X159365296Y-15714362D01*
X159384346Y-15678723D01*
X159409983Y-15647483D01*
X159441223Y-15621846D01*
X159476862Y-15602796D01*
X159515532Y-15591065D01*
X159561888Y-15586500D01*
X160638112Y-15586500D01*
X160684468Y-15591065D01*
G37*
G36*
X130714468Y-15571065D02*
G01*
X130753138Y-15582796D01*
X130788777Y-15601846D01*
X130820017Y-15627483D01*
X130845654Y-15658723D01*
X130864704Y-15694362D01*
X130876435Y-15733032D01*
X130881000Y-15779388D01*
X130881000Y-16430612D01*
X130876435Y-16476968D01*
X130864704Y-16515638D01*
X130845654Y-16551277D01*
X130820017Y-16582517D01*
X130788777Y-16608154D01*
X130753138Y-16627204D01*
X130714468Y-16638935D01*
X130668112Y-16643500D01*
X129591888Y-16643500D01*
X129545532Y-16638935D01*
X129506862Y-16627204D01*
X129471223Y-16608154D01*
X129439983Y-16582517D01*
X129414346Y-16551277D01*
X129395296Y-16515638D01*
X129383565Y-16476968D01*
X129379000Y-16430612D01*
X129379000Y-15779388D01*
X129383565Y-15733032D01*
X129395296Y-15694362D01*
X129414346Y-15658723D01*
X129439983Y-15627483D01*
X129471223Y-15601846D01*
X129506862Y-15582796D01*
X129545532Y-15571065D01*
X129591888Y-15566500D01*
X130668112Y-15566500D01*
X130714468Y-15571065D01*
G37*
M02*
