G04 #@! TF.GenerationSoftware,KiCad,Pcbnew,(5.1.5)-3*
G04 #@! TF.CreationDate,2021-03-30T01:03:12+08:00*
G04 #@! TF.ProjectId,panelize,70616e65-6c69-47a6-952e-6b696361645f,1.1.0*
G04 #@! TF.SameCoordinates,Original*
G04 #@! TF.FileFunction,Legend,Bot*
G04 #@! TF.FilePolarity,Positive*
%FSLAX46Y46*%
G04 Gerber Fmt 4.6, Leading zero omitted, Abs format (unit mm)*
G04 Created by KiCad (PCBNEW (5.1.5)-3) date 2021-03-30 01:03:12*
%MOMM*%
%LPD*%
G04 APERTURE LIST*
%ADD10C,0.200000*%
%ADD11C,0.120000*%
%ADD12C,0.002540*%
%ADD13C,0.150000*%
G04 APERTURE END LIST*
D10*
X128701428Y-46430000D02*
X128701428Y-47144285D01*
X130201428Y-47144285D01*
X128701428Y-45930000D02*
X130201428Y-45930000D01*
X128701428Y-44358571D02*
X129415714Y-44858571D01*
X128701428Y-45215714D02*
X130201428Y-45215714D01*
X130201428Y-44644285D01*
X130130000Y-44501428D01*
X130058571Y-44430000D01*
X129915714Y-44358571D01*
X129701428Y-44358571D01*
X129558571Y-44430000D01*
X129487142Y-44501428D01*
X129415714Y-44644285D01*
X129415714Y-45215714D01*
X130058571Y-43787142D02*
X130130000Y-43715714D01*
X130201428Y-43572857D01*
X130201428Y-43215714D01*
X130130000Y-43072857D01*
X130058571Y-43001428D01*
X129915714Y-42930000D01*
X129772857Y-42930000D01*
X129558571Y-43001428D01*
X128701428Y-43858571D01*
X128701428Y-42930000D01*
X129701428Y-41644285D02*
X128701428Y-41644285D01*
X130272857Y-42001428D02*
X129201428Y-42358571D01*
X129201428Y-41430000D01*
X130201428Y-40144285D02*
X130201428Y-40858571D01*
X129487142Y-40930000D01*
X129558571Y-40858571D01*
X129630000Y-40715714D01*
X129630000Y-40358571D01*
X129558571Y-40215714D01*
X129487142Y-40144285D01*
X129344285Y-40072857D01*
X128987142Y-40072857D01*
X128844285Y-40144285D01*
X128772857Y-40215714D01*
X128701428Y-40358571D01*
X128701428Y-40715714D01*
X128772857Y-40858571D01*
X128844285Y-40930000D01*
X130201428Y-39144285D02*
X130201428Y-39001428D01*
X130130000Y-38858571D01*
X130058571Y-38787142D01*
X129915714Y-38715714D01*
X129630000Y-38644285D01*
X129272857Y-38644285D01*
X128987142Y-38715714D01*
X128844285Y-38787142D01*
X128772857Y-38858571D01*
X128701428Y-39001428D01*
X128701428Y-39144285D01*
X128772857Y-39287142D01*
X128844285Y-39358571D01*
X128987142Y-39430000D01*
X129272857Y-39501428D01*
X129630000Y-39501428D01*
X129915714Y-39430000D01*
X130058571Y-39358571D01*
X130130000Y-39287142D01*
X130201428Y-39144285D01*
X128701428Y-36644285D02*
X128772857Y-36787142D01*
X128844285Y-36858571D01*
X128987142Y-36930000D01*
X129415714Y-36930000D01*
X129558571Y-36858571D01*
X129630000Y-36787142D01*
X129701428Y-36644285D01*
X129701428Y-36430000D01*
X129630000Y-36287142D01*
X129558571Y-36215714D01*
X129415714Y-36144285D01*
X128987142Y-36144285D01*
X128844285Y-36215714D01*
X128772857Y-36287142D01*
X128701428Y-36430000D01*
X128701428Y-36644285D01*
X129701428Y-35501428D02*
X128701428Y-35501428D01*
X129558571Y-35501428D02*
X129630000Y-35430000D01*
X129701428Y-35287142D01*
X129701428Y-35072857D01*
X129630000Y-34930000D01*
X129487142Y-34858571D01*
X128701428Y-34858571D01*
X128701428Y-33930000D02*
X128772857Y-34072857D01*
X128915714Y-34144285D01*
X130201428Y-34144285D01*
X129701428Y-33501428D02*
X128701428Y-33144285D01*
X129701428Y-32787142D02*
X128701428Y-33144285D01*
X128344285Y-33287142D01*
X128272857Y-33358571D01*
X128201428Y-33501428D01*
X128844285Y-32215714D02*
X128772857Y-32144285D01*
X128701428Y-32215714D01*
X128772857Y-32287142D01*
X128844285Y-32215714D01*
X128701428Y-32215714D01*
X129272857Y-32215714D02*
X130130000Y-32287142D01*
X130201428Y-32215714D01*
X130130000Y-32144285D01*
X129272857Y-32215714D01*
X130201428Y-32215714D01*
X140515714Y-11765714D02*
X140515714Y-12765714D01*
X140515714Y-11813333D02*
X140420476Y-11765714D01*
X140230000Y-11765714D01*
X140134761Y-11813333D01*
X140087142Y-11860952D01*
X140039523Y-11956190D01*
X140039523Y-12241904D01*
X140087142Y-12337142D01*
X140134761Y-12384761D01*
X140230000Y-12432380D01*
X140420476Y-12432380D01*
X140515714Y-12384761D01*
X139182380Y-12432380D02*
X139182380Y-11908571D01*
X139230000Y-11813333D01*
X139325238Y-11765714D01*
X139515714Y-11765714D01*
X139610952Y-11813333D01*
X139182380Y-12384761D02*
X139277619Y-12432380D01*
X139515714Y-12432380D01*
X139610952Y-12384761D01*
X139658571Y-12289523D01*
X139658571Y-12194285D01*
X139610952Y-12099047D01*
X139515714Y-12051428D01*
X139277619Y-12051428D01*
X139182380Y-12003809D01*
X138706190Y-12432380D02*
X138706190Y-11765714D01*
X138706190Y-11956190D02*
X138658571Y-11860952D01*
X138610952Y-11813333D01*
X138515714Y-11765714D01*
X138420476Y-11765714D01*
X137658571Y-12432380D02*
X137658571Y-11908571D01*
X137706190Y-11813333D01*
X137801428Y-11765714D01*
X137991904Y-11765714D01*
X138087142Y-11813333D01*
X137658571Y-12384761D02*
X137753809Y-12432380D01*
X137991904Y-12432380D01*
X138087142Y-12384761D01*
X138134761Y-12289523D01*
X138134761Y-12194285D01*
X138087142Y-12099047D01*
X137991904Y-12051428D01*
X137753809Y-12051428D01*
X137658571Y-12003809D01*
X137230000Y-12384761D02*
X137134761Y-12432380D01*
X136944285Y-12432380D01*
X136849047Y-12384761D01*
X136801428Y-12289523D01*
X136801428Y-12241904D01*
X136849047Y-12146666D01*
X136944285Y-12099047D01*
X137087142Y-12099047D01*
X137182380Y-12051428D01*
X137230000Y-11956190D01*
X137230000Y-11908571D01*
X137182380Y-11813333D01*
X137087142Y-11765714D01*
X136944285Y-11765714D01*
X136849047Y-11813333D01*
X136372857Y-12432380D02*
X136372857Y-11765714D01*
X136372857Y-11432380D02*
X136420476Y-11480000D01*
X136372857Y-11527619D01*
X136325238Y-11480000D01*
X136372857Y-11432380D01*
X136372857Y-11527619D01*
X136039523Y-11765714D02*
X135658571Y-11765714D01*
X135896666Y-11432380D02*
X135896666Y-12289523D01*
X135849047Y-12384761D01*
X135753809Y-12432380D01*
X135658571Y-12432380D01*
X134944285Y-12384761D02*
X135039523Y-12432380D01*
X135230000Y-12432380D01*
X135325238Y-12384761D01*
X135372857Y-12289523D01*
X135372857Y-11908571D01*
X135325238Y-11813333D01*
X135230000Y-11765714D01*
X135039523Y-11765714D01*
X134944285Y-11813333D01*
X134896666Y-11908571D01*
X134896666Y-12003809D01*
X135372857Y-12099047D01*
X138872857Y-14132380D02*
X139444285Y-14132380D01*
X139158571Y-14132380D02*
X139158571Y-13132380D01*
X139253809Y-13275238D01*
X139349047Y-13370476D01*
X139444285Y-13418095D01*
X138444285Y-14037142D02*
X138396666Y-14084761D01*
X138444285Y-14132380D01*
X138491904Y-14084761D01*
X138444285Y-14037142D01*
X138444285Y-14132380D01*
X137444285Y-14132380D02*
X138015714Y-14132380D01*
X137730000Y-14132380D02*
X137730000Y-13132380D01*
X137825238Y-13275238D01*
X137920476Y-13370476D01*
X138015714Y-13418095D01*
X137015714Y-14037142D02*
X136968095Y-14084761D01*
X137015714Y-14132380D01*
X137063333Y-14084761D01*
X137015714Y-14037142D01*
X137015714Y-14132380D01*
X136349047Y-13132380D02*
X136253809Y-13132380D01*
X136158571Y-13180000D01*
X136110952Y-13227619D01*
X136063333Y-13322857D01*
X136015714Y-13513333D01*
X136015714Y-13751428D01*
X136063333Y-13941904D01*
X136110952Y-14037142D01*
X136158571Y-14084761D01*
X136253809Y-14132380D01*
X136349047Y-14132380D01*
X136444285Y-14084761D01*
X136491904Y-14037142D01*
X136539523Y-13941904D01*
X136587142Y-13751428D01*
X136587142Y-13513333D01*
X136539523Y-13322857D01*
X136491904Y-13227619D01*
X136444285Y-13180000D01*
X136349047Y-13132380D01*
X141325238Y-15832380D02*
X141325238Y-15165714D01*
X141325238Y-15356190D02*
X141277619Y-15260952D01*
X141230000Y-15213333D01*
X141134761Y-15165714D01*
X141039523Y-15165714D01*
X140706190Y-15832380D02*
X140706190Y-14832380D01*
X140706190Y-15213333D02*
X140610952Y-15165714D01*
X140420476Y-15165714D01*
X140325238Y-15213333D01*
X140277619Y-15260952D01*
X140230000Y-15356190D01*
X140230000Y-15641904D01*
X140277619Y-15737142D01*
X140325238Y-15784761D01*
X140420476Y-15832380D01*
X140610952Y-15832380D01*
X140706190Y-15784761D01*
X139372857Y-15832380D02*
X139372857Y-15308571D01*
X139420476Y-15213333D01*
X139515714Y-15165714D01*
X139706190Y-15165714D01*
X139801428Y-15213333D01*
X139372857Y-15784761D02*
X139468095Y-15832380D01*
X139706190Y-15832380D01*
X139801428Y-15784761D01*
X139849047Y-15689523D01*
X139849047Y-15594285D01*
X139801428Y-15499047D01*
X139706190Y-15451428D01*
X139468095Y-15451428D01*
X139372857Y-15403809D01*
X138896666Y-15832380D02*
X138896666Y-15165714D01*
X138896666Y-15356190D02*
X138849047Y-15260952D01*
X138801428Y-15213333D01*
X138706190Y-15165714D01*
X138610952Y-15165714D01*
X138134761Y-15832380D02*
X138230000Y-15784761D01*
X138277619Y-15737142D01*
X138325238Y-15641904D01*
X138325238Y-15356190D01*
X138277619Y-15260952D01*
X138230000Y-15213333D01*
X138134761Y-15165714D01*
X137991904Y-15165714D01*
X137896666Y-15213333D01*
X137849047Y-15260952D01*
X137801428Y-15356190D01*
X137801428Y-15641904D01*
X137849047Y-15737142D01*
X137896666Y-15784761D01*
X137991904Y-15832380D01*
X138134761Y-15832380D01*
X137372857Y-15165714D02*
X137372857Y-15832380D01*
X137372857Y-15260952D02*
X137325238Y-15213333D01*
X137230000Y-15165714D01*
X137087142Y-15165714D01*
X136991904Y-15213333D01*
X136944285Y-15308571D01*
X136944285Y-15832380D01*
X136468095Y-15737142D02*
X136420476Y-15784761D01*
X136468095Y-15832380D01*
X136515714Y-15784761D01*
X136468095Y-15737142D01*
X136468095Y-15832380D01*
X135991904Y-15165714D02*
X135991904Y-15832380D01*
X135991904Y-15260952D02*
X135944285Y-15213333D01*
X135849047Y-15165714D01*
X135706190Y-15165714D01*
X135610952Y-15213333D01*
X135563333Y-15308571D01*
X135563333Y-15832380D01*
X134706190Y-15784761D02*
X134801428Y-15832380D01*
X134991904Y-15832380D01*
X135087142Y-15784761D01*
X135134761Y-15689523D01*
X135134761Y-15308571D01*
X135087142Y-15213333D01*
X134991904Y-15165714D01*
X134801428Y-15165714D01*
X134706190Y-15213333D01*
X134658571Y-15308571D01*
X134658571Y-15403809D01*
X135134761Y-15499047D01*
X134372857Y-15165714D02*
X133991904Y-15165714D01*
X134230000Y-14832380D02*
X134230000Y-15689523D01*
X134182380Y-15784761D01*
X134087142Y-15832380D01*
X133991904Y-15832380D01*
D11*
X130630000Y-65980000D02*
X153630000Y-65980000D01*
D10*
X158671428Y-46450000D02*
X158671428Y-47164285D01*
X160171428Y-47164285D01*
X158671428Y-45950000D02*
X160171428Y-45950000D01*
X158671428Y-44378571D02*
X159385714Y-44878571D01*
X158671428Y-45235714D02*
X160171428Y-45235714D01*
X160171428Y-44664285D01*
X160100000Y-44521428D01*
X160028571Y-44450000D01*
X159885714Y-44378571D01*
X159671428Y-44378571D01*
X159528571Y-44450000D01*
X159457142Y-44521428D01*
X159385714Y-44664285D01*
X159385714Y-45235714D01*
X160028571Y-43807142D02*
X160100000Y-43735714D01*
X160171428Y-43592857D01*
X160171428Y-43235714D01*
X160100000Y-43092857D01*
X160028571Y-43021428D01*
X159885714Y-42950000D01*
X159742857Y-42950000D01*
X159528571Y-43021428D01*
X158671428Y-43878571D01*
X158671428Y-42950000D01*
X159671428Y-41664285D02*
X158671428Y-41664285D01*
X160242857Y-42021428D02*
X159171428Y-42378571D01*
X159171428Y-41450000D01*
X160171428Y-40164285D02*
X160171428Y-40878571D01*
X159457142Y-40950000D01*
X159528571Y-40878571D01*
X159600000Y-40735714D01*
X159600000Y-40378571D01*
X159528571Y-40235714D01*
X159457142Y-40164285D01*
X159314285Y-40092857D01*
X158957142Y-40092857D01*
X158814285Y-40164285D01*
X158742857Y-40235714D01*
X158671428Y-40378571D01*
X158671428Y-40735714D01*
X158742857Y-40878571D01*
X158814285Y-40950000D01*
X160171428Y-39164285D02*
X160171428Y-39021428D01*
X160100000Y-38878571D01*
X160028571Y-38807142D01*
X159885714Y-38735714D01*
X159600000Y-38664285D01*
X159242857Y-38664285D01*
X158957142Y-38735714D01*
X158814285Y-38807142D01*
X158742857Y-38878571D01*
X158671428Y-39021428D01*
X158671428Y-39164285D01*
X158742857Y-39307142D01*
X158814285Y-39378571D01*
X158957142Y-39450000D01*
X159242857Y-39521428D01*
X159600000Y-39521428D01*
X159885714Y-39450000D01*
X160028571Y-39378571D01*
X160100000Y-39307142D01*
X160171428Y-39164285D01*
X158671428Y-36664285D02*
X158742857Y-36807142D01*
X158814285Y-36878571D01*
X158957142Y-36950000D01*
X159385714Y-36950000D01*
X159528571Y-36878571D01*
X159600000Y-36807142D01*
X159671428Y-36664285D01*
X159671428Y-36450000D01*
X159600000Y-36307142D01*
X159528571Y-36235714D01*
X159385714Y-36164285D01*
X158957142Y-36164285D01*
X158814285Y-36235714D01*
X158742857Y-36307142D01*
X158671428Y-36450000D01*
X158671428Y-36664285D01*
X159671428Y-35521428D02*
X158671428Y-35521428D01*
X159528571Y-35521428D02*
X159600000Y-35450000D01*
X159671428Y-35307142D01*
X159671428Y-35092857D01*
X159600000Y-34950000D01*
X159457142Y-34878571D01*
X158671428Y-34878571D01*
X158671428Y-33950000D02*
X158742857Y-34092857D01*
X158885714Y-34164285D01*
X160171428Y-34164285D01*
X159671428Y-33521428D02*
X158671428Y-33164285D01*
X159671428Y-32807142D02*
X158671428Y-33164285D01*
X158314285Y-33307142D01*
X158242857Y-33378571D01*
X158171428Y-33521428D01*
X158814285Y-32235714D02*
X158742857Y-32164285D01*
X158671428Y-32235714D01*
X158742857Y-32307142D01*
X158814285Y-32235714D01*
X158671428Y-32235714D01*
X159242857Y-32235714D02*
X160100000Y-32307142D01*
X160171428Y-32235714D01*
X160100000Y-32164285D01*
X159242857Y-32235714D01*
X160171428Y-32235714D01*
X170485714Y-11785714D02*
X170485714Y-12785714D01*
X170485714Y-11833333D02*
X170390476Y-11785714D01*
X170200000Y-11785714D01*
X170104761Y-11833333D01*
X170057142Y-11880952D01*
X170009523Y-11976190D01*
X170009523Y-12261904D01*
X170057142Y-12357142D01*
X170104761Y-12404761D01*
X170200000Y-12452380D01*
X170390476Y-12452380D01*
X170485714Y-12404761D01*
X169152380Y-12452380D02*
X169152380Y-11928571D01*
X169200000Y-11833333D01*
X169295238Y-11785714D01*
X169485714Y-11785714D01*
X169580952Y-11833333D01*
X169152380Y-12404761D02*
X169247619Y-12452380D01*
X169485714Y-12452380D01*
X169580952Y-12404761D01*
X169628571Y-12309523D01*
X169628571Y-12214285D01*
X169580952Y-12119047D01*
X169485714Y-12071428D01*
X169247619Y-12071428D01*
X169152380Y-12023809D01*
X168676190Y-12452380D02*
X168676190Y-11785714D01*
X168676190Y-11976190D02*
X168628571Y-11880952D01*
X168580952Y-11833333D01*
X168485714Y-11785714D01*
X168390476Y-11785714D01*
X167628571Y-12452380D02*
X167628571Y-11928571D01*
X167676190Y-11833333D01*
X167771428Y-11785714D01*
X167961904Y-11785714D01*
X168057142Y-11833333D01*
X167628571Y-12404761D02*
X167723809Y-12452380D01*
X167961904Y-12452380D01*
X168057142Y-12404761D01*
X168104761Y-12309523D01*
X168104761Y-12214285D01*
X168057142Y-12119047D01*
X167961904Y-12071428D01*
X167723809Y-12071428D01*
X167628571Y-12023809D01*
X167200000Y-12404761D02*
X167104761Y-12452380D01*
X166914285Y-12452380D01*
X166819047Y-12404761D01*
X166771428Y-12309523D01*
X166771428Y-12261904D01*
X166819047Y-12166666D01*
X166914285Y-12119047D01*
X167057142Y-12119047D01*
X167152380Y-12071428D01*
X167200000Y-11976190D01*
X167200000Y-11928571D01*
X167152380Y-11833333D01*
X167057142Y-11785714D01*
X166914285Y-11785714D01*
X166819047Y-11833333D01*
X166342857Y-12452380D02*
X166342857Y-11785714D01*
X166342857Y-11452380D02*
X166390476Y-11500000D01*
X166342857Y-11547619D01*
X166295238Y-11500000D01*
X166342857Y-11452380D01*
X166342857Y-11547619D01*
X166009523Y-11785714D02*
X165628571Y-11785714D01*
X165866666Y-11452380D02*
X165866666Y-12309523D01*
X165819047Y-12404761D01*
X165723809Y-12452380D01*
X165628571Y-12452380D01*
X164914285Y-12404761D02*
X165009523Y-12452380D01*
X165200000Y-12452380D01*
X165295238Y-12404761D01*
X165342857Y-12309523D01*
X165342857Y-11928571D01*
X165295238Y-11833333D01*
X165200000Y-11785714D01*
X165009523Y-11785714D01*
X164914285Y-11833333D01*
X164866666Y-11928571D01*
X164866666Y-12023809D01*
X165342857Y-12119047D01*
X168842857Y-14152380D02*
X169414285Y-14152380D01*
X169128571Y-14152380D02*
X169128571Y-13152380D01*
X169223809Y-13295238D01*
X169319047Y-13390476D01*
X169414285Y-13438095D01*
X168414285Y-14057142D02*
X168366666Y-14104761D01*
X168414285Y-14152380D01*
X168461904Y-14104761D01*
X168414285Y-14057142D01*
X168414285Y-14152380D01*
X167414285Y-14152380D02*
X167985714Y-14152380D01*
X167700000Y-14152380D02*
X167700000Y-13152380D01*
X167795238Y-13295238D01*
X167890476Y-13390476D01*
X167985714Y-13438095D01*
X166985714Y-14057142D02*
X166938095Y-14104761D01*
X166985714Y-14152380D01*
X167033333Y-14104761D01*
X166985714Y-14057142D01*
X166985714Y-14152380D01*
X166319047Y-13152380D02*
X166223809Y-13152380D01*
X166128571Y-13200000D01*
X166080952Y-13247619D01*
X166033333Y-13342857D01*
X165985714Y-13533333D01*
X165985714Y-13771428D01*
X166033333Y-13961904D01*
X166080952Y-14057142D01*
X166128571Y-14104761D01*
X166223809Y-14152380D01*
X166319047Y-14152380D01*
X166414285Y-14104761D01*
X166461904Y-14057142D01*
X166509523Y-13961904D01*
X166557142Y-13771428D01*
X166557142Y-13533333D01*
X166509523Y-13342857D01*
X166461904Y-13247619D01*
X166414285Y-13200000D01*
X166319047Y-13152380D01*
X171295238Y-15852380D02*
X171295238Y-15185714D01*
X171295238Y-15376190D02*
X171247619Y-15280952D01*
X171200000Y-15233333D01*
X171104761Y-15185714D01*
X171009523Y-15185714D01*
X170676190Y-15852380D02*
X170676190Y-14852380D01*
X170676190Y-15233333D02*
X170580952Y-15185714D01*
X170390476Y-15185714D01*
X170295238Y-15233333D01*
X170247619Y-15280952D01*
X170200000Y-15376190D01*
X170200000Y-15661904D01*
X170247619Y-15757142D01*
X170295238Y-15804761D01*
X170390476Y-15852380D01*
X170580952Y-15852380D01*
X170676190Y-15804761D01*
X169342857Y-15852380D02*
X169342857Y-15328571D01*
X169390476Y-15233333D01*
X169485714Y-15185714D01*
X169676190Y-15185714D01*
X169771428Y-15233333D01*
X169342857Y-15804761D02*
X169438095Y-15852380D01*
X169676190Y-15852380D01*
X169771428Y-15804761D01*
X169819047Y-15709523D01*
X169819047Y-15614285D01*
X169771428Y-15519047D01*
X169676190Y-15471428D01*
X169438095Y-15471428D01*
X169342857Y-15423809D01*
X168866666Y-15852380D02*
X168866666Y-15185714D01*
X168866666Y-15376190D02*
X168819047Y-15280952D01*
X168771428Y-15233333D01*
X168676190Y-15185714D01*
X168580952Y-15185714D01*
X168104761Y-15852380D02*
X168200000Y-15804761D01*
X168247619Y-15757142D01*
X168295238Y-15661904D01*
X168295238Y-15376190D01*
X168247619Y-15280952D01*
X168200000Y-15233333D01*
X168104761Y-15185714D01*
X167961904Y-15185714D01*
X167866666Y-15233333D01*
X167819047Y-15280952D01*
X167771428Y-15376190D01*
X167771428Y-15661904D01*
X167819047Y-15757142D01*
X167866666Y-15804761D01*
X167961904Y-15852380D01*
X168104761Y-15852380D01*
X167342857Y-15185714D02*
X167342857Y-15852380D01*
X167342857Y-15280952D02*
X167295238Y-15233333D01*
X167200000Y-15185714D01*
X167057142Y-15185714D01*
X166961904Y-15233333D01*
X166914285Y-15328571D01*
X166914285Y-15852380D01*
X166438095Y-15757142D02*
X166390476Y-15804761D01*
X166438095Y-15852380D01*
X166485714Y-15804761D01*
X166438095Y-15757142D01*
X166438095Y-15852380D01*
X165961904Y-15185714D02*
X165961904Y-15852380D01*
X165961904Y-15280952D02*
X165914285Y-15233333D01*
X165819047Y-15185714D01*
X165676190Y-15185714D01*
X165580952Y-15233333D01*
X165533333Y-15328571D01*
X165533333Y-15852380D01*
X164676190Y-15804761D02*
X164771428Y-15852380D01*
X164961904Y-15852380D01*
X165057142Y-15804761D01*
X165104761Y-15709523D01*
X165104761Y-15328571D01*
X165057142Y-15233333D01*
X164961904Y-15185714D01*
X164771428Y-15185714D01*
X164676190Y-15233333D01*
X164628571Y-15328571D01*
X164628571Y-15423809D01*
X165104761Y-15519047D01*
X164342857Y-15185714D02*
X163961904Y-15185714D01*
X164200000Y-14852380D02*
X164200000Y-15709523D01*
X164152380Y-15804761D01*
X164057142Y-15852380D01*
X163961904Y-15852380D01*
D11*
X160600000Y-66000000D02*
X183600000Y-66000000D01*
D10*
X188721428Y-46450000D02*
X188721428Y-47164285D01*
X190221428Y-47164285D01*
X188721428Y-45950000D02*
X190221428Y-45950000D01*
X188721428Y-44378571D02*
X189435714Y-44878571D01*
X188721428Y-45235714D02*
X190221428Y-45235714D01*
X190221428Y-44664285D01*
X190150000Y-44521428D01*
X190078571Y-44450000D01*
X189935714Y-44378571D01*
X189721428Y-44378571D01*
X189578571Y-44450000D01*
X189507142Y-44521428D01*
X189435714Y-44664285D01*
X189435714Y-45235714D01*
X190078571Y-43807142D02*
X190150000Y-43735714D01*
X190221428Y-43592857D01*
X190221428Y-43235714D01*
X190150000Y-43092857D01*
X190078571Y-43021428D01*
X189935714Y-42950000D01*
X189792857Y-42950000D01*
X189578571Y-43021428D01*
X188721428Y-43878571D01*
X188721428Y-42950000D01*
X189721428Y-41664285D02*
X188721428Y-41664285D01*
X190292857Y-42021428D02*
X189221428Y-42378571D01*
X189221428Y-41450000D01*
X190221428Y-40164285D02*
X190221428Y-40878571D01*
X189507142Y-40950000D01*
X189578571Y-40878571D01*
X189650000Y-40735714D01*
X189650000Y-40378571D01*
X189578571Y-40235714D01*
X189507142Y-40164285D01*
X189364285Y-40092857D01*
X189007142Y-40092857D01*
X188864285Y-40164285D01*
X188792857Y-40235714D01*
X188721428Y-40378571D01*
X188721428Y-40735714D01*
X188792857Y-40878571D01*
X188864285Y-40950000D01*
X190221428Y-39164285D02*
X190221428Y-39021428D01*
X190150000Y-38878571D01*
X190078571Y-38807142D01*
X189935714Y-38735714D01*
X189650000Y-38664285D01*
X189292857Y-38664285D01*
X189007142Y-38735714D01*
X188864285Y-38807142D01*
X188792857Y-38878571D01*
X188721428Y-39021428D01*
X188721428Y-39164285D01*
X188792857Y-39307142D01*
X188864285Y-39378571D01*
X189007142Y-39450000D01*
X189292857Y-39521428D01*
X189650000Y-39521428D01*
X189935714Y-39450000D01*
X190078571Y-39378571D01*
X190150000Y-39307142D01*
X190221428Y-39164285D01*
X188721428Y-36664285D02*
X188792857Y-36807142D01*
X188864285Y-36878571D01*
X189007142Y-36950000D01*
X189435714Y-36950000D01*
X189578571Y-36878571D01*
X189650000Y-36807142D01*
X189721428Y-36664285D01*
X189721428Y-36450000D01*
X189650000Y-36307142D01*
X189578571Y-36235714D01*
X189435714Y-36164285D01*
X189007142Y-36164285D01*
X188864285Y-36235714D01*
X188792857Y-36307142D01*
X188721428Y-36450000D01*
X188721428Y-36664285D01*
X189721428Y-35521428D02*
X188721428Y-35521428D01*
X189578571Y-35521428D02*
X189650000Y-35450000D01*
X189721428Y-35307142D01*
X189721428Y-35092857D01*
X189650000Y-34950000D01*
X189507142Y-34878571D01*
X188721428Y-34878571D01*
X188721428Y-33950000D02*
X188792857Y-34092857D01*
X188935714Y-34164285D01*
X190221428Y-34164285D01*
X189721428Y-33521428D02*
X188721428Y-33164285D01*
X189721428Y-32807142D02*
X188721428Y-33164285D01*
X188364285Y-33307142D01*
X188292857Y-33378571D01*
X188221428Y-33521428D01*
X188864285Y-32235714D02*
X188792857Y-32164285D01*
X188721428Y-32235714D01*
X188792857Y-32307142D01*
X188864285Y-32235714D01*
X188721428Y-32235714D01*
X189292857Y-32235714D02*
X190150000Y-32307142D01*
X190221428Y-32235714D01*
X190150000Y-32164285D01*
X189292857Y-32235714D01*
X190221428Y-32235714D01*
X200535714Y-11785714D02*
X200535714Y-12785714D01*
X200535714Y-11833333D02*
X200440476Y-11785714D01*
X200250000Y-11785714D01*
X200154761Y-11833333D01*
X200107142Y-11880952D01*
X200059523Y-11976190D01*
X200059523Y-12261904D01*
X200107142Y-12357142D01*
X200154761Y-12404761D01*
X200250000Y-12452380D01*
X200440476Y-12452380D01*
X200535714Y-12404761D01*
X199202380Y-12452380D02*
X199202380Y-11928571D01*
X199250000Y-11833333D01*
X199345238Y-11785714D01*
X199535714Y-11785714D01*
X199630952Y-11833333D01*
X199202380Y-12404761D02*
X199297619Y-12452380D01*
X199535714Y-12452380D01*
X199630952Y-12404761D01*
X199678571Y-12309523D01*
X199678571Y-12214285D01*
X199630952Y-12119047D01*
X199535714Y-12071428D01*
X199297619Y-12071428D01*
X199202380Y-12023809D01*
X198726190Y-12452380D02*
X198726190Y-11785714D01*
X198726190Y-11976190D02*
X198678571Y-11880952D01*
X198630952Y-11833333D01*
X198535714Y-11785714D01*
X198440476Y-11785714D01*
X197678571Y-12452380D02*
X197678571Y-11928571D01*
X197726190Y-11833333D01*
X197821428Y-11785714D01*
X198011904Y-11785714D01*
X198107142Y-11833333D01*
X197678571Y-12404761D02*
X197773809Y-12452380D01*
X198011904Y-12452380D01*
X198107142Y-12404761D01*
X198154761Y-12309523D01*
X198154761Y-12214285D01*
X198107142Y-12119047D01*
X198011904Y-12071428D01*
X197773809Y-12071428D01*
X197678571Y-12023809D01*
X197250000Y-12404761D02*
X197154761Y-12452380D01*
X196964285Y-12452380D01*
X196869047Y-12404761D01*
X196821428Y-12309523D01*
X196821428Y-12261904D01*
X196869047Y-12166666D01*
X196964285Y-12119047D01*
X197107142Y-12119047D01*
X197202380Y-12071428D01*
X197250000Y-11976190D01*
X197250000Y-11928571D01*
X197202380Y-11833333D01*
X197107142Y-11785714D01*
X196964285Y-11785714D01*
X196869047Y-11833333D01*
X196392857Y-12452380D02*
X196392857Y-11785714D01*
X196392857Y-11452380D02*
X196440476Y-11500000D01*
X196392857Y-11547619D01*
X196345238Y-11500000D01*
X196392857Y-11452380D01*
X196392857Y-11547619D01*
X196059523Y-11785714D02*
X195678571Y-11785714D01*
X195916666Y-11452380D02*
X195916666Y-12309523D01*
X195869047Y-12404761D01*
X195773809Y-12452380D01*
X195678571Y-12452380D01*
X194964285Y-12404761D02*
X195059523Y-12452380D01*
X195250000Y-12452380D01*
X195345238Y-12404761D01*
X195392857Y-12309523D01*
X195392857Y-11928571D01*
X195345238Y-11833333D01*
X195250000Y-11785714D01*
X195059523Y-11785714D01*
X194964285Y-11833333D01*
X194916666Y-11928571D01*
X194916666Y-12023809D01*
X195392857Y-12119047D01*
X198892857Y-14152380D02*
X199464285Y-14152380D01*
X199178571Y-14152380D02*
X199178571Y-13152380D01*
X199273809Y-13295238D01*
X199369047Y-13390476D01*
X199464285Y-13438095D01*
X198464285Y-14057142D02*
X198416666Y-14104761D01*
X198464285Y-14152380D01*
X198511904Y-14104761D01*
X198464285Y-14057142D01*
X198464285Y-14152380D01*
X197464285Y-14152380D02*
X198035714Y-14152380D01*
X197750000Y-14152380D02*
X197750000Y-13152380D01*
X197845238Y-13295238D01*
X197940476Y-13390476D01*
X198035714Y-13438095D01*
X197035714Y-14057142D02*
X196988095Y-14104761D01*
X197035714Y-14152380D01*
X197083333Y-14104761D01*
X197035714Y-14057142D01*
X197035714Y-14152380D01*
X196369047Y-13152380D02*
X196273809Y-13152380D01*
X196178571Y-13200000D01*
X196130952Y-13247619D01*
X196083333Y-13342857D01*
X196035714Y-13533333D01*
X196035714Y-13771428D01*
X196083333Y-13961904D01*
X196130952Y-14057142D01*
X196178571Y-14104761D01*
X196273809Y-14152380D01*
X196369047Y-14152380D01*
X196464285Y-14104761D01*
X196511904Y-14057142D01*
X196559523Y-13961904D01*
X196607142Y-13771428D01*
X196607142Y-13533333D01*
X196559523Y-13342857D01*
X196511904Y-13247619D01*
X196464285Y-13200000D01*
X196369047Y-13152380D01*
X201345238Y-15852380D02*
X201345238Y-15185714D01*
X201345238Y-15376190D02*
X201297619Y-15280952D01*
X201250000Y-15233333D01*
X201154761Y-15185714D01*
X201059523Y-15185714D01*
X200726190Y-15852380D02*
X200726190Y-14852380D01*
X200726190Y-15233333D02*
X200630952Y-15185714D01*
X200440476Y-15185714D01*
X200345238Y-15233333D01*
X200297619Y-15280952D01*
X200250000Y-15376190D01*
X200250000Y-15661904D01*
X200297619Y-15757142D01*
X200345238Y-15804761D01*
X200440476Y-15852380D01*
X200630952Y-15852380D01*
X200726190Y-15804761D01*
X199392857Y-15852380D02*
X199392857Y-15328571D01*
X199440476Y-15233333D01*
X199535714Y-15185714D01*
X199726190Y-15185714D01*
X199821428Y-15233333D01*
X199392857Y-15804761D02*
X199488095Y-15852380D01*
X199726190Y-15852380D01*
X199821428Y-15804761D01*
X199869047Y-15709523D01*
X199869047Y-15614285D01*
X199821428Y-15519047D01*
X199726190Y-15471428D01*
X199488095Y-15471428D01*
X199392857Y-15423809D01*
X198916666Y-15852380D02*
X198916666Y-15185714D01*
X198916666Y-15376190D02*
X198869047Y-15280952D01*
X198821428Y-15233333D01*
X198726190Y-15185714D01*
X198630952Y-15185714D01*
X198154761Y-15852380D02*
X198250000Y-15804761D01*
X198297619Y-15757142D01*
X198345238Y-15661904D01*
X198345238Y-15376190D01*
X198297619Y-15280952D01*
X198250000Y-15233333D01*
X198154761Y-15185714D01*
X198011904Y-15185714D01*
X197916666Y-15233333D01*
X197869047Y-15280952D01*
X197821428Y-15376190D01*
X197821428Y-15661904D01*
X197869047Y-15757142D01*
X197916666Y-15804761D01*
X198011904Y-15852380D01*
X198154761Y-15852380D01*
X197392857Y-15185714D02*
X197392857Y-15852380D01*
X197392857Y-15280952D02*
X197345238Y-15233333D01*
X197250000Y-15185714D01*
X197107142Y-15185714D01*
X197011904Y-15233333D01*
X196964285Y-15328571D01*
X196964285Y-15852380D01*
X196488095Y-15757142D02*
X196440476Y-15804761D01*
X196488095Y-15852380D01*
X196535714Y-15804761D01*
X196488095Y-15757142D01*
X196488095Y-15852380D01*
X196011904Y-15185714D02*
X196011904Y-15852380D01*
X196011904Y-15280952D02*
X195964285Y-15233333D01*
X195869047Y-15185714D01*
X195726190Y-15185714D01*
X195630952Y-15233333D01*
X195583333Y-15328571D01*
X195583333Y-15852380D01*
X194726190Y-15804761D02*
X194821428Y-15852380D01*
X195011904Y-15852380D01*
X195107142Y-15804761D01*
X195154761Y-15709523D01*
X195154761Y-15328571D01*
X195107142Y-15233333D01*
X195011904Y-15185714D01*
X194821428Y-15185714D01*
X194726190Y-15233333D01*
X194678571Y-15328571D01*
X194678571Y-15423809D01*
X195154761Y-15519047D01*
X194392857Y-15185714D02*
X194011904Y-15185714D01*
X194250000Y-14852380D02*
X194250000Y-15709523D01*
X194202380Y-15804761D01*
X194107142Y-15852380D01*
X194011904Y-15852380D01*
D11*
X190650000Y-66000000D02*
X213650000Y-66000000D01*
D12*
G36*
X144006840Y-17371560D02*
G01*
X144047480Y-17351240D01*
X144141460Y-17292820D01*
X144276080Y-17203920D01*
X144433560Y-17099780D01*
X144591040Y-16990560D01*
X144720580Y-16904200D01*
X144812020Y-16845780D01*
X144850120Y-16825460D01*
X144870440Y-16830540D01*
X144946640Y-16868640D01*
X145055860Y-16924520D01*
X145119360Y-16957540D01*
X145218420Y-17000720D01*
X145269220Y-17010880D01*
X145276840Y-16995640D01*
X145314940Y-16919440D01*
X145370820Y-16787360D01*
X145447020Y-16614640D01*
X145533380Y-16411440D01*
X145627360Y-16193000D01*
X145718800Y-15969480D01*
X145807700Y-15756120D01*
X145886440Y-15565620D01*
X145949940Y-15410680D01*
X145990580Y-15301460D01*
X146005820Y-15255740D01*
X146000740Y-15245580D01*
X145949940Y-15197320D01*
X145863580Y-15131280D01*
X145673080Y-14976340D01*
X145487660Y-14742660D01*
X145373360Y-14478500D01*
X145335260Y-14183860D01*
X145368280Y-13912080D01*
X145474960Y-13650460D01*
X145657840Y-13414240D01*
X145878820Y-13238980D01*
X146137900Y-13127220D01*
X146430000Y-13091660D01*
X146709400Y-13122140D01*
X146976100Y-13228820D01*
X147212320Y-13409160D01*
X147311380Y-13523460D01*
X147448540Y-13762220D01*
X147527280Y-14018760D01*
X147534900Y-14082260D01*
X147524740Y-14364200D01*
X147440920Y-14633440D01*
X147293600Y-14874740D01*
X147087860Y-15070320D01*
X147059920Y-15090640D01*
X146965940Y-15161760D01*
X146902440Y-15210020D01*
X146851640Y-15250660D01*
X147209780Y-16111720D01*
X147265660Y-16248880D01*
X147364720Y-16485100D01*
X147451080Y-16688300D01*
X147519660Y-16848320D01*
X147567920Y-16957540D01*
X147588240Y-17000720D01*
X147590780Y-17003260D01*
X147621260Y-17008340D01*
X147687300Y-16982940D01*
X147806680Y-16924520D01*
X147887960Y-16883880D01*
X147979400Y-16840700D01*
X148020040Y-16825460D01*
X148055600Y-16843240D01*
X148141960Y-16901660D01*
X148271500Y-16985480D01*
X148423900Y-17089620D01*
X148571220Y-17191220D01*
X148705840Y-17280120D01*
X148804900Y-17341080D01*
X148853160Y-17369020D01*
X148860780Y-17369020D01*
X148901420Y-17343620D01*
X148980160Y-17280120D01*
X149097000Y-17168360D01*
X149262100Y-17005800D01*
X149287500Y-16980400D01*
X149424660Y-16840700D01*
X149536420Y-16723860D01*
X149610080Y-16642580D01*
X149635480Y-16604480D01*
X149612620Y-16556220D01*
X149549120Y-16459700D01*
X149460220Y-16322540D01*
X149351000Y-16162520D01*
X149066520Y-15748500D01*
X149224000Y-15357340D01*
X149272260Y-15237960D01*
X149333220Y-15093180D01*
X149376400Y-14989040D01*
X149401800Y-14943320D01*
X149442440Y-14928080D01*
X149551660Y-14902680D01*
X149706600Y-14869660D01*
X149889480Y-14836640D01*
X150067280Y-14803620D01*
X150227300Y-14773140D01*
X150341600Y-14750280D01*
X150392400Y-14740120D01*
X150405100Y-14732500D01*
X150415260Y-14707100D01*
X150422880Y-14653760D01*
X150425420Y-14557240D01*
X150427960Y-14404840D01*
X150427960Y-14183860D01*
X150427960Y-14161000D01*
X150425420Y-13950180D01*
X150422880Y-13782540D01*
X150417800Y-13673320D01*
X150410180Y-13630140D01*
X150359380Y-13617440D01*
X150247620Y-13594580D01*
X150087600Y-13561560D01*
X149897100Y-13526000D01*
X149886940Y-13523460D01*
X149696440Y-13487900D01*
X149538960Y-13454880D01*
X149427200Y-13429480D01*
X149381480Y-13414240D01*
X149371320Y-13401540D01*
X149333220Y-13327880D01*
X149277340Y-13211040D01*
X149216380Y-13066260D01*
X149152880Y-12918940D01*
X149099540Y-12784320D01*
X149063980Y-12685260D01*
X149053820Y-12639540D01*
X149081760Y-12593820D01*
X149147800Y-12494760D01*
X149239240Y-12360140D01*
X149351000Y-12197580D01*
X149358620Y-12184880D01*
X149467840Y-12024860D01*
X149556740Y-11890240D01*
X149615160Y-11793720D01*
X149635480Y-11750540D01*
X149635480Y-11748000D01*
X149599920Y-11699740D01*
X149518640Y-11610840D01*
X149401800Y-11488920D01*
X149262100Y-11346680D01*
X149216380Y-11303500D01*
X149061440Y-11151100D01*
X148954760Y-11052040D01*
X148886180Y-10998700D01*
X148853160Y-10986000D01*
X148853160Y-10988540D01*
X148804900Y-11016480D01*
X148703300Y-11082520D01*
X148566140Y-11176500D01*
X148403580Y-11285720D01*
X148393420Y-11293340D01*
X148233400Y-11402560D01*
X148101320Y-11491460D01*
X148004800Y-11554960D01*
X147964160Y-11580360D01*
X147956540Y-11580360D01*
X147893040Y-11560040D01*
X147778740Y-11521940D01*
X147639040Y-11466060D01*
X147491720Y-11407640D01*
X147357100Y-11351760D01*
X147255500Y-11303500D01*
X147207240Y-11278100D01*
X147207240Y-11275560D01*
X147189460Y-11217140D01*
X147161520Y-11097760D01*
X147128500Y-10932660D01*
X147090400Y-10737080D01*
X147085320Y-10706600D01*
X147049760Y-10516100D01*
X147019280Y-10358620D01*
X146996420Y-10249400D01*
X146983720Y-10203680D01*
X146958320Y-10198600D01*
X146864340Y-10190980D01*
X146722100Y-10188440D01*
X146549380Y-10185900D01*
X146369040Y-10188440D01*
X146193780Y-10190980D01*
X146041380Y-10196060D01*
X145934700Y-10203680D01*
X145888980Y-10213840D01*
X145886440Y-10216380D01*
X145871200Y-10274800D01*
X145845800Y-10394180D01*
X145810240Y-10559280D01*
X145772140Y-10757400D01*
X145767060Y-10790420D01*
X145731500Y-10980920D01*
X145698480Y-11135860D01*
X145675620Y-11245080D01*
X145662920Y-11285720D01*
X145647680Y-11295880D01*
X145568940Y-11328900D01*
X145441940Y-11382240D01*
X145281920Y-11445740D01*
X144916160Y-11595600D01*
X144469120Y-11285720D01*
X144425940Y-11257780D01*
X144265920Y-11148560D01*
X144131300Y-11059660D01*
X144039860Y-11001240D01*
X144001760Y-10978380D01*
X143999220Y-10980920D01*
X143953500Y-11019020D01*
X143864600Y-11102840D01*
X143742680Y-11222220D01*
X143602980Y-11361920D01*
X143498840Y-11466060D01*
X143374380Y-11593060D01*
X143295640Y-11676880D01*
X143252460Y-11732760D01*
X143237220Y-11765780D01*
X143242300Y-11786100D01*
X143270240Y-11831820D01*
X143336280Y-11930880D01*
X143427720Y-12068040D01*
X143536940Y-12225520D01*
X143628380Y-12360140D01*
X143724900Y-12510000D01*
X143788400Y-12616680D01*
X143811260Y-12670020D01*
X143806180Y-12692880D01*
X143773160Y-12779240D01*
X143719820Y-12913860D01*
X143653780Y-13071340D01*
X143496300Y-13426940D01*
X143262620Y-13470120D01*
X143122920Y-13498060D01*
X142924800Y-13536160D01*
X142736840Y-13571720D01*
X142442200Y-13630140D01*
X142432040Y-14712180D01*
X142477760Y-14732500D01*
X142520940Y-14745200D01*
X142630160Y-14768060D01*
X142785100Y-14798540D01*
X142970520Y-14834100D01*
X143125460Y-14864580D01*
X143285480Y-14892520D01*
X143397240Y-14915380D01*
X143448040Y-14925540D01*
X143460740Y-14943320D01*
X143501380Y-15019520D01*
X143557260Y-15141440D01*
X143618220Y-15288760D01*
X143681720Y-15438620D01*
X143737600Y-15578320D01*
X143778240Y-15685000D01*
X143790940Y-15740880D01*
X143770620Y-15784060D01*
X143709660Y-15875500D01*
X143623300Y-16007580D01*
X143516620Y-16165060D01*
X143407400Y-16322540D01*
X143318500Y-16457160D01*
X143255000Y-16553680D01*
X143229600Y-16596860D01*
X143242300Y-16627340D01*
X143303260Y-16703540D01*
X143422640Y-16825460D01*
X143597900Y-17000720D01*
X143628380Y-17028660D01*
X143768080Y-17163280D01*
X143887460Y-17272500D01*
X143968740Y-17346160D01*
X144006840Y-17371560D01*
G37*
X144006840Y-17371560D02*
X144047480Y-17351240D01*
X144141460Y-17292820D01*
X144276080Y-17203920D01*
X144433560Y-17099780D01*
X144591040Y-16990560D01*
X144720580Y-16904200D01*
X144812020Y-16845780D01*
X144850120Y-16825460D01*
X144870440Y-16830540D01*
X144946640Y-16868640D01*
X145055860Y-16924520D01*
X145119360Y-16957540D01*
X145218420Y-17000720D01*
X145269220Y-17010880D01*
X145276840Y-16995640D01*
X145314940Y-16919440D01*
X145370820Y-16787360D01*
X145447020Y-16614640D01*
X145533380Y-16411440D01*
X145627360Y-16193000D01*
X145718800Y-15969480D01*
X145807700Y-15756120D01*
X145886440Y-15565620D01*
X145949940Y-15410680D01*
X145990580Y-15301460D01*
X146005820Y-15255740D01*
X146000740Y-15245580D01*
X145949940Y-15197320D01*
X145863580Y-15131280D01*
X145673080Y-14976340D01*
X145487660Y-14742660D01*
X145373360Y-14478500D01*
X145335260Y-14183860D01*
X145368280Y-13912080D01*
X145474960Y-13650460D01*
X145657840Y-13414240D01*
X145878820Y-13238980D01*
X146137900Y-13127220D01*
X146430000Y-13091660D01*
X146709400Y-13122140D01*
X146976100Y-13228820D01*
X147212320Y-13409160D01*
X147311380Y-13523460D01*
X147448540Y-13762220D01*
X147527280Y-14018760D01*
X147534900Y-14082260D01*
X147524740Y-14364200D01*
X147440920Y-14633440D01*
X147293600Y-14874740D01*
X147087860Y-15070320D01*
X147059920Y-15090640D01*
X146965940Y-15161760D01*
X146902440Y-15210020D01*
X146851640Y-15250660D01*
X147209780Y-16111720D01*
X147265660Y-16248880D01*
X147364720Y-16485100D01*
X147451080Y-16688300D01*
X147519660Y-16848320D01*
X147567920Y-16957540D01*
X147588240Y-17000720D01*
X147590780Y-17003260D01*
X147621260Y-17008340D01*
X147687300Y-16982940D01*
X147806680Y-16924520D01*
X147887960Y-16883880D01*
X147979400Y-16840700D01*
X148020040Y-16825460D01*
X148055600Y-16843240D01*
X148141960Y-16901660D01*
X148271500Y-16985480D01*
X148423900Y-17089620D01*
X148571220Y-17191220D01*
X148705840Y-17280120D01*
X148804900Y-17341080D01*
X148853160Y-17369020D01*
X148860780Y-17369020D01*
X148901420Y-17343620D01*
X148980160Y-17280120D01*
X149097000Y-17168360D01*
X149262100Y-17005800D01*
X149287500Y-16980400D01*
X149424660Y-16840700D01*
X149536420Y-16723860D01*
X149610080Y-16642580D01*
X149635480Y-16604480D01*
X149612620Y-16556220D01*
X149549120Y-16459700D01*
X149460220Y-16322540D01*
X149351000Y-16162520D01*
X149066520Y-15748500D01*
X149224000Y-15357340D01*
X149272260Y-15237960D01*
X149333220Y-15093180D01*
X149376400Y-14989040D01*
X149401800Y-14943320D01*
X149442440Y-14928080D01*
X149551660Y-14902680D01*
X149706600Y-14869660D01*
X149889480Y-14836640D01*
X150067280Y-14803620D01*
X150227300Y-14773140D01*
X150341600Y-14750280D01*
X150392400Y-14740120D01*
X150405100Y-14732500D01*
X150415260Y-14707100D01*
X150422880Y-14653760D01*
X150425420Y-14557240D01*
X150427960Y-14404840D01*
X150427960Y-14183860D01*
X150427960Y-14161000D01*
X150425420Y-13950180D01*
X150422880Y-13782540D01*
X150417800Y-13673320D01*
X150410180Y-13630140D01*
X150359380Y-13617440D01*
X150247620Y-13594580D01*
X150087600Y-13561560D01*
X149897100Y-13526000D01*
X149886940Y-13523460D01*
X149696440Y-13487900D01*
X149538960Y-13454880D01*
X149427200Y-13429480D01*
X149381480Y-13414240D01*
X149371320Y-13401540D01*
X149333220Y-13327880D01*
X149277340Y-13211040D01*
X149216380Y-13066260D01*
X149152880Y-12918940D01*
X149099540Y-12784320D01*
X149063980Y-12685260D01*
X149053820Y-12639540D01*
X149081760Y-12593820D01*
X149147800Y-12494760D01*
X149239240Y-12360140D01*
X149351000Y-12197580D01*
X149358620Y-12184880D01*
X149467840Y-12024860D01*
X149556740Y-11890240D01*
X149615160Y-11793720D01*
X149635480Y-11750540D01*
X149635480Y-11748000D01*
X149599920Y-11699740D01*
X149518640Y-11610840D01*
X149401800Y-11488920D01*
X149262100Y-11346680D01*
X149216380Y-11303500D01*
X149061440Y-11151100D01*
X148954760Y-11052040D01*
X148886180Y-10998700D01*
X148853160Y-10986000D01*
X148853160Y-10988540D01*
X148804900Y-11016480D01*
X148703300Y-11082520D01*
X148566140Y-11176500D01*
X148403580Y-11285720D01*
X148393420Y-11293340D01*
X148233400Y-11402560D01*
X148101320Y-11491460D01*
X148004800Y-11554960D01*
X147964160Y-11580360D01*
X147956540Y-11580360D01*
X147893040Y-11560040D01*
X147778740Y-11521940D01*
X147639040Y-11466060D01*
X147491720Y-11407640D01*
X147357100Y-11351760D01*
X147255500Y-11303500D01*
X147207240Y-11278100D01*
X147207240Y-11275560D01*
X147189460Y-11217140D01*
X147161520Y-11097760D01*
X147128500Y-10932660D01*
X147090400Y-10737080D01*
X147085320Y-10706600D01*
X147049760Y-10516100D01*
X147019280Y-10358620D01*
X146996420Y-10249400D01*
X146983720Y-10203680D01*
X146958320Y-10198600D01*
X146864340Y-10190980D01*
X146722100Y-10188440D01*
X146549380Y-10185900D01*
X146369040Y-10188440D01*
X146193780Y-10190980D01*
X146041380Y-10196060D01*
X145934700Y-10203680D01*
X145888980Y-10213840D01*
X145886440Y-10216380D01*
X145871200Y-10274800D01*
X145845800Y-10394180D01*
X145810240Y-10559280D01*
X145772140Y-10757400D01*
X145767060Y-10790420D01*
X145731500Y-10980920D01*
X145698480Y-11135860D01*
X145675620Y-11245080D01*
X145662920Y-11285720D01*
X145647680Y-11295880D01*
X145568940Y-11328900D01*
X145441940Y-11382240D01*
X145281920Y-11445740D01*
X144916160Y-11595600D01*
X144469120Y-11285720D01*
X144425940Y-11257780D01*
X144265920Y-11148560D01*
X144131300Y-11059660D01*
X144039860Y-11001240D01*
X144001760Y-10978380D01*
X143999220Y-10980920D01*
X143953500Y-11019020D01*
X143864600Y-11102840D01*
X143742680Y-11222220D01*
X143602980Y-11361920D01*
X143498840Y-11466060D01*
X143374380Y-11593060D01*
X143295640Y-11676880D01*
X143252460Y-11732760D01*
X143237220Y-11765780D01*
X143242300Y-11786100D01*
X143270240Y-11831820D01*
X143336280Y-11930880D01*
X143427720Y-12068040D01*
X143536940Y-12225520D01*
X143628380Y-12360140D01*
X143724900Y-12510000D01*
X143788400Y-12616680D01*
X143811260Y-12670020D01*
X143806180Y-12692880D01*
X143773160Y-12779240D01*
X143719820Y-12913860D01*
X143653780Y-13071340D01*
X143496300Y-13426940D01*
X143262620Y-13470120D01*
X143122920Y-13498060D01*
X142924800Y-13536160D01*
X142736840Y-13571720D01*
X142442200Y-13630140D01*
X142432040Y-14712180D01*
X142477760Y-14732500D01*
X142520940Y-14745200D01*
X142630160Y-14768060D01*
X142785100Y-14798540D01*
X142970520Y-14834100D01*
X143125460Y-14864580D01*
X143285480Y-14892520D01*
X143397240Y-14915380D01*
X143448040Y-14925540D01*
X143460740Y-14943320D01*
X143501380Y-15019520D01*
X143557260Y-15141440D01*
X143618220Y-15288760D01*
X143681720Y-15438620D01*
X143737600Y-15578320D01*
X143778240Y-15685000D01*
X143790940Y-15740880D01*
X143770620Y-15784060D01*
X143709660Y-15875500D01*
X143623300Y-16007580D01*
X143516620Y-16165060D01*
X143407400Y-16322540D01*
X143318500Y-16457160D01*
X143255000Y-16553680D01*
X143229600Y-16596860D01*
X143242300Y-16627340D01*
X143303260Y-16703540D01*
X143422640Y-16825460D01*
X143597900Y-17000720D01*
X143628380Y-17028660D01*
X143768080Y-17163280D01*
X143887460Y-17272500D01*
X143968740Y-17346160D01*
X144006840Y-17371560D01*
D11*
X132258249Y-29801751D02*
G75*
G02X131980000Y-29130000I671751J671751D01*
G01*
X132258249Y-48758249D02*
G75*
G03X131980000Y-49430000I671751J-671751D01*
G01*
X134680000Y-52130000D02*
G75*
G02X131980000Y-49430000I0J2700000D01*
G01*
X134680000Y-26430000D02*
G75*
G03X131980000Y-29130000I0J-2700000D01*
G01*
X138830000Y-26430000D02*
X134630000Y-26430000D01*
X138830000Y-52130000D02*
X134630000Y-52130000D01*
X148330000Y-26430000D02*
X145030000Y-26430000D01*
X154180000Y-35330000D02*
X148330000Y-26430000D01*
X154980000Y-35330000D02*
X154180000Y-35330000D01*
X154980000Y-43230000D02*
X154980000Y-35330000D01*
X154980000Y-43230000D02*
X154180000Y-43230000D01*
X154180000Y-43230000D02*
X148330000Y-52130000D01*
X148330000Y-52130000D02*
X145030000Y-52130000D01*
X147770000Y-61340000D02*
X147770000Y-62555000D01*
X147830000Y-57380000D02*
X147830000Y-55120000D01*
X148330000Y-57380000D02*
X148330000Y-55120000D01*
X150930000Y-58980000D02*
X151930000Y-58980000D01*
X150930000Y-57380000D02*
X150930000Y-58980000D01*
X151930000Y-57380000D02*
X150930000Y-57380000D01*
X151930000Y-58980000D02*
X151930000Y-57380000D01*
X148330000Y-58980000D02*
X147330000Y-58980000D01*
X148330000Y-57380000D02*
X148330000Y-58980000D01*
X147330000Y-57380000D02*
X148330000Y-57380000D01*
X147330000Y-58980000D02*
X147330000Y-57380000D01*
X152690000Y-61340000D02*
X151770000Y-61340000D01*
X146570000Y-61340000D02*
X147490000Y-61340000D01*
X150130000Y-59480000D02*
X150130000Y-55120000D01*
X149130000Y-59480000D02*
X150130000Y-59480000D01*
X149130000Y-55120000D02*
X149130000Y-59480000D01*
X151770000Y-61340000D02*
X151490000Y-61340000D01*
X151770000Y-62940000D02*
X151770000Y-61340000D01*
X152690000Y-62940000D02*
X151770000Y-62940000D01*
X152690000Y-55120000D02*
X152690000Y-62940000D01*
X146570000Y-55120000D02*
X152690000Y-55120000D01*
X146570000Y-62940000D02*
X146570000Y-55120000D01*
X147490000Y-62940000D02*
X146570000Y-62940000D01*
X147490000Y-61340000D02*
X147490000Y-62940000D01*
X147770000Y-61340000D02*
X147490000Y-61340000D01*
D12*
G36*
X173976840Y-17391560D02*
G01*
X174017480Y-17371240D01*
X174111460Y-17312820D01*
X174246080Y-17223920D01*
X174403560Y-17119780D01*
X174561040Y-17010560D01*
X174690580Y-16924200D01*
X174782020Y-16865780D01*
X174820120Y-16845460D01*
X174840440Y-16850540D01*
X174916640Y-16888640D01*
X175025860Y-16944520D01*
X175089360Y-16977540D01*
X175188420Y-17020720D01*
X175239220Y-17030880D01*
X175246840Y-17015640D01*
X175284940Y-16939440D01*
X175340820Y-16807360D01*
X175417020Y-16634640D01*
X175503380Y-16431440D01*
X175597360Y-16213000D01*
X175688800Y-15989480D01*
X175777700Y-15776120D01*
X175856440Y-15585620D01*
X175919940Y-15430680D01*
X175960580Y-15321460D01*
X175975820Y-15275740D01*
X175970740Y-15265580D01*
X175919940Y-15217320D01*
X175833580Y-15151280D01*
X175643080Y-14996340D01*
X175457660Y-14762660D01*
X175343360Y-14498500D01*
X175305260Y-14203860D01*
X175338280Y-13932080D01*
X175444960Y-13670460D01*
X175627840Y-13434240D01*
X175848820Y-13258980D01*
X176107900Y-13147220D01*
X176400000Y-13111660D01*
X176679400Y-13142140D01*
X176946100Y-13248820D01*
X177182320Y-13429160D01*
X177281380Y-13543460D01*
X177418540Y-13782220D01*
X177497280Y-14038760D01*
X177504900Y-14102260D01*
X177494740Y-14384200D01*
X177410920Y-14653440D01*
X177263600Y-14894740D01*
X177057860Y-15090320D01*
X177029920Y-15110640D01*
X176935940Y-15181760D01*
X176872440Y-15230020D01*
X176821640Y-15270660D01*
X177179780Y-16131720D01*
X177235660Y-16268880D01*
X177334720Y-16505100D01*
X177421080Y-16708300D01*
X177489660Y-16868320D01*
X177537920Y-16977540D01*
X177558240Y-17020720D01*
X177560780Y-17023260D01*
X177591260Y-17028340D01*
X177657300Y-17002940D01*
X177776680Y-16944520D01*
X177857960Y-16903880D01*
X177949400Y-16860700D01*
X177990040Y-16845460D01*
X178025600Y-16863240D01*
X178111960Y-16921660D01*
X178241500Y-17005480D01*
X178393900Y-17109620D01*
X178541220Y-17211220D01*
X178675840Y-17300120D01*
X178774900Y-17361080D01*
X178823160Y-17389020D01*
X178830780Y-17389020D01*
X178871420Y-17363620D01*
X178950160Y-17300120D01*
X179067000Y-17188360D01*
X179232100Y-17025800D01*
X179257500Y-17000400D01*
X179394660Y-16860700D01*
X179506420Y-16743860D01*
X179580080Y-16662580D01*
X179605480Y-16624480D01*
X179582620Y-16576220D01*
X179519120Y-16479700D01*
X179430220Y-16342540D01*
X179321000Y-16182520D01*
X179036520Y-15768500D01*
X179194000Y-15377340D01*
X179242260Y-15257960D01*
X179303220Y-15113180D01*
X179346400Y-15009040D01*
X179371800Y-14963320D01*
X179412440Y-14948080D01*
X179521660Y-14922680D01*
X179676600Y-14889660D01*
X179859480Y-14856640D01*
X180037280Y-14823620D01*
X180197300Y-14793140D01*
X180311600Y-14770280D01*
X180362400Y-14760120D01*
X180375100Y-14752500D01*
X180385260Y-14727100D01*
X180392880Y-14673760D01*
X180395420Y-14577240D01*
X180397960Y-14424840D01*
X180397960Y-14203860D01*
X180397960Y-14181000D01*
X180395420Y-13970180D01*
X180392880Y-13802540D01*
X180387800Y-13693320D01*
X180380180Y-13650140D01*
X180329380Y-13637440D01*
X180217620Y-13614580D01*
X180057600Y-13581560D01*
X179867100Y-13546000D01*
X179856940Y-13543460D01*
X179666440Y-13507900D01*
X179508960Y-13474880D01*
X179397200Y-13449480D01*
X179351480Y-13434240D01*
X179341320Y-13421540D01*
X179303220Y-13347880D01*
X179247340Y-13231040D01*
X179186380Y-13086260D01*
X179122880Y-12938940D01*
X179069540Y-12804320D01*
X179033980Y-12705260D01*
X179023820Y-12659540D01*
X179051760Y-12613820D01*
X179117800Y-12514760D01*
X179209240Y-12380140D01*
X179321000Y-12217580D01*
X179328620Y-12204880D01*
X179437840Y-12044860D01*
X179526740Y-11910240D01*
X179585160Y-11813720D01*
X179605480Y-11770540D01*
X179605480Y-11768000D01*
X179569920Y-11719740D01*
X179488640Y-11630840D01*
X179371800Y-11508920D01*
X179232100Y-11366680D01*
X179186380Y-11323500D01*
X179031440Y-11171100D01*
X178924760Y-11072040D01*
X178856180Y-11018700D01*
X178823160Y-11006000D01*
X178823160Y-11008540D01*
X178774900Y-11036480D01*
X178673300Y-11102520D01*
X178536140Y-11196500D01*
X178373580Y-11305720D01*
X178363420Y-11313340D01*
X178203400Y-11422560D01*
X178071320Y-11511460D01*
X177974800Y-11574960D01*
X177934160Y-11600360D01*
X177926540Y-11600360D01*
X177863040Y-11580040D01*
X177748740Y-11541940D01*
X177609040Y-11486060D01*
X177461720Y-11427640D01*
X177327100Y-11371760D01*
X177225500Y-11323500D01*
X177177240Y-11298100D01*
X177177240Y-11295560D01*
X177159460Y-11237140D01*
X177131520Y-11117760D01*
X177098500Y-10952660D01*
X177060400Y-10757080D01*
X177055320Y-10726600D01*
X177019760Y-10536100D01*
X176989280Y-10378620D01*
X176966420Y-10269400D01*
X176953720Y-10223680D01*
X176928320Y-10218600D01*
X176834340Y-10210980D01*
X176692100Y-10208440D01*
X176519380Y-10205900D01*
X176339040Y-10208440D01*
X176163780Y-10210980D01*
X176011380Y-10216060D01*
X175904700Y-10223680D01*
X175858980Y-10233840D01*
X175856440Y-10236380D01*
X175841200Y-10294800D01*
X175815800Y-10414180D01*
X175780240Y-10579280D01*
X175742140Y-10777400D01*
X175737060Y-10810420D01*
X175701500Y-11000920D01*
X175668480Y-11155860D01*
X175645620Y-11265080D01*
X175632920Y-11305720D01*
X175617680Y-11315880D01*
X175538940Y-11348900D01*
X175411940Y-11402240D01*
X175251920Y-11465740D01*
X174886160Y-11615600D01*
X174439120Y-11305720D01*
X174395940Y-11277780D01*
X174235920Y-11168560D01*
X174101300Y-11079660D01*
X174009860Y-11021240D01*
X173971760Y-10998380D01*
X173969220Y-11000920D01*
X173923500Y-11039020D01*
X173834600Y-11122840D01*
X173712680Y-11242220D01*
X173572980Y-11381920D01*
X173468840Y-11486060D01*
X173344380Y-11613060D01*
X173265640Y-11696880D01*
X173222460Y-11752760D01*
X173207220Y-11785780D01*
X173212300Y-11806100D01*
X173240240Y-11851820D01*
X173306280Y-11950880D01*
X173397720Y-12088040D01*
X173506940Y-12245520D01*
X173598380Y-12380140D01*
X173694900Y-12530000D01*
X173758400Y-12636680D01*
X173781260Y-12690020D01*
X173776180Y-12712880D01*
X173743160Y-12799240D01*
X173689820Y-12933860D01*
X173623780Y-13091340D01*
X173466300Y-13446940D01*
X173232620Y-13490120D01*
X173092920Y-13518060D01*
X172894800Y-13556160D01*
X172706840Y-13591720D01*
X172412200Y-13650140D01*
X172402040Y-14732180D01*
X172447760Y-14752500D01*
X172490940Y-14765200D01*
X172600160Y-14788060D01*
X172755100Y-14818540D01*
X172940520Y-14854100D01*
X173095460Y-14884580D01*
X173255480Y-14912520D01*
X173367240Y-14935380D01*
X173418040Y-14945540D01*
X173430740Y-14963320D01*
X173471380Y-15039520D01*
X173527260Y-15161440D01*
X173588220Y-15308760D01*
X173651720Y-15458620D01*
X173707600Y-15598320D01*
X173748240Y-15705000D01*
X173760940Y-15760880D01*
X173740620Y-15804060D01*
X173679660Y-15895500D01*
X173593300Y-16027580D01*
X173486620Y-16185060D01*
X173377400Y-16342540D01*
X173288500Y-16477160D01*
X173225000Y-16573680D01*
X173199600Y-16616860D01*
X173212300Y-16647340D01*
X173273260Y-16723540D01*
X173392640Y-16845460D01*
X173567900Y-17020720D01*
X173598380Y-17048660D01*
X173738080Y-17183280D01*
X173857460Y-17292500D01*
X173938740Y-17366160D01*
X173976840Y-17391560D01*
G37*
X173976840Y-17391560D02*
X174017480Y-17371240D01*
X174111460Y-17312820D01*
X174246080Y-17223920D01*
X174403560Y-17119780D01*
X174561040Y-17010560D01*
X174690580Y-16924200D01*
X174782020Y-16865780D01*
X174820120Y-16845460D01*
X174840440Y-16850540D01*
X174916640Y-16888640D01*
X175025860Y-16944520D01*
X175089360Y-16977540D01*
X175188420Y-17020720D01*
X175239220Y-17030880D01*
X175246840Y-17015640D01*
X175284940Y-16939440D01*
X175340820Y-16807360D01*
X175417020Y-16634640D01*
X175503380Y-16431440D01*
X175597360Y-16213000D01*
X175688800Y-15989480D01*
X175777700Y-15776120D01*
X175856440Y-15585620D01*
X175919940Y-15430680D01*
X175960580Y-15321460D01*
X175975820Y-15275740D01*
X175970740Y-15265580D01*
X175919940Y-15217320D01*
X175833580Y-15151280D01*
X175643080Y-14996340D01*
X175457660Y-14762660D01*
X175343360Y-14498500D01*
X175305260Y-14203860D01*
X175338280Y-13932080D01*
X175444960Y-13670460D01*
X175627840Y-13434240D01*
X175848820Y-13258980D01*
X176107900Y-13147220D01*
X176400000Y-13111660D01*
X176679400Y-13142140D01*
X176946100Y-13248820D01*
X177182320Y-13429160D01*
X177281380Y-13543460D01*
X177418540Y-13782220D01*
X177497280Y-14038760D01*
X177504900Y-14102260D01*
X177494740Y-14384200D01*
X177410920Y-14653440D01*
X177263600Y-14894740D01*
X177057860Y-15090320D01*
X177029920Y-15110640D01*
X176935940Y-15181760D01*
X176872440Y-15230020D01*
X176821640Y-15270660D01*
X177179780Y-16131720D01*
X177235660Y-16268880D01*
X177334720Y-16505100D01*
X177421080Y-16708300D01*
X177489660Y-16868320D01*
X177537920Y-16977540D01*
X177558240Y-17020720D01*
X177560780Y-17023260D01*
X177591260Y-17028340D01*
X177657300Y-17002940D01*
X177776680Y-16944520D01*
X177857960Y-16903880D01*
X177949400Y-16860700D01*
X177990040Y-16845460D01*
X178025600Y-16863240D01*
X178111960Y-16921660D01*
X178241500Y-17005480D01*
X178393900Y-17109620D01*
X178541220Y-17211220D01*
X178675840Y-17300120D01*
X178774900Y-17361080D01*
X178823160Y-17389020D01*
X178830780Y-17389020D01*
X178871420Y-17363620D01*
X178950160Y-17300120D01*
X179067000Y-17188360D01*
X179232100Y-17025800D01*
X179257500Y-17000400D01*
X179394660Y-16860700D01*
X179506420Y-16743860D01*
X179580080Y-16662580D01*
X179605480Y-16624480D01*
X179582620Y-16576220D01*
X179519120Y-16479700D01*
X179430220Y-16342540D01*
X179321000Y-16182520D01*
X179036520Y-15768500D01*
X179194000Y-15377340D01*
X179242260Y-15257960D01*
X179303220Y-15113180D01*
X179346400Y-15009040D01*
X179371800Y-14963320D01*
X179412440Y-14948080D01*
X179521660Y-14922680D01*
X179676600Y-14889660D01*
X179859480Y-14856640D01*
X180037280Y-14823620D01*
X180197300Y-14793140D01*
X180311600Y-14770280D01*
X180362400Y-14760120D01*
X180375100Y-14752500D01*
X180385260Y-14727100D01*
X180392880Y-14673760D01*
X180395420Y-14577240D01*
X180397960Y-14424840D01*
X180397960Y-14203860D01*
X180397960Y-14181000D01*
X180395420Y-13970180D01*
X180392880Y-13802540D01*
X180387800Y-13693320D01*
X180380180Y-13650140D01*
X180329380Y-13637440D01*
X180217620Y-13614580D01*
X180057600Y-13581560D01*
X179867100Y-13546000D01*
X179856940Y-13543460D01*
X179666440Y-13507900D01*
X179508960Y-13474880D01*
X179397200Y-13449480D01*
X179351480Y-13434240D01*
X179341320Y-13421540D01*
X179303220Y-13347880D01*
X179247340Y-13231040D01*
X179186380Y-13086260D01*
X179122880Y-12938940D01*
X179069540Y-12804320D01*
X179033980Y-12705260D01*
X179023820Y-12659540D01*
X179051760Y-12613820D01*
X179117800Y-12514760D01*
X179209240Y-12380140D01*
X179321000Y-12217580D01*
X179328620Y-12204880D01*
X179437840Y-12044860D01*
X179526740Y-11910240D01*
X179585160Y-11813720D01*
X179605480Y-11770540D01*
X179605480Y-11768000D01*
X179569920Y-11719740D01*
X179488640Y-11630840D01*
X179371800Y-11508920D01*
X179232100Y-11366680D01*
X179186380Y-11323500D01*
X179031440Y-11171100D01*
X178924760Y-11072040D01*
X178856180Y-11018700D01*
X178823160Y-11006000D01*
X178823160Y-11008540D01*
X178774900Y-11036480D01*
X178673300Y-11102520D01*
X178536140Y-11196500D01*
X178373580Y-11305720D01*
X178363420Y-11313340D01*
X178203400Y-11422560D01*
X178071320Y-11511460D01*
X177974800Y-11574960D01*
X177934160Y-11600360D01*
X177926540Y-11600360D01*
X177863040Y-11580040D01*
X177748740Y-11541940D01*
X177609040Y-11486060D01*
X177461720Y-11427640D01*
X177327100Y-11371760D01*
X177225500Y-11323500D01*
X177177240Y-11298100D01*
X177177240Y-11295560D01*
X177159460Y-11237140D01*
X177131520Y-11117760D01*
X177098500Y-10952660D01*
X177060400Y-10757080D01*
X177055320Y-10726600D01*
X177019760Y-10536100D01*
X176989280Y-10378620D01*
X176966420Y-10269400D01*
X176953720Y-10223680D01*
X176928320Y-10218600D01*
X176834340Y-10210980D01*
X176692100Y-10208440D01*
X176519380Y-10205900D01*
X176339040Y-10208440D01*
X176163780Y-10210980D01*
X176011380Y-10216060D01*
X175904700Y-10223680D01*
X175858980Y-10233840D01*
X175856440Y-10236380D01*
X175841200Y-10294800D01*
X175815800Y-10414180D01*
X175780240Y-10579280D01*
X175742140Y-10777400D01*
X175737060Y-10810420D01*
X175701500Y-11000920D01*
X175668480Y-11155860D01*
X175645620Y-11265080D01*
X175632920Y-11305720D01*
X175617680Y-11315880D01*
X175538940Y-11348900D01*
X175411940Y-11402240D01*
X175251920Y-11465740D01*
X174886160Y-11615600D01*
X174439120Y-11305720D01*
X174395940Y-11277780D01*
X174235920Y-11168560D01*
X174101300Y-11079660D01*
X174009860Y-11021240D01*
X173971760Y-10998380D01*
X173969220Y-11000920D01*
X173923500Y-11039020D01*
X173834600Y-11122840D01*
X173712680Y-11242220D01*
X173572980Y-11381920D01*
X173468840Y-11486060D01*
X173344380Y-11613060D01*
X173265640Y-11696880D01*
X173222460Y-11752760D01*
X173207220Y-11785780D01*
X173212300Y-11806100D01*
X173240240Y-11851820D01*
X173306280Y-11950880D01*
X173397720Y-12088040D01*
X173506940Y-12245520D01*
X173598380Y-12380140D01*
X173694900Y-12530000D01*
X173758400Y-12636680D01*
X173781260Y-12690020D01*
X173776180Y-12712880D01*
X173743160Y-12799240D01*
X173689820Y-12933860D01*
X173623780Y-13091340D01*
X173466300Y-13446940D01*
X173232620Y-13490120D01*
X173092920Y-13518060D01*
X172894800Y-13556160D01*
X172706840Y-13591720D01*
X172412200Y-13650140D01*
X172402040Y-14732180D01*
X172447760Y-14752500D01*
X172490940Y-14765200D01*
X172600160Y-14788060D01*
X172755100Y-14818540D01*
X172940520Y-14854100D01*
X173095460Y-14884580D01*
X173255480Y-14912520D01*
X173367240Y-14935380D01*
X173418040Y-14945540D01*
X173430740Y-14963320D01*
X173471380Y-15039520D01*
X173527260Y-15161440D01*
X173588220Y-15308760D01*
X173651720Y-15458620D01*
X173707600Y-15598320D01*
X173748240Y-15705000D01*
X173760940Y-15760880D01*
X173740620Y-15804060D01*
X173679660Y-15895500D01*
X173593300Y-16027580D01*
X173486620Y-16185060D01*
X173377400Y-16342540D01*
X173288500Y-16477160D01*
X173225000Y-16573680D01*
X173199600Y-16616860D01*
X173212300Y-16647340D01*
X173273260Y-16723540D01*
X173392640Y-16845460D01*
X173567900Y-17020720D01*
X173598380Y-17048660D01*
X173738080Y-17183280D01*
X173857460Y-17292500D01*
X173938740Y-17366160D01*
X173976840Y-17391560D01*
D11*
X162228249Y-29821751D02*
G75*
G02X161950000Y-29150000I671751J671751D01*
G01*
X162228249Y-48778249D02*
G75*
G03X161950000Y-49450000I671751J-671751D01*
G01*
X164650000Y-52150000D02*
G75*
G02X161950000Y-49450000I0J2700000D01*
G01*
X164650000Y-26450000D02*
G75*
G03X161950000Y-29150000I0J-2700000D01*
G01*
X168800000Y-26450000D02*
X164600000Y-26450000D01*
X168800000Y-52150000D02*
X164600000Y-52150000D01*
X178300000Y-26450000D02*
X175000000Y-26450000D01*
X184150000Y-35350000D02*
X178300000Y-26450000D01*
X184950000Y-35350000D02*
X184150000Y-35350000D01*
X184950000Y-43250000D02*
X184950000Y-35350000D01*
X184950000Y-43250000D02*
X184150000Y-43250000D01*
X184150000Y-43250000D02*
X178300000Y-52150000D01*
X178300000Y-52150000D02*
X175000000Y-52150000D01*
X177740000Y-61360000D02*
X177740000Y-62575000D01*
X177800000Y-57400000D02*
X177800000Y-55140000D01*
X178300000Y-57400000D02*
X178300000Y-55140000D01*
X180900000Y-59000000D02*
X181900000Y-59000000D01*
X180900000Y-57400000D02*
X180900000Y-59000000D01*
X181900000Y-57400000D02*
X180900000Y-57400000D01*
X181900000Y-59000000D02*
X181900000Y-57400000D01*
X178300000Y-59000000D02*
X177300000Y-59000000D01*
X178300000Y-57400000D02*
X178300000Y-59000000D01*
X177300000Y-57400000D02*
X178300000Y-57400000D01*
X177300000Y-59000000D02*
X177300000Y-57400000D01*
X182660000Y-61360000D02*
X181740000Y-61360000D01*
X176540000Y-61360000D02*
X177460000Y-61360000D01*
X180100000Y-59500000D02*
X180100000Y-55140000D01*
X179100000Y-59500000D02*
X180100000Y-59500000D01*
X179100000Y-55140000D02*
X179100000Y-59500000D01*
X181740000Y-61360000D02*
X181460000Y-61360000D01*
X181740000Y-62960000D02*
X181740000Y-61360000D01*
X182660000Y-62960000D02*
X181740000Y-62960000D01*
X182660000Y-55140000D02*
X182660000Y-62960000D01*
X176540000Y-55140000D02*
X182660000Y-55140000D01*
X176540000Y-62960000D02*
X176540000Y-55140000D01*
X177460000Y-62960000D02*
X176540000Y-62960000D01*
X177460000Y-61360000D02*
X177460000Y-62960000D01*
X177740000Y-61360000D02*
X177460000Y-61360000D01*
D12*
G36*
X204026840Y-17391560D02*
G01*
X204067480Y-17371240D01*
X204161460Y-17312820D01*
X204296080Y-17223920D01*
X204453560Y-17119780D01*
X204611040Y-17010560D01*
X204740580Y-16924200D01*
X204832020Y-16865780D01*
X204870120Y-16845460D01*
X204890440Y-16850540D01*
X204966640Y-16888640D01*
X205075860Y-16944520D01*
X205139360Y-16977540D01*
X205238420Y-17020720D01*
X205289220Y-17030880D01*
X205296840Y-17015640D01*
X205334940Y-16939440D01*
X205390820Y-16807360D01*
X205467020Y-16634640D01*
X205553380Y-16431440D01*
X205647360Y-16213000D01*
X205738800Y-15989480D01*
X205827700Y-15776120D01*
X205906440Y-15585620D01*
X205969940Y-15430680D01*
X206010580Y-15321460D01*
X206025820Y-15275740D01*
X206020740Y-15265580D01*
X205969940Y-15217320D01*
X205883580Y-15151280D01*
X205693080Y-14996340D01*
X205507660Y-14762660D01*
X205393360Y-14498500D01*
X205355260Y-14203860D01*
X205388280Y-13932080D01*
X205494960Y-13670460D01*
X205677840Y-13434240D01*
X205898820Y-13258980D01*
X206157900Y-13147220D01*
X206450000Y-13111660D01*
X206729400Y-13142140D01*
X206996100Y-13248820D01*
X207232320Y-13429160D01*
X207331380Y-13543460D01*
X207468540Y-13782220D01*
X207547280Y-14038760D01*
X207554900Y-14102260D01*
X207544740Y-14384200D01*
X207460920Y-14653440D01*
X207313600Y-14894740D01*
X207107860Y-15090320D01*
X207079920Y-15110640D01*
X206985940Y-15181760D01*
X206922440Y-15230020D01*
X206871640Y-15270660D01*
X207229780Y-16131720D01*
X207285660Y-16268880D01*
X207384720Y-16505100D01*
X207471080Y-16708300D01*
X207539660Y-16868320D01*
X207587920Y-16977540D01*
X207608240Y-17020720D01*
X207610780Y-17023260D01*
X207641260Y-17028340D01*
X207707300Y-17002940D01*
X207826680Y-16944520D01*
X207907960Y-16903880D01*
X207999400Y-16860700D01*
X208040040Y-16845460D01*
X208075600Y-16863240D01*
X208161960Y-16921660D01*
X208291500Y-17005480D01*
X208443900Y-17109620D01*
X208591220Y-17211220D01*
X208725840Y-17300120D01*
X208824900Y-17361080D01*
X208873160Y-17389020D01*
X208880780Y-17389020D01*
X208921420Y-17363620D01*
X209000160Y-17300120D01*
X209117000Y-17188360D01*
X209282100Y-17025800D01*
X209307500Y-17000400D01*
X209444660Y-16860700D01*
X209556420Y-16743860D01*
X209630080Y-16662580D01*
X209655480Y-16624480D01*
X209632620Y-16576220D01*
X209569120Y-16479700D01*
X209480220Y-16342540D01*
X209371000Y-16182520D01*
X209086520Y-15768500D01*
X209244000Y-15377340D01*
X209292260Y-15257960D01*
X209353220Y-15113180D01*
X209396400Y-15009040D01*
X209421800Y-14963320D01*
X209462440Y-14948080D01*
X209571660Y-14922680D01*
X209726600Y-14889660D01*
X209909480Y-14856640D01*
X210087280Y-14823620D01*
X210247300Y-14793140D01*
X210361600Y-14770280D01*
X210412400Y-14760120D01*
X210425100Y-14752500D01*
X210435260Y-14727100D01*
X210442880Y-14673760D01*
X210445420Y-14577240D01*
X210447960Y-14424840D01*
X210447960Y-14203860D01*
X210447960Y-14181000D01*
X210445420Y-13970180D01*
X210442880Y-13802540D01*
X210437800Y-13693320D01*
X210430180Y-13650140D01*
X210379380Y-13637440D01*
X210267620Y-13614580D01*
X210107600Y-13581560D01*
X209917100Y-13546000D01*
X209906940Y-13543460D01*
X209716440Y-13507900D01*
X209558960Y-13474880D01*
X209447200Y-13449480D01*
X209401480Y-13434240D01*
X209391320Y-13421540D01*
X209353220Y-13347880D01*
X209297340Y-13231040D01*
X209236380Y-13086260D01*
X209172880Y-12938940D01*
X209119540Y-12804320D01*
X209083980Y-12705260D01*
X209073820Y-12659540D01*
X209101760Y-12613820D01*
X209167800Y-12514760D01*
X209259240Y-12380140D01*
X209371000Y-12217580D01*
X209378620Y-12204880D01*
X209487840Y-12044860D01*
X209576740Y-11910240D01*
X209635160Y-11813720D01*
X209655480Y-11770540D01*
X209655480Y-11768000D01*
X209619920Y-11719740D01*
X209538640Y-11630840D01*
X209421800Y-11508920D01*
X209282100Y-11366680D01*
X209236380Y-11323500D01*
X209081440Y-11171100D01*
X208974760Y-11072040D01*
X208906180Y-11018700D01*
X208873160Y-11006000D01*
X208873160Y-11008540D01*
X208824900Y-11036480D01*
X208723300Y-11102520D01*
X208586140Y-11196500D01*
X208423580Y-11305720D01*
X208413420Y-11313340D01*
X208253400Y-11422560D01*
X208121320Y-11511460D01*
X208024800Y-11574960D01*
X207984160Y-11600360D01*
X207976540Y-11600360D01*
X207913040Y-11580040D01*
X207798740Y-11541940D01*
X207659040Y-11486060D01*
X207511720Y-11427640D01*
X207377100Y-11371760D01*
X207275500Y-11323500D01*
X207227240Y-11298100D01*
X207227240Y-11295560D01*
X207209460Y-11237140D01*
X207181520Y-11117760D01*
X207148500Y-10952660D01*
X207110400Y-10757080D01*
X207105320Y-10726600D01*
X207069760Y-10536100D01*
X207039280Y-10378620D01*
X207016420Y-10269400D01*
X207003720Y-10223680D01*
X206978320Y-10218600D01*
X206884340Y-10210980D01*
X206742100Y-10208440D01*
X206569380Y-10205900D01*
X206389040Y-10208440D01*
X206213780Y-10210980D01*
X206061380Y-10216060D01*
X205954700Y-10223680D01*
X205908980Y-10233840D01*
X205906440Y-10236380D01*
X205891200Y-10294800D01*
X205865800Y-10414180D01*
X205830240Y-10579280D01*
X205792140Y-10777400D01*
X205787060Y-10810420D01*
X205751500Y-11000920D01*
X205718480Y-11155860D01*
X205695620Y-11265080D01*
X205682920Y-11305720D01*
X205667680Y-11315880D01*
X205588940Y-11348900D01*
X205461940Y-11402240D01*
X205301920Y-11465740D01*
X204936160Y-11615600D01*
X204489120Y-11305720D01*
X204445940Y-11277780D01*
X204285920Y-11168560D01*
X204151300Y-11079660D01*
X204059860Y-11021240D01*
X204021760Y-10998380D01*
X204019220Y-11000920D01*
X203973500Y-11039020D01*
X203884600Y-11122840D01*
X203762680Y-11242220D01*
X203622980Y-11381920D01*
X203518840Y-11486060D01*
X203394380Y-11613060D01*
X203315640Y-11696880D01*
X203272460Y-11752760D01*
X203257220Y-11785780D01*
X203262300Y-11806100D01*
X203290240Y-11851820D01*
X203356280Y-11950880D01*
X203447720Y-12088040D01*
X203556940Y-12245520D01*
X203648380Y-12380140D01*
X203744900Y-12530000D01*
X203808400Y-12636680D01*
X203831260Y-12690020D01*
X203826180Y-12712880D01*
X203793160Y-12799240D01*
X203739820Y-12933860D01*
X203673780Y-13091340D01*
X203516300Y-13446940D01*
X203282620Y-13490120D01*
X203142920Y-13518060D01*
X202944800Y-13556160D01*
X202756840Y-13591720D01*
X202462200Y-13650140D01*
X202452040Y-14732180D01*
X202497760Y-14752500D01*
X202540940Y-14765200D01*
X202650160Y-14788060D01*
X202805100Y-14818540D01*
X202990520Y-14854100D01*
X203145460Y-14884580D01*
X203305480Y-14912520D01*
X203417240Y-14935380D01*
X203468040Y-14945540D01*
X203480740Y-14963320D01*
X203521380Y-15039520D01*
X203577260Y-15161440D01*
X203638220Y-15308760D01*
X203701720Y-15458620D01*
X203757600Y-15598320D01*
X203798240Y-15705000D01*
X203810940Y-15760880D01*
X203790620Y-15804060D01*
X203729660Y-15895500D01*
X203643300Y-16027580D01*
X203536620Y-16185060D01*
X203427400Y-16342540D01*
X203338500Y-16477160D01*
X203275000Y-16573680D01*
X203249600Y-16616860D01*
X203262300Y-16647340D01*
X203323260Y-16723540D01*
X203442640Y-16845460D01*
X203617900Y-17020720D01*
X203648380Y-17048660D01*
X203788080Y-17183280D01*
X203907460Y-17292500D01*
X203988740Y-17366160D01*
X204026840Y-17391560D01*
G37*
X204026840Y-17391560D02*
X204067480Y-17371240D01*
X204161460Y-17312820D01*
X204296080Y-17223920D01*
X204453560Y-17119780D01*
X204611040Y-17010560D01*
X204740580Y-16924200D01*
X204832020Y-16865780D01*
X204870120Y-16845460D01*
X204890440Y-16850540D01*
X204966640Y-16888640D01*
X205075860Y-16944520D01*
X205139360Y-16977540D01*
X205238420Y-17020720D01*
X205289220Y-17030880D01*
X205296840Y-17015640D01*
X205334940Y-16939440D01*
X205390820Y-16807360D01*
X205467020Y-16634640D01*
X205553380Y-16431440D01*
X205647360Y-16213000D01*
X205738800Y-15989480D01*
X205827700Y-15776120D01*
X205906440Y-15585620D01*
X205969940Y-15430680D01*
X206010580Y-15321460D01*
X206025820Y-15275740D01*
X206020740Y-15265580D01*
X205969940Y-15217320D01*
X205883580Y-15151280D01*
X205693080Y-14996340D01*
X205507660Y-14762660D01*
X205393360Y-14498500D01*
X205355260Y-14203860D01*
X205388280Y-13932080D01*
X205494960Y-13670460D01*
X205677840Y-13434240D01*
X205898820Y-13258980D01*
X206157900Y-13147220D01*
X206450000Y-13111660D01*
X206729400Y-13142140D01*
X206996100Y-13248820D01*
X207232320Y-13429160D01*
X207331380Y-13543460D01*
X207468540Y-13782220D01*
X207547280Y-14038760D01*
X207554900Y-14102260D01*
X207544740Y-14384200D01*
X207460920Y-14653440D01*
X207313600Y-14894740D01*
X207107860Y-15090320D01*
X207079920Y-15110640D01*
X206985940Y-15181760D01*
X206922440Y-15230020D01*
X206871640Y-15270660D01*
X207229780Y-16131720D01*
X207285660Y-16268880D01*
X207384720Y-16505100D01*
X207471080Y-16708300D01*
X207539660Y-16868320D01*
X207587920Y-16977540D01*
X207608240Y-17020720D01*
X207610780Y-17023260D01*
X207641260Y-17028340D01*
X207707300Y-17002940D01*
X207826680Y-16944520D01*
X207907960Y-16903880D01*
X207999400Y-16860700D01*
X208040040Y-16845460D01*
X208075600Y-16863240D01*
X208161960Y-16921660D01*
X208291500Y-17005480D01*
X208443900Y-17109620D01*
X208591220Y-17211220D01*
X208725840Y-17300120D01*
X208824900Y-17361080D01*
X208873160Y-17389020D01*
X208880780Y-17389020D01*
X208921420Y-17363620D01*
X209000160Y-17300120D01*
X209117000Y-17188360D01*
X209282100Y-17025800D01*
X209307500Y-17000400D01*
X209444660Y-16860700D01*
X209556420Y-16743860D01*
X209630080Y-16662580D01*
X209655480Y-16624480D01*
X209632620Y-16576220D01*
X209569120Y-16479700D01*
X209480220Y-16342540D01*
X209371000Y-16182520D01*
X209086520Y-15768500D01*
X209244000Y-15377340D01*
X209292260Y-15257960D01*
X209353220Y-15113180D01*
X209396400Y-15009040D01*
X209421800Y-14963320D01*
X209462440Y-14948080D01*
X209571660Y-14922680D01*
X209726600Y-14889660D01*
X209909480Y-14856640D01*
X210087280Y-14823620D01*
X210247300Y-14793140D01*
X210361600Y-14770280D01*
X210412400Y-14760120D01*
X210425100Y-14752500D01*
X210435260Y-14727100D01*
X210442880Y-14673760D01*
X210445420Y-14577240D01*
X210447960Y-14424840D01*
X210447960Y-14203860D01*
X210447960Y-14181000D01*
X210445420Y-13970180D01*
X210442880Y-13802540D01*
X210437800Y-13693320D01*
X210430180Y-13650140D01*
X210379380Y-13637440D01*
X210267620Y-13614580D01*
X210107600Y-13581560D01*
X209917100Y-13546000D01*
X209906940Y-13543460D01*
X209716440Y-13507900D01*
X209558960Y-13474880D01*
X209447200Y-13449480D01*
X209401480Y-13434240D01*
X209391320Y-13421540D01*
X209353220Y-13347880D01*
X209297340Y-13231040D01*
X209236380Y-13086260D01*
X209172880Y-12938940D01*
X209119540Y-12804320D01*
X209083980Y-12705260D01*
X209073820Y-12659540D01*
X209101760Y-12613820D01*
X209167800Y-12514760D01*
X209259240Y-12380140D01*
X209371000Y-12217580D01*
X209378620Y-12204880D01*
X209487840Y-12044860D01*
X209576740Y-11910240D01*
X209635160Y-11813720D01*
X209655480Y-11770540D01*
X209655480Y-11768000D01*
X209619920Y-11719740D01*
X209538640Y-11630840D01*
X209421800Y-11508920D01*
X209282100Y-11366680D01*
X209236380Y-11323500D01*
X209081440Y-11171100D01*
X208974760Y-11072040D01*
X208906180Y-11018700D01*
X208873160Y-11006000D01*
X208873160Y-11008540D01*
X208824900Y-11036480D01*
X208723300Y-11102520D01*
X208586140Y-11196500D01*
X208423580Y-11305720D01*
X208413420Y-11313340D01*
X208253400Y-11422560D01*
X208121320Y-11511460D01*
X208024800Y-11574960D01*
X207984160Y-11600360D01*
X207976540Y-11600360D01*
X207913040Y-11580040D01*
X207798740Y-11541940D01*
X207659040Y-11486060D01*
X207511720Y-11427640D01*
X207377100Y-11371760D01*
X207275500Y-11323500D01*
X207227240Y-11298100D01*
X207227240Y-11295560D01*
X207209460Y-11237140D01*
X207181520Y-11117760D01*
X207148500Y-10952660D01*
X207110400Y-10757080D01*
X207105320Y-10726600D01*
X207069760Y-10536100D01*
X207039280Y-10378620D01*
X207016420Y-10269400D01*
X207003720Y-10223680D01*
X206978320Y-10218600D01*
X206884340Y-10210980D01*
X206742100Y-10208440D01*
X206569380Y-10205900D01*
X206389040Y-10208440D01*
X206213780Y-10210980D01*
X206061380Y-10216060D01*
X205954700Y-10223680D01*
X205908980Y-10233840D01*
X205906440Y-10236380D01*
X205891200Y-10294800D01*
X205865800Y-10414180D01*
X205830240Y-10579280D01*
X205792140Y-10777400D01*
X205787060Y-10810420D01*
X205751500Y-11000920D01*
X205718480Y-11155860D01*
X205695620Y-11265080D01*
X205682920Y-11305720D01*
X205667680Y-11315880D01*
X205588940Y-11348900D01*
X205461940Y-11402240D01*
X205301920Y-11465740D01*
X204936160Y-11615600D01*
X204489120Y-11305720D01*
X204445940Y-11277780D01*
X204285920Y-11168560D01*
X204151300Y-11079660D01*
X204059860Y-11021240D01*
X204021760Y-10998380D01*
X204019220Y-11000920D01*
X203973500Y-11039020D01*
X203884600Y-11122840D01*
X203762680Y-11242220D01*
X203622980Y-11381920D01*
X203518840Y-11486060D01*
X203394380Y-11613060D01*
X203315640Y-11696880D01*
X203272460Y-11752760D01*
X203257220Y-11785780D01*
X203262300Y-11806100D01*
X203290240Y-11851820D01*
X203356280Y-11950880D01*
X203447720Y-12088040D01*
X203556940Y-12245520D01*
X203648380Y-12380140D01*
X203744900Y-12530000D01*
X203808400Y-12636680D01*
X203831260Y-12690020D01*
X203826180Y-12712880D01*
X203793160Y-12799240D01*
X203739820Y-12933860D01*
X203673780Y-13091340D01*
X203516300Y-13446940D01*
X203282620Y-13490120D01*
X203142920Y-13518060D01*
X202944800Y-13556160D01*
X202756840Y-13591720D01*
X202462200Y-13650140D01*
X202452040Y-14732180D01*
X202497760Y-14752500D01*
X202540940Y-14765200D01*
X202650160Y-14788060D01*
X202805100Y-14818540D01*
X202990520Y-14854100D01*
X203145460Y-14884580D01*
X203305480Y-14912520D01*
X203417240Y-14935380D01*
X203468040Y-14945540D01*
X203480740Y-14963320D01*
X203521380Y-15039520D01*
X203577260Y-15161440D01*
X203638220Y-15308760D01*
X203701720Y-15458620D01*
X203757600Y-15598320D01*
X203798240Y-15705000D01*
X203810940Y-15760880D01*
X203790620Y-15804060D01*
X203729660Y-15895500D01*
X203643300Y-16027580D01*
X203536620Y-16185060D01*
X203427400Y-16342540D01*
X203338500Y-16477160D01*
X203275000Y-16573680D01*
X203249600Y-16616860D01*
X203262300Y-16647340D01*
X203323260Y-16723540D01*
X203442640Y-16845460D01*
X203617900Y-17020720D01*
X203648380Y-17048660D01*
X203788080Y-17183280D01*
X203907460Y-17292500D01*
X203988740Y-17366160D01*
X204026840Y-17391560D01*
D11*
X192278249Y-29821751D02*
G75*
G02X192000000Y-29150000I671751J671751D01*
G01*
X192278249Y-48778249D02*
G75*
G03X192000000Y-49450000I671751J-671751D01*
G01*
X194700000Y-52150000D02*
G75*
G02X192000000Y-49450000I0J2700000D01*
G01*
X194700000Y-26450000D02*
G75*
G03X192000000Y-29150000I0J-2700000D01*
G01*
X198850000Y-26450000D02*
X194650000Y-26450000D01*
X198850000Y-52150000D02*
X194650000Y-52150000D01*
X208350000Y-26450000D02*
X205050000Y-26450000D01*
X214200000Y-35350000D02*
X208350000Y-26450000D01*
X215000000Y-35350000D02*
X214200000Y-35350000D01*
X215000000Y-43250000D02*
X215000000Y-35350000D01*
X215000000Y-43250000D02*
X214200000Y-43250000D01*
X214200000Y-43250000D02*
X208350000Y-52150000D01*
X208350000Y-52150000D02*
X205050000Y-52150000D01*
X207790000Y-61360000D02*
X207790000Y-62575000D01*
X207850000Y-57400000D02*
X207850000Y-55140000D01*
X208350000Y-57400000D02*
X208350000Y-55140000D01*
X210950000Y-59000000D02*
X211950000Y-59000000D01*
X210950000Y-57400000D02*
X210950000Y-59000000D01*
X211950000Y-57400000D02*
X210950000Y-57400000D01*
X211950000Y-59000000D02*
X211950000Y-57400000D01*
X208350000Y-59000000D02*
X207350000Y-59000000D01*
X208350000Y-57400000D02*
X208350000Y-59000000D01*
X207350000Y-57400000D02*
X208350000Y-57400000D01*
X207350000Y-59000000D02*
X207350000Y-57400000D01*
X212710000Y-61360000D02*
X211790000Y-61360000D01*
X206590000Y-61360000D02*
X207510000Y-61360000D01*
X210150000Y-59500000D02*
X210150000Y-55140000D01*
X209150000Y-59500000D02*
X210150000Y-59500000D01*
X209150000Y-55140000D02*
X209150000Y-59500000D01*
X211790000Y-61360000D02*
X211510000Y-61360000D01*
X211790000Y-62960000D02*
X211790000Y-61360000D01*
X212710000Y-62960000D02*
X211790000Y-62960000D01*
X212710000Y-55140000D02*
X212710000Y-62960000D01*
X206590000Y-55140000D02*
X212710000Y-55140000D01*
X206590000Y-62960000D02*
X206590000Y-55140000D01*
X207510000Y-62960000D02*
X206590000Y-62960000D01*
X207510000Y-61360000D02*
X207510000Y-62960000D01*
X207790000Y-61360000D02*
X207510000Y-61360000D01*
D13*
X156258571Y-38065714D02*
X156306190Y-38208571D01*
X156353809Y-38256190D01*
X156449047Y-38303809D01*
X156591904Y-38303809D01*
X156687142Y-38256190D01*
X156734761Y-38208571D01*
X156782380Y-38113333D01*
X156782380Y-37732380D01*
X155782380Y-37732380D01*
X155782380Y-38065714D01*
X155830000Y-38160952D01*
X155877619Y-38208571D01*
X155972857Y-38256190D01*
X156068095Y-38256190D01*
X156163333Y-38208571D01*
X156210952Y-38160952D01*
X156258571Y-38065714D01*
X156258571Y-37732380D01*
X156496666Y-38684761D02*
X156496666Y-39160952D01*
X156782380Y-38589523D02*
X155782380Y-38922857D01*
X156782380Y-39256190D01*
X155782380Y-39446666D02*
X155782380Y-40018095D01*
X156782380Y-39732380D02*
X155782380Y-39732380D01*
X156782380Y-40875238D02*
X156782380Y-40303809D01*
X156782380Y-40589523D02*
X155782380Y-40589523D01*
X155925238Y-40494285D01*
X156020476Y-40399047D01*
X156068095Y-40303809D01*
X149963333Y-63482380D02*
X149963333Y-64196666D01*
X150010952Y-64339523D01*
X150106190Y-64434761D01*
X150249047Y-64482380D01*
X150344285Y-64482380D01*
X148963333Y-64482380D02*
X149534761Y-64482380D01*
X149249047Y-64482380D02*
X149249047Y-63482380D01*
X149344285Y-63625238D01*
X149439523Y-63720476D01*
X149534761Y-63768095D01*
X186228571Y-38085714D02*
X186276190Y-38228571D01*
X186323809Y-38276190D01*
X186419047Y-38323809D01*
X186561904Y-38323809D01*
X186657142Y-38276190D01*
X186704761Y-38228571D01*
X186752380Y-38133333D01*
X186752380Y-37752380D01*
X185752380Y-37752380D01*
X185752380Y-38085714D01*
X185800000Y-38180952D01*
X185847619Y-38228571D01*
X185942857Y-38276190D01*
X186038095Y-38276190D01*
X186133333Y-38228571D01*
X186180952Y-38180952D01*
X186228571Y-38085714D01*
X186228571Y-37752380D01*
X186466666Y-38704761D02*
X186466666Y-39180952D01*
X186752380Y-38609523D02*
X185752380Y-38942857D01*
X186752380Y-39276190D01*
X185752380Y-39466666D02*
X185752380Y-40038095D01*
X186752380Y-39752380D02*
X185752380Y-39752380D01*
X186752380Y-40895238D02*
X186752380Y-40323809D01*
X186752380Y-40609523D02*
X185752380Y-40609523D01*
X185895238Y-40514285D01*
X185990476Y-40419047D01*
X186038095Y-40323809D01*
X179933333Y-63502380D02*
X179933333Y-64216666D01*
X179980952Y-64359523D01*
X180076190Y-64454761D01*
X180219047Y-64502380D01*
X180314285Y-64502380D01*
X178933333Y-64502380D02*
X179504761Y-64502380D01*
X179219047Y-64502380D02*
X179219047Y-63502380D01*
X179314285Y-63645238D01*
X179409523Y-63740476D01*
X179504761Y-63788095D01*
X216278571Y-38085714D02*
X216326190Y-38228571D01*
X216373809Y-38276190D01*
X216469047Y-38323809D01*
X216611904Y-38323809D01*
X216707142Y-38276190D01*
X216754761Y-38228571D01*
X216802380Y-38133333D01*
X216802380Y-37752380D01*
X215802380Y-37752380D01*
X215802380Y-38085714D01*
X215850000Y-38180952D01*
X215897619Y-38228571D01*
X215992857Y-38276190D01*
X216088095Y-38276190D01*
X216183333Y-38228571D01*
X216230952Y-38180952D01*
X216278571Y-38085714D01*
X216278571Y-37752380D01*
X216516666Y-38704761D02*
X216516666Y-39180952D01*
X216802380Y-38609523D02*
X215802380Y-38942857D01*
X216802380Y-39276190D01*
X215802380Y-39466666D02*
X215802380Y-40038095D01*
X216802380Y-39752380D02*
X215802380Y-39752380D01*
X216802380Y-40895238D02*
X216802380Y-40323809D01*
X216802380Y-40609523D02*
X215802380Y-40609523D01*
X215945238Y-40514285D01*
X216040476Y-40419047D01*
X216088095Y-40323809D01*
X209983333Y-63502380D02*
X209983333Y-64216666D01*
X210030952Y-64359523D01*
X210126190Y-64454761D01*
X210269047Y-64502380D01*
X210364285Y-64502380D01*
X208983333Y-64502380D02*
X209554761Y-64502380D01*
X209269047Y-64502380D02*
X209269047Y-63502380D01*
X209364285Y-63645238D01*
X209459523Y-63740476D01*
X209554761Y-63788095D01*
M02*
